%TF.GenerationSoftware,KiCad,Pcbnew,9.0.5*%
%TF.CreationDate,2025-11-06T13:30:05-07:00*%
%TF.ProjectId,Target_Slave,54617267-6574-45f5-936c-6176652e6b69,A*%
%TF.SameCoordinates,Original*%
%TF.FileFunction,Soldermask,Top*%
%TF.FilePolarity,Negative*%
%FSLAX46Y46*%
G04 Gerber Fmt 4.6, Leading zero omitted, Abs format (unit mm)*
G04 Created by KiCad (PCBNEW 9.0.5) date 2025-11-06 13:30:05*
%MOMM*%
%LPD*%
G01*
G04 APERTURE LIST*
G04 Aperture macros list*
%AMRoundRect*
0 Rectangle with rounded corners*
0 $1 Rounding radius*
0 $2 $3 $4 $5 $6 $7 $8 $9 X,Y pos of 4 corners*
0 Add a 4 corners polygon primitive as box body*
4,1,4,$2,$3,$4,$5,$6,$7,$8,$9,$2,$3,0*
0 Add four circle primitives for the rounded corners*
1,1,$1+$1,$2,$3*
1,1,$1+$1,$4,$5*
1,1,$1+$1,$6,$7*
1,1,$1+$1,$8,$9*
0 Add four rect primitives between the rounded corners*
20,1,$1+$1,$2,$3,$4,$5,0*
20,1,$1+$1,$4,$5,$6,$7,0*
20,1,$1+$1,$6,$7,$8,$9,0*
20,1,$1+$1,$8,$9,$2,$3,0*%
G04 Aperture macros list end*
%ADD10RoundRect,0.476250X-0.476250X0.476250X-0.476250X-0.476250X0.476250X-0.476250X0.476250X0.476250X0*%
%ADD11RoundRect,0.250000X0.475000X-0.337500X0.475000X0.337500X-0.475000X0.337500X-0.475000X-0.337500X0*%
%ADD12RoundRect,0.250000X-0.325000X-0.450000X0.325000X-0.450000X0.325000X0.450000X-0.325000X0.450000X0*%
%ADD13RoundRect,0.476250X-0.476250X-0.476250X0.476250X-0.476250X0.476250X0.476250X-0.476250X0.476250X0*%
%ADD14R,7.112000X7.112000*%
%ADD15RoundRect,0.250000X0.450000X-0.350000X0.450000X0.350000X-0.450000X0.350000X-0.450000X-0.350000X0*%
%ADD16RoundRect,0.250000X-0.337500X-0.475000X0.337500X-0.475000X0.337500X0.475000X-0.337500X0.475000X0*%
%ADD17RoundRect,0.250000X0.350000X0.450000X-0.350000X0.450000X-0.350000X-0.450000X0.350000X-0.450000X0*%
%ADD18RoundRect,0.476250X0.476250X0.476250X-0.476250X0.476250X-0.476250X-0.476250X0.476250X-0.476250X0*%
%ADD19RoundRect,0.250000X-0.350000X-0.450000X0.350000X-0.450000X0.350000X0.450000X-0.350000X0.450000X0*%
%ADD20RoundRect,0.250000X-0.475000X0.337500X-0.475000X-0.337500X0.475000X-0.337500X0.475000X0.337500X0*%
%ADD21RoundRect,0.250000X0.450000X-0.325000X0.450000X0.325000X-0.450000X0.325000X-0.450000X-0.325000X0*%
%ADD22RoundRect,0.250000X0.337500X0.475000X-0.337500X0.475000X-0.337500X-0.475000X0.337500X-0.475000X0*%
%ADD23RoundRect,0.090000X0.660000X0.360000X-0.660000X0.360000X-0.660000X-0.360000X0.660000X-0.360000X0*%
%ADD24R,1.900000X0.380000*%
%ADD25C,1.524000*%
G04 APERTURE END LIST*
D10*
%TO.C,J4*%
X248920000Y-64135000D03*
X248920000Y-66675000D03*
X248920000Y-69215000D03*
X248920000Y-71755000D03*
X248920000Y-74295000D03*
X248920000Y-76835000D03*
%TD*%
D11*
%TO.C,C1*%
X213614000Y-76221500D03*
X213614000Y-74146500D03*
%TD*%
D12*
%TO.C,D5*%
X229090000Y-64897000D03*
X231140000Y-64897000D03*
%TD*%
D13*
%TO.C,J2*%
X233045000Y-48895000D03*
X235585000Y-48895000D03*
X238125000Y-48895000D03*
%TD*%
%TO.C,J7*%
X232410000Y-84455000D03*
X234950000Y-84455000D03*
X237490000Y-84455000D03*
%TD*%
D14*
%TO.C,REF\u002A\u002A*%
X180594000Y-91821000D03*
%TD*%
D10*
%TO.C,J1*%
X194310000Y-48895000D03*
X194310000Y-51435000D03*
X194310000Y-53975000D03*
X194310000Y-56515000D03*
X194310000Y-59055000D03*
X194310000Y-61595000D03*
%TD*%
D13*
%TO.C,J5*%
X232410000Y-92075000D03*
X234950000Y-92075000D03*
X237490000Y-92075000D03*
%TD*%
%TO.C,TP8*%
X205613000Y-85852000D03*
%TD*%
D15*
%TO.C,R1*%
X188722000Y-68022000D03*
X188722000Y-66022000D03*
%TD*%
D13*
%TO.C,TP1*%
X202438000Y-66294000D03*
%TD*%
D16*
%TO.C,C3*%
X223520000Y-73025000D03*
X225595000Y-73025000D03*
%TD*%
D17*
%TO.C,R5*%
X225806000Y-64897000D03*
X223806000Y-64897000D03*
%TD*%
D13*
%TO.C,J9*%
X208280000Y-92075000D03*
X210820000Y-92075000D03*
X213360000Y-92075000D03*
X215900000Y-92075000D03*
X218440000Y-92075000D03*
X220980000Y-92075000D03*
%TD*%
D12*
%TO.C,D4*%
X192015000Y-72390000D03*
X194065000Y-72390000D03*
%TD*%
D14*
%TO.C,REF\u002A\u002A*%
X248666000Y-91694000D03*
%TD*%
D13*
%TO.C,TP2*%
X202438000Y-61468000D03*
%TD*%
%TO.C,J6*%
X232410000Y-76835000D03*
X234950000Y-76835000D03*
X237490000Y-76835000D03*
%TD*%
D18*
%TO.C,J8*%
X196850000Y-92075000D03*
X194310000Y-92075000D03*
X191770000Y-92075000D03*
X189230000Y-92075000D03*
%TD*%
D16*
%TO.C,C5*%
X232875000Y-69850000D03*
X234950000Y-69850000D03*
%TD*%
D19*
%TO.C,R2*%
X223298000Y-58547000D03*
X225298000Y-58547000D03*
%TD*%
D12*
%TO.C,D3*%
X192024000Y-77470000D03*
X194074000Y-77470000D03*
%TD*%
D10*
%TO.C,J3*%
X180340000Y-64135000D03*
X180340000Y-66675000D03*
X180340000Y-69215000D03*
X180340000Y-71755000D03*
X180340000Y-74295000D03*
X180340000Y-76835000D03*
%TD*%
D20*
%TO.C,C2*%
X192532000Y-66022000D03*
X192532000Y-68097000D03*
%TD*%
D17*
%TO.C,R4*%
X188731000Y-72390000D03*
X186731000Y-72390000D03*
%TD*%
%TO.C,R3*%
X188731000Y-77470000D03*
X186731000Y-77470000D03*
%TD*%
D16*
%TO.C,C7*%
X232875000Y-81280000D03*
X234950000Y-81280000D03*
%TD*%
D13*
%TO.C,TP7*%
X201803000Y-85852000D03*
%TD*%
%TO.C,TP3*%
X188087000Y-87503000D03*
%TD*%
D21*
%TO.C,D1*%
X196342000Y-68072000D03*
X196342000Y-66022000D03*
%TD*%
D13*
%TO.C,TP10*%
X239395000Y-69850000D03*
%TD*%
D22*
%TO.C,C6*%
X198925000Y-87884000D03*
X196850000Y-87884000D03*
%TD*%
D16*
%TO.C,C4*%
X232875000Y-88900000D03*
X234950000Y-88900000D03*
%TD*%
D23*
%TO.C,D2*%
X235585000Y-58545000D03*
X235585000Y-55245000D03*
X230685000Y-55245000D03*
X230685000Y-58545000D03*
%TD*%
D18*
%TO.C,JP1*%
X217170000Y-61595000D03*
X214630000Y-61595000D03*
X212090000Y-61595000D03*
%TD*%
D13*
%TO.C,TP6*%
X189992000Y-59055000D03*
%TD*%
D24*
%TO.C,U1*%
X198465001Y-71975000D03*
X198465001Y-72625000D03*
X198465001Y-73275000D03*
X198465001Y-73925000D03*
X198465001Y-74575000D03*
X198465001Y-75225000D03*
X198465001Y-75875000D03*
X198465001Y-76525000D03*
X198465001Y-77175000D03*
X198465001Y-77825000D03*
X198465001Y-78475000D03*
X198465001Y-79125000D03*
X198465001Y-79775000D03*
X198465001Y-80425000D03*
X206664999Y-80425000D03*
X206664999Y-79775000D03*
X206664999Y-79125000D03*
X206664999Y-78475000D03*
X206664999Y-77825000D03*
X206664999Y-77175000D03*
X206664999Y-76525000D03*
X206664999Y-75875000D03*
X206664999Y-75225000D03*
X206664999Y-74575000D03*
X206664999Y-73925000D03*
X206664999Y-73275000D03*
X206664999Y-72625000D03*
X206664999Y-71975000D03*
%TD*%
D13*
%TO.C,J10*%
X208280000Y-48895000D03*
X210820000Y-48895000D03*
X213360000Y-48895000D03*
X215900000Y-48895000D03*
X218440000Y-48895000D03*
X220980000Y-48895000D03*
%TD*%
%TO.C,TP5*%
X219964000Y-56896000D03*
%TD*%
%TO.C,TP4*%
X188087000Y-81788000D03*
%TD*%
D14*
%TO.C,REF\u002A\u002A*%
X180594000Y-49149000D03*
%TD*%
D20*
%TO.C,C9*%
X239522000Y-62822000D03*
X239522000Y-64897000D03*
%TD*%
D13*
%TO.C,TP9*%
X207518000Y-67183000D03*
%TD*%
D11*
%TO.C,C8*%
X234950000Y-64897000D03*
X234950000Y-62822000D03*
%TD*%
D14*
%TO.C,REF\u002A\u002A*%
X248666000Y-49149000D03*
%TD*%
D25*
%TO.C,U2*%
X220027500Y-67945000D03*
X220027500Y-70485000D03*
X220027500Y-73025000D03*
%TD*%
M02*
