M48
; DRILL file {KiCad 9.0.5} date 2025-11-06T13:29:38-0700
; FORMAT={-:-/ absolute / inch / decimal}
; #@! TF.CreationDate,2025-11-06T13:29:38-07:00
; #@! TF.GenerationSoftware,Kicad,Pcbnew,9.0.5
; #@! TF.FileFunction,Plated,1,2,PTH
FMAT,2
INCH
; #@! TA.AperFunction,Plated,PTH,ViaDrill
T1C0.0200
; #@! TA.AperFunction,Plated,PTH,ComponentDrill
T2C0.0200
; #@! TA.AperFunction,Plated,PTH,ComponentDrill
T3C0.0400
; #@! TA.AperFunction,Plated,PTH,ComponentDrill
T4C0.0500
; #@! TA.AperFunction,Plated,PTH,ComponentDrill
T5C0.1500
%
G90
G05
T1
X8.945Y-2.175
T2
X7.3516Y-2.85
X7.3516Y-3.05
X7.58Y-2.681
X7.73Y-2.68
X7.8317Y-3.46
X8.41Y-3.0008
X8.7913Y-2.305
X8.8113Y-2.555
X8.8817Y-2.875
X9.1683Y-2.75
X9.1683Y-3.2
X9.1683Y-3.5
X9.25Y-2.4733
X9.43Y-2.555
T3
X8.6625Y-2.675
X8.6625Y-2.775
X8.6625Y-2.875
T4
X7.1Y-2.525
X7.1Y-2.625
X7.1Y-2.725
X7.1Y-2.825
X7.1Y-2.925
X7.1Y-3.025
X7.405Y-3.22
X7.405Y-3.445
X7.45Y-3.625
X7.48Y-2.325
X7.55Y-3.625
X7.65Y-1.925
X7.65Y-2.025
X7.65Y-2.125
X7.65Y-2.225
X7.65Y-2.325
X7.65Y-2.425
X7.65Y-3.625
X7.75Y-3.625
X7.945Y-3.38
X7.97Y-2.42
X7.97Y-2.61
X8.095Y-3.38
X8.17Y-2.645
X8.2Y-1.925
X8.2Y-3.625
X8.3Y-1.925
X8.3Y-3.625
X8.35Y-2.425
X8.4Y-1.925
X8.4Y-3.625
X8.45Y-2.425
X8.5Y-1.925
X8.5Y-3.625
X8.55Y-2.425
X8.6Y-1.925
X8.6Y-3.625
X8.66Y-2.24
X8.7Y-1.925
X8.7Y-3.625
X9.15Y-3.025
X9.15Y-3.325
X9.15Y-3.625
X9.175Y-1.925
X9.25Y-3.025
X9.25Y-3.325
X9.25Y-3.625
X9.275Y-1.925
X9.35Y-3.025
X9.35Y-3.325
X9.35Y-3.625
X9.375Y-1.925
X9.425Y-2.75
X9.8Y-2.525
X9.8Y-2.625
X9.8Y-2.725
X9.8Y-2.825
X9.8Y-2.925
X9.8Y-3.025
T5
X7.11Y-1.935
X7.11Y-3.615
X9.79Y-1.935
X9.79Y-3.61
M30
