%TF.GenerationSoftware,KiCad,Pcbnew,9.0.5*%
%TF.CreationDate,2025-11-14T12:58:57-07:00*%
%TF.ProjectId,Project,50726f6a-6563-4742-9e6b-696361645f70,A*%
%TF.SameCoordinates,Original*%
%TF.FileFunction,Paste,Top*%
%TF.FilePolarity,Positive*%
%FSLAX46Y46*%
G04 Gerber Fmt 4.6, Leading zero omitted, Abs format (unit mm)*
G04 Created by KiCad (PCBNEW 9.0.5) date 2025-11-14 12:58:57*
%MOMM*%
%LPD*%
G01*
G04 APERTURE LIST*
G04 Aperture macros list*
%AMRoundRect*
0 Rectangle with rounded corners*
0 $1 Rounding radius*
0 $2 $3 $4 $5 $6 $7 $8 $9 X,Y pos of 4 corners*
0 Add a 4 corners polygon primitive as box body*
4,1,4,$2,$3,$4,$5,$6,$7,$8,$9,$2,$3,0*
0 Add four circle primitives for the rounded corners*
1,1,$1+$1,$2,$3*
1,1,$1+$1,$4,$5*
1,1,$1+$1,$6,$7*
1,1,$1+$1,$8,$9*
0 Add four rect primitives between the rounded corners*
20,1,$1+$1,$2,$3,$4,$5,0*
20,1,$1+$1,$4,$5,$6,$7,0*
20,1,$1+$1,$6,$7,$8,$9,0*
20,1,$1+$1,$8,$9,$2,$3,0*%
G04 Aperture macros list end*
%ADD10R,1.825000X0.700000*%
%ADD11R,2.000000X1.500000*%
%ADD12R,1.350000X2.000000*%
%ADD13R,1.430000X2.500000*%
%ADD14R,0.400000X2.870000*%
%ADD15RoundRect,0.250000X-0.450000X0.350000X-0.450000X-0.350000X0.450000X-0.350000X0.450000X0.350000X0*%
%ADD16RoundRect,0.150000X0.825000X0.150000X-0.825000X0.150000X-0.825000X-0.150000X0.825000X-0.150000X0*%
%ADD17RoundRect,0.250000X0.337500X0.475000X-0.337500X0.475000X-0.337500X-0.475000X0.337500X-0.475000X0*%
%ADD18RoundRect,0.250000X-0.325000X-0.450000X0.325000X-0.450000X0.325000X0.450000X-0.325000X0.450000X0*%
%ADD19RoundRect,0.162500X-0.162500X0.617500X-0.162500X-0.617500X0.162500X-0.617500X0.162500X0.617500X0*%
%ADD20RoundRect,0.162500X-0.617500X-0.162500X0.617500X-0.162500X0.617500X0.162500X-0.617500X0.162500X0*%
%ADD21RoundRect,0.375000X0.625000X0.375000X-0.625000X0.375000X-0.625000X-0.375000X0.625000X-0.375000X0*%
%ADD22RoundRect,0.500000X0.500000X1.400000X-0.500000X1.400000X-0.500000X-1.400000X0.500000X-1.400000X0*%
%ADD23RoundRect,0.250000X0.350000X0.450000X-0.350000X0.450000X-0.350000X-0.450000X0.350000X-0.450000X0*%
%ADD24RoundRect,0.250000X-0.350000X-0.450000X0.350000X-0.450000X0.350000X0.450000X-0.350000X0.450000X0*%
%ADD25RoundRect,0.250000X0.450000X-0.350000X0.450000X0.350000X-0.450000X0.350000X-0.450000X-0.350000X0*%
%ADD26RoundRect,0.150000X0.150000X-0.587500X0.150000X0.587500X-0.150000X0.587500X-0.150000X-0.587500X0*%
%ADD27RoundRect,0.250000X-0.450000X0.325000X-0.450000X-0.325000X0.450000X-0.325000X0.450000X0.325000X0*%
%ADD28R,3.048000X4.572000*%
%ADD29RoundRect,0.250000X-0.337500X-0.475000X0.337500X-0.475000X0.337500X0.475000X-0.337500X0.475000X0*%
%ADD30RoundRect,0.250000X-0.475000X0.337500X-0.475000X-0.337500X0.475000X-0.337500X0.475000X0.337500X0*%
G04 APERTURE END LIST*
D10*
%TO.C,J7*%
X94473000Y-41812000D03*
D11*
X94573000Y-43132000D03*
D12*
X94723000Y-41062000D03*
D13*
X96513000Y-39862000D03*
X98433000Y-39862000D03*
D12*
X100203000Y-41062000D03*
D11*
X100323000Y-43112000D03*
D10*
X100423000Y-41812000D03*
D14*
X96173000Y-43622000D03*
X96823000Y-43622000D03*
X97473000Y-43622000D03*
X98123000Y-43622000D03*
X98773000Y-43622000D03*
%TD*%
D15*
%TO.C,R6*%
X79756000Y-88916000D03*
%TD*%
D16*
%TO.C,U4*%
X86422000Y-97917000D03*
X86422000Y-96647000D03*
X86422000Y-95377000D03*
X86422000Y-94107000D03*
X81472000Y-94107000D03*
X81472000Y-95377000D03*
X81472000Y-96647000D03*
X81472000Y-97917000D03*
%TD*%
D17*
%TO.C,C3*%
X75060900Y-97790000D03*
X77135900Y-97790000D03*
%TD*%
D18*
%TO.C,D3*%
X105375600Y-40919400D03*
X107425600Y-40919400D03*
%TD*%
%TO.C,D2*%
X116323000Y-40005000D03*
X118373000Y-40005000D03*
%TD*%
D19*
%TO.C,U3*%
X77163700Y-91690200D03*
X76213700Y-91690200D03*
X75263700Y-91690200D03*
X75263700Y-94390200D03*
X76213700Y-94390200D03*
X77163700Y-94390200D03*
%TD*%
D20*
%TO.C,U2*%
X117950000Y-49662000D03*
X117950000Y-50612000D03*
X117950000Y-51562000D03*
X120650000Y-51562000D03*
X120650000Y-49662000D03*
%TD*%
D21*
%TO.C,U1*%
X161138000Y-52211000D03*
X161138000Y-49911000D03*
D22*
X154838000Y-49911000D03*
D21*
X161138000Y-47611000D03*
%TD*%
D23*
%TO.C,R29*%
X87233000Y-46863000D03*
%TD*%
D15*
%TO.C,R26*%
X84709000Y-80883000D03*
%TD*%
D24*
%TO.C,R25*%
X67640200Y-71297800D03*
%TD*%
%TO.C,R24*%
X81203800Y-82956400D03*
%TD*%
%TO.C,R23*%
X77962000Y-86487000D03*
%TD*%
D25*
%TO.C,R20*%
X75184000Y-43275000D03*
X75184000Y-41275000D03*
%TD*%
D24*
%TO.C,R19*%
X107426000Y-90424000D03*
%TD*%
%TO.C,R18*%
X101203000Y-90170000D03*
%TD*%
D15*
%TO.C,R17*%
X108077000Y-100981000D03*
%TD*%
%TO.C,R16*%
X117856000Y-100981000D03*
%TD*%
%TO.C,R15*%
X126745214Y-101106363D03*
%TD*%
D25*
%TO.C,R11*%
X101346000Y-102743000D03*
%TD*%
D15*
%TO.C,R9*%
X97917000Y-102743000D03*
%TD*%
D25*
%TO.C,R7*%
X90424000Y-100695000D03*
X90424000Y-98695000D03*
%TD*%
%TO.C,R4*%
X81788000Y-90916000D03*
X81788000Y-88916000D03*
%TD*%
D26*
%TO.C,Q4*%
X67630000Y-67661000D03*
X69530000Y-67661000D03*
X68580000Y-65786000D03*
%TD*%
D27*
%TO.C,L2*%
X104876600Y-51181000D03*
%TD*%
D28*
%TO.C,L1*%
X75057000Y-103098600D03*
X80137000Y-103098600D03*
%TD*%
D18*
%TO.C,D8*%
X89399000Y-40894000D03*
X91449000Y-40894000D03*
%TD*%
%TO.C,D7*%
X89399000Y-44196000D03*
X91449000Y-44196000D03*
%TD*%
D29*
%TO.C,C9*%
X86592500Y-90678000D03*
%TD*%
D30*
%TO.C,C8*%
X86893400Y-103098600D03*
%TD*%
D17*
%TO.C,C6*%
X69592100Y-88011000D03*
%TD*%
%TO.C,C5*%
X69598148Y-91658322D03*
%TD*%
D30*
%TO.C,C1*%
X133858000Y-51562000D03*
%TD*%
D29*
%TO.C,C2*%
X166729500Y-49911000D03*
%TD*%
M02*
