%TF.GenerationSoftware,KiCad,Pcbnew,9.0.5*%
%TF.CreationDate,2025-11-14T12:58:57-07:00*%
%TF.ProjectId,Project,50726f6a-6563-4742-9e6b-696361645f70,A*%
%TF.SameCoordinates,Original*%
%TF.FileFunction,Copper,L1,Top*%
%TF.FilePolarity,Positive*%
%FSLAX46Y46*%
G04 Gerber Fmt 4.6, Leading zero omitted, Abs format (unit mm)*
G04 Created by KiCad (PCBNEW 9.0.5) date 2025-11-14 12:58:57*
%MOMM*%
%LPD*%
G01*
G04 APERTURE LIST*
G04 Aperture macros list*
%AMRoundRect*
0 Rectangle with rounded corners*
0 $1 Rounding radius*
0 $2 $3 $4 $5 $6 $7 $8 $9 X,Y pos of 4 corners*
0 Add a 4 corners polygon primitive as box body*
4,1,4,$2,$3,$4,$5,$6,$7,$8,$9,$2,$3,0*
0 Add four circle primitives for the rounded corners*
1,1,$1+$1,$2,$3*
1,1,$1+$1,$4,$5*
1,1,$1+$1,$6,$7*
1,1,$1+$1,$8,$9*
0 Add four rect primitives between the rounded corners*
20,1,$1+$1,$2,$3,$4,$5,0*
20,1,$1+$1,$4,$5,$6,$7,0*
20,1,$1+$1,$6,$7,$8,$9,0*
20,1,$1+$1,$8,$9,$2,$3,0*%
G04 Aperture macros list end*
%TA.AperFunction,ComponentPad*%
%ADD10RoundRect,0.476250X0.476250X-0.476250X0.476250X0.476250X-0.476250X0.476250X-0.476250X-0.476250X0*%
%TD*%
%TA.AperFunction,ComponentPad*%
%ADD11RoundRect,0.476250X-0.476250X-0.476250X0.476250X-0.476250X0.476250X0.476250X-0.476250X0.476250X0*%
%TD*%
%TA.AperFunction,HeatsinkPad*%
%ADD12C,2.032000*%
%TD*%
%TA.AperFunction,SMDPad,CuDef*%
%ADD13R,1.825000X0.700000*%
%TD*%
%TA.AperFunction,SMDPad,CuDef*%
%ADD14R,2.000000X1.500000*%
%TD*%
%TA.AperFunction,SMDPad,CuDef*%
%ADD15R,1.350000X2.000000*%
%TD*%
%TA.AperFunction,HeatsinkPad*%
%ADD16C,1.397000*%
%TD*%
%TA.AperFunction,SMDPad,CuDef*%
%ADD17R,1.430000X2.500000*%
%TD*%
%TA.AperFunction,SMDPad,CuDef*%
%ADD18R,0.400000X2.870000*%
%TD*%
%TA.AperFunction,ComponentPad*%
%ADD19R,1.905000X0.812800*%
%TD*%
%TA.AperFunction,ComponentPad*%
%ADD20RoundRect,0.250000X-0.450000X0.350000X-0.450000X-0.350000X0.450000X-0.350000X0.450000X0.350000X0*%
%TD*%
%TA.AperFunction,SMDPad,CuDef*%
%ADD21RoundRect,0.250000X-0.450000X0.350000X-0.450000X-0.350000X0.450000X-0.350000X0.450000X0.350000X0*%
%TD*%
%TA.AperFunction,SMDPad,CuDef*%
%ADD22RoundRect,0.150000X0.825000X0.150000X-0.825000X0.150000X-0.825000X-0.150000X0.825000X-0.150000X0*%
%TD*%
%TA.AperFunction,SMDPad,CuDef*%
%ADD23RoundRect,0.250000X0.337500X0.475000X-0.337500X0.475000X-0.337500X-0.475000X0.337500X-0.475000X0*%
%TD*%
%TA.AperFunction,ComponentPad*%
%ADD24RoundRect,0.250000X-0.350000X-0.450000X0.350000X-0.450000X0.350000X0.450000X-0.350000X0.450000X0*%
%TD*%
%TA.AperFunction,SMDPad,CuDef*%
%ADD25RoundRect,0.250000X-0.325000X-0.450000X0.325000X-0.450000X0.325000X0.450000X-0.325000X0.450000X0*%
%TD*%
%TA.AperFunction,ComponentPad*%
%ADD26C,3.048000*%
%TD*%
%TA.AperFunction,ComponentPad*%
%ADD27RoundRect,0.250000X0.450000X-0.350000X0.450000X0.350000X-0.450000X0.350000X-0.450000X-0.350000X0*%
%TD*%
%TA.AperFunction,ComponentPad*%
%ADD28R,6.731000X6.731000*%
%TD*%
%TA.AperFunction,ComponentPad*%
%ADD29R,7.112000X7.112000*%
%TD*%
%TA.AperFunction,ComponentPad*%
%ADD30RoundRect,0.476250X0.476250X0.476250X-0.476250X0.476250X-0.476250X-0.476250X0.476250X-0.476250X0*%
%TD*%
%TA.AperFunction,ComponentPad*%
%ADD31C,2.413000*%
%TD*%
%TA.AperFunction,ComponentPad*%
%ADD32RoundRect,1.025000X1.025000X1.025000X-1.025000X1.025000X-1.025000X-1.025000X1.025000X-1.025000X0*%
%TD*%
%TA.AperFunction,ComponentPad*%
%ADD33C,4.100000*%
%TD*%
%TA.AperFunction,SMDPad,CuDef*%
%ADD34RoundRect,0.162500X-0.162500X0.617500X-0.162500X-0.617500X0.162500X-0.617500X0.162500X0.617500X0*%
%TD*%
%TA.AperFunction,SMDPad,CuDef*%
%ADD35RoundRect,0.162500X-0.617500X-0.162500X0.617500X-0.162500X0.617500X0.162500X-0.617500X0.162500X0*%
%TD*%
%TA.AperFunction,SMDPad,CuDef*%
%ADD36RoundRect,0.375000X0.625000X0.375000X-0.625000X0.375000X-0.625000X-0.375000X0.625000X-0.375000X0*%
%TD*%
%TA.AperFunction,SMDPad,CuDef*%
%ADD37RoundRect,0.500000X0.500000X1.400000X-0.500000X1.400000X-0.500000X-1.400000X0.500000X-1.400000X0*%
%TD*%
%TA.AperFunction,ComponentPad*%
%ADD38C,2.000000*%
%TD*%
%TA.AperFunction,ComponentPad*%
%ADD39C,2.100000*%
%TD*%
%TA.AperFunction,ComponentPad*%
%ADD40C,1.750000*%
%TD*%
%TA.AperFunction,ComponentPad*%
%ADD41RoundRect,0.857250X2.635250X2.000250X-2.635250X2.000250X-2.635250X-2.000250X2.635250X-2.000250X0*%
%TD*%
%TA.AperFunction,SMDPad,CuDef*%
%ADD42RoundRect,0.250000X0.350000X0.450000X-0.350000X0.450000X-0.350000X-0.450000X0.350000X-0.450000X0*%
%TD*%
%TA.AperFunction,ComponentPad*%
%ADD43RoundRect,0.250000X0.350000X0.450000X-0.350000X0.450000X-0.350000X-0.450000X0.350000X-0.450000X0*%
%TD*%
%TA.AperFunction,SMDPad,CuDef*%
%ADD44RoundRect,0.250000X-0.350000X-0.450000X0.350000X-0.450000X0.350000X0.450000X-0.350000X0.450000X0*%
%TD*%
%TA.AperFunction,SMDPad,CuDef*%
%ADD45RoundRect,0.250000X0.450000X-0.350000X0.450000X0.350000X-0.450000X0.350000X-0.450000X-0.350000X0*%
%TD*%
%TA.AperFunction,SMDPad,CuDef*%
%ADD46RoundRect,0.150000X0.150000X-0.587500X0.150000X0.587500X-0.150000X0.587500X-0.150000X-0.587500X0*%
%TD*%
%TA.AperFunction,SMDPad,CuDef*%
%ADD47RoundRect,0.250000X-0.450000X0.325000X-0.450000X-0.325000X0.450000X-0.325000X0.450000X0.325000X0*%
%TD*%
%TA.AperFunction,ComponentPad*%
%ADD48RoundRect,0.250000X-0.450000X0.325000X-0.450000X-0.325000X0.450000X-0.325000X0.450000X0.325000X0*%
%TD*%
%TA.AperFunction,SMDPad,CuDef*%
%ADD49R,3.048000X4.572000*%
%TD*%
%TA.AperFunction,ComponentPad*%
%ADD50RoundRect,0.476250X-0.476250X0.476250X-0.476250X-0.476250X0.476250X-0.476250X0.476250X0.476250X0*%
%TD*%
%TA.AperFunction,ComponentPad*%
%ADD51RoundRect,0.250000X-0.475000X0.337500X-0.475000X-0.337500X0.475000X-0.337500X0.475000X0.337500X0*%
%TD*%
%TA.AperFunction,ComponentPad*%
%ADD52RoundRect,0.250000X0.337500X0.475000X-0.337500X0.475000X-0.337500X-0.475000X0.337500X-0.475000X0*%
%TD*%
%TA.AperFunction,SMDPad,CuDef*%
%ADD53RoundRect,0.250000X-0.337500X-0.475000X0.337500X-0.475000X0.337500X0.475000X-0.337500X0.475000X0*%
%TD*%
%TA.AperFunction,ComponentPad*%
%ADD54RoundRect,0.250000X-0.337500X-0.475000X0.337500X-0.475000X0.337500X0.475000X-0.337500X0.475000X0*%
%TD*%
%TA.AperFunction,SMDPad,CuDef*%
%ADD55RoundRect,0.250000X-0.475000X0.337500X-0.475000X-0.337500X0.475000X-0.337500X0.475000X0.337500X0*%
%TD*%
%TA.AperFunction,ComponentPad*%
%ADD56RoundRect,0.263772X-3.673228X-3.165228X3.673228X-3.165228X3.673228X3.165228X-3.673228X3.165228X0*%
%TD*%
%TA.AperFunction,ComponentPad*%
%ADD57RoundRect,0.273542X-3.663458X-3.282458X3.663458X-3.282458X3.663458X3.282458X-3.663458X3.282458X0*%
%TD*%
%TA.AperFunction,ViaPad*%
%ADD58C,0.600000*%
%TD*%
%TA.AperFunction,Conductor*%
%ADD59C,0.381000*%
%TD*%
%TA.AperFunction,Conductor*%
%ADD60C,0.889000*%
%TD*%
%TA.AperFunction,Conductor*%
%ADD61C,1.270000*%
%TD*%
%TA.AperFunction,Conductor*%
%ADD62C,0.762000*%
%TD*%
G04 APERTURE END LIST*
D10*
%TO.P,TP21,1*%
%TO.N,Net-(U6-RC1{slash}T1OSI{slash}CCP2)*%
X81026000Y-64008000D03*
%TD*%
%TO.P,TP20,1*%
%TO.N,Green PWM*%
X81026000Y-70231000D03*
%TD*%
%TO.P,TP18,1*%
%TO.N,Net-(U6-RC2{slash}P1A{slash}CCP1)*%
X81026000Y-67183000D03*
%TD*%
D11*
%TO.P,TP15,1*%
%TO.N,Net-(U4A-+)*%
X93091000Y-107569000D03*
%TD*%
%TO.P,TP12,1*%
%TO.N,Net-(U5-~{TRIG4})*%
X108839000Y-78613000D03*
%TD*%
%TO.P,TP8,1*%
%TO.N,Net-(U5-~{TRIG0})*%
X118999000Y-78613000D03*
%TD*%
%TO.P,TP9,1*%
%TO.N,Net-(U5-~{TRIG1})*%
X116459000Y-78613000D03*
%TD*%
%TO.P,TP10,1*%
%TO.N,Net-(U5-~{TRIG2})*%
X113919000Y-78613000D03*
%TD*%
%TO.P,TP11,1*%
%TO.N,Net-(U5-~{TRIG3})*%
X111379000Y-78613000D03*
%TD*%
%TO.P,TP17,1*%
%TO.N,AUD_ACT*%
X93980000Y-78486000D03*
%TD*%
%TO.P,TP14,1*%
%TO.N,Net-(U5-~{TRIG5})*%
X106299000Y-78613000D03*
%TD*%
%TO.P,TP23,1*%
%TO.N,TX*%
X79629000Y-54914800D03*
%TD*%
%TO.P,TP22,1*%
%TO.N,RX*%
X79629000Y-57531000D03*
%TD*%
%TO.P,TP19,1*%
%TO.N,Net-(Q4-G)*%
X67665600Y-75336400D03*
%TD*%
%TO.P,TP16,1*%
%TO.N,Net-(Q3-G)*%
X178435000Y-59055000D03*
%TD*%
%TO.P,TP13,1*%
%TO.N,Net-(Q2-G)*%
X81788000Y-75311000D03*
%TD*%
%TO.P,TP7,1*%
%TO.N,100kHz*%
X88646000Y-107569000D03*
%TD*%
%TO.P,TP6,1*%
%TO.N,+3V3*%
X83972400Y-103098600D03*
%TD*%
%TO.P,TP5,1*%
%TO.N,Net-(SW2-B)*%
X73152000Y-88011000D03*
%TD*%
%TO.P,TP4,1*%
%TO.N,Net-(BT1-+)*%
X85521800Y-66090800D03*
%TD*%
%TO.P,TP1,1*%
%TO.N,Net-(D1-A)*%
X129794000Y-51562000D03*
%TD*%
%TO.P,TP3,1*%
%TO.N,Net-(SW1-C)*%
X148590000Y-44196000D03*
%TD*%
%TO.P,TP2,1*%
%TO.N,+12V*%
X127254000Y-109601000D03*
%TD*%
D12*
%TO.P,J7,6,Shield*%
%TO.N,GND*%
X94199646Y-40104001D03*
D13*
X94473000Y-41812000D03*
D14*
X94573000Y-43132000D03*
D15*
X94723000Y-41062000D03*
D16*
X95053000Y-43132000D03*
D17*
X96513000Y-39862000D03*
X98433000Y-39862000D03*
D16*
X99893000Y-43132000D03*
D15*
X100203000Y-41062000D03*
D14*
X100323000Y-43112000D03*
D13*
X100423000Y-41812000D03*
D12*
X100756129Y-40104001D03*
D18*
%TO.P,J7,5,GND*%
X96173000Y-43622000D03*
%TO.P,J7,4,ID*%
%TO.N,unconnected-(J7-ID-Pad4)*%
X96823000Y-43622000D03*
%TO.P,J7,3,D+*%
%TO.N,Net-(J7-D+)*%
X97473000Y-43622000D03*
%TO.P,J7,2,D-*%
%TO.N,Net-(J7-D-)*%
X98123000Y-43622000D03*
%TO.P,J7,1,VBUS*%
%TO.N,Net-(J7-VBUS)*%
X98773000Y-43622000D03*
%TD*%
D19*
%TO.P,D6,1,BK*%
%TO.N,Net-(D6-BK)*%
X86924945Y-84991990D03*
%TO.P,D6,2,GK*%
%TO.N,Net-(D6-GK)*%
X80933229Y-84991990D03*
%TO.P,D6,3,RK*%
%TO.N,Net-(D6-RK)*%
X80933229Y-86515415D03*
%TO.P,D6,4,A*%
%TO.N,+3V3*%
X86924945Y-86515415D03*
%TD*%
%TO.P,D5,1,BK*%
%TO.N,Net-(D5-BK)*%
X120926125Y-88946861D03*
%TO.P,D5,2,GK*%
%TO.N,Net-(D5-GK)*%
X114934409Y-88946861D03*
%TO.P,D5,3,RK*%
%TO.N,Net-(D5-RK)*%
X114934409Y-90470286D03*
%TO.P,D5,4,A*%
%TO.N,+3V3*%
X120926125Y-90470286D03*
%TD*%
D20*
%TO.P,R6,2*%
%TO.N,GND*%
X79756000Y-90916000D03*
D21*
%TO.P,R6,1*%
%TO.N,Net-(U3-FB)*%
X79756000Y-88916000D03*
%TD*%
D22*
%TO.P,U4,1*%
%TO.N,Net-(Q1-G)*%
X86422000Y-97917000D03*
%TO.P,U4,2,-*%
%TO.N,Net-(U4A--)*%
X86422000Y-96647000D03*
%TO.P,U4,3,+*%
%TO.N,Net-(U4A-+)*%
X86422000Y-95377000D03*
%TO.P,U4,4,V-*%
%TO.N,GND*%
X86422000Y-94107000D03*
%TO.P,U4,5,+*%
%TO.N,unconnected-(U4B-+-Pad5)*%
X81472000Y-94107000D03*
%TO.P,U4,6,-*%
%TO.N,unconnected-(U4B---Pad6)*%
X81472000Y-95377000D03*
%TO.P,U4,7*%
%TO.N,unconnected-(U4-Pad7)*%
X81472000Y-96647000D03*
%TO.P,U4,8,V+*%
%TO.N,+3V3*%
X81472000Y-97917000D03*
%TD*%
D23*
%TO.P,C3,2*%
%TO.N,Net-(U3-SW)*%
X75060900Y-97790000D03*
%TO.P,C3,1*%
%TO.N,Net-(U3-CB)*%
X77135900Y-97790000D03*
%TD*%
D24*
%TO.P,R5,1*%
%TO.N,Net-(D3-K)*%
X105375200Y-44094400D03*
%TD*%
D25*
%TO.P,D3,1,K*%
%TO.N,Net-(D3-K)*%
X105375600Y-40919400D03*
%TO.P,D3,2,A*%
%TO.N,+3V3*%
X107425600Y-40919400D03*
%TD*%
D26*
%TO.P,SW1,3,C*%
%TO.N,Net-(SW1-C)*%
X144600659Y-44251536D03*
%TO.P,SW1,2,B*%
%TO.N,Net-(D1-A)*%
X140790659Y-44251536D03*
%TO.P,SW1,1,A*%
%TO.N,VBUS*%
X136980659Y-44251536D03*
%TO.P,SW1,*%
%TO.N,*%
X124280659Y-46791536D03*
X124280659Y-41711536D03*
%TD*%
D24*
%TO.P,R2,1*%
%TO.N,Net-(D2-K)*%
X116332000Y-42037000D03*
%TD*%
D25*
%TO.P,D2,1,K*%
%TO.N,Net-(D2-K)*%
X116323000Y-40005000D03*
%TO.P,D2,2,A*%
%TO.N,+12V*%
X118373000Y-40005000D03*
%TD*%
D27*
%TO.P,R21,1*%
%TO.N,+3V3*%
X75184000Y-61309000D03*
%TD*%
D28*
%TO.P,REF\u002A\u002A,1*%
%TO.N,GND*%
X140716000Y-51943000D03*
%TD*%
D29*
%TO.P,REF\u002A\u002A,1*%
%TO.N,GND*%
X69088000Y-102743000D03*
%TD*%
%TO.P,REF\u002A\u002A,1*%
%TO.N,GND*%
X69088000Y-51943000D03*
%TD*%
D30*
%TO.P,U5,22,Vin*%
%TO.N,+3V3*%
X121555019Y-106094387D03*
%TO.P,U5,21,GND*%
%TO.N,GND*%
X119015019Y-106094387D03*
%TO.P,U5,20,VBUS*%
%TO.N,unconnected-(U5-VBUS-Pad20)*%
X116475019Y-106094387D03*
%TO.P,U5,19,TX*%
%TO.N,unconnected-(U5-TX-Pad19)*%
X113935019Y-106094387D03*
%TO.P,U5,18,RX*%
%TO.N,unconnected-(U5-RX-Pad18)*%
X111395019Y-106094387D03*
%TO.P,U5,17,UG*%
%TO.N,unconnected-(U5-UG-Pad17)*%
X108855019Y-106094387D03*
%TO.P,U5,16,CS*%
%TO.N,unconnected-(U5-CS-Pad16)*%
X106315019Y-106094387D03*
%TO.P,U5,15,GND*%
%TO.N,GND*%
X103775019Y-106094387D03*
%TO.P,U5,14,R*%
%TO.N,Net-(U4A-+)*%
X101235019Y-106094387D03*
%TO.P,U5,13,L*%
%TO.N,unconnected-(U5-L-Pad13)*%
X98695019Y-106094387D03*
%TO.P,U5,12,GND*%
%TO.N,GND*%
X96155019Y-106094387D03*
%TO.P,U5,11,G*%
X96155019Y-85774387D03*
%TO.P,U5,10,~{ACT}*%
%TO.N,AUD_ACT*%
X98695019Y-85774387D03*
%TO.P,U5,9,~{TRIG7}*%
%TO.N,unconnected-(U5-~{TRIG7}-Pad9)*%
X101235019Y-85774387D03*
%TO.P,U5,8,~{TRIG6}*%
%TO.N,unconnected-(U5-~{TRIG6}-Pad8)*%
X103775019Y-85774387D03*
%TO.P,U5,7,~{TRIG5}*%
%TO.N,Net-(U5-~{TRIG5})*%
X106315019Y-85774387D03*
%TO.P,U5,6,~{TRIG4}*%
%TO.N,Net-(U5-~{TRIG4})*%
X108855019Y-85774387D03*
%TO.P,U5,5,~{TRIG3}*%
%TO.N,Net-(U5-~{TRIG3})*%
X111395019Y-85774387D03*
%TO.P,U5,4,~{TRIG2}*%
%TO.N,Net-(U5-~{TRIG2})*%
X113935019Y-85774387D03*
%TO.P,U5,3,~{TRIG1}*%
%TO.N,Net-(U5-~{TRIG1})*%
X116475019Y-85774387D03*
%TO.P,U5,2,~{TRIG0}*%
%TO.N,Net-(U5-~{TRIG0})*%
X119015019Y-85774387D03*
%TO.P,U5,1,RST*%
%TO.N,unconnected-(U5-RST-Pad1)*%
X121555019Y-85774387D03*
%TD*%
D31*
%TO.P,J1,*%
%TO.N,*%
X80289800Y-116490000D03*
X66789800Y-116490000D03*
D32*
%TO.P,J1,1*%
%TO.N,GND*%
X77139800Y-110490000D03*
D33*
%TO.P,J1,2*%
%TO.N,+12V*%
X69939800Y-110490000D03*
%TD*%
D34*
%TO.P,U3,1,FB*%
%TO.N,Net-(U3-FB)*%
X77163700Y-91690200D03*
%TO.P,U3,2,EN*%
%TO.N,Net-(SW2-B)*%
X76213700Y-91690200D03*
%TO.P,U3,3,VIN*%
X75263700Y-91690200D03*
%TO.P,U3,4,GND*%
%TO.N,GND*%
X75263700Y-94390200D03*
%TO.P,U3,5,SW*%
%TO.N,Net-(U3-SW)*%
X76213700Y-94390200D03*
%TO.P,U3,6,CB*%
%TO.N,Net-(U3-CB)*%
X77163700Y-94390200D03*
%TD*%
D35*
%TO.P,U2,1,STAT*%
%TO.N,Net-(U2-STAT)*%
X117950000Y-49662000D03*
%TO.P,U2,2,V_{SS}*%
%TO.N,GND*%
X117950000Y-50612000D03*
%TO.P,U2,3,V_{BAT}*%
%TO.N,Net-(BT1-+)*%
X117950000Y-51562000D03*
%TO.P,U2,4,V_{DD}*%
%TO.N,Net-(D1-A)*%
X120650000Y-51562000D03*
%TO.P,U2,5,PROG*%
%TO.N,Net-(U2-PROG)*%
X120650000Y-49662000D03*
%TD*%
D36*
%TO.P,U1,1,GND*%
%TO.N,GND*%
X161138000Y-52211000D03*
%TO.P,U1,2,VO*%
%TO.N,Net-(SW1-C)*%
X161138000Y-49911000D03*
D37*
X154838000Y-49911000D03*
D36*
%TO.P,U1,3,VI*%
%TO.N,+12V*%
X161138000Y-47611000D03*
%TD*%
D38*
%TO.P,SW6,1,1*%
%TO.N,Net-(U6-P1D{slash}AN11{slash}RB4)*%
X105006000Y-98226000D03*
X111506000Y-98226000D03*
%TO.P,SW6,2,2*%
%TO.N,+3V3*%
X105006000Y-93726000D03*
X111506000Y-93726000D03*
%TD*%
%TO.P,SW5,1,1*%
%TO.N,Net-(U6-PGM{slash}C12IN2-{slash}AN8{slash}RB3)*%
X114681000Y-98226000D03*
X121181000Y-98226000D03*
%TO.P,SW5,2,2*%
%TO.N,+3V3*%
X114681000Y-93726000D03*
X121181000Y-93726000D03*
%TD*%
%TO.P,SW4,1,1*%
%TO.N,Net-(U6-P1B{slash}AN8{slash}RB2)*%
X124385000Y-98262000D03*
X130885000Y-98262000D03*
%TO.P,SW4,2,2*%
%TO.N,+3V3*%
X124385000Y-93762000D03*
X130885000Y-93762000D03*
%TD*%
D39*
%TO.P,SW3,*%
%TO.N,*%
X174550500Y-80930000D03*
X174550500Y-87940000D03*
D40*
%TO.P,SW3,1,1*%
%TO.N,Net-(U6-P1C{slash}AN10{slash}RB1)*%
X177040500Y-82180000D03*
%TO.P,SW3,2,2*%
%TO.N,+3V3*%
X177040500Y-86680000D03*
%TD*%
D41*
%TO.P,SW2,2,B*%
%TO.N,Net-(SW2-B)*%
X69596000Y-96012000D03*
%TD*%
D42*
%TO.P,R29,1*%
%TO.N,VBUS*%
X87233000Y-46863000D03*
D43*
%TO.P,R29,2*%
%TO.N,Net-(U7-CBUS3)*%
X85233000Y-46863000D03*
%TD*%
%TO.P,R28,1*%
%TO.N,Net-(D8-K)*%
X87233000Y-40894000D03*
%TD*%
%TO.P,R27,1*%
%TO.N,Net-(D7-K)*%
X87233000Y-44196000D03*
%TD*%
D20*
%TO.P,R26,1*%
%TO.N,Net-(U6-RC1{slash}T1OSI{slash}CCP2)*%
X84709000Y-78883000D03*
D21*
%TO.P,R26,2*%
%TO.N,Net-(D6-BK)*%
X84709000Y-80883000D03*
%TD*%
D44*
%TO.P,R25,1*%
%TO.N,Net-(Q4-G)*%
X67640200Y-71297800D03*
D24*
%TO.P,R25,2*%
%TO.N,GND*%
X69640200Y-71297800D03*
%TD*%
%TO.P,R24,1*%
%TO.N,Green PWM*%
X79203800Y-82956400D03*
D44*
%TO.P,R24,2*%
%TO.N,Net-(D6-GK)*%
X81203800Y-82956400D03*
%TD*%
D24*
%TO.P,R23,1*%
%TO.N,Net-(U6-RC2{slash}P1A{slash}CCP1)*%
X75962000Y-86487000D03*
D44*
%TO.P,R23,2*%
%TO.N,Net-(D6-RK)*%
X77962000Y-86487000D03*
%TD*%
D24*
%TO.P,R22,2*%
%TO.N,Net-(D5-RK)*%
X111236000Y-88773000D03*
%TD*%
D45*
%TO.P,R20,1*%
%TO.N,+3V3*%
X75184000Y-43275000D03*
%TO.P,R20,2*%
%TO.N,Net-(J5-Pad1)*%
X75184000Y-41275000D03*
%TD*%
D24*
%TO.P,R19,1*%
%TO.N,Net-(U6-RC4{slash}SDI{slash}SDA)*%
X105426000Y-90424000D03*
D44*
%TO.P,R19,2*%
%TO.N,Net-(D5-GK)*%
X107426000Y-90424000D03*
%TD*%
D24*
%TO.P,R18,1*%
%TO.N,Net-(U6-RC5{slash}SDO)*%
X99203000Y-90170000D03*
D44*
%TO.P,R18,2*%
%TO.N,Net-(D5-BK)*%
X101203000Y-90170000D03*
%TD*%
D21*
%TO.P,R17,1*%
%TO.N,Net-(U6-P1D{slash}AN11{slash}RB4)*%
X108077000Y-100981000D03*
D20*
%TO.P,R17,2*%
%TO.N,GND*%
X108077000Y-102981000D03*
%TD*%
D21*
%TO.P,R16,1*%
%TO.N,Net-(U6-PGM{slash}C12IN2-{slash}AN8{slash}RB3)*%
X117856000Y-100981000D03*
D20*
%TO.P,R16,2*%
%TO.N,GND*%
X117856000Y-102981000D03*
%TD*%
%TO.P,R15,2*%
%TO.N,GND*%
X126745214Y-103106363D03*
D21*
%TO.P,R15,1*%
%TO.N,Net-(U6-P1B{slash}AN8{slash}RB2)*%
X126745214Y-101106363D03*
%TD*%
D27*
%TO.P,R14,2*%
%TO.N,GND*%
X173217070Y-72531363D03*
%TO.P,R14,1*%
%TO.N,Net-(U6-P1C{slash}AN10{slash}RB1)*%
X173217070Y-74531363D03*
%TD*%
D24*
%TO.P,R13,1*%
%TO.N,Net-(Q3-G)*%
X171704000Y-56261000D03*
%TO.P,R13,2*%
%TO.N,GND*%
X173704000Y-56261000D03*
%TD*%
D43*
%TO.P,R12,1*%
%TO.N,+3V3*%
X128127000Y-70231000D03*
%TD*%
D45*
%TO.P,R11,1*%
%TO.N,Net-(U4A-+)*%
X101346000Y-102743000D03*
D27*
%TO.P,R11,2*%
%TO.N,GND*%
X101346000Y-100743000D03*
%TD*%
D20*
%TO.P,R9,1*%
%TO.N,+3V3*%
X97917000Y-100743000D03*
D21*
%TO.P,R9,2*%
%TO.N,Net-(U4A-+)*%
X97917000Y-102743000D03*
%TD*%
D24*
%TO.P,R8,1*%
%TO.N,Net-(Q1-G)*%
X77867000Y-79248000D03*
%TO.P,R8,2*%
%TO.N,GND*%
X79867000Y-79248000D03*
%TD*%
D45*
%TO.P,R7,1*%
%TO.N,100kHz*%
X90424000Y-100695000D03*
%TO.P,R7,2*%
%TO.N,Net-(U4A--)*%
X90424000Y-98695000D03*
%TD*%
%TO.P,R4,1*%
%TO.N,+3V3*%
X81788000Y-90916000D03*
%TO.P,R4,2*%
%TO.N,Net-(U3-FB)*%
X81788000Y-88916000D03*
%TD*%
D43*
%TO.P,R3,1*%
%TO.N,Net-(U2-PROG)*%
X120650000Y-47371000D03*
%TD*%
D24*
%TO.P,R1,2*%
%TO.N,Net-(U2-STAT)*%
X115747800Y-49657000D03*
%TD*%
D46*
%TO.P,Q4,1,G*%
%TO.N,Net-(Q4-G)*%
X67630000Y-67661000D03*
%TO.P,Q4,2,S*%
%TO.N,GND*%
X69530000Y-67661000D03*
%TO.P,Q4,3,D*%
%TO.N,Net-(Q4-D)*%
X68580000Y-65786000D03*
%TD*%
D47*
%TO.P,L2,1,1*%
%TO.N,Net-(J7-VBUS)*%
X104876600Y-51181000D03*
D48*
%TO.P,L2,2,2*%
%TO.N,VBUS*%
X104876600Y-53231000D03*
%TD*%
D49*
%TO.P,L1,1,1*%
%TO.N,Net-(U3-SW)*%
X75057000Y-103098600D03*
%TO.P,L1,2,2*%
%TO.N,+3V3*%
X80137000Y-103098600D03*
%TD*%
D50*
%TO.P,J6,1*%
%TO.N,Net-(J6-Pad1)*%
X68580000Y-59309000D03*
%TO.P,J6,2*%
%TO.N,Net-(Q4-D)*%
X68580000Y-61849000D03*
%TD*%
%TO.P,J5,1*%
%TO.N,Net-(J5-Pad1)*%
X68580000Y-41275000D03*
%TO.P,J5,2*%
%TO.N,Net-(Q4-D)*%
X68580000Y-43815000D03*
%TD*%
%TO.P,J4,1*%
%TO.N,+12V*%
X178181000Y-50292000D03*
%TO.P,J4,2*%
%TO.N,Net-(Q3-D)*%
X178181000Y-52832000D03*
%TD*%
%TO.P,J3,6*%
%TO.N,unconnected-(J3-Pad6)*%
X178170693Y-77716113D03*
%TO.P,J3,5*%
%TO.N,TX*%
X178170693Y-75176113D03*
%TO.P,J3,4*%
%TO.N,RX*%
X178170693Y-72636113D03*
%TO.P,J3,3*%
%TO.N,GND*%
X178170693Y-70096113D03*
%TO.P,J3,2*%
%TO.N,+3V3*%
X178170693Y-67556113D03*
%TO.P,J3,1*%
%TO.N,Net-(D4-K)*%
X178170693Y-65016113D03*
%TD*%
%TO.P,J2,1*%
%TO.N,+3V3*%
X68961000Y-81153000D03*
%TO.P,J2,2*%
%TO.N,Net-(Q1-D)*%
X68961000Y-83693000D03*
%TD*%
D25*
%TO.P,D8,1,K*%
%TO.N,Net-(D8-K)*%
X89399000Y-40894000D03*
%TO.P,D8,2,A*%
%TO.N,VBUS*%
X91449000Y-40894000D03*
%TD*%
%TO.P,D7,1,K*%
%TO.N,Net-(D7-K)*%
X89399000Y-44196000D03*
%TO.P,D7,2,A*%
%TO.N,VBUS*%
X91449000Y-44196000D03*
%TD*%
D48*
%TO.P,D1,1,K*%
%TO.N,Net-(D1-K)*%
X111912400Y-49657000D03*
%TO.P,D1,2,A*%
%TO.N,Net-(D1-A)*%
X111912400Y-51707000D03*
%TD*%
D51*
%TO.P,C17,1*%
%TO.N,Net-(J7-D+)*%
X97485200Y-49102100D03*
%TD*%
%TO.P,C16,1*%
%TO.N,Net-(J7-D-)*%
X101142800Y-49102100D03*
%TD*%
%TO.P,C12,1*%
%TO.N,Net-(J7-VBUS)*%
X104876600Y-49106000D03*
%TD*%
D52*
%TO.P,C10,1*%
%TO.N,GND*%
X130218000Y-66548000D03*
%TD*%
D53*
%TO.P,C9,1*%
%TO.N,Net-(U4A--)*%
X86592500Y-90678000D03*
D54*
%TO.P,C9,2*%
%TO.N,GND*%
X88667500Y-90678000D03*
%TD*%
D55*
%TO.P,C8,1*%
%TO.N,+3V3*%
X86893400Y-103098600D03*
D51*
%TO.P,C8,2*%
%TO.N,GND*%
X86893400Y-105173600D03*
%TD*%
%TO.P,C7,1*%
%TO.N,+3V3*%
X90474800Y-103098600D03*
%TO.P,C7,2*%
%TO.N,GND*%
X90474800Y-105173600D03*
%TD*%
D23*
%TO.P,C6,1*%
%TO.N,Net-(SW2-B)*%
X69592100Y-88011000D03*
D52*
%TO.P,C6,2*%
%TO.N,GND*%
X67517100Y-88011000D03*
%TD*%
D23*
%TO.P,C5,1*%
%TO.N,Net-(SW2-B)*%
X69598148Y-91658322D03*
D52*
%TO.P,C5,2*%
%TO.N,GND*%
X67523148Y-91658322D03*
%TD*%
D54*
%TO.P,C4,1*%
%TO.N,Net-(BT1-+)*%
X117957600Y-54000400D03*
%TO.P,C4,2*%
%TO.N,GND*%
X120032600Y-54000400D03*
%TD*%
D55*
%TO.P,C1,1*%
%TO.N,Net-(D1-A)*%
X133858000Y-51562000D03*
D51*
%TO.P,C1,2*%
%TO.N,GND*%
X133858000Y-53637000D03*
%TD*%
D53*
%TO.P,C2,1*%
%TO.N,Net-(SW1-C)*%
X166729500Y-49911000D03*
D54*
%TO.P,C2,2*%
%TO.N,GND*%
X168804500Y-49911000D03*
%TD*%
D56*
%TO.P,BT1,1,+*%
%TO.N,Net-(BT1-+)*%
X91942740Y-66115195D03*
D57*
%TO.P,BT1,2,-*%
%TO.N,GND*%
X171322740Y-66115195D03*
%TD*%
D58*
%TO.N,Net-(U6-RC2{slash}P1A{slash}CCP1)*%
X105791000Y-70739000D03*
%TO.N,Net-(U6-RC1{slash}T1OSI{slash}CCP2)*%
X110871000Y-69342000D03*
%TO.N,Green PWM*%
X106807000Y-61722000D03*
%TO.N,100kHz*%
X113347500Y-69659500D03*
%TO.N,Net-(Q4-G)*%
X112598500Y-74599500D03*
%TO.N,Net-(Q2-G)*%
X114173000Y-74295000D03*
%TO.N,Net-(Q3-G)*%
X125222000Y-65024000D03*
%TO.N,GND*%
X114046000Y-67310000D03*
X115316000Y-70358000D03*
%TO.N,Net-(D4-K)*%
X149733000Y-65405000D03*
%TO.N,TX*%
X118745000Y-66294000D03*
X115570000Y-67056000D03*
%TO.N,+3V3*%
X114808000Y-62230000D03*
%TD*%
D59*
%TO.N,Net-(U6-RC1{slash}T1OSI{slash}CCP2)*%
X82550000Y-65659000D02*
X82550000Y-64389000D01*
X96139000Y-69977000D02*
X86868000Y-69977000D01*
X82550000Y-64389000D02*
X82169000Y-64008000D01*
X110617000Y-69088000D02*
X97028000Y-69088000D01*
X86868000Y-69977000D02*
X82550000Y-65659000D01*
X82169000Y-64008000D02*
X81026000Y-64008000D01*
X110871000Y-69342000D02*
X110617000Y-69088000D01*
X97028000Y-69088000D02*
X96139000Y-69977000D01*
D60*
%TO.N,+3V3*%
X177165000Y-67564000D02*
X177172887Y-67556113D01*
X177038000Y-67564000D02*
X177165000Y-67564000D01*
X175006000Y-70739000D02*
X176403000Y-69342000D01*
X176403000Y-68199000D02*
X177038000Y-67564000D01*
X177172887Y-67556113D02*
X178170693Y-67556113D01*
X128635000Y-70739000D02*
X175006000Y-70739000D01*
X128127000Y-70231000D02*
X128635000Y-70739000D01*
X176403000Y-69342000D02*
X176403000Y-68199000D01*
%TO.N,GND*%
X177299887Y-70096113D02*
X178170693Y-70096113D01*
X174864637Y-72531363D02*
X177299887Y-70096113D01*
X173217070Y-72531363D02*
X174864637Y-72531363D01*
D59*
%TO.N,Net-(D4-K)*%
X177038000Y-62103000D02*
X178170693Y-63235693D01*
X153035000Y-62103000D02*
X177038000Y-62103000D01*
X178170693Y-63235693D02*
X178170693Y-65016113D01*
X149733000Y-65405000D02*
X153035000Y-62103000D01*
D60*
%TO.N,GND*%
X161036000Y-66548000D02*
X161468805Y-66115195D01*
X161468805Y-66115195D02*
X171322740Y-66115195D01*
X130218000Y-66548000D02*
X161036000Y-66548000D01*
D59*
X130894000Y-53637000D02*
X133858000Y-53637000D01*
X130530600Y-54000400D02*
X130894000Y-53637000D01*
X120032600Y-54000400D02*
X130530600Y-54000400D01*
D60*
X79867000Y-80153000D02*
X79867000Y-79248000D01*
X67517100Y-86813300D02*
X68681600Y-85648800D01*
X67517100Y-88011000D02*
X67517100Y-86813300D01*
X68681600Y-85648800D02*
X74371200Y-85648800D01*
X74371200Y-85648800D02*
X79867000Y-80153000D01*
D59*
%TO.N,Net-(Q1-G)*%
X85536928Y-97917000D02*
X86422000Y-97917000D01*
X84127000Y-96507072D02*
X85536928Y-97917000D01*
X88392000Y-82851856D02*
X88392000Y-87020400D01*
X88392000Y-87020400D02*
X84127000Y-91285400D01*
X85414644Y-79874500D02*
X88392000Y-82851856D01*
X81229200Y-78028800D02*
X83074900Y-79874500D01*
X78232000Y-78028800D02*
X81229200Y-78028800D01*
X84127000Y-91285400D02*
X84127000Y-96507072D01*
X77867000Y-78393800D02*
X78232000Y-78028800D01*
X77867000Y-79248000D02*
X77867000Y-78393800D01*
X83074900Y-79874500D02*
X85414644Y-79874500D01*
%TO.N,Net-(U4A--)*%
X85598000Y-90678000D02*
X86592500Y-90678000D01*
X84709000Y-96266000D02*
X84709000Y-91567000D01*
X85090000Y-96647000D02*
X84709000Y-96266000D01*
X84709000Y-91567000D02*
X85598000Y-90678000D01*
X86422000Y-96647000D02*
X85090000Y-96647000D01*
%TO.N,Net-(D6-RK)*%
X80904814Y-86487000D02*
X80933229Y-86515415D01*
X77962000Y-86487000D02*
X80904814Y-86487000D01*
D60*
%TO.N,+3V3*%
X180644800Y-68249800D02*
X179951113Y-67556113D01*
X177040500Y-86680000D02*
X180644800Y-83075700D01*
X180644800Y-83075700D02*
X180644800Y-68249800D01*
X179951113Y-67556113D02*
X178170693Y-67556113D01*
D59*
%TO.N,Net-(D6-BK)*%
X86924945Y-84130945D02*
X84709000Y-81915000D01*
X86924945Y-84991990D02*
X86924945Y-84130945D01*
X84709000Y-81915000D02*
X84709000Y-80883000D01*
%TO.N,Net-(D6-GK)*%
X80933229Y-84166771D02*
X80933229Y-84991990D01*
X81203800Y-83896200D02*
X80933229Y-84166771D01*
X81203800Y-82956400D02*
X81203800Y-83896200D01*
D60*
%TO.N,+3V3*%
X121181000Y-91717000D02*
X121181000Y-93726000D01*
X120926125Y-91462125D02*
X121181000Y-91717000D01*
X120926125Y-90470286D02*
X120926125Y-91462125D01*
D59*
%TO.N,Net-(D5-BK)*%
X120926125Y-88414125D02*
X120926125Y-88946861D01*
X120015000Y-87503000D02*
X120926125Y-88414125D01*
%TO.N,TX*%
X174997500Y-73533000D02*
X125984000Y-73533000D01*
X176640613Y-75176113D02*
X174997500Y-73533000D01*
X178170693Y-75176113D02*
X176640613Y-75176113D01*
X125984000Y-73533000D02*
X118745000Y-66294000D01*
D60*
%TO.N,GND*%
X173704000Y-54451000D02*
X173704000Y-56261000D01*
X172085000Y-52832000D02*
X173704000Y-54451000D01*
X170307000Y-52832000D02*
X172085000Y-52832000D01*
X168804500Y-51329500D02*
X170307000Y-52832000D01*
X168804500Y-49911000D02*
X168804500Y-51329500D01*
D59*
%TO.N,Net-(U6-RC2{slash}P1A{slash}CCP1)*%
X82423000Y-67183000D02*
X81026000Y-67183000D01*
X85979000Y-70739000D02*
X82423000Y-67183000D01*
X105791000Y-70739000D02*
X85979000Y-70739000D01*
%TO.N,Green PWM*%
X106384000Y-62145000D02*
X106807000Y-61722000D01*
X80476000Y-62145000D02*
X106384000Y-62145000D01*
X78613000Y-64008000D02*
X80476000Y-62145000D01*
X79502000Y-70231000D02*
X78613000Y-69342000D01*
X78613000Y-69342000D02*
X78613000Y-64008000D01*
X81026000Y-70231000D02*
X79502000Y-70231000D01*
D61*
%TO.N,+12V*%
X123317000Y-109601000D02*
X127254000Y-109601000D01*
X81925500Y-110119500D02*
X122798500Y-110119500D01*
X122798500Y-110119500D02*
X123317000Y-109601000D01*
X73368800Y-107061000D02*
X78867000Y-107061000D01*
X69939800Y-110490000D02*
X73368800Y-107061000D01*
X78867000Y-107061000D02*
X81925500Y-110119500D01*
D59*
%TO.N,100kHz*%
X88646000Y-108839000D02*
X88646000Y-107569000D01*
X88900000Y-109093000D02*
X88646000Y-108839000D01*
X113347500Y-69659500D02*
X122899019Y-79211019D01*
X120743014Y-109093000D02*
X88900000Y-109093000D01*
X122899019Y-79211019D02*
X122899019Y-106936995D01*
X122899019Y-106936995D02*
X120743014Y-109093000D01*
X92837000Y-101981000D02*
X91551000Y-100695000D01*
X92837000Y-105156000D02*
X92837000Y-101981000D01*
X90424000Y-107569000D02*
X92837000Y-105156000D01*
X91551000Y-100695000D02*
X90424000Y-100695000D01*
X88646000Y-107569000D02*
X90424000Y-107569000D01*
D60*
%TO.N,+3V3*%
X96679000Y-100743000D02*
X97917000Y-100743000D01*
X95377000Y-99441000D02*
X96679000Y-100743000D01*
X76962000Y-77089000D02*
X86868000Y-77089000D01*
X89900500Y-80121500D02*
X89900500Y-92313500D01*
X95377000Y-97790000D02*
X95377000Y-99441000D01*
X72898000Y-81153000D02*
X76962000Y-77089000D01*
X86868000Y-77089000D02*
X89900500Y-80121500D01*
X89900500Y-92313500D02*
X95377000Y-97790000D01*
X68961000Y-81153000D02*
X72898000Y-81153000D01*
X171704000Y-81343500D02*
X177040500Y-86680000D01*
X132614758Y-75946000D02*
X170661242Y-75946000D01*
X170661242Y-75946000D02*
X171704000Y-76988758D01*
X130885000Y-77675758D02*
X132614758Y-75946000D01*
X130885000Y-93762000D02*
X130885000Y-77675758D01*
X171704000Y-76988758D02*
X171704000Y-81343500D01*
D59*
%TO.N,Net-(U6-P1C{slash}AN10{slash}RB1)*%
X177040500Y-80266500D02*
X173217070Y-76443070D01*
X173217070Y-76443070D02*
X173217070Y-74531363D01*
X177040500Y-82180000D02*
X177040500Y-80266500D01*
D60*
%TO.N,+3V3*%
X81788000Y-91948000D02*
X81788000Y-90916000D01*
X81026000Y-92710000D02*
X81788000Y-91948000D01*
X80645000Y-92710000D02*
X81026000Y-92710000D01*
X79756000Y-97282000D02*
X79756000Y-93599000D01*
X79756000Y-93599000D02*
X80645000Y-92710000D01*
X81472000Y-97917000D02*
X80391000Y-97917000D01*
X80391000Y-97917000D02*
X79756000Y-97282000D01*
D59*
%TO.N,Net-(Q2-G)*%
X111379000Y-77089000D02*
X114173000Y-74295000D01*
X101473000Y-77089000D02*
X111379000Y-77089000D01*
X99695000Y-75311000D02*
X101473000Y-77089000D01*
X81788000Y-75311000D02*
X99695000Y-75311000D01*
%TO.N,Net-(Q4-G)*%
X71729600Y-75336400D02*
X67665600Y-75336400D01*
X73787000Y-73279000D02*
X71729600Y-75336400D01*
X102616000Y-76454000D02*
X99441000Y-73279000D01*
X110744000Y-76454000D02*
X102616000Y-76454000D01*
X99441000Y-73279000D02*
X73787000Y-73279000D01*
X112598500Y-74599500D02*
X110744000Y-76454000D01*
%TO.N,Net-(D6-RK)*%
X77988579Y-86513579D02*
X77962000Y-86487000D01*
D60*
%TO.N,Net-(BT1-+)*%
X107493805Y-66115195D02*
X117957600Y-55651400D01*
X117957600Y-55651400D02*
X117957600Y-54000400D01*
X91942740Y-66115195D02*
X107493805Y-66115195D01*
D59*
%TO.N,Net-(Q3-G)*%
X165227000Y-60452000D02*
X169418000Y-56261000D01*
X169418000Y-56261000D02*
X171704000Y-56261000D01*
X129794000Y-60452000D02*
X165227000Y-60452000D01*
X125222000Y-65024000D02*
X129794000Y-60452000D01*
%TO.N,GND*%
X115316000Y-68580000D02*
X114046000Y-67310000D01*
X115316000Y-70358000D02*
X115316000Y-68580000D01*
X113538000Y-66802000D02*
X114046000Y-67310000D01*
X113538000Y-62103000D02*
X113538000Y-66802000D01*
X120032600Y-55608400D02*
X113538000Y-62103000D01*
X120032600Y-54000400D02*
X120032600Y-55608400D01*
X118938000Y-50612000D02*
X117950000Y-50612000D01*
X119380000Y-51054000D02*
X118938000Y-50612000D01*
X120032600Y-52849600D02*
X119380000Y-52197000D01*
X119380000Y-52197000D02*
X119380000Y-51054000D01*
X120032600Y-54000400D02*
X120032600Y-52849600D01*
%TO.N,TX*%
X117983000Y-67056000D02*
X118745000Y-66294000D01*
X115570000Y-67056000D02*
X117983000Y-67056000D01*
%TO.N,Net-(SW2-B)*%
X69596000Y-91660470D02*
X69598148Y-91658322D01*
D60*
X69596000Y-96012000D02*
X69596000Y-91660470D01*
D59*
%TO.N,Net-(U4A-+)*%
X100838000Y-107569000D02*
X93091000Y-107569000D01*
X101235019Y-107171981D02*
X100838000Y-107569000D01*
X101235019Y-106094387D02*
X101235019Y-107171981D01*
%TO.N,GND*%
X79756000Y-92075000D02*
X79756000Y-90916000D01*
X78867000Y-92964000D02*
X79756000Y-92075000D01*
X75692000Y-92964000D02*
X78867000Y-92964000D01*
X75263700Y-93392300D02*
X75692000Y-92964000D01*
X75263700Y-94390200D02*
X75263700Y-93392300D01*
%TO.N,Net-(U3-FB)*%
X77163700Y-90222300D02*
X77163700Y-91690200D01*
X78470000Y-88916000D02*
X77163700Y-90222300D01*
X79756000Y-88916000D02*
X78470000Y-88916000D01*
X81788000Y-88916000D02*
X79756000Y-88916000D01*
%TO.N,Net-(D6-GK)*%
X81162420Y-82997780D02*
X81203800Y-82956400D01*
%TO.N,GND*%
X88667500Y-93323500D02*
X88667500Y-90678000D01*
X87884000Y-94107000D02*
X88667500Y-93323500D01*
X86422000Y-94107000D02*
X87884000Y-94107000D01*
%TO.N,Net-(U6-P1C{slash}AN10{slash}RB1)*%
X177054000Y-82166500D02*
X177040500Y-82180000D01*
%TO.N,Net-(SW1-C)*%
X144656195Y-44196000D02*
X144600659Y-44251536D01*
X148590000Y-44196000D02*
X144656195Y-44196000D01*
%TO.N,Net-(Q4-G)*%
X67665600Y-71323200D02*
X67640200Y-71297800D01*
X67665600Y-75336400D02*
X67665600Y-71323200D01*
X67630000Y-71287600D02*
X67640200Y-71297800D01*
X67630000Y-67661000D02*
X67630000Y-71287600D01*
D60*
%TO.N,GND*%
X69640200Y-68878200D02*
X69640200Y-71297800D01*
X69530000Y-68768000D02*
X69640200Y-68878200D01*
X69530000Y-67661000D02*
X69530000Y-68768000D01*
%TO.N,Net-(Q4-D)*%
X73914000Y-47117000D02*
X70612000Y-43815000D01*
X70612000Y-43815000D02*
X68580000Y-43815000D01*
X73914000Y-58674000D02*
X73914000Y-47117000D01*
X70739000Y-61849000D02*
X73914000Y-58674000D01*
X68580000Y-61849000D02*
X70739000Y-61849000D01*
%TO.N,+3V3*%
X75184000Y-43275000D02*
X75184000Y-61309000D01*
%TO.N,Net-(J5-Pad1)*%
X68580000Y-41275000D02*
X75184000Y-41275000D01*
%TO.N,Net-(Q4-D)*%
X68580000Y-65786000D02*
X68580000Y-61849000D01*
%TO.N,Net-(SW1-C)*%
X161138000Y-49911000D02*
X166729500Y-49911000D01*
%TO.N,GND*%
X149733000Y-53975000D02*
X147701000Y-51943000D01*
X147701000Y-51943000D02*
X140716000Y-51943000D01*
X160401000Y-53975000D02*
X149733000Y-53975000D01*
X161138000Y-53238000D02*
X160401000Y-53975000D01*
X161138000Y-52211000D02*
X161138000Y-53238000D01*
D59*
%TO.N,Net-(D5-BK)*%
X106045000Y-87503000D02*
X120015000Y-87503000D01*
X103378000Y-90170000D02*
X106045000Y-87503000D01*
X101203000Y-90170000D02*
X103378000Y-90170000D01*
%TO.N,Net-(D5-GK)*%
X113112550Y-88944450D02*
X115163600Y-88944450D01*
X107426000Y-90424000D02*
X111633000Y-90424000D01*
X111633000Y-90424000D02*
X113112550Y-88944450D01*
%TO.N,AUD_ACT*%
X95504000Y-78486000D02*
X98695019Y-81677019D01*
X98695019Y-81677019D02*
X98695019Y-85774387D01*
X93980000Y-78486000D02*
X95504000Y-78486000D01*
%TO.N,Net-(SW2-B)*%
X69598148Y-96009852D02*
X69596000Y-96012000D01*
D60*
X69592100Y-91652274D02*
X69598148Y-91658322D01*
X69592100Y-88011000D02*
X69592100Y-91652274D01*
X73152000Y-88011000D02*
X69592100Y-88011000D01*
D59*
X75060800Y-91690200D02*
X75028922Y-91658322D01*
D60*
X75028922Y-91658322D02*
X69598148Y-91658322D01*
D59*
X75263700Y-91690200D02*
X75060800Y-91690200D01*
D62*
X76213700Y-91690200D02*
X75263700Y-91690200D01*
D59*
%TO.N,Net-(U3-SW)*%
X75060900Y-96643100D02*
X75060900Y-97790000D01*
X76213700Y-95490300D02*
X75060900Y-96643100D01*
X76213700Y-94390200D02*
X76213700Y-95490300D01*
%TO.N,Net-(U3-CB)*%
X77163700Y-94390200D02*
X77163700Y-97762200D01*
X77163700Y-97762200D02*
X77135900Y-97790000D01*
D60*
%TO.N,Net-(U3-SW)*%
X75060900Y-97790000D02*
X75060900Y-103094700D01*
X75060900Y-103094700D02*
X75057000Y-103098600D01*
%TO.N,+3V3*%
X86893400Y-103098600D02*
X90474800Y-103098600D01*
X83972400Y-103098600D02*
X86893400Y-103098600D01*
X80137000Y-103098600D02*
X83972400Y-103098600D01*
D59*
%TO.N,Net-(U4A-+)*%
X101235019Y-104123981D02*
X101235019Y-106094387D01*
X101346000Y-104013000D02*
X101235019Y-104123981D01*
X101346000Y-102743000D02*
X101346000Y-104013000D01*
%TO.N,Net-(U6-P1B{slash}AN8{slash}RB2)*%
X129905000Y-101108000D02*
X127635000Y-101108000D01*
X130885000Y-100128000D02*
X129905000Y-101108000D01*
X130885000Y-98262000D02*
X130885000Y-100128000D01*
X125492000Y-101108000D02*
X127635000Y-101108000D01*
X124385000Y-100001000D02*
X125492000Y-101108000D01*
X124385000Y-98262000D02*
X124385000Y-100001000D01*
%TO.N,Net-(U6-PGM{slash}C12IN2-{slash}AN8{slash}RB3)*%
X121181000Y-100180000D02*
X121181000Y-98226000D01*
X117856000Y-100981000D02*
X120380000Y-100981000D01*
X120380000Y-100981000D02*
X121181000Y-100180000D01*
X114681000Y-100330000D02*
X114681000Y-98226000D01*
X115332000Y-100981000D02*
X114681000Y-100330000D01*
X117856000Y-100981000D02*
X115332000Y-100981000D01*
%TO.N,Net-(U6-P1D{slash}AN11{slash}RB4)*%
X111506000Y-100076000D02*
X111506000Y-98226000D01*
X110601000Y-100981000D02*
X111506000Y-100076000D01*
X108077000Y-100981000D02*
X110601000Y-100981000D01*
X105006000Y-99926000D02*
X105006000Y-98226000D01*
X106061000Y-100981000D02*
X105006000Y-99926000D01*
X108077000Y-100981000D02*
X106061000Y-100981000D01*
D60*
%TO.N,+3V3*%
X97917000Y-98933000D02*
X103124000Y-93726000D01*
X103124000Y-93726000D02*
X105006000Y-93726000D01*
X97917000Y-100743000D02*
X97917000Y-98933000D01*
X120181000Y-92726000D02*
X121181000Y-93726000D01*
X115681000Y-92726000D02*
X120181000Y-92726000D01*
X114681000Y-93726000D02*
X115681000Y-92726000D01*
X110506000Y-92726000D02*
X111506000Y-93726000D01*
X106006000Y-92726000D02*
X110506000Y-92726000D01*
X105006000Y-93726000D02*
X106006000Y-92726000D01*
X121217000Y-93762000D02*
X121181000Y-93726000D01*
X111506000Y-93726000D02*
X114681000Y-93726000D01*
D59*
%TO.N,Net-(U4A-+)*%
X97917000Y-102743000D02*
X101346000Y-102743000D01*
%TO.N,Net-(U4A--)*%
X89281000Y-96647000D02*
X86422000Y-96647000D01*
X90424000Y-98695000D02*
X90424000Y-97790000D01*
X90424000Y-97790000D02*
X89281000Y-96647000D01*
%TO.N,Net-(U4A-+)*%
X93980000Y-100965000D02*
X95758000Y-102743000D01*
X93980000Y-98044000D02*
X93980000Y-100965000D01*
X91313000Y-95377000D02*
X93980000Y-98044000D01*
X86422000Y-95377000D02*
X91313000Y-95377000D01*
X95758000Y-102743000D02*
X97917000Y-102743000D01*
D60*
%TO.N,+3V3*%
X81472000Y-98868000D02*
X80137000Y-100203000D01*
X80137000Y-100203000D02*
X80137000Y-103098600D01*
X81472000Y-97917000D02*
X81472000Y-98868000D01*
D59*
%TO.N,Net-(U5-~{TRIG5})*%
X106299000Y-85758368D02*
X106315019Y-85774387D01*
X106299000Y-78613000D02*
X106299000Y-85758368D01*
%TO.N,Net-(U5-~{TRIG4})*%
X108839000Y-85758368D02*
X108855019Y-85774387D01*
X108839000Y-78613000D02*
X108839000Y-85758368D01*
%TO.N,Net-(U5-~{TRIG3})*%
X111395019Y-78756019D02*
X111395019Y-85774387D01*
X111379000Y-78740000D02*
X111395019Y-78756019D01*
X111379000Y-78613000D02*
X111379000Y-78740000D01*
%TO.N,Net-(U5-~{TRIG2})*%
X113919000Y-85758368D02*
X113935019Y-85774387D01*
X113919000Y-78613000D02*
X113919000Y-85758368D01*
%TO.N,Net-(U5-~{TRIG1})*%
X116459000Y-85758368D02*
X116475019Y-85774387D01*
X116459000Y-78613000D02*
X116459000Y-85758368D01*
%TO.N,Net-(U5-~{TRIG0})*%
X118999000Y-85758368D02*
X119015019Y-85774387D01*
X118999000Y-78613000D02*
X118999000Y-85758368D01*
D60*
%TO.N,+3V3*%
X98846956Y-61309000D02*
X107425600Y-52730356D01*
X107425600Y-52730356D02*
X107425600Y-40919400D01*
X75184000Y-61309000D02*
X98846956Y-61309000D01*
%TO.N,Net-(D3-K)*%
X105375600Y-44094000D02*
X105375200Y-44094400D01*
X105375600Y-40919400D02*
X105375600Y-44094000D01*
%TO.N,Net-(D2-K)*%
X116332000Y-42037000D02*
X116332000Y-40014000D01*
X116332000Y-40014000D02*
X116323000Y-40005000D01*
%TO.N,VBUS*%
X90950000Y-53231000D02*
X104876600Y-53231000D01*
X87233000Y-49514000D02*
X90950000Y-53231000D01*
X87233000Y-46863000D02*
X87233000Y-49514000D01*
X91449000Y-45711000D02*
X91449000Y-44196000D01*
X90297000Y-46863000D02*
X91449000Y-45711000D01*
X87233000Y-46863000D02*
X90297000Y-46863000D01*
X91449000Y-40894000D02*
X91449000Y-44196000D01*
D59*
%TO.N,Net-(D7-K)*%
X87233000Y-44196000D02*
X89399000Y-44196000D01*
%TO.N,Net-(D8-K)*%
X87233000Y-40894000D02*
X89399000Y-40894000D01*
%TO.N,GND*%
X95543000Y-43622000D02*
X95053000Y-43132000D01*
X96173000Y-43622000D02*
X95543000Y-43622000D01*
D60*
X100423000Y-42602000D02*
X99893000Y-43132000D01*
X100423000Y-41812000D02*
X100423000Y-42602000D01*
X98433000Y-39862000D02*
X100514128Y-39862000D01*
X100514128Y-39862000D02*
X100756129Y-40104001D01*
X94723000Y-42802000D02*
X95053000Y-43132000D01*
X94723000Y-41062000D02*
X94723000Y-42802000D01*
X94441647Y-39862000D02*
X94199646Y-40104001D01*
X96513000Y-39862000D02*
X94441647Y-39862000D01*
X98433000Y-39862000D02*
X96513000Y-39862000D01*
D59*
%TO.N,Net-(J7-VBUS)*%
X104876600Y-49106000D02*
X104876600Y-51181000D01*
X103555800Y-46380400D02*
X104876600Y-47701200D01*
X99618800Y-46380400D02*
X103555800Y-46380400D01*
X98773000Y-45534600D02*
X99618800Y-46380400D01*
X104876600Y-47701200D02*
X104876600Y-49106000D01*
X98773000Y-43622000D02*
X98773000Y-45534600D01*
%TO.N,Net-(J7-D-)*%
X100660200Y-47269400D02*
X101142800Y-47752000D01*
X99237800Y-47269400D02*
X100660200Y-47269400D01*
X101142800Y-47752000D02*
X101142800Y-49102100D01*
X98123000Y-46154600D02*
X99237800Y-47269400D01*
X98123000Y-43622000D02*
X98123000Y-46154600D01*
%TO.N,Net-(J7-D+)*%
X97473000Y-49089900D02*
X97485200Y-49102100D01*
X97473000Y-43622000D02*
X97473000Y-49089900D01*
%TO.N,Net-(BT1-+)*%
X117950000Y-53992800D02*
X117957600Y-54000400D01*
X117950000Y-51562000D02*
X117950000Y-53992800D01*
%TO.N,Net-(U2-STAT)*%
X117950000Y-49662000D02*
X115752800Y-49662000D01*
X115752800Y-49662000D02*
X115747800Y-49657000D01*
%TO.N,Net-(U2-PROG)*%
X120650000Y-47371000D02*
X120650000Y-49662000D01*
D60*
%TO.N,Net-(D1-A)*%
X120650000Y-51562000D02*
X129794000Y-51562000D01*
X133858000Y-51562000D02*
X129794000Y-51562000D01*
X140790659Y-46407341D02*
X140790659Y-44251536D01*
X139928600Y-47269400D02*
X140790659Y-46407341D01*
X136474200Y-47269400D02*
X139928600Y-47269400D01*
X133858000Y-49885600D02*
X136474200Y-47269400D01*
X133858000Y-51562000D02*
X133858000Y-49885600D01*
%TO.N,Net-(SW1-C)*%
X154838000Y-49911000D02*
X150260123Y-49911000D01*
X150260123Y-49911000D02*
X144600659Y-44251536D01*
X161138000Y-49911000D02*
X154838000Y-49911000D01*
D61*
%TO.N,+12V*%
X147967662Y-39244000D02*
X156334662Y-47611000D01*
X156334662Y-47611000D02*
X161138000Y-47611000D01*
X120953800Y-39244000D02*
X147967662Y-39244000D01*
X120192800Y-40005000D02*
X120953800Y-39244000D01*
X118373000Y-40005000D02*
X120192800Y-40005000D01*
X169810400Y-47611000D02*
X161138000Y-47611000D01*
X172491400Y-50292000D02*
X169810400Y-47611000D01*
X178181000Y-50292000D02*
X172491400Y-50292000D01*
D60*
%TO.N,+3V3*%
X124385000Y-93762000D02*
X130885000Y-93762000D01*
D59*
X118110000Y-62230000D02*
X126111000Y-70231000D01*
X114808000Y-62230000D02*
X118110000Y-62230000D01*
X126111000Y-70231000D02*
X128127000Y-70231000D01*
%TD*%
M02*
