%TF.GenerationSoftware,KiCad,Pcbnew,9.0.5*%
%TF.CreationDate,2025-11-14T12:58:57-07:00*%
%TF.ProjectId,Project,50726f6a-6563-4742-9e6b-696361645f70,A*%
%TF.SameCoordinates,Original*%
%TF.FileFunction,Paste,Bot*%
%TF.FilePolarity,Positive*%
%FSLAX46Y46*%
G04 Gerber Fmt 4.6, Leading zero omitted, Abs format (unit mm)*
G04 Created by KiCad (PCBNEW 9.0.5) date 2025-11-14 12:58:57*
%MOMM*%
%LPD*%
G01*
G04 APERTURE LIST*
G04 Aperture macros list*
%AMRoundRect*
0 Rectangle with rounded corners*
0 $1 Rounding radius*
0 $2 $3 $4 $5 $6 $7 $8 $9 X,Y pos of 4 corners*
0 Add a 4 corners polygon primitive as box body*
4,1,4,$2,$3,$4,$5,$6,$7,$8,$9,$2,$3,0*
0 Add four circle primitives for the rounded corners*
1,1,$1+$1,$2,$3*
1,1,$1+$1,$4,$5*
1,1,$1+$1,$6,$7*
1,1,$1+$1,$8,$9*
0 Add four rect primitives between the rounded corners*
20,1,$1+$1,$2,$3,$4,$5,0*
20,1,$1+$1,$4,$5,$6,$7,0*
20,1,$1+$1,$6,$7,$8,$9,0*
20,1,$1+$1,$8,$9,$2,$3,0*%
G04 Aperture macros list end*
%ADD10RoundRect,0.150000X-0.587500X-0.150000X0.587500X-0.150000X0.587500X0.150000X-0.587500X0.150000X0*%
%ADD11RoundRect,0.250000X-0.350000X-0.450000X0.350000X-0.450000X0.350000X0.450000X-0.350000X0.450000X0*%
%ADD12RoundRect,0.250000X0.450000X-0.350000X0.450000X0.350000X-0.450000X0.350000X-0.450000X-0.350000X0*%
%ADD13R,1.900000X0.380000*%
%ADD14R,0.380000X1.900000*%
%ADD15RoundRect,0.857250X2.635250X2.000250X-2.635250X2.000250X-2.635250X-2.000250X2.635250X-2.000250X0*%
%ADD16RoundRect,0.250000X0.350000X0.450000X-0.350000X0.450000X-0.350000X-0.450000X0.350000X-0.450000X0*%
%ADD17RoundRect,0.150000X-0.150000X0.587500X-0.150000X-0.587500X0.150000X-0.587500X0.150000X0.587500X0*%
%ADD18RoundRect,0.250000X-0.325000X-0.450000X0.325000X-0.450000X0.325000X0.450000X-0.325000X0.450000X0*%
%ADD19RoundRect,0.250000X-0.475000X0.337500X-0.475000X-0.337500X0.475000X-0.337500X0.475000X0.337500X0*%
%ADD20RoundRect,0.250000X0.337500X0.475000X-0.337500X0.475000X-0.337500X-0.475000X0.337500X-0.475000X0*%
%ADD21RoundRect,0.250000X0.475000X-0.337500X0.475000X0.337500X-0.475000X0.337500X-0.475000X-0.337500X0*%
%ADD22RoundRect,0.250000X-0.337500X-0.475000X0.337500X-0.475000X0.337500X0.475000X-0.337500X0.475000X0*%
G04 APERTURE END LIST*
D10*
%TO.C,Q3*%
X171655500Y-53782000D03*
X171655500Y-51882000D03*
X173530500Y-52832000D03*
%TD*%
%TO.C,Q1*%
X75740500Y-83693000D03*
X73865500Y-82743000D03*
X73865500Y-84643000D03*
%TD*%
D11*
%TO.C,R5*%
X107375200Y-44094400D03*
%TD*%
%TO.C,R2*%
X118332000Y-42037000D03*
%TD*%
D12*
%TO.C,R21*%
X75184000Y-59309000D03*
%TD*%
D13*
%TO.C,U7*%
X83519402Y-57522800D03*
X83519402Y-56872800D03*
X83519402Y-56222800D03*
X83519402Y-55572800D03*
X83519402Y-54922800D03*
X83519402Y-54272800D03*
X83519402Y-53622800D03*
X83519402Y-52972800D03*
X83519402Y-52322800D03*
X83519402Y-51672800D03*
X83519402Y-51022800D03*
X83519402Y-50372800D03*
X83519402Y-49722800D03*
X83519402Y-49072800D03*
X91719400Y-49072800D03*
X91719400Y-49722800D03*
X91719400Y-50372800D03*
X91719400Y-51022800D03*
X91719400Y-51672800D03*
X91719400Y-52322800D03*
X91719400Y-52972800D03*
X91719400Y-53622800D03*
X91719400Y-54272800D03*
X91719400Y-54922800D03*
X91719400Y-55572800D03*
X91719400Y-56222800D03*
X91719400Y-56872800D03*
X91719400Y-57522800D03*
%TD*%
D14*
%TO.C,U6*%
X119398785Y-64342028D03*
X118748785Y-64342028D03*
X118098785Y-64342028D03*
X117448785Y-64342028D03*
X116798785Y-64342028D03*
X116148785Y-64342028D03*
X115498785Y-64342028D03*
X114848785Y-64342028D03*
X114198785Y-64342028D03*
X113548785Y-64342028D03*
X112898785Y-64342028D03*
X112248785Y-64342028D03*
X111598785Y-64342028D03*
X110948785Y-64342028D03*
X110948785Y-72542026D03*
X111598785Y-72542026D03*
X112248785Y-72542026D03*
X112898785Y-72542026D03*
X113548785Y-72542026D03*
X114198785Y-72542026D03*
X114848785Y-72542026D03*
X115498785Y-72542026D03*
X116148785Y-72542026D03*
X116798785Y-72542026D03*
X117448785Y-72542026D03*
X118098785Y-72542026D03*
X118748785Y-72542026D03*
X119398785Y-72542026D03*
%TD*%
D15*
%TO.C,SW2*%
X98350743Y-96059302D03*
%TD*%
D16*
%TO.C,R28*%
X85233000Y-40894000D03*
%TD*%
%TO.C,R27*%
X85233000Y-44196000D03*
%TD*%
D11*
%TO.C,R22*%
X109236000Y-88773000D03*
%TD*%
D16*
%TO.C,R12*%
X126127000Y-70231000D03*
%TD*%
D12*
%TO.C,R10*%
X77089000Y-75311000D03*
X77089000Y-73311000D03*
%TD*%
D16*
%TO.C,R3*%
X118650000Y-47371000D03*
%TD*%
D11*
%TO.C,R1*%
X113747800Y-49657000D03*
%TD*%
D17*
%TO.C,Q2*%
X72903000Y-77724000D03*
X74803000Y-77724000D03*
X73853000Y-79599000D03*
%TD*%
D18*
%TO.C,D4*%
X124070000Y-72517000D03*
X126120000Y-72517000D03*
%TD*%
D19*
%TO.C,C17*%
X97485200Y-51177100D03*
%TD*%
%TO.C,C16*%
X101142800Y-51177100D03*
%TD*%
D20*
%TO.C,C15*%
X91461500Y-44196000D03*
X89386500Y-44196000D03*
%TD*%
D21*
%TO.C,C14*%
X108585000Y-55118000D03*
X108585000Y-53043000D03*
%TD*%
D20*
%TO.C,C13*%
X104775000Y-55372000D03*
X102700000Y-55372000D03*
%TD*%
D19*
%TO.C,C12*%
X104876600Y-51181000D03*
%TD*%
D22*
%TO.C,C11*%
X126089500Y-76073000D03*
X128164500Y-76073000D03*
%TD*%
D20*
%TO.C,C10*%
X128143000Y-66548000D03*
%TD*%
M02*
