M48
; DRILL file {KiCad 9.0.5} date 2025-11-14T12:58:10-0700
; FORMAT={-:-/ absolute / inch / decimal}
; #@! TF.CreationDate,2025-11-14T12:58:10-07:00
; #@! TF.GenerationSoftware,Kicad,Pcbnew,9.0.5
; #@! TF.FileFunction,Plated,1,2,PTH
FMAT,2
INCH
; #@! TA.AperFunction,Plated,PTH,ViaDrill
T1C0.0118
; #@! TA.AperFunction,Plated,PTH,ComponentDrill
T2C0.0150
; #@! TA.AperFunction,Plated,PTH,ComponentDrill
T3C0.0200
; #@! TA.AperFunction,Plated,PTH,ComponentDrill
T4C0.0350
; #@! TA.AperFunction,Plated,PTH,ComponentDrill
T5C0.0390
; #@! TA.AperFunction,Plated,PTH,ComponentDrill
T6C0.0433
; #@! TA.AperFunction,Plated,PTH,ComponentDrill
T7C0.0472
; #@! TA.AperFunction,Plated,PTH,ComponentDrill
T8C0.0500
; #@! TA.AperFunction,Plated,PTH,ComponentDrill
T9C0.0512
; #@! TA.AperFunction,Plated,PTH,ComponentDrill
T10C0.0600
; #@! TA.AperFunction,Plated,PTH,ComponentDrill
T11C0.0700
; #@! TA.AperFunction,Plated,PTH,ComponentDrill
T12C0.0750
; #@! TA.AperFunction,Plated,PTH,ComponentDrill
T13C0.1063
; #@! TA.AperFunction,Plated,PTH,ComponentDrill
T14C0.1500
%
G90
G05
T1
X4.165Y-2.785
X4.205Y-2.43
X4.365Y-2.73
X4.433Y-2.937
X4.4625Y-2.7425
X4.49Y-2.65
X4.495Y-2.925
X4.52Y-2.45
X4.54Y-2.77
X4.55Y-2.64
X4.675Y-2.61
X4.93Y-2.56
X5.895Y-2.575
T2
X3.1863Y-3.3461
X3.1863Y-3.4061
X3.4222Y-3.3461
X3.4222Y-3.4061
X4.525Y-3.5018
X4.525Y-3.5618
X4.7609Y-3.5018
X4.7609Y-3.5618
T3
X2.6582Y-3.465
X2.6584Y-3.6086
X2.7417Y-2.807
X2.96Y-2.4137
X2.9906Y-3.405
X3.0656Y-3.12
X3.1183Y-3.266
X3.14Y-3.5794
X3.1444Y-3.12
X3.335Y-3.1056
X3.3556Y-1.845
X3.421Y-4.1407
X3.4344Y-1.61
X3.4344Y-1.74
X3.4908Y-3.57
X3.562Y-4.059
X3.562Y-4.1407
X3.838Y-1.9332
X3.855Y-3.9663
X3.9056Y-3.55
X3.982Y-1.9332
X3.99Y-3.9663
X4.129Y-1.9333
X4.129Y-2.0957
X4.1486Y-1.736
X4.1506Y-3.56
X4.255Y-4.0544
X4.3794Y-3.495
X4.406Y-1.955
X4.406Y-2.0357
X4.557Y-1.955
X4.58Y-1.655
X4.64Y-4.0544
X4.644Y-2.126
X4.7257Y-2.126
X4.75Y-1.865
X4.99Y-4.0593
X5.0444Y-2.765
X5.1267Y-2.62
X5.27Y-2.1117
X6.6458Y-1.965
X6.76Y-2.215
X6.8196Y-2.8556
X6.8196Y-2.9343
X6.8387Y-2.215
T4
X3.7422Y-1.6981
X3.9328Y-1.6981
T5
X6.9701Y-3.2354
X6.9701Y-3.4126
T6
X4.1341Y-3.69
X4.1341Y-3.8672
X4.39Y-3.69
X4.39Y-3.8672
X4.515Y-3.69
X4.515Y-3.8672
X4.7709Y-3.69
X4.7709Y-3.8672
X4.897Y-3.6914
X4.897Y-3.8686
X5.153Y-3.6914
X5.153Y-3.8686
T7
X3.7086Y-1.5789
X3.9668Y-1.5789
T8
X2.664Y-2.966
X2.7Y-1.625
X2.7Y-1.725
X2.7Y-2.335
X2.7Y-2.435
X2.715Y-3.195
X2.715Y-3.295
X2.74Y-3.78
X2.88Y-3.465
X3.135Y-2.162
X3.135Y-2.265
X3.19Y-2.52
X3.19Y-2.645
X3.19Y-2.765
X3.22Y-2.965
X3.306Y-4.059
X3.367Y-2.602
X3.49Y-4.235
X3.665Y-4.235
X3.7Y-3.09
X3.7856Y-3.3769
X3.7856Y-4.1769
X3.8856Y-3.3769
X3.8856Y-4.1769
X3.9856Y-3.3769
X3.9856Y-4.1769
X4.0856Y-3.3769
X4.0856Y-4.1769
X4.185Y-3.095
X4.1856Y-3.3769
X4.1856Y-4.1769
X4.285Y-3.095
X4.2856Y-3.3769
X4.2856Y-4.1769
X4.385Y-3.095
X4.3856Y-3.3769
X4.3856Y-4.1769
X4.485Y-3.095
X4.4856Y-3.3769
X4.4856Y-4.1769
X4.585Y-3.095
X4.5856Y-3.3769
X4.5856Y-4.1769
X4.685Y-3.095
X4.6856Y-3.3769
X4.6856Y-4.1769
X4.7856Y-3.3769
X4.7856Y-4.1769
X5.01Y-4.315
X5.11Y-2.03
X5.85Y-1.74
X7.0146Y-2.5597
X7.0146Y-2.6597
X7.0146Y-2.7597
X7.0146Y-2.8597
X7.0146Y-2.9597
X7.0146Y-3.0597
X7.015Y-1.98
X7.015Y-2.08
X7.025Y-2.325
T9
X6.8721Y-3.1862
X6.8721Y-3.4622
T10
X4.8929Y-1.6422
X4.8929Y-1.8422
X5.3929Y-1.7422
X5.5429Y-1.7422
X5.6929Y-1.7422
T11
X2.6295Y-4.5862
X3.161Y-4.5862
T12
X3.6198Y-2.603
X6.745Y-2.603
T13
X2.7535Y-4.35
X3.037Y-4.35
T14
X2.72Y-2.045
X2.72Y-4.045
X5.54Y-2.045
M30
