%TF.GenerationSoftware,KiCad,Pcbnew,9.0.5*%
%TF.CreationDate,2025-11-14T12:58:58-07:00*%
%TF.ProjectId,Project,50726f6a-6563-4742-9e6b-696361645f70,A*%
%TF.SameCoordinates,Original*%
%TF.FileFunction,Soldermask,Top*%
%TF.FilePolarity,Negative*%
%FSLAX46Y46*%
G04 Gerber Fmt 4.6, Leading zero omitted, Abs format (unit mm)*
G04 Created by KiCad (PCBNEW 9.0.5) date 2025-11-14 12:58:58*
%MOMM*%
%LPD*%
G01*
G04 APERTURE LIST*
G04 Aperture macros list*
%AMRoundRect*
0 Rectangle with rounded corners*
0 $1 Rounding radius*
0 $2 $3 $4 $5 $6 $7 $8 $9 X,Y pos of 4 corners*
0 Add a 4 corners polygon primitive as box body*
4,1,4,$2,$3,$4,$5,$6,$7,$8,$9,$2,$3,0*
0 Add four circle primitives for the rounded corners*
1,1,$1+$1,$2,$3*
1,1,$1+$1,$4,$5*
1,1,$1+$1,$6,$7*
1,1,$1+$1,$8,$9*
0 Add four rect primitives between the rounded corners*
20,1,$1+$1,$2,$3,$4,$5,0*
20,1,$1+$1,$4,$5,$6,$7,0*
20,1,$1+$1,$6,$7,$8,$9,0*
20,1,$1+$1,$8,$9,$2,$3,0*%
G04 Aperture macros list end*
%ADD10RoundRect,0.476250X0.476250X-0.476250X0.476250X0.476250X-0.476250X0.476250X-0.476250X-0.476250X0*%
%ADD11RoundRect,0.476250X-0.476250X-0.476250X0.476250X-0.476250X0.476250X0.476250X-0.476250X0.476250X0*%
%ADD12C,2.032000*%
%ADD13R,1.825000X0.700000*%
%ADD14R,2.000000X1.500000*%
%ADD15R,1.350000X2.000000*%
%ADD16C,1.397000*%
%ADD17R,1.430000X2.500000*%
%ADD18R,0.400000X2.870000*%
%ADD19R,1.905000X0.812800*%
%ADD20RoundRect,0.250000X-0.450000X0.350000X-0.450000X-0.350000X0.450000X-0.350000X0.450000X0.350000X0*%
%ADD21RoundRect,0.150000X0.825000X0.150000X-0.825000X0.150000X-0.825000X-0.150000X0.825000X-0.150000X0*%
%ADD22RoundRect,0.250000X0.337500X0.475000X-0.337500X0.475000X-0.337500X-0.475000X0.337500X-0.475000X0*%
%ADD23RoundRect,0.250000X-0.350000X-0.450000X0.350000X-0.450000X0.350000X0.450000X-0.350000X0.450000X0*%
%ADD24RoundRect,0.250000X-0.325000X-0.450000X0.325000X-0.450000X0.325000X0.450000X-0.325000X0.450000X0*%
%ADD25C,3.048000*%
%ADD26RoundRect,0.250000X0.450000X-0.350000X0.450000X0.350000X-0.450000X0.350000X-0.450000X-0.350000X0*%
%ADD27R,6.731000X6.731000*%
%ADD28R,7.112000X7.112000*%
%ADD29RoundRect,0.476250X0.476250X0.476250X-0.476250X0.476250X-0.476250X-0.476250X0.476250X-0.476250X0*%
%ADD30C,2.413000*%
%ADD31RoundRect,1.025000X1.025000X1.025000X-1.025000X1.025000X-1.025000X-1.025000X1.025000X-1.025000X0*%
%ADD32C,4.100000*%
%ADD33RoundRect,0.162500X-0.162500X0.617500X-0.162500X-0.617500X0.162500X-0.617500X0.162500X0.617500X0*%
%ADD34RoundRect,0.162500X-0.617500X-0.162500X0.617500X-0.162500X0.617500X0.162500X-0.617500X0.162500X0*%
%ADD35RoundRect,0.375000X0.625000X0.375000X-0.625000X0.375000X-0.625000X-0.375000X0.625000X-0.375000X0*%
%ADD36RoundRect,0.500000X0.500000X1.400000X-0.500000X1.400000X-0.500000X-1.400000X0.500000X-1.400000X0*%
%ADD37C,2.000000*%
%ADD38C,2.100000*%
%ADD39C,1.750000*%
%ADD40RoundRect,0.857250X2.635250X2.000250X-2.635250X2.000250X-2.635250X-2.000250X2.635250X-2.000250X0*%
%ADD41RoundRect,0.250000X0.350000X0.450000X-0.350000X0.450000X-0.350000X-0.450000X0.350000X-0.450000X0*%
%ADD42RoundRect,0.150000X0.150000X-0.587500X0.150000X0.587500X-0.150000X0.587500X-0.150000X-0.587500X0*%
%ADD43RoundRect,0.250000X-0.450000X0.325000X-0.450000X-0.325000X0.450000X-0.325000X0.450000X0.325000X0*%
%ADD44R,3.048000X4.572000*%
%ADD45RoundRect,0.476250X-0.476250X0.476250X-0.476250X-0.476250X0.476250X-0.476250X0.476250X0.476250X0*%
%ADD46RoundRect,0.250000X-0.475000X0.337500X-0.475000X-0.337500X0.475000X-0.337500X0.475000X0.337500X0*%
%ADD47RoundRect,0.250000X-0.337500X-0.475000X0.337500X-0.475000X0.337500X0.475000X-0.337500X0.475000X0*%
%ADD48C,2.390000*%
%ADD49C,3.450000*%
%ADD50RoundRect,0.263772X-3.673228X-3.165228X3.673228X-3.165228X3.673228X3.165228X-3.673228X3.165228X0*%
%ADD51RoundRect,0.273542X-3.663458X-3.282458X3.663458X-3.282458X3.663458X3.282458X-3.663458X3.282458X0*%
G04 APERTURE END LIST*
D10*
%TO.C,TP21*%
X81026000Y-64008000D03*
%TD*%
%TO.C,TP20*%
X81026000Y-70231000D03*
%TD*%
%TO.C,TP18*%
X81026000Y-67183000D03*
%TD*%
D11*
%TO.C,TP15*%
X93091000Y-107569000D03*
%TD*%
%TO.C,TP12*%
X108839000Y-78613000D03*
%TD*%
%TO.C,TP8*%
X118999000Y-78613000D03*
%TD*%
%TO.C,TP9*%
X116459000Y-78613000D03*
%TD*%
%TO.C,TP10*%
X113919000Y-78613000D03*
%TD*%
%TO.C,TP11*%
X111379000Y-78613000D03*
%TD*%
%TO.C,TP17*%
X93980000Y-78486000D03*
%TD*%
%TO.C,TP14*%
X106299000Y-78613000D03*
%TD*%
%TO.C,TP23*%
X79629000Y-54914800D03*
%TD*%
%TO.C,TP22*%
X79629000Y-57531000D03*
%TD*%
%TO.C,TP19*%
X67665600Y-75336400D03*
%TD*%
%TO.C,TP16*%
X178435000Y-59055000D03*
%TD*%
%TO.C,TP13*%
X81788000Y-75311000D03*
%TD*%
%TO.C,TP7*%
X88646000Y-107569000D03*
%TD*%
%TO.C,TP6*%
X83972400Y-103098600D03*
%TD*%
%TO.C,TP5*%
X73152000Y-88011000D03*
%TD*%
%TO.C,TP4*%
X85521800Y-66090800D03*
%TD*%
%TO.C,TP1*%
X129794000Y-51562000D03*
%TD*%
%TO.C,TP3*%
X148590000Y-44196000D03*
%TD*%
%TO.C,TP2*%
X127254000Y-109601000D03*
%TD*%
D12*
%TO.C,J7*%
X94199646Y-40104001D03*
D13*
X94473000Y-41812000D03*
D14*
X94573000Y-43132000D03*
D15*
X94723000Y-41062000D03*
D16*
X95053000Y-43132000D03*
D17*
X96513000Y-39862000D03*
X98433000Y-39862000D03*
D16*
X99893000Y-43132000D03*
D15*
X100203000Y-41062000D03*
D14*
X100323000Y-43112000D03*
D13*
X100423000Y-41812000D03*
D12*
X100756129Y-40104001D03*
D18*
X96173000Y-43622000D03*
X96823000Y-43622000D03*
X97473000Y-43622000D03*
X98123000Y-43622000D03*
X98773000Y-43622000D03*
%TD*%
D19*
%TO.C,D6*%
X86924945Y-84991990D03*
X80933229Y-84991990D03*
X80933229Y-86515415D03*
X86924945Y-86515415D03*
%TD*%
%TO.C,D5*%
X120926125Y-88946861D03*
X114934409Y-88946861D03*
X114934409Y-90470286D03*
X120926125Y-90470286D03*
%TD*%
D20*
%TO.C,R6*%
X79756000Y-90916000D03*
X79756000Y-88916000D03*
%TD*%
D21*
%TO.C,U4*%
X86422000Y-97917000D03*
X86422000Y-96647000D03*
X86422000Y-95377000D03*
X86422000Y-94107000D03*
X81472000Y-94107000D03*
X81472000Y-95377000D03*
X81472000Y-96647000D03*
X81472000Y-97917000D03*
%TD*%
D22*
%TO.C,C3*%
X75060900Y-97790000D03*
X77135900Y-97790000D03*
%TD*%
D23*
%TO.C,R5*%
X105375200Y-44094400D03*
%TD*%
D24*
%TO.C,D3*%
X105375600Y-40919400D03*
X107425600Y-40919400D03*
%TD*%
D25*
%TO.C,SW1*%
X144600659Y-44251536D03*
X140790659Y-44251536D03*
X136980659Y-44251536D03*
X124280659Y-46791536D03*
X124280659Y-41711536D03*
%TD*%
D23*
%TO.C,R2*%
X116332000Y-42037000D03*
%TD*%
D24*
%TO.C,D2*%
X116323000Y-40005000D03*
X118373000Y-40005000D03*
%TD*%
D26*
%TO.C,R21*%
X75184000Y-61309000D03*
%TD*%
D27*
%TO.C,REF\u002A\u002A*%
X140716000Y-51943000D03*
%TD*%
D28*
%TO.C,REF\u002A\u002A*%
X69088000Y-102743000D03*
%TD*%
%TO.C,REF\u002A\u002A*%
X69088000Y-51943000D03*
%TD*%
D29*
%TO.C,U5*%
X121555019Y-106094387D03*
X119015019Y-106094387D03*
X116475019Y-106094387D03*
X113935019Y-106094387D03*
X111395019Y-106094387D03*
X108855019Y-106094387D03*
X106315019Y-106094387D03*
X103775019Y-106094387D03*
X101235019Y-106094387D03*
X98695019Y-106094387D03*
X96155019Y-106094387D03*
X96155019Y-85774387D03*
X98695019Y-85774387D03*
X101235019Y-85774387D03*
X103775019Y-85774387D03*
X106315019Y-85774387D03*
X108855019Y-85774387D03*
X111395019Y-85774387D03*
X113935019Y-85774387D03*
X116475019Y-85774387D03*
X119015019Y-85774387D03*
X121555019Y-85774387D03*
%TD*%
D30*
%TO.C,J1*%
X80289800Y-116490000D03*
X66789800Y-116490000D03*
D31*
X77139800Y-110490000D03*
D32*
X69939800Y-110490000D03*
%TD*%
D33*
%TO.C,U3*%
X77163700Y-91690200D03*
X76213700Y-91690200D03*
X75263700Y-91690200D03*
X75263700Y-94390200D03*
X76213700Y-94390200D03*
X77163700Y-94390200D03*
%TD*%
D34*
%TO.C,U2*%
X117950000Y-49662000D03*
X117950000Y-50612000D03*
X117950000Y-51562000D03*
X120650000Y-51562000D03*
X120650000Y-49662000D03*
%TD*%
D35*
%TO.C,U1*%
X161138000Y-52211000D03*
X161138000Y-49911000D03*
D36*
X154838000Y-49911000D03*
D35*
X161138000Y-47611000D03*
%TD*%
D37*
%TO.C,SW6*%
X105006000Y-98226000D03*
X111506000Y-98226000D03*
X105006000Y-93726000D03*
X111506000Y-93726000D03*
%TD*%
%TO.C,SW5*%
X114681000Y-98226000D03*
X121181000Y-98226000D03*
X114681000Y-93726000D03*
X121181000Y-93726000D03*
%TD*%
%TO.C,SW4*%
X124385000Y-98262000D03*
X130885000Y-98262000D03*
X124385000Y-93762000D03*
X130885000Y-93762000D03*
%TD*%
D38*
%TO.C,SW3*%
X174550500Y-80930000D03*
X174550500Y-87940000D03*
D39*
X177040500Y-82180000D03*
X177040500Y-86680000D03*
%TD*%
D40*
%TO.C,SW2*%
X69596000Y-96012000D03*
%TD*%
D41*
%TO.C,R29*%
X87233000Y-46863000D03*
X85233000Y-46863000D03*
%TD*%
%TO.C,R28*%
X87233000Y-40894000D03*
%TD*%
%TO.C,R27*%
X87233000Y-44196000D03*
%TD*%
D20*
%TO.C,R26*%
X84709000Y-78883000D03*
X84709000Y-80883000D03*
%TD*%
D23*
%TO.C,R25*%
X67640200Y-71297800D03*
X69640200Y-71297800D03*
%TD*%
%TO.C,R24*%
X79203800Y-82956400D03*
X81203800Y-82956400D03*
%TD*%
%TO.C,R23*%
X75962000Y-86487000D03*
X77962000Y-86487000D03*
%TD*%
%TO.C,R22*%
X111236000Y-88773000D03*
%TD*%
D26*
%TO.C,R20*%
X75184000Y-43275000D03*
X75184000Y-41275000D03*
%TD*%
D23*
%TO.C,R19*%
X105426000Y-90424000D03*
X107426000Y-90424000D03*
%TD*%
%TO.C,R18*%
X99203000Y-90170000D03*
X101203000Y-90170000D03*
%TD*%
D20*
%TO.C,R17*%
X108077000Y-100981000D03*
X108077000Y-102981000D03*
%TD*%
%TO.C,R16*%
X117856000Y-100981000D03*
X117856000Y-102981000D03*
%TD*%
%TO.C,R15*%
X126745214Y-103106363D03*
X126745214Y-101106363D03*
%TD*%
D26*
%TO.C,R14*%
X173217070Y-72531363D03*
X173217070Y-74531363D03*
%TD*%
D23*
%TO.C,R13*%
X171704000Y-56261000D03*
X173704000Y-56261000D03*
%TD*%
D41*
%TO.C,R12*%
X128127000Y-70231000D03*
%TD*%
D26*
%TO.C,R11*%
X101346000Y-102743000D03*
X101346000Y-100743000D03*
%TD*%
D20*
%TO.C,R9*%
X97917000Y-100743000D03*
X97917000Y-102743000D03*
%TD*%
D23*
%TO.C,R8*%
X77867000Y-79248000D03*
X79867000Y-79248000D03*
%TD*%
D26*
%TO.C,R7*%
X90424000Y-100695000D03*
X90424000Y-98695000D03*
%TD*%
%TO.C,R4*%
X81788000Y-90916000D03*
X81788000Y-88916000D03*
%TD*%
D41*
%TO.C,R3*%
X120650000Y-47371000D03*
%TD*%
D23*
%TO.C,R1*%
X115747800Y-49657000D03*
%TD*%
D42*
%TO.C,Q4*%
X67630000Y-67661000D03*
X69530000Y-67661000D03*
X68580000Y-65786000D03*
%TD*%
D43*
%TO.C,L2*%
X104876600Y-51181000D03*
X104876600Y-53231000D03*
%TD*%
D44*
%TO.C,L1*%
X75057000Y-103098600D03*
X80137000Y-103098600D03*
%TD*%
D45*
%TO.C,J6*%
X68580000Y-59309000D03*
X68580000Y-61849000D03*
%TD*%
%TO.C,J5*%
X68580000Y-41275000D03*
X68580000Y-43815000D03*
%TD*%
%TO.C,J4*%
X178181000Y-50292000D03*
X178181000Y-52832000D03*
%TD*%
%TO.C,J3*%
X178170693Y-77716113D03*
X178170693Y-75176113D03*
X178170693Y-72636113D03*
X178170693Y-70096113D03*
X178170693Y-67556113D03*
X178170693Y-65016113D03*
%TD*%
%TO.C,J2*%
X68961000Y-81153000D03*
X68961000Y-83693000D03*
%TD*%
D24*
%TO.C,D8*%
X89399000Y-40894000D03*
X91449000Y-40894000D03*
%TD*%
%TO.C,D7*%
X89399000Y-44196000D03*
X91449000Y-44196000D03*
%TD*%
D43*
%TO.C,D1*%
X111912400Y-49657000D03*
X111912400Y-51707000D03*
%TD*%
D46*
%TO.C,C17*%
X97485200Y-49102100D03*
%TD*%
%TO.C,C16*%
X101142800Y-49102100D03*
%TD*%
%TO.C,C12*%
X104876600Y-49106000D03*
%TD*%
D22*
%TO.C,C10*%
X130218000Y-66548000D03*
%TD*%
D47*
%TO.C,C9*%
X86592500Y-90678000D03*
X88667500Y-90678000D03*
%TD*%
D46*
%TO.C,C8*%
X86893400Y-103098600D03*
X86893400Y-105173600D03*
%TD*%
%TO.C,C7*%
X90474800Y-103098600D03*
X90474800Y-105173600D03*
%TD*%
D22*
%TO.C,C6*%
X69592100Y-88011000D03*
X67517100Y-88011000D03*
%TD*%
%TO.C,C5*%
X69598148Y-91658322D03*
X67523148Y-91658322D03*
%TD*%
D47*
%TO.C,C4*%
X117957600Y-54000400D03*
X120032600Y-54000400D03*
%TD*%
D46*
%TO.C,C1*%
X133858000Y-51562000D03*
X133858000Y-53637000D03*
%TD*%
D47*
%TO.C,C2*%
X166729500Y-49911000D03*
X168804500Y-49911000D03*
%TD*%
D48*
%TO.C,BT1*%
X95502740Y-58115195D03*
D49*
X104012740Y-74115195D03*
X159252740Y-58115195D03*
D50*
X91942740Y-66115195D03*
D51*
X171322740Y-66115195D03*
%TD*%
M02*
