%TF.GenerationSoftware,KiCad,Pcbnew,9.0.5*%
%TF.CreationDate,2025-11-06T13:41:08-07:00*%
%TF.ProjectId,Target_Jumper,54617267-6574-45f4-9a75-6d7065722e6b,rev?*%
%TF.SameCoordinates,Original*%
%TF.FileFunction,Copper,L2,Bot*%
%TF.FilePolarity,Positive*%
%FSLAX46Y46*%
G04 Gerber Fmt 4.6, Leading zero omitted, Abs format (unit mm)*
G04 Created by KiCad (PCBNEW 9.0.5) date 2025-11-06 13:41:08*
%MOMM*%
%LPD*%
G01*
G04 APERTURE LIST*
G04 Aperture macros list*
%AMRoundRect*
0 Rectangle with rounded corners*
0 $1 Rounding radius*
0 $2 $3 $4 $5 $6 $7 $8 $9 X,Y pos of 4 corners*
0 Add a 4 corners polygon primitive as box body*
4,1,4,$2,$3,$4,$5,$6,$7,$8,$9,$2,$3,0*
0 Add four circle primitives for the rounded corners*
1,1,$1+$1,$2,$3*
1,1,$1+$1,$4,$5*
1,1,$1+$1,$6,$7*
1,1,$1+$1,$8,$9*
0 Add four rect primitives between the rounded corners*
20,1,$1+$1,$2,$3,$4,$5,0*
20,1,$1+$1,$4,$5,$6,$7,0*
20,1,$1+$1,$6,$7,$8,$9,0*
20,1,$1+$1,$8,$9,$2,$3,0*%
G04 Aperture macros list end*
%TA.AperFunction,ComponentPad*%
%ADD10RoundRect,0.476250X0.476250X-0.476250X0.476250X0.476250X-0.476250X0.476250X-0.476250X-0.476250X0*%
%TD*%
G04 APERTURE END LIST*
D10*
%TO.P,J15,1*%
%TO.N,+5V*%
X168275000Y-117475000D03*
%TO.P,J15,2*%
X168275000Y-114935000D03*
%TO.P,J15,3*%
%TO.N,/SCL*%
X168275000Y-112395000D03*
%TO.P,J15,4*%
%TO.N,/SDA*%
X168275000Y-109855000D03*
%TO.P,J15,5*%
%TO.N,GND*%
X168275000Y-107315000D03*
%TO.P,J15,6*%
X168275000Y-104775000D03*
%TD*%
%TO.P,J3,1*%
%TO.N,+5V*%
X92075000Y-117475000D03*
%TO.P,J3,2*%
X92075000Y-114935000D03*
%TO.P,J3,3*%
%TO.N,/SCL*%
X92075000Y-112395000D03*
%TO.P,J3,4*%
%TO.N,/SDA*%
X92075000Y-109855000D03*
%TO.P,J3,5*%
%TO.N,GND*%
X92075000Y-107315000D03*
%TO.P,J3,6*%
X92075000Y-104775000D03*
%TD*%
%TO.P,J7,1*%
%TO.N,+5V*%
X117475000Y-117475000D03*
%TO.P,J7,2*%
X117475000Y-114935000D03*
%TO.P,J7,3*%
%TO.N,/SCL*%
X117475000Y-112395000D03*
%TO.P,J7,4*%
%TO.N,/SDA*%
X117475000Y-109855000D03*
%TO.P,J7,5*%
%TO.N,GND*%
X117475000Y-107315000D03*
%TO.P,J7,6*%
X117475000Y-104775000D03*
%TD*%
%TO.P,J5,1*%
%TO.N,+5V*%
X104775000Y-117475000D03*
%TO.P,J5,2*%
X104775000Y-114935000D03*
%TO.P,J5,3*%
%TO.N,/SCL*%
X104775000Y-112395000D03*
%TO.P,J5,4*%
%TO.N,/SDA*%
X104775000Y-109855000D03*
%TO.P,J5,5*%
%TO.N,GND*%
X104775000Y-107315000D03*
%TO.P,J5,6*%
X104775000Y-104775000D03*
%TD*%
%TO.P,J17,1*%
%TO.N,+5V*%
X180975000Y-117475000D03*
%TO.P,J17,2*%
X180975000Y-114935000D03*
%TO.P,J17,3*%
%TO.N,/SCL*%
X180975000Y-112395000D03*
%TO.P,J17,4*%
%TO.N,/SDA*%
X180975000Y-109855000D03*
%TO.P,J17,5*%
%TO.N,GND*%
X180975000Y-107315000D03*
%TO.P,J17,6*%
X180975000Y-104775000D03*
%TD*%
%TO.P,J11,1*%
%TO.N,+5V*%
X142875000Y-117475000D03*
%TO.P,J11,2*%
X142875000Y-114935000D03*
%TO.P,J11,3*%
%TO.N,/SCL*%
X142875000Y-112395000D03*
%TO.P,J11,4*%
%TO.N,/SDA*%
X142875000Y-109855000D03*
%TO.P,J11,5*%
%TO.N,GND*%
X142875000Y-107315000D03*
%TO.P,J11,6*%
X142875000Y-104775000D03*
%TD*%
%TO.P,J8,1*%
%TO.N,+5V*%
X123825000Y-117475000D03*
%TO.P,J8,2*%
X123825000Y-114935000D03*
%TO.P,J8,3*%
%TO.N,/SCL*%
X123825000Y-112395000D03*
%TO.P,J8,4*%
%TO.N,/SDA*%
X123825000Y-109855000D03*
%TO.P,J8,5*%
%TO.N,GND*%
X123825000Y-107315000D03*
%TO.P,J8,6*%
X123825000Y-104775000D03*
%TD*%
%TO.P,J4,1*%
%TO.N,+5V*%
X98425000Y-117475000D03*
%TO.P,J4,2*%
X98425000Y-114935000D03*
%TO.P,J4,3*%
%TO.N,/SCL*%
X98425000Y-112395000D03*
%TO.P,J4,4*%
%TO.N,/SDA*%
X98425000Y-109855000D03*
%TO.P,J4,5*%
%TO.N,GND*%
X98425000Y-107315000D03*
%TO.P,J4,6*%
X98425000Y-104775000D03*
%TD*%
%TO.P,J12,1*%
%TO.N,+5V*%
X149225000Y-117475000D03*
%TO.P,J12,2*%
X149225000Y-114935000D03*
%TO.P,J12,3*%
%TO.N,/SCL*%
X149225000Y-112395000D03*
%TO.P,J12,4*%
%TO.N,/SDA*%
X149225000Y-109855000D03*
%TO.P,J12,5*%
%TO.N,GND*%
X149225000Y-107315000D03*
%TO.P,J12,6*%
X149225000Y-104775000D03*
%TD*%
%TO.P,J6,1*%
%TO.N,+5V*%
X111125000Y-117475000D03*
%TO.P,J6,2*%
X111125000Y-114935000D03*
%TO.P,J6,3*%
%TO.N,/SCL*%
X111125000Y-112395000D03*
%TO.P,J6,4*%
%TO.N,/SDA*%
X111125000Y-109855000D03*
%TO.P,J6,5*%
%TO.N,GND*%
X111125000Y-107315000D03*
%TO.P,J6,6*%
X111125000Y-104775000D03*
%TD*%
%TO.P,J13,1*%
%TO.N,+5V*%
X155575000Y-117475000D03*
%TO.P,J13,2*%
X155575000Y-114935000D03*
%TO.P,J13,3*%
%TO.N,/SCL*%
X155575000Y-112395000D03*
%TO.P,J13,4*%
%TO.N,/SDA*%
X155575000Y-109855000D03*
%TO.P,J13,5*%
%TO.N,GND*%
X155575000Y-107315000D03*
%TO.P,J13,6*%
X155575000Y-104775000D03*
%TD*%
%TO.P,J16,1*%
%TO.N,+5V*%
X174625000Y-117475000D03*
%TO.P,J16,2*%
X174625000Y-114935000D03*
%TO.P,J16,3*%
%TO.N,/SCL*%
X174625000Y-112395000D03*
%TO.P,J16,4*%
%TO.N,/SDA*%
X174625000Y-109855000D03*
%TO.P,J16,5*%
%TO.N,GND*%
X174625000Y-107315000D03*
%TO.P,J16,6*%
X174625000Y-104775000D03*
%TD*%
%TO.P,J19,1*%
%TO.N,+5V*%
X193675000Y-117475000D03*
%TO.P,J19,2*%
X193675000Y-114935000D03*
%TO.P,J19,3*%
%TO.N,/SCL*%
X193675000Y-112395000D03*
%TO.P,J19,4*%
%TO.N,/SDA*%
X193675000Y-109855000D03*
%TO.P,J19,5*%
%TO.N,GND*%
X193675000Y-107315000D03*
%TO.P,J19,6*%
X193675000Y-104775000D03*
%TD*%
%TO.P,J9,1*%
%TO.N,+5V*%
X130175000Y-117475000D03*
%TO.P,J9,2*%
X130175000Y-114935000D03*
%TO.P,J9,3*%
%TO.N,/SCL*%
X130175000Y-112395000D03*
%TO.P,J9,4*%
%TO.N,/SDA*%
X130175000Y-109855000D03*
%TO.P,J9,5*%
%TO.N,GND*%
X130175000Y-107315000D03*
%TO.P,J9,6*%
X130175000Y-104775000D03*
%TD*%
%TO.P,J10,1*%
%TO.N,+5V*%
X136525000Y-117475000D03*
%TO.P,J10,2*%
X136525000Y-114935000D03*
%TO.P,J10,3*%
%TO.N,/SCL*%
X136525000Y-112395000D03*
%TO.P,J10,4*%
%TO.N,/SDA*%
X136525000Y-109855000D03*
%TO.P,J10,5*%
%TO.N,GND*%
X136525000Y-107315000D03*
%TO.P,J10,6*%
X136525000Y-104775000D03*
%TD*%
%TO.P,J1,1*%
%TO.N,+5V*%
X79375000Y-117475000D03*
%TO.P,J1,2*%
X79375000Y-114935000D03*
%TO.P,J1,3*%
%TO.N,/SCL*%
X79375000Y-112395000D03*
%TO.P,J1,4*%
%TO.N,/SDA*%
X79375000Y-109855000D03*
%TO.P,J1,5*%
%TO.N,GND*%
X79375000Y-107315000D03*
%TO.P,J1,6*%
X79375000Y-104775000D03*
%TD*%
%TO.P,J20,1*%
%TO.N,+5V*%
X200025000Y-117475000D03*
%TO.P,J20,2*%
X200025000Y-114935000D03*
%TO.P,J20,3*%
%TO.N,/SCL*%
X200025000Y-112395000D03*
%TO.P,J20,4*%
%TO.N,/SDA*%
X200025000Y-109855000D03*
%TO.P,J20,5*%
%TO.N,GND*%
X200025000Y-107315000D03*
%TO.P,J20,6*%
X200025000Y-104775000D03*
%TD*%
%TO.P,J18,1*%
%TO.N,+5V*%
X187325000Y-117475000D03*
%TO.P,J18,2*%
X187325000Y-114935000D03*
%TO.P,J18,3*%
%TO.N,/SCL*%
X187325000Y-112395000D03*
%TO.P,J18,4*%
%TO.N,/SDA*%
X187325000Y-109855000D03*
%TO.P,J18,5*%
%TO.N,GND*%
X187325000Y-107315000D03*
%TO.P,J18,6*%
X187325000Y-104775000D03*
%TD*%
%TO.P,J2,1*%
%TO.N,+5V*%
X85725000Y-117475000D03*
%TO.P,J2,2*%
X85725000Y-114935000D03*
%TO.P,J2,3*%
%TO.N,/SCL*%
X85725000Y-112395000D03*
%TO.P,J2,4*%
%TO.N,/SDA*%
X85725000Y-109855000D03*
%TO.P,J2,5*%
%TO.N,GND*%
X85725000Y-107315000D03*
%TO.P,J2,6*%
X85725000Y-104775000D03*
%TD*%
%TO.P,J14,1*%
%TO.N,+5V*%
X161925000Y-117475000D03*
%TO.P,J14,2*%
X161925000Y-114935000D03*
%TO.P,J14,3*%
%TO.N,/SCL*%
X161925000Y-112395000D03*
%TO.P,J14,4*%
%TO.N,/SDA*%
X161925000Y-109855000D03*
%TO.P,J14,5*%
%TO.N,GND*%
X161925000Y-107315000D03*
%TO.P,J14,6*%
X161925000Y-104775000D03*
%TD*%
%TA.AperFunction,Conductor*%
%TO.N,+5V*%
G36*
X78349469Y-113684685D02*
G01*
X78355343Y-113688946D01*
X78358474Y-113691010D01*
X78358477Y-113691011D01*
X78358480Y-113691014D01*
X78534557Y-113782989D01*
X78725543Y-113837638D01*
X78842094Y-113848000D01*
X78842102Y-113848000D01*
X79907898Y-113848000D01*
X79907906Y-113848000D01*
X80024457Y-113837638D01*
X80215443Y-113782989D01*
X80391520Y-113691014D01*
X80391525Y-113691010D01*
X80396773Y-113687552D01*
X80397888Y-113689245D01*
X80453601Y-113665789D01*
X80467570Y-113665000D01*
X84632430Y-113665000D01*
X84699469Y-113684685D01*
X84705343Y-113688946D01*
X84708474Y-113691010D01*
X84708477Y-113691011D01*
X84708480Y-113691014D01*
X84884557Y-113782989D01*
X85075543Y-113837638D01*
X85192094Y-113848000D01*
X85192102Y-113848000D01*
X86257898Y-113848000D01*
X86257906Y-113848000D01*
X86374457Y-113837638D01*
X86565443Y-113782989D01*
X86741520Y-113691014D01*
X86741525Y-113691010D01*
X86746773Y-113687552D01*
X86747888Y-113689245D01*
X86803601Y-113665789D01*
X86817570Y-113665000D01*
X90982430Y-113665000D01*
X91049469Y-113684685D01*
X91055343Y-113688946D01*
X91058474Y-113691010D01*
X91058477Y-113691011D01*
X91058480Y-113691014D01*
X91234557Y-113782989D01*
X91425543Y-113837638D01*
X91542094Y-113848000D01*
X91542102Y-113848000D01*
X92607898Y-113848000D01*
X92607906Y-113848000D01*
X92724457Y-113837638D01*
X92915443Y-113782989D01*
X93091520Y-113691014D01*
X93091525Y-113691010D01*
X93096773Y-113687552D01*
X93097888Y-113689245D01*
X93153601Y-113665789D01*
X93167570Y-113665000D01*
X97332430Y-113665000D01*
X97399469Y-113684685D01*
X97405343Y-113688946D01*
X97408474Y-113691010D01*
X97408477Y-113691011D01*
X97408480Y-113691014D01*
X97584557Y-113782989D01*
X97775543Y-113837638D01*
X97892094Y-113848000D01*
X97892102Y-113848000D01*
X98957898Y-113848000D01*
X98957906Y-113848000D01*
X99074457Y-113837638D01*
X99265443Y-113782989D01*
X99441520Y-113691014D01*
X99441525Y-113691010D01*
X99446773Y-113687552D01*
X99447888Y-113689245D01*
X99503601Y-113665789D01*
X99517570Y-113665000D01*
X103682430Y-113665000D01*
X103749469Y-113684685D01*
X103755343Y-113688946D01*
X103758474Y-113691010D01*
X103758477Y-113691011D01*
X103758480Y-113691014D01*
X103934557Y-113782989D01*
X104125543Y-113837638D01*
X104242094Y-113848000D01*
X104242102Y-113848000D01*
X105307898Y-113848000D01*
X105307906Y-113848000D01*
X105424457Y-113837638D01*
X105615443Y-113782989D01*
X105791520Y-113691014D01*
X105791525Y-113691010D01*
X105796773Y-113687552D01*
X105797888Y-113689245D01*
X105853601Y-113665789D01*
X105867570Y-113665000D01*
X110032430Y-113665000D01*
X110099469Y-113684685D01*
X110105343Y-113688946D01*
X110108474Y-113691010D01*
X110108477Y-113691011D01*
X110108480Y-113691014D01*
X110284557Y-113782989D01*
X110475543Y-113837638D01*
X110592094Y-113848000D01*
X110592102Y-113848000D01*
X111657898Y-113848000D01*
X111657906Y-113848000D01*
X111774457Y-113837638D01*
X111965443Y-113782989D01*
X112141520Y-113691014D01*
X112141525Y-113691010D01*
X112146773Y-113687552D01*
X112147888Y-113689245D01*
X112203601Y-113665789D01*
X112217570Y-113665000D01*
X116382430Y-113665000D01*
X116449469Y-113684685D01*
X116455343Y-113688946D01*
X116458474Y-113691010D01*
X116458477Y-113691011D01*
X116458480Y-113691014D01*
X116634557Y-113782989D01*
X116825543Y-113837638D01*
X116942094Y-113848000D01*
X116942102Y-113848000D01*
X118007898Y-113848000D01*
X118007906Y-113848000D01*
X118124457Y-113837638D01*
X118315443Y-113782989D01*
X118491520Y-113691014D01*
X118491525Y-113691010D01*
X118496773Y-113687552D01*
X118497888Y-113689245D01*
X118553601Y-113665789D01*
X118567570Y-113665000D01*
X122732430Y-113665000D01*
X122799469Y-113684685D01*
X122805343Y-113688946D01*
X122808474Y-113691010D01*
X122808477Y-113691011D01*
X122808480Y-113691014D01*
X122984557Y-113782989D01*
X123175543Y-113837638D01*
X123292094Y-113848000D01*
X123292102Y-113848000D01*
X124357898Y-113848000D01*
X124357906Y-113848000D01*
X124474457Y-113837638D01*
X124665443Y-113782989D01*
X124841520Y-113691014D01*
X124841525Y-113691010D01*
X124846773Y-113687552D01*
X124847888Y-113689245D01*
X124903601Y-113665789D01*
X124917570Y-113665000D01*
X129082430Y-113665000D01*
X129149469Y-113684685D01*
X129155343Y-113688946D01*
X129158474Y-113691010D01*
X129158477Y-113691011D01*
X129158480Y-113691014D01*
X129334557Y-113782989D01*
X129525543Y-113837638D01*
X129642094Y-113848000D01*
X129642102Y-113848000D01*
X130707898Y-113848000D01*
X130707906Y-113848000D01*
X130824457Y-113837638D01*
X131015443Y-113782989D01*
X131191520Y-113691014D01*
X131191525Y-113691010D01*
X131196773Y-113687552D01*
X131197888Y-113689245D01*
X131253601Y-113665789D01*
X131267570Y-113665000D01*
X135432430Y-113665000D01*
X135499469Y-113684685D01*
X135505343Y-113688946D01*
X135508474Y-113691010D01*
X135508477Y-113691011D01*
X135508480Y-113691014D01*
X135684557Y-113782989D01*
X135875543Y-113837638D01*
X135992094Y-113848000D01*
X135992102Y-113848000D01*
X137057898Y-113848000D01*
X137057906Y-113848000D01*
X137174457Y-113837638D01*
X137365443Y-113782989D01*
X137541520Y-113691014D01*
X137541525Y-113691010D01*
X137546773Y-113687552D01*
X137547888Y-113689245D01*
X137603601Y-113665789D01*
X137617570Y-113665000D01*
X141782430Y-113665000D01*
X141849469Y-113684685D01*
X141855343Y-113688946D01*
X141858474Y-113691010D01*
X141858477Y-113691011D01*
X141858480Y-113691014D01*
X142034557Y-113782989D01*
X142225543Y-113837638D01*
X142342094Y-113848000D01*
X142342102Y-113848000D01*
X143407898Y-113848000D01*
X143407906Y-113848000D01*
X143524457Y-113837638D01*
X143715443Y-113782989D01*
X143891520Y-113691014D01*
X143891525Y-113691010D01*
X143896773Y-113687552D01*
X143897888Y-113689245D01*
X143953601Y-113665789D01*
X143967570Y-113665000D01*
X148132430Y-113665000D01*
X148199469Y-113684685D01*
X148205343Y-113688946D01*
X148208474Y-113691010D01*
X148208477Y-113691011D01*
X148208480Y-113691014D01*
X148384557Y-113782989D01*
X148575543Y-113837638D01*
X148692094Y-113848000D01*
X148692102Y-113848000D01*
X149757898Y-113848000D01*
X149757906Y-113848000D01*
X149874457Y-113837638D01*
X150065443Y-113782989D01*
X150241520Y-113691014D01*
X150241525Y-113691010D01*
X150246773Y-113687552D01*
X150247888Y-113689245D01*
X150303601Y-113665789D01*
X150317570Y-113665000D01*
X154482430Y-113665000D01*
X154549469Y-113684685D01*
X154555343Y-113688946D01*
X154558474Y-113691010D01*
X154558477Y-113691011D01*
X154558480Y-113691014D01*
X154734557Y-113782989D01*
X154925543Y-113837638D01*
X155042094Y-113848000D01*
X155042102Y-113848000D01*
X156107898Y-113848000D01*
X156107906Y-113848000D01*
X156224457Y-113837638D01*
X156415443Y-113782989D01*
X156591520Y-113691014D01*
X156591525Y-113691010D01*
X156596773Y-113687552D01*
X156597888Y-113689245D01*
X156653601Y-113665789D01*
X156667570Y-113665000D01*
X160832430Y-113665000D01*
X160899469Y-113684685D01*
X160905343Y-113688946D01*
X160908474Y-113691010D01*
X160908477Y-113691011D01*
X160908480Y-113691014D01*
X161084557Y-113782989D01*
X161275543Y-113837638D01*
X161392094Y-113848000D01*
X161392102Y-113848000D01*
X162457898Y-113848000D01*
X162457906Y-113848000D01*
X162574457Y-113837638D01*
X162765443Y-113782989D01*
X162941520Y-113691014D01*
X162941525Y-113691010D01*
X162946773Y-113687552D01*
X162947888Y-113689245D01*
X163003601Y-113665789D01*
X163017570Y-113665000D01*
X167182430Y-113665000D01*
X167249469Y-113684685D01*
X167255343Y-113688946D01*
X167258474Y-113691010D01*
X167258477Y-113691011D01*
X167258480Y-113691014D01*
X167434557Y-113782989D01*
X167625543Y-113837638D01*
X167742094Y-113848000D01*
X167742102Y-113848000D01*
X168807898Y-113848000D01*
X168807906Y-113848000D01*
X168924457Y-113837638D01*
X169115443Y-113782989D01*
X169291520Y-113691014D01*
X169291525Y-113691010D01*
X169296773Y-113687552D01*
X169297888Y-113689245D01*
X169353601Y-113665789D01*
X169367570Y-113665000D01*
X173532430Y-113665000D01*
X173599469Y-113684685D01*
X173605343Y-113688946D01*
X173608474Y-113691010D01*
X173608477Y-113691011D01*
X173608480Y-113691014D01*
X173784557Y-113782989D01*
X173975543Y-113837638D01*
X174092094Y-113848000D01*
X174092102Y-113848000D01*
X175157898Y-113848000D01*
X175157906Y-113848000D01*
X175274457Y-113837638D01*
X175465443Y-113782989D01*
X175641520Y-113691014D01*
X175641525Y-113691010D01*
X175646773Y-113687552D01*
X175647888Y-113689245D01*
X175703601Y-113665789D01*
X175717570Y-113665000D01*
X179882430Y-113665000D01*
X179949469Y-113684685D01*
X179955343Y-113688946D01*
X179958474Y-113691010D01*
X179958477Y-113691011D01*
X179958480Y-113691014D01*
X180134557Y-113782989D01*
X180325543Y-113837638D01*
X180442094Y-113848000D01*
X180442102Y-113848000D01*
X181507898Y-113848000D01*
X181507906Y-113848000D01*
X181624457Y-113837638D01*
X181815443Y-113782989D01*
X181991520Y-113691014D01*
X181991525Y-113691010D01*
X181996773Y-113687552D01*
X181997888Y-113689245D01*
X182053601Y-113665789D01*
X182067570Y-113665000D01*
X186232430Y-113665000D01*
X186299469Y-113684685D01*
X186305343Y-113688946D01*
X186308474Y-113691010D01*
X186308477Y-113691011D01*
X186308480Y-113691014D01*
X186484557Y-113782989D01*
X186675543Y-113837638D01*
X186792094Y-113848000D01*
X186792102Y-113848000D01*
X187857898Y-113848000D01*
X187857906Y-113848000D01*
X187974457Y-113837638D01*
X188165443Y-113782989D01*
X188341520Y-113691014D01*
X188341525Y-113691010D01*
X188346773Y-113687552D01*
X188347888Y-113689245D01*
X188403601Y-113665789D01*
X188417570Y-113665000D01*
X192582430Y-113665000D01*
X192649469Y-113684685D01*
X192655343Y-113688946D01*
X192658474Y-113691010D01*
X192658477Y-113691011D01*
X192658480Y-113691014D01*
X192834557Y-113782989D01*
X193025543Y-113837638D01*
X193142094Y-113848000D01*
X193142102Y-113848000D01*
X194207898Y-113848000D01*
X194207906Y-113848000D01*
X194324457Y-113837638D01*
X194515443Y-113782989D01*
X194691520Y-113691014D01*
X194691525Y-113691010D01*
X194696773Y-113687552D01*
X194697888Y-113689245D01*
X194753601Y-113665789D01*
X194767570Y-113665000D01*
X198932430Y-113665000D01*
X198999469Y-113684685D01*
X199005343Y-113688946D01*
X199008474Y-113691010D01*
X199008477Y-113691011D01*
X199008480Y-113691014D01*
X199184557Y-113782989D01*
X199375543Y-113837638D01*
X199492094Y-113848000D01*
X199492102Y-113848000D01*
X200557898Y-113848000D01*
X200557906Y-113848000D01*
X200674457Y-113837638D01*
X200865443Y-113782989D01*
X201041520Y-113691014D01*
X201041525Y-113691010D01*
X201046773Y-113687552D01*
X201047888Y-113689245D01*
X201103601Y-113665789D01*
X201117570Y-113665000D01*
X205616000Y-113665000D01*
X205683039Y-113684685D01*
X205728794Y-113737489D01*
X205740000Y-113789000D01*
X205740000Y-123066000D01*
X205720315Y-123133039D01*
X205667511Y-123178794D01*
X205616000Y-123190000D01*
X73784000Y-123190000D01*
X73716961Y-123170315D01*
X73671206Y-123117511D01*
X73660000Y-123066000D01*
X73660000Y-113789000D01*
X73679685Y-113721961D01*
X73732489Y-113676206D01*
X73784000Y-113665000D01*
X78282430Y-113665000D01*
X78349469Y-113684685D01*
G37*
%TD.AperFunction*%
%TD*%
%TA.AperFunction,Conductor*%
%TO.N,GND*%
G36*
X205683039Y-99079685D02*
G01*
X205728794Y-99132489D01*
X205740000Y-99184000D01*
X205740000Y-107955500D01*
X205720315Y-108022539D01*
X205667511Y-108068294D01*
X205616000Y-108079500D01*
X201117570Y-108079500D01*
X201100466Y-108079982D01*
X201089056Y-108080304D01*
X201075101Y-108081092D01*
X201046655Y-108083507D01*
X200907453Y-108119895D01*
X200907446Y-108119897D01*
X200848030Y-108144912D01*
X200848031Y-108144913D01*
X200815318Y-108158685D01*
X200813287Y-108159922D01*
X200688130Y-108225298D01*
X200664832Y-108234604D01*
X200593074Y-108255137D01*
X200569945Y-108259435D01*
X200549910Y-108261216D01*
X200540954Y-108262013D01*
X200529973Y-108262500D01*
X199520027Y-108262500D01*
X199509044Y-108262013D01*
X199480053Y-108259435D01*
X199456923Y-108255137D01*
X199385166Y-108234604D01*
X199361868Y-108225298D01*
X199220865Y-108151644D01*
X199218712Y-108151012D01*
X199214562Y-108151088D01*
X199195823Y-108144293D01*
X199176789Y-108135601D01*
X199172738Y-108133661D01*
X199168330Y-108131452D01*
X199164239Y-108129755D01*
X199164292Y-108129625D01*
X199159996Y-108127931D01*
X199141894Y-108119664D01*
X199141890Y-108119662D01*
X199074847Y-108099976D01*
X199012784Y-108091053D01*
X198932430Y-108079500D01*
X194767570Y-108079500D01*
X194750466Y-108079982D01*
X194739056Y-108080304D01*
X194725101Y-108081092D01*
X194696655Y-108083507D01*
X194557453Y-108119895D01*
X194557446Y-108119897D01*
X194498030Y-108144912D01*
X194498031Y-108144913D01*
X194465318Y-108158685D01*
X194463287Y-108159922D01*
X194338130Y-108225298D01*
X194314832Y-108234604D01*
X194243074Y-108255137D01*
X194219945Y-108259435D01*
X194199910Y-108261216D01*
X194190954Y-108262013D01*
X194179973Y-108262500D01*
X193170027Y-108262500D01*
X193159044Y-108262013D01*
X193130053Y-108259435D01*
X193106923Y-108255137D01*
X193035166Y-108234604D01*
X193011868Y-108225298D01*
X192870865Y-108151644D01*
X192868712Y-108151012D01*
X192864562Y-108151088D01*
X192845823Y-108144293D01*
X192826789Y-108135601D01*
X192822738Y-108133661D01*
X192818330Y-108131452D01*
X192814239Y-108129755D01*
X192814292Y-108129625D01*
X192809996Y-108127931D01*
X192791894Y-108119664D01*
X192791890Y-108119662D01*
X192724847Y-108099976D01*
X192662784Y-108091053D01*
X192582430Y-108079500D01*
X188417570Y-108079500D01*
X188400466Y-108079982D01*
X188389056Y-108080304D01*
X188375101Y-108081092D01*
X188346655Y-108083507D01*
X188207453Y-108119895D01*
X188207446Y-108119897D01*
X188148030Y-108144912D01*
X188148031Y-108144913D01*
X188115318Y-108158685D01*
X188113287Y-108159922D01*
X187988130Y-108225298D01*
X187964832Y-108234604D01*
X187893074Y-108255137D01*
X187869945Y-108259435D01*
X187849910Y-108261216D01*
X187840954Y-108262013D01*
X187829973Y-108262500D01*
X186820027Y-108262500D01*
X186809044Y-108262013D01*
X186780053Y-108259435D01*
X186756923Y-108255137D01*
X186685166Y-108234604D01*
X186661868Y-108225298D01*
X186520865Y-108151644D01*
X186518712Y-108151012D01*
X186514562Y-108151088D01*
X186495823Y-108144293D01*
X186476789Y-108135601D01*
X186472738Y-108133661D01*
X186468330Y-108131452D01*
X186464239Y-108129755D01*
X186464292Y-108129625D01*
X186459996Y-108127931D01*
X186441894Y-108119664D01*
X186441890Y-108119662D01*
X186374847Y-108099976D01*
X186312784Y-108091053D01*
X186232430Y-108079500D01*
X182067570Y-108079500D01*
X182050466Y-108079982D01*
X182039056Y-108080304D01*
X182025101Y-108081092D01*
X181996655Y-108083507D01*
X181857453Y-108119895D01*
X181857446Y-108119897D01*
X181798030Y-108144912D01*
X181798031Y-108144913D01*
X181765318Y-108158685D01*
X181763287Y-108159922D01*
X181638130Y-108225298D01*
X181614832Y-108234604D01*
X181543074Y-108255137D01*
X181519945Y-108259435D01*
X181499910Y-108261216D01*
X181490954Y-108262013D01*
X181479973Y-108262500D01*
X180470027Y-108262500D01*
X180459044Y-108262013D01*
X180430053Y-108259435D01*
X180406923Y-108255137D01*
X180335166Y-108234604D01*
X180311868Y-108225298D01*
X180170865Y-108151644D01*
X180168712Y-108151012D01*
X180164562Y-108151088D01*
X180145823Y-108144293D01*
X180126789Y-108135601D01*
X180122738Y-108133661D01*
X180118330Y-108131452D01*
X180114239Y-108129755D01*
X180114292Y-108129625D01*
X180109996Y-108127931D01*
X180091894Y-108119664D01*
X180091890Y-108119662D01*
X180024847Y-108099976D01*
X179962784Y-108091053D01*
X179882430Y-108079500D01*
X175717570Y-108079500D01*
X175700466Y-108079982D01*
X175689056Y-108080304D01*
X175675101Y-108081092D01*
X175646655Y-108083507D01*
X175507453Y-108119895D01*
X175507446Y-108119897D01*
X175448030Y-108144912D01*
X175448031Y-108144913D01*
X175415318Y-108158685D01*
X175413287Y-108159922D01*
X175288130Y-108225298D01*
X175264832Y-108234604D01*
X175193074Y-108255137D01*
X175169945Y-108259435D01*
X175149910Y-108261216D01*
X175140954Y-108262013D01*
X175129973Y-108262500D01*
X174120027Y-108262500D01*
X174109044Y-108262013D01*
X174080053Y-108259435D01*
X174056923Y-108255137D01*
X173985166Y-108234604D01*
X173961868Y-108225298D01*
X173820865Y-108151644D01*
X173818712Y-108151012D01*
X173814562Y-108151088D01*
X173795823Y-108144293D01*
X173776789Y-108135601D01*
X173772738Y-108133661D01*
X173768330Y-108131452D01*
X173764239Y-108129755D01*
X173764292Y-108129625D01*
X173759996Y-108127931D01*
X173741894Y-108119664D01*
X173741890Y-108119662D01*
X173674847Y-108099976D01*
X173612784Y-108091053D01*
X173532430Y-108079500D01*
X169367570Y-108079500D01*
X169350466Y-108079982D01*
X169339056Y-108080304D01*
X169325101Y-108081092D01*
X169296655Y-108083507D01*
X169157453Y-108119895D01*
X169157446Y-108119897D01*
X169098030Y-108144912D01*
X169098031Y-108144913D01*
X169065318Y-108158685D01*
X169063287Y-108159922D01*
X168938130Y-108225298D01*
X168914832Y-108234604D01*
X168843074Y-108255137D01*
X168819945Y-108259435D01*
X168799910Y-108261216D01*
X168790954Y-108262013D01*
X168779973Y-108262500D01*
X167770027Y-108262500D01*
X167759044Y-108262013D01*
X167730053Y-108259435D01*
X167706923Y-108255137D01*
X167635166Y-108234604D01*
X167611868Y-108225298D01*
X167470865Y-108151644D01*
X167468712Y-108151012D01*
X167464562Y-108151088D01*
X167445823Y-108144293D01*
X167426789Y-108135601D01*
X167422738Y-108133661D01*
X167418330Y-108131452D01*
X167414239Y-108129755D01*
X167414292Y-108129625D01*
X167409996Y-108127931D01*
X167391894Y-108119664D01*
X167391890Y-108119662D01*
X167324847Y-108099976D01*
X167262784Y-108091053D01*
X167182430Y-108079500D01*
X163017570Y-108079500D01*
X163000466Y-108079982D01*
X162989056Y-108080304D01*
X162975101Y-108081092D01*
X162946655Y-108083507D01*
X162807453Y-108119895D01*
X162807446Y-108119897D01*
X162748030Y-108144912D01*
X162748031Y-108144913D01*
X162715318Y-108158685D01*
X162713287Y-108159922D01*
X162588130Y-108225298D01*
X162564832Y-108234604D01*
X162493074Y-108255137D01*
X162469945Y-108259435D01*
X162449910Y-108261216D01*
X162440954Y-108262013D01*
X162429973Y-108262500D01*
X161420027Y-108262500D01*
X161409044Y-108262013D01*
X161380053Y-108259435D01*
X161356923Y-108255137D01*
X161285166Y-108234604D01*
X161261868Y-108225298D01*
X161120865Y-108151644D01*
X161118712Y-108151012D01*
X161114562Y-108151088D01*
X161095823Y-108144293D01*
X161076789Y-108135601D01*
X161072738Y-108133661D01*
X161068330Y-108131452D01*
X161064239Y-108129755D01*
X161064292Y-108129625D01*
X161059996Y-108127931D01*
X161041894Y-108119664D01*
X161041890Y-108119662D01*
X160974847Y-108099976D01*
X160912784Y-108091053D01*
X160832430Y-108079500D01*
X156667570Y-108079500D01*
X156650466Y-108079982D01*
X156639056Y-108080304D01*
X156625101Y-108081092D01*
X156596655Y-108083507D01*
X156457453Y-108119895D01*
X156457446Y-108119897D01*
X156398030Y-108144912D01*
X156398031Y-108144913D01*
X156365318Y-108158685D01*
X156363287Y-108159922D01*
X156238130Y-108225298D01*
X156214832Y-108234604D01*
X156143074Y-108255137D01*
X156119945Y-108259435D01*
X156099910Y-108261216D01*
X156090954Y-108262013D01*
X156079973Y-108262500D01*
X155070027Y-108262500D01*
X155059044Y-108262013D01*
X155030053Y-108259435D01*
X155006923Y-108255137D01*
X154935166Y-108234604D01*
X154911868Y-108225298D01*
X154770865Y-108151644D01*
X154768712Y-108151012D01*
X154764562Y-108151088D01*
X154745823Y-108144293D01*
X154726789Y-108135601D01*
X154722738Y-108133661D01*
X154718330Y-108131452D01*
X154714239Y-108129755D01*
X154714292Y-108129625D01*
X154709996Y-108127931D01*
X154691894Y-108119664D01*
X154691890Y-108119662D01*
X154624847Y-108099976D01*
X154562784Y-108091053D01*
X154482430Y-108079500D01*
X150317570Y-108079500D01*
X150300466Y-108079982D01*
X150289056Y-108080304D01*
X150275101Y-108081092D01*
X150246655Y-108083507D01*
X150107453Y-108119895D01*
X150107446Y-108119897D01*
X150048030Y-108144912D01*
X150048031Y-108144913D01*
X150015318Y-108158685D01*
X150013287Y-108159922D01*
X149888130Y-108225298D01*
X149864832Y-108234604D01*
X149793074Y-108255137D01*
X149769945Y-108259435D01*
X149749910Y-108261216D01*
X149740954Y-108262013D01*
X149729973Y-108262500D01*
X148720027Y-108262500D01*
X148709044Y-108262013D01*
X148680053Y-108259435D01*
X148656923Y-108255137D01*
X148585166Y-108234604D01*
X148561868Y-108225298D01*
X148420865Y-108151644D01*
X148418712Y-108151012D01*
X148414562Y-108151088D01*
X148395823Y-108144293D01*
X148376789Y-108135601D01*
X148372738Y-108133661D01*
X148368330Y-108131452D01*
X148364239Y-108129755D01*
X148364292Y-108129625D01*
X148359996Y-108127931D01*
X148341894Y-108119664D01*
X148341890Y-108119662D01*
X148274847Y-108099976D01*
X148212784Y-108091053D01*
X148132430Y-108079500D01*
X143967570Y-108079500D01*
X143950466Y-108079982D01*
X143939056Y-108080304D01*
X143925101Y-108081092D01*
X143896655Y-108083507D01*
X143757453Y-108119895D01*
X143757446Y-108119897D01*
X143698030Y-108144912D01*
X143698031Y-108144913D01*
X143665318Y-108158685D01*
X143663287Y-108159922D01*
X143538130Y-108225298D01*
X143514832Y-108234604D01*
X143443074Y-108255137D01*
X143419945Y-108259435D01*
X143399910Y-108261216D01*
X143390954Y-108262013D01*
X143379973Y-108262500D01*
X142370027Y-108262500D01*
X142359044Y-108262013D01*
X142330053Y-108259435D01*
X142306923Y-108255137D01*
X142235166Y-108234604D01*
X142211868Y-108225298D01*
X142070865Y-108151644D01*
X142068712Y-108151012D01*
X142064562Y-108151088D01*
X142045823Y-108144293D01*
X142026789Y-108135601D01*
X142022738Y-108133661D01*
X142018330Y-108131452D01*
X142014239Y-108129755D01*
X142014292Y-108129625D01*
X142009996Y-108127931D01*
X141991894Y-108119664D01*
X141991890Y-108119662D01*
X141924847Y-108099976D01*
X141862784Y-108091053D01*
X141782430Y-108079500D01*
X137617570Y-108079500D01*
X137600466Y-108079982D01*
X137589056Y-108080304D01*
X137575101Y-108081092D01*
X137546655Y-108083507D01*
X137407453Y-108119895D01*
X137407446Y-108119897D01*
X137348030Y-108144912D01*
X137348031Y-108144913D01*
X137315318Y-108158685D01*
X137313287Y-108159922D01*
X137188130Y-108225298D01*
X137164832Y-108234604D01*
X137093074Y-108255137D01*
X137069945Y-108259435D01*
X137049910Y-108261216D01*
X137040954Y-108262013D01*
X137029973Y-108262500D01*
X136020027Y-108262500D01*
X136009044Y-108262013D01*
X135980053Y-108259435D01*
X135956923Y-108255137D01*
X135885166Y-108234604D01*
X135861868Y-108225298D01*
X135720865Y-108151644D01*
X135718712Y-108151012D01*
X135714562Y-108151088D01*
X135695823Y-108144293D01*
X135676789Y-108135601D01*
X135672738Y-108133661D01*
X135668330Y-108131452D01*
X135664239Y-108129755D01*
X135664292Y-108129625D01*
X135659996Y-108127931D01*
X135641894Y-108119664D01*
X135641890Y-108119662D01*
X135574847Y-108099976D01*
X135512784Y-108091053D01*
X135432430Y-108079500D01*
X131267570Y-108079500D01*
X131250466Y-108079982D01*
X131239056Y-108080304D01*
X131225101Y-108081092D01*
X131196655Y-108083507D01*
X131057453Y-108119895D01*
X131057446Y-108119897D01*
X130998030Y-108144912D01*
X130998031Y-108144913D01*
X130965318Y-108158685D01*
X130963287Y-108159922D01*
X130838130Y-108225298D01*
X130814832Y-108234604D01*
X130743074Y-108255137D01*
X130719945Y-108259435D01*
X130699910Y-108261216D01*
X130690954Y-108262013D01*
X130679973Y-108262500D01*
X129670027Y-108262500D01*
X129659044Y-108262013D01*
X129630053Y-108259435D01*
X129606923Y-108255137D01*
X129535166Y-108234604D01*
X129511868Y-108225298D01*
X129370865Y-108151644D01*
X129368712Y-108151012D01*
X129364562Y-108151088D01*
X129345823Y-108144293D01*
X129326789Y-108135601D01*
X129322738Y-108133661D01*
X129318330Y-108131452D01*
X129314239Y-108129755D01*
X129314292Y-108129625D01*
X129309996Y-108127931D01*
X129291894Y-108119664D01*
X129291890Y-108119662D01*
X129224847Y-108099976D01*
X129162784Y-108091053D01*
X129082430Y-108079500D01*
X124917570Y-108079500D01*
X124900466Y-108079982D01*
X124889056Y-108080304D01*
X124875101Y-108081092D01*
X124846655Y-108083507D01*
X124707453Y-108119895D01*
X124707446Y-108119897D01*
X124648030Y-108144912D01*
X124648031Y-108144913D01*
X124615318Y-108158685D01*
X124613287Y-108159922D01*
X124488130Y-108225298D01*
X124464832Y-108234604D01*
X124393074Y-108255137D01*
X124369945Y-108259435D01*
X124349910Y-108261216D01*
X124340954Y-108262013D01*
X124329973Y-108262500D01*
X123320027Y-108262500D01*
X123309044Y-108262013D01*
X123280053Y-108259435D01*
X123256923Y-108255137D01*
X123185166Y-108234604D01*
X123161868Y-108225298D01*
X123020865Y-108151644D01*
X123018712Y-108151012D01*
X123014562Y-108151088D01*
X122995823Y-108144293D01*
X122976789Y-108135601D01*
X122972738Y-108133661D01*
X122968330Y-108131452D01*
X122964239Y-108129755D01*
X122964292Y-108129625D01*
X122959996Y-108127931D01*
X122941894Y-108119664D01*
X122941890Y-108119662D01*
X122874847Y-108099976D01*
X122812784Y-108091053D01*
X122732430Y-108079500D01*
X118567570Y-108079500D01*
X118550466Y-108079982D01*
X118539056Y-108080304D01*
X118525101Y-108081092D01*
X118496655Y-108083507D01*
X118357453Y-108119895D01*
X118357446Y-108119897D01*
X118298030Y-108144912D01*
X118298031Y-108144913D01*
X118265318Y-108158685D01*
X118263287Y-108159922D01*
X118138130Y-108225298D01*
X118114832Y-108234604D01*
X118043074Y-108255137D01*
X118019945Y-108259435D01*
X117999910Y-108261216D01*
X117990954Y-108262013D01*
X117979973Y-108262500D01*
X116970027Y-108262500D01*
X116959044Y-108262013D01*
X116930053Y-108259435D01*
X116906923Y-108255137D01*
X116835166Y-108234604D01*
X116811868Y-108225298D01*
X116670865Y-108151644D01*
X116668712Y-108151012D01*
X116664562Y-108151088D01*
X116645823Y-108144293D01*
X116626789Y-108135601D01*
X116622738Y-108133661D01*
X116618330Y-108131452D01*
X116614239Y-108129755D01*
X116614292Y-108129625D01*
X116609996Y-108127931D01*
X116591894Y-108119664D01*
X116591890Y-108119662D01*
X116524847Y-108099976D01*
X116462784Y-108091053D01*
X116382430Y-108079500D01*
X112217570Y-108079500D01*
X112200466Y-108079982D01*
X112189056Y-108080304D01*
X112175101Y-108081092D01*
X112146655Y-108083507D01*
X112007453Y-108119895D01*
X112007446Y-108119897D01*
X111948030Y-108144912D01*
X111948031Y-108144913D01*
X111915318Y-108158685D01*
X111913287Y-108159922D01*
X111788130Y-108225298D01*
X111764832Y-108234604D01*
X111693074Y-108255137D01*
X111669945Y-108259435D01*
X111649910Y-108261216D01*
X111640954Y-108262013D01*
X111629973Y-108262500D01*
X110620027Y-108262500D01*
X110609044Y-108262013D01*
X110580053Y-108259435D01*
X110556923Y-108255137D01*
X110485166Y-108234604D01*
X110461868Y-108225298D01*
X110320865Y-108151644D01*
X110318712Y-108151012D01*
X110314562Y-108151088D01*
X110295823Y-108144293D01*
X110276789Y-108135601D01*
X110272738Y-108133661D01*
X110268330Y-108131452D01*
X110264239Y-108129755D01*
X110264292Y-108129625D01*
X110259996Y-108127931D01*
X110241894Y-108119664D01*
X110241890Y-108119662D01*
X110174847Y-108099976D01*
X110112784Y-108091053D01*
X110032430Y-108079500D01*
X105867570Y-108079500D01*
X105850466Y-108079982D01*
X105839056Y-108080304D01*
X105825101Y-108081092D01*
X105796655Y-108083507D01*
X105657453Y-108119895D01*
X105657446Y-108119897D01*
X105598030Y-108144912D01*
X105598031Y-108144913D01*
X105565318Y-108158685D01*
X105563287Y-108159922D01*
X105438130Y-108225298D01*
X105414832Y-108234604D01*
X105343074Y-108255137D01*
X105319945Y-108259435D01*
X105299910Y-108261216D01*
X105290954Y-108262013D01*
X105279973Y-108262500D01*
X104270027Y-108262500D01*
X104259044Y-108262013D01*
X104230053Y-108259435D01*
X104206923Y-108255137D01*
X104135166Y-108234604D01*
X104111868Y-108225298D01*
X103970865Y-108151644D01*
X103968712Y-108151012D01*
X103964562Y-108151088D01*
X103945823Y-108144293D01*
X103926789Y-108135601D01*
X103922738Y-108133661D01*
X103918330Y-108131452D01*
X103914239Y-108129755D01*
X103914292Y-108129625D01*
X103909996Y-108127931D01*
X103891894Y-108119664D01*
X103891890Y-108119662D01*
X103824847Y-108099976D01*
X103762784Y-108091053D01*
X103682430Y-108079500D01*
X99517570Y-108079500D01*
X99500466Y-108079982D01*
X99489056Y-108080304D01*
X99475101Y-108081092D01*
X99446655Y-108083507D01*
X99307453Y-108119895D01*
X99307446Y-108119897D01*
X99248030Y-108144912D01*
X99248031Y-108144913D01*
X99215318Y-108158685D01*
X99213287Y-108159922D01*
X99088130Y-108225298D01*
X99064832Y-108234604D01*
X98993074Y-108255137D01*
X98969945Y-108259435D01*
X98949910Y-108261216D01*
X98940954Y-108262013D01*
X98929973Y-108262500D01*
X97920027Y-108262500D01*
X97909044Y-108262013D01*
X97880053Y-108259435D01*
X97856923Y-108255137D01*
X97785166Y-108234604D01*
X97761868Y-108225298D01*
X97620865Y-108151644D01*
X97618712Y-108151012D01*
X97614562Y-108151088D01*
X97595823Y-108144293D01*
X97576789Y-108135601D01*
X97572738Y-108133661D01*
X97568330Y-108131452D01*
X97564239Y-108129755D01*
X97564292Y-108129625D01*
X97559996Y-108127931D01*
X97541894Y-108119664D01*
X97541890Y-108119662D01*
X97474847Y-108099976D01*
X97412784Y-108091053D01*
X97332430Y-108079500D01*
X93167570Y-108079500D01*
X93150466Y-108079982D01*
X93139056Y-108080304D01*
X93125101Y-108081092D01*
X93096655Y-108083507D01*
X92957453Y-108119895D01*
X92957446Y-108119897D01*
X92898030Y-108144912D01*
X92898031Y-108144913D01*
X92865318Y-108158685D01*
X92863287Y-108159922D01*
X92738130Y-108225298D01*
X92714832Y-108234604D01*
X92643074Y-108255137D01*
X92619945Y-108259435D01*
X92599910Y-108261216D01*
X92590954Y-108262013D01*
X92579973Y-108262500D01*
X91570027Y-108262500D01*
X91559044Y-108262013D01*
X91530053Y-108259435D01*
X91506923Y-108255137D01*
X91435166Y-108234604D01*
X91411868Y-108225298D01*
X91270865Y-108151644D01*
X91268712Y-108151012D01*
X91264562Y-108151088D01*
X91245823Y-108144293D01*
X91226789Y-108135601D01*
X91222738Y-108133661D01*
X91218330Y-108131452D01*
X91214239Y-108129755D01*
X91214292Y-108129625D01*
X91209996Y-108127931D01*
X91191894Y-108119664D01*
X91191890Y-108119662D01*
X91124847Y-108099976D01*
X91062784Y-108091053D01*
X90982430Y-108079500D01*
X86817570Y-108079500D01*
X86800466Y-108079982D01*
X86789056Y-108080304D01*
X86775101Y-108081092D01*
X86746655Y-108083507D01*
X86607453Y-108119895D01*
X86607446Y-108119897D01*
X86548030Y-108144912D01*
X86548031Y-108144913D01*
X86515318Y-108158685D01*
X86513287Y-108159922D01*
X86388130Y-108225298D01*
X86364832Y-108234604D01*
X86293074Y-108255137D01*
X86269945Y-108259435D01*
X86249910Y-108261216D01*
X86240954Y-108262013D01*
X86229973Y-108262500D01*
X85220027Y-108262500D01*
X85209044Y-108262013D01*
X85180053Y-108259435D01*
X85156923Y-108255137D01*
X85085166Y-108234604D01*
X85061868Y-108225298D01*
X84920865Y-108151644D01*
X84918712Y-108151012D01*
X84914562Y-108151088D01*
X84895823Y-108144293D01*
X84876789Y-108135601D01*
X84872738Y-108133661D01*
X84868330Y-108131452D01*
X84864239Y-108129755D01*
X84864292Y-108129625D01*
X84859996Y-108127931D01*
X84841894Y-108119664D01*
X84841890Y-108119662D01*
X84774847Y-108099976D01*
X84712784Y-108091053D01*
X84632430Y-108079500D01*
X80467570Y-108079500D01*
X80450466Y-108079982D01*
X80439056Y-108080304D01*
X80425101Y-108081092D01*
X80396655Y-108083507D01*
X80257453Y-108119895D01*
X80257446Y-108119897D01*
X80198030Y-108144912D01*
X80198031Y-108144913D01*
X80165318Y-108158685D01*
X80163287Y-108159922D01*
X80038130Y-108225298D01*
X80014832Y-108234604D01*
X79943074Y-108255137D01*
X79919945Y-108259435D01*
X79899910Y-108261216D01*
X79890954Y-108262013D01*
X79879973Y-108262500D01*
X78870027Y-108262500D01*
X78859044Y-108262013D01*
X78830053Y-108259435D01*
X78806923Y-108255137D01*
X78735166Y-108234604D01*
X78711868Y-108225298D01*
X78570865Y-108151644D01*
X78568712Y-108151012D01*
X78564562Y-108151088D01*
X78545823Y-108144293D01*
X78526789Y-108135601D01*
X78522738Y-108133661D01*
X78518330Y-108131452D01*
X78514239Y-108129755D01*
X78514292Y-108129625D01*
X78509996Y-108127931D01*
X78491894Y-108119664D01*
X78491890Y-108119662D01*
X78424847Y-108099976D01*
X78362784Y-108091053D01*
X78282430Y-108079500D01*
X73784000Y-108079500D01*
X73716961Y-108059815D01*
X73671206Y-108007011D01*
X73660000Y-107955500D01*
X73660000Y-99184000D01*
X73679685Y-99116961D01*
X73732489Y-99071206D01*
X73784000Y-99060000D01*
X205616000Y-99060000D01*
X205683039Y-99079685D01*
G37*
%TD.AperFunction*%
%TD*%
%TA.AperFunction,Conductor*%
%TO.N,/SDA*%
G36*
X78349469Y-108604685D02*
G01*
X78355343Y-108608946D01*
X78358474Y-108611010D01*
X78358477Y-108611011D01*
X78358480Y-108611014D01*
X78534557Y-108702989D01*
X78725543Y-108757638D01*
X78842094Y-108768000D01*
X78842102Y-108768000D01*
X79907898Y-108768000D01*
X79907906Y-108768000D01*
X80024457Y-108757638D01*
X80215443Y-108702989D01*
X80391520Y-108611014D01*
X80391525Y-108611010D01*
X80396773Y-108607552D01*
X80397888Y-108609245D01*
X80453601Y-108585789D01*
X80467570Y-108585000D01*
X84632430Y-108585000D01*
X84699469Y-108604685D01*
X84705343Y-108608946D01*
X84708474Y-108611010D01*
X84708477Y-108611011D01*
X84708480Y-108611014D01*
X84884557Y-108702989D01*
X85075543Y-108757638D01*
X85192094Y-108768000D01*
X85192102Y-108768000D01*
X86257898Y-108768000D01*
X86257906Y-108768000D01*
X86374457Y-108757638D01*
X86565443Y-108702989D01*
X86741520Y-108611014D01*
X86741525Y-108611010D01*
X86746773Y-108607552D01*
X86747888Y-108609245D01*
X86803601Y-108585789D01*
X86817570Y-108585000D01*
X90982430Y-108585000D01*
X91049469Y-108604685D01*
X91055343Y-108608946D01*
X91058474Y-108611010D01*
X91058477Y-108611011D01*
X91058480Y-108611014D01*
X91234557Y-108702989D01*
X91425543Y-108757638D01*
X91542094Y-108768000D01*
X91542102Y-108768000D01*
X92607898Y-108768000D01*
X92607906Y-108768000D01*
X92724457Y-108757638D01*
X92915443Y-108702989D01*
X93091520Y-108611014D01*
X93091525Y-108611010D01*
X93096773Y-108607552D01*
X93097888Y-108609245D01*
X93153601Y-108585789D01*
X93167570Y-108585000D01*
X97332430Y-108585000D01*
X97399469Y-108604685D01*
X97405343Y-108608946D01*
X97408474Y-108611010D01*
X97408477Y-108611011D01*
X97408480Y-108611014D01*
X97584557Y-108702989D01*
X97775543Y-108757638D01*
X97892094Y-108768000D01*
X97892102Y-108768000D01*
X98957898Y-108768000D01*
X98957906Y-108768000D01*
X99074457Y-108757638D01*
X99265443Y-108702989D01*
X99441520Y-108611014D01*
X99441525Y-108611010D01*
X99446773Y-108607552D01*
X99447888Y-108609245D01*
X99503601Y-108585789D01*
X99517570Y-108585000D01*
X103682430Y-108585000D01*
X103749469Y-108604685D01*
X103755343Y-108608946D01*
X103758474Y-108611010D01*
X103758477Y-108611011D01*
X103758480Y-108611014D01*
X103934557Y-108702989D01*
X104125543Y-108757638D01*
X104242094Y-108768000D01*
X104242102Y-108768000D01*
X105307898Y-108768000D01*
X105307906Y-108768000D01*
X105424457Y-108757638D01*
X105615443Y-108702989D01*
X105791520Y-108611014D01*
X105791525Y-108611010D01*
X105796773Y-108607552D01*
X105797888Y-108609245D01*
X105853601Y-108585789D01*
X105867570Y-108585000D01*
X110032430Y-108585000D01*
X110099469Y-108604685D01*
X110105343Y-108608946D01*
X110108474Y-108611010D01*
X110108477Y-108611011D01*
X110108480Y-108611014D01*
X110284557Y-108702989D01*
X110475543Y-108757638D01*
X110592094Y-108768000D01*
X110592102Y-108768000D01*
X111657898Y-108768000D01*
X111657906Y-108768000D01*
X111774457Y-108757638D01*
X111965443Y-108702989D01*
X112141520Y-108611014D01*
X112141525Y-108611010D01*
X112146773Y-108607552D01*
X112147888Y-108609245D01*
X112203601Y-108585789D01*
X112217570Y-108585000D01*
X116382430Y-108585000D01*
X116449469Y-108604685D01*
X116455343Y-108608946D01*
X116458474Y-108611010D01*
X116458477Y-108611011D01*
X116458480Y-108611014D01*
X116634557Y-108702989D01*
X116825543Y-108757638D01*
X116942094Y-108768000D01*
X116942102Y-108768000D01*
X118007898Y-108768000D01*
X118007906Y-108768000D01*
X118124457Y-108757638D01*
X118315443Y-108702989D01*
X118491520Y-108611014D01*
X118491525Y-108611010D01*
X118496773Y-108607552D01*
X118497888Y-108609245D01*
X118553601Y-108585789D01*
X118567570Y-108585000D01*
X122732430Y-108585000D01*
X122799469Y-108604685D01*
X122805343Y-108608946D01*
X122808474Y-108611010D01*
X122808477Y-108611011D01*
X122808480Y-108611014D01*
X122984557Y-108702989D01*
X123175543Y-108757638D01*
X123292094Y-108768000D01*
X123292102Y-108768000D01*
X124357898Y-108768000D01*
X124357906Y-108768000D01*
X124474457Y-108757638D01*
X124665443Y-108702989D01*
X124841520Y-108611014D01*
X124841525Y-108611010D01*
X124846773Y-108607552D01*
X124847888Y-108609245D01*
X124903601Y-108585789D01*
X124917570Y-108585000D01*
X129082430Y-108585000D01*
X129149469Y-108604685D01*
X129155343Y-108608946D01*
X129158474Y-108611010D01*
X129158477Y-108611011D01*
X129158480Y-108611014D01*
X129334557Y-108702989D01*
X129525543Y-108757638D01*
X129642094Y-108768000D01*
X129642102Y-108768000D01*
X130707898Y-108768000D01*
X130707906Y-108768000D01*
X130824457Y-108757638D01*
X131015443Y-108702989D01*
X131191520Y-108611014D01*
X131191525Y-108611010D01*
X131196773Y-108607552D01*
X131197888Y-108609245D01*
X131253601Y-108585789D01*
X131267570Y-108585000D01*
X135432430Y-108585000D01*
X135499469Y-108604685D01*
X135505343Y-108608946D01*
X135508474Y-108611010D01*
X135508477Y-108611011D01*
X135508480Y-108611014D01*
X135684557Y-108702989D01*
X135875543Y-108757638D01*
X135992094Y-108768000D01*
X135992102Y-108768000D01*
X137057898Y-108768000D01*
X137057906Y-108768000D01*
X137174457Y-108757638D01*
X137365443Y-108702989D01*
X137541520Y-108611014D01*
X137541525Y-108611010D01*
X137546773Y-108607552D01*
X137547888Y-108609245D01*
X137603601Y-108585789D01*
X137617570Y-108585000D01*
X141782430Y-108585000D01*
X141849469Y-108604685D01*
X141855343Y-108608946D01*
X141858474Y-108611010D01*
X141858477Y-108611011D01*
X141858480Y-108611014D01*
X142034557Y-108702989D01*
X142225543Y-108757638D01*
X142342094Y-108768000D01*
X142342102Y-108768000D01*
X143407898Y-108768000D01*
X143407906Y-108768000D01*
X143524457Y-108757638D01*
X143715443Y-108702989D01*
X143891520Y-108611014D01*
X143891525Y-108611010D01*
X143896773Y-108607552D01*
X143897888Y-108609245D01*
X143953601Y-108585789D01*
X143967570Y-108585000D01*
X148132430Y-108585000D01*
X148199469Y-108604685D01*
X148205343Y-108608946D01*
X148208474Y-108611010D01*
X148208477Y-108611011D01*
X148208480Y-108611014D01*
X148384557Y-108702989D01*
X148575543Y-108757638D01*
X148692094Y-108768000D01*
X148692102Y-108768000D01*
X149757898Y-108768000D01*
X149757906Y-108768000D01*
X149874457Y-108757638D01*
X150065443Y-108702989D01*
X150241520Y-108611014D01*
X150241525Y-108611010D01*
X150246773Y-108607552D01*
X150247888Y-108609245D01*
X150303601Y-108585789D01*
X150317570Y-108585000D01*
X154482430Y-108585000D01*
X154549469Y-108604685D01*
X154555343Y-108608946D01*
X154558474Y-108611010D01*
X154558477Y-108611011D01*
X154558480Y-108611014D01*
X154734557Y-108702989D01*
X154925543Y-108757638D01*
X155042094Y-108768000D01*
X155042102Y-108768000D01*
X156107898Y-108768000D01*
X156107906Y-108768000D01*
X156224457Y-108757638D01*
X156415443Y-108702989D01*
X156591520Y-108611014D01*
X156591525Y-108611010D01*
X156596773Y-108607552D01*
X156597888Y-108609245D01*
X156653601Y-108585789D01*
X156667570Y-108585000D01*
X160832430Y-108585000D01*
X160899469Y-108604685D01*
X160905343Y-108608946D01*
X160908474Y-108611010D01*
X160908477Y-108611011D01*
X160908480Y-108611014D01*
X161084557Y-108702989D01*
X161275543Y-108757638D01*
X161392094Y-108768000D01*
X161392102Y-108768000D01*
X162457898Y-108768000D01*
X162457906Y-108768000D01*
X162574457Y-108757638D01*
X162765443Y-108702989D01*
X162941520Y-108611014D01*
X162941525Y-108611010D01*
X162946773Y-108607552D01*
X162947888Y-108609245D01*
X163003601Y-108585789D01*
X163017570Y-108585000D01*
X167182430Y-108585000D01*
X167249469Y-108604685D01*
X167255343Y-108608946D01*
X167258474Y-108611010D01*
X167258477Y-108611011D01*
X167258480Y-108611014D01*
X167434557Y-108702989D01*
X167625543Y-108757638D01*
X167742094Y-108768000D01*
X167742102Y-108768000D01*
X168807898Y-108768000D01*
X168807906Y-108768000D01*
X168924457Y-108757638D01*
X169115443Y-108702989D01*
X169291520Y-108611014D01*
X169291525Y-108611010D01*
X169296773Y-108607552D01*
X169297888Y-108609245D01*
X169353601Y-108585789D01*
X169367570Y-108585000D01*
X173532430Y-108585000D01*
X173599469Y-108604685D01*
X173605343Y-108608946D01*
X173608474Y-108611010D01*
X173608477Y-108611011D01*
X173608480Y-108611014D01*
X173784557Y-108702989D01*
X173975543Y-108757638D01*
X174092094Y-108768000D01*
X174092102Y-108768000D01*
X175157898Y-108768000D01*
X175157906Y-108768000D01*
X175274457Y-108757638D01*
X175465443Y-108702989D01*
X175641520Y-108611014D01*
X175641525Y-108611010D01*
X175646773Y-108607552D01*
X175647888Y-108609245D01*
X175703601Y-108585789D01*
X175717570Y-108585000D01*
X179882430Y-108585000D01*
X179949469Y-108604685D01*
X179955343Y-108608946D01*
X179958474Y-108611010D01*
X179958477Y-108611011D01*
X179958480Y-108611014D01*
X180134557Y-108702989D01*
X180325543Y-108757638D01*
X180442094Y-108768000D01*
X180442102Y-108768000D01*
X181507898Y-108768000D01*
X181507906Y-108768000D01*
X181624457Y-108757638D01*
X181815443Y-108702989D01*
X181991520Y-108611014D01*
X181991525Y-108611010D01*
X181996773Y-108607552D01*
X181997888Y-108609245D01*
X182053601Y-108585789D01*
X182067570Y-108585000D01*
X186232430Y-108585000D01*
X186299469Y-108604685D01*
X186305343Y-108608946D01*
X186308474Y-108611010D01*
X186308477Y-108611011D01*
X186308480Y-108611014D01*
X186484557Y-108702989D01*
X186675543Y-108757638D01*
X186792094Y-108768000D01*
X186792102Y-108768000D01*
X187857898Y-108768000D01*
X187857906Y-108768000D01*
X187974457Y-108757638D01*
X188165443Y-108702989D01*
X188341520Y-108611014D01*
X188341525Y-108611010D01*
X188346773Y-108607552D01*
X188347888Y-108609245D01*
X188403601Y-108585789D01*
X188417570Y-108585000D01*
X192582430Y-108585000D01*
X192649469Y-108604685D01*
X192655343Y-108608946D01*
X192658474Y-108611010D01*
X192658477Y-108611011D01*
X192658480Y-108611014D01*
X192834557Y-108702989D01*
X193025543Y-108757638D01*
X193142094Y-108768000D01*
X193142102Y-108768000D01*
X194207898Y-108768000D01*
X194207906Y-108768000D01*
X194324457Y-108757638D01*
X194515443Y-108702989D01*
X194691520Y-108611014D01*
X194691525Y-108611010D01*
X194696773Y-108607552D01*
X194697888Y-108609245D01*
X194753601Y-108585789D01*
X194767570Y-108585000D01*
X198932430Y-108585000D01*
X198999469Y-108604685D01*
X199005343Y-108608946D01*
X199008474Y-108611010D01*
X199008477Y-108611011D01*
X199008480Y-108611014D01*
X199184557Y-108702989D01*
X199375543Y-108757638D01*
X199492094Y-108768000D01*
X199492102Y-108768000D01*
X200557898Y-108768000D01*
X200557906Y-108768000D01*
X200674457Y-108757638D01*
X200865443Y-108702989D01*
X201041520Y-108611014D01*
X201041525Y-108611010D01*
X201046773Y-108607552D01*
X201047888Y-108609245D01*
X201103601Y-108585789D01*
X201117570Y-108585000D01*
X205616000Y-108585000D01*
X205683039Y-108604685D01*
X205728794Y-108657489D01*
X205740000Y-108709000D01*
X205740000Y-110495500D01*
X205720315Y-110562539D01*
X205667511Y-110608294D01*
X205616000Y-110619500D01*
X201117570Y-110619500D01*
X201100466Y-110619982D01*
X201089056Y-110620304D01*
X201075101Y-110621092D01*
X201046655Y-110623507D01*
X200907453Y-110659895D01*
X200907446Y-110659897D01*
X200848030Y-110684912D01*
X200848031Y-110684913D01*
X200815318Y-110698685D01*
X200813287Y-110699922D01*
X200688130Y-110765298D01*
X200664832Y-110774604D01*
X200593074Y-110795137D01*
X200569945Y-110799435D01*
X200549910Y-110801216D01*
X200540954Y-110802013D01*
X200529973Y-110802500D01*
X199520027Y-110802500D01*
X199509044Y-110802013D01*
X199480053Y-110799435D01*
X199456923Y-110795137D01*
X199385166Y-110774604D01*
X199361868Y-110765298D01*
X199220865Y-110691644D01*
X199218712Y-110691012D01*
X199214562Y-110691088D01*
X199195823Y-110684293D01*
X199176789Y-110675601D01*
X199172738Y-110673661D01*
X199168330Y-110671452D01*
X199164239Y-110669755D01*
X199164292Y-110669625D01*
X199159996Y-110667931D01*
X199141894Y-110659664D01*
X199141890Y-110659662D01*
X199074847Y-110639976D01*
X199012784Y-110631053D01*
X198932430Y-110619500D01*
X194767570Y-110619500D01*
X194750466Y-110619982D01*
X194739056Y-110620304D01*
X194725101Y-110621092D01*
X194696655Y-110623507D01*
X194557453Y-110659895D01*
X194557446Y-110659897D01*
X194498030Y-110684912D01*
X194498031Y-110684913D01*
X194465318Y-110698685D01*
X194463287Y-110699922D01*
X194338130Y-110765298D01*
X194314832Y-110774604D01*
X194243074Y-110795137D01*
X194219945Y-110799435D01*
X194199910Y-110801216D01*
X194190954Y-110802013D01*
X194179973Y-110802500D01*
X193170027Y-110802500D01*
X193159044Y-110802013D01*
X193130053Y-110799435D01*
X193106923Y-110795137D01*
X193035166Y-110774604D01*
X193011868Y-110765298D01*
X192870865Y-110691644D01*
X192868712Y-110691012D01*
X192864562Y-110691088D01*
X192845823Y-110684293D01*
X192826789Y-110675601D01*
X192822738Y-110673661D01*
X192818330Y-110671452D01*
X192814239Y-110669755D01*
X192814292Y-110669625D01*
X192809996Y-110667931D01*
X192791894Y-110659664D01*
X192791890Y-110659662D01*
X192724847Y-110639976D01*
X192662784Y-110631053D01*
X192582430Y-110619500D01*
X188417570Y-110619500D01*
X188400466Y-110619982D01*
X188389056Y-110620304D01*
X188375101Y-110621092D01*
X188346655Y-110623507D01*
X188207453Y-110659895D01*
X188207446Y-110659897D01*
X188148030Y-110684912D01*
X188148031Y-110684913D01*
X188115318Y-110698685D01*
X188113287Y-110699922D01*
X187988130Y-110765298D01*
X187964832Y-110774604D01*
X187893074Y-110795137D01*
X187869945Y-110799435D01*
X187849910Y-110801216D01*
X187840954Y-110802013D01*
X187829973Y-110802500D01*
X186820027Y-110802500D01*
X186809044Y-110802013D01*
X186780053Y-110799435D01*
X186756923Y-110795137D01*
X186685166Y-110774604D01*
X186661868Y-110765298D01*
X186520865Y-110691644D01*
X186518712Y-110691012D01*
X186514562Y-110691088D01*
X186495823Y-110684293D01*
X186476789Y-110675601D01*
X186472738Y-110673661D01*
X186468330Y-110671452D01*
X186464239Y-110669755D01*
X186464292Y-110669625D01*
X186459996Y-110667931D01*
X186441894Y-110659664D01*
X186441890Y-110659662D01*
X186374847Y-110639976D01*
X186312784Y-110631053D01*
X186232430Y-110619500D01*
X182067570Y-110619500D01*
X182050466Y-110619982D01*
X182039056Y-110620304D01*
X182025101Y-110621092D01*
X181996655Y-110623507D01*
X181857453Y-110659895D01*
X181857446Y-110659897D01*
X181798030Y-110684912D01*
X181798031Y-110684913D01*
X181765318Y-110698685D01*
X181763287Y-110699922D01*
X181638130Y-110765298D01*
X181614832Y-110774604D01*
X181543074Y-110795137D01*
X181519945Y-110799435D01*
X181499910Y-110801216D01*
X181490954Y-110802013D01*
X181479973Y-110802500D01*
X180470027Y-110802500D01*
X180459044Y-110802013D01*
X180430053Y-110799435D01*
X180406923Y-110795137D01*
X180335166Y-110774604D01*
X180311868Y-110765298D01*
X180170865Y-110691644D01*
X180168712Y-110691012D01*
X180164562Y-110691088D01*
X180145823Y-110684293D01*
X180126789Y-110675601D01*
X180122738Y-110673661D01*
X180118330Y-110671452D01*
X180114239Y-110669755D01*
X180114292Y-110669625D01*
X180109996Y-110667931D01*
X180091894Y-110659664D01*
X180091890Y-110659662D01*
X180024847Y-110639976D01*
X179962784Y-110631053D01*
X179882430Y-110619500D01*
X175717570Y-110619500D01*
X175700466Y-110619982D01*
X175689056Y-110620304D01*
X175675101Y-110621092D01*
X175646655Y-110623507D01*
X175507453Y-110659895D01*
X175507446Y-110659897D01*
X175448030Y-110684912D01*
X175448031Y-110684913D01*
X175415318Y-110698685D01*
X175413287Y-110699922D01*
X175288130Y-110765298D01*
X175264832Y-110774604D01*
X175193074Y-110795137D01*
X175169945Y-110799435D01*
X175149910Y-110801216D01*
X175140954Y-110802013D01*
X175129973Y-110802500D01*
X174120027Y-110802500D01*
X174109044Y-110802013D01*
X174080053Y-110799435D01*
X174056923Y-110795137D01*
X173985166Y-110774604D01*
X173961868Y-110765298D01*
X173820865Y-110691644D01*
X173818712Y-110691012D01*
X173814562Y-110691088D01*
X173795823Y-110684293D01*
X173776789Y-110675601D01*
X173772738Y-110673661D01*
X173768330Y-110671452D01*
X173764239Y-110669755D01*
X173764292Y-110669625D01*
X173759996Y-110667931D01*
X173741894Y-110659664D01*
X173741890Y-110659662D01*
X173674847Y-110639976D01*
X173612784Y-110631053D01*
X173532430Y-110619500D01*
X169367570Y-110619500D01*
X169350466Y-110619982D01*
X169339056Y-110620304D01*
X169325101Y-110621092D01*
X169296655Y-110623507D01*
X169157453Y-110659895D01*
X169157446Y-110659897D01*
X169098030Y-110684912D01*
X169098031Y-110684913D01*
X169065318Y-110698685D01*
X169063287Y-110699922D01*
X168938130Y-110765298D01*
X168914832Y-110774604D01*
X168843074Y-110795137D01*
X168819945Y-110799435D01*
X168799910Y-110801216D01*
X168790954Y-110802013D01*
X168779973Y-110802500D01*
X167770027Y-110802500D01*
X167759044Y-110802013D01*
X167730053Y-110799435D01*
X167706923Y-110795137D01*
X167635166Y-110774604D01*
X167611868Y-110765298D01*
X167470865Y-110691644D01*
X167468712Y-110691012D01*
X167464562Y-110691088D01*
X167445823Y-110684293D01*
X167426789Y-110675601D01*
X167422738Y-110673661D01*
X167418330Y-110671452D01*
X167414239Y-110669755D01*
X167414292Y-110669625D01*
X167409996Y-110667931D01*
X167391894Y-110659664D01*
X167391890Y-110659662D01*
X167324847Y-110639976D01*
X167262784Y-110631053D01*
X167182430Y-110619500D01*
X163017570Y-110619500D01*
X163000466Y-110619982D01*
X162989056Y-110620304D01*
X162975101Y-110621092D01*
X162946655Y-110623507D01*
X162807453Y-110659895D01*
X162807446Y-110659897D01*
X162748030Y-110684912D01*
X162748031Y-110684913D01*
X162715318Y-110698685D01*
X162713287Y-110699922D01*
X162588130Y-110765298D01*
X162564832Y-110774604D01*
X162493074Y-110795137D01*
X162469945Y-110799435D01*
X162449910Y-110801216D01*
X162440954Y-110802013D01*
X162429973Y-110802500D01*
X161420027Y-110802500D01*
X161409044Y-110802013D01*
X161380053Y-110799435D01*
X161356923Y-110795137D01*
X161285166Y-110774604D01*
X161261868Y-110765298D01*
X161120865Y-110691644D01*
X161118712Y-110691012D01*
X161114562Y-110691088D01*
X161095823Y-110684293D01*
X161076789Y-110675601D01*
X161072738Y-110673661D01*
X161068330Y-110671452D01*
X161064239Y-110669755D01*
X161064292Y-110669625D01*
X161059996Y-110667931D01*
X161041894Y-110659664D01*
X161041890Y-110659662D01*
X160974847Y-110639976D01*
X160912784Y-110631053D01*
X160832430Y-110619500D01*
X156667570Y-110619500D01*
X156650466Y-110619982D01*
X156639056Y-110620304D01*
X156625101Y-110621092D01*
X156596655Y-110623507D01*
X156457453Y-110659895D01*
X156457446Y-110659897D01*
X156398030Y-110684912D01*
X156398031Y-110684913D01*
X156365318Y-110698685D01*
X156363287Y-110699922D01*
X156238130Y-110765298D01*
X156214832Y-110774604D01*
X156143074Y-110795137D01*
X156119945Y-110799435D01*
X156099910Y-110801216D01*
X156090954Y-110802013D01*
X156079973Y-110802500D01*
X155070027Y-110802500D01*
X155059044Y-110802013D01*
X155030053Y-110799435D01*
X155006923Y-110795137D01*
X154935166Y-110774604D01*
X154911868Y-110765298D01*
X154770865Y-110691644D01*
X154768712Y-110691012D01*
X154764562Y-110691088D01*
X154745823Y-110684293D01*
X154726789Y-110675601D01*
X154722738Y-110673661D01*
X154718330Y-110671452D01*
X154714239Y-110669755D01*
X154714292Y-110669625D01*
X154709996Y-110667931D01*
X154691894Y-110659664D01*
X154691890Y-110659662D01*
X154624847Y-110639976D01*
X154562784Y-110631053D01*
X154482430Y-110619500D01*
X150317570Y-110619500D01*
X150300466Y-110619982D01*
X150289056Y-110620304D01*
X150275101Y-110621092D01*
X150246655Y-110623507D01*
X150107453Y-110659895D01*
X150107446Y-110659897D01*
X150048030Y-110684912D01*
X150048031Y-110684913D01*
X150015318Y-110698685D01*
X150013287Y-110699922D01*
X149888130Y-110765298D01*
X149864832Y-110774604D01*
X149793074Y-110795137D01*
X149769945Y-110799435D01*
X149749910Y-110801216D01*
X149740954Y-110802013D01*
X149729973Y-110802500D01*
X148720027Y-110802500D01*
X148709044Y-110802013D01*
X148680053Y-110799435D01*
X148656923Y-110795137D01*
X148585166Y-110774604D01*
X148561868Y-110765298D01*
X148420865Y-110691644D01*
X148418712Y-110691012D01*
X148414562Y-110691088D01*
X148395823Y-110684293D01*
X148376789Y-110675601D01*
X148372738Y-110673661D01*
X148368330Y-110671452D01*
X148364239Y-110669755D01*
X148364292Y-110669625D01*
X148359996Y-110667931D01*
X148341894Y-110659664D01*
X148341890Y-110659662D01*
X148274847Y-110639976D01*
X148212784Y-110631053D01*
X148132430Y-110619500D01*
X143967570Y-110619500D01*
X143950466Y-110619982D01*
X143939056Y-110620304D01*
X143925101Y-110621092D01*
X143896655Y-110623507D01*
X143757453Y-110659895D01*
X143757446Y-110659897D01*
X143698030Y-110684912D01*
X143698031Y-110684913D01*
X143665318Y-110698685D01*
X143663287Y-110699922D01*
X143538130Y-110765298D01*
X143514832Y-110774604D01*
X143443074Y-110795137D01*
X143419945Y-110799435D01*
X143399910Y-110801216D01*
X143390954Y-110802013D01*
X143379973Y-110802500D01*
X142370027Y-110802500D01*
X142359044Y-110802013D01*
X142330053Y-110799435D01*
X142306923Y-110795137D01*
X142235166Y-110774604D01*
X142211868Y-110765298D01*
X142070865Y-110691644D01*
X142068712Y-110691012D01*
X142064562Y-110691088D01*
X142045823Y-110684293D01*
X142026789Y-110675601D01*
X142022738Y-110673661D01*
X142018330Y-110671452D01*
X142014239Y-110669755D01*
X142014292Y-110669625D01*
X142009996Y-110667931D01*
X141991894Y-110659664D01*
X141991890Y-110659662D01*
X141924847Y-110639976D01*
X141862784Y-110631053D01*
X141782430Y-110619500D01*
X137617570Y-110619500D01*
X137600466Y-110619982D01*
X137589056Y-110620304D01*
X137575101Y-110621092D01*
X137546655Y-110623507D01*
X137407453Y-110659895D01*
X137407446Y-110659897D01*
X137348030Y-110684912D01*
X137348031Y-110684913D01*
X137315318Y-110698685D01*
X137313287Y-110699922D01*
X137188130Y-110765298D01*
X137164832Y-110774604D01*
X137093074Y-110795137D01*
X137069945Y-110799435D01*
X137049910Y-110801216D01*
X137040954Y-110802013D01*
X137029973Y-110802500D01*
X136020027Y-110802500D01*
X136009044Y-110802013D01*
X135980053Y-110799435D01*
X135956923Y-110795137D01*
X135885166Y-110774604D01*
X135861868Y-110765298D01*
X135720865Y-110691644D01*
X135718712Y-110691012D01*
X135714562Y-110691088D01*
X135695823Y-110684293D01*
X135676789Y-110675601D01*
X135672738Y-110673661D01*
X135668330Y-110671452D01*
X135664239Y-110669755D01*
X135664292Y-110669625D01*
X135659996Y-110667931D01*
X135641894Y-110659664D01*
X135641890Y-110659662D01*
X135574847Y-110639976D01*
X135512784Y-110631053D01*
X135432430Y-110619500D01*
X131267570Y-110619500D01*
X131250466Y-110619982D01*
X131239056Y-110620304D01*
X131225101Y-110621092D01*
X131196655Y-110623507D01*
X131057453Y-110659895D01*
X131057446Y-110659897D01*
X130998030Y-110684912D01*
X130998031Y-110684913D01*
X130965318Y-110698685D01*
X130963287Y-110699922D01*
X130838130Y-110765298D01*
X130814832Y-110774604D01*
X130743074Y-110795137D01*
X130719945Y-110799435D01*
X130699910Y-110801216D01*
X130690954Y-110802013D01*
X130679973Y-110802500D01*
X129670027Y-110802500D01*
X129659044Y-110802013D01*
X129630053Y-110799435D01*
X129606923Y-110795137D01*
X129535166Y-110774604D01*
X129511868Y-110765298D01*
X129370865Y-110691644D01*
X129368712Y-110691012D01*
X129364562Y-110691088D01*
X129345823Y-110684293D01*
X129326789Y-110675601D01*
X129322738Y-110673661D01*
X129318330Y-110671452D01*
X129314239Y-110669755D01*
X129314292Y-110669625D01*
X129309996Y-110667931D01*
X129291894Y-110659664D01*
X129291890Y-110659662D01*
X129224847Y-110639976D01*
X129162784Y-110631053D01*
X129082430Y-110619500D01*
X124917570Y-110619500D01*
X124900466Y-110619982D01*
X124889056Y-110620304D01*
X124875101Y-110621092D01*
X124846655Y-110623507D01*
X124707453Y-110659895D01*
X124707446Y-110659897D01*
X124648030Y-110684912D01*
X124648031Y-110684913D01*
X124615318Y-110698685D01*
X124613287Y-110699922D01*
X124488130Y-110765298D01*
X124464832Y-110774604D01*
X124393074Y-110795137D01*
X124369945Y-110799435D01*
X124349910Y-110801216D01*
X124340954Y-110802013D01*
X124329973Y-110802500D01*
X123320027Y-110802500D01*
X123309044Y-110802013D01*
X123280053Y-110799435D01*
X123256923Y-110795137D01*
X123185166Y-110774604D01*
X123161868Y-110765298D01*
X123020865Y-110691644D01*
X123018712Y-110691012D01*
X123014562Y-110691088D01*
X122995823Y-110684293D01*
X122976789Y-110675601D01*
X122972738Y-110673661D01*
X122968330Y-110671452D01*
X122964239Y-110669755D01*
X122964292Y-110669625D01*
X122959996Y-110667931D01*
X122941894Y-110659664D01*
X122941890Y-110659662D01*
X122874847Y-110639976D01*
X122812784Y-110631053D01*
X122732430Y-110619500D01*
X118567570Y-110619500D01*
X118550466Y-110619982D01*
X118539056Y-110620304D01*
X118525101Y-110621092D01*
X118496655Y-110623507D01*
X118357453Y-110659895D01*
X118357446Y-110659897D01*
X118298030Y-110684912D01*
X118298031Y-110684913D01*
X118265318Y-110698685D01*
X118263287Y-110699922D01*
X118138130Y-110765298D01*
X118114832Y-110774604D01*
X118043074Y-110795137D01*
X118019945Y-110799435D01*
X117999910Y-110801216D01*
X117990954Y-110802013D01*
X117979973Y-110802500D01*
X116970027Y-110802500D01*
X116959044Y-110802013D01*
X116930053Y-110799435D01*
X116906923Y-110795137D01*
X116835166Y-110774604D01*
X116811868Y-110765298D01*
X116670865Y-110691644D01*
X116668712Y-110691012D01*
X116664562Y-110691088D01*
X116645823Y-110684293D01*
X116626789Y-110675601D01*
X116622738Y-110673661D01*
X116618330Y-110671452D01*
X116614239Y-110669755D01*
X116614292Y-110669625D01*
X116609996Y-110667931D01*
X116591894Y-110659664D01*
X116591890Y-110659662D01*
X116524847Y-110639976D01*
X116462784Y-110631053D01*
X116382430Y-110619500D01*
X112217570Y-110619500D01*
X112200466Y-110619982D01*
X112189056Y-110620304D01*
X112175101Y-110621092D01*
X112146655Y-110623507D01*
X112007453Y-110659895D01*
X112007446Y-110659897D01*
X111948030Y-110684912D01*
X111948031Y-110684913D01*
X111915318Y-110698685D01*
X111913287Y-110699922D01*
X111788130Y-110765298D01*
X111764832Y-110774604D01*
X111693074Y-110795137D01*
X111669945Y-110799435D01*
X111649910Y-110801216D01*
X111640954Y-110802013D01*
X111629973Y-110802500D01*
X110620027Y-110802500D01*
X110609044Y-110802013D01*
X110580053Y-110799435D01*
X110556923Y-110795137D01*
X110485166Y-110774604D01*
X110461868Y-110765298D01*
X110320865Y-110691644D01*
X110318712Y-110691012D01*
X110314562Y-110691088D01*
X110295823Y-110684293D01*
X110276789Y-110675601D01*
X110272738Y-110673661D01*
X110268330Y-110671452D01*
X110264239Y-110669755D01*
X110264292Y-110669625D01*
X110259996Y-110667931D01*
X110241894Y-110659664D01*
X110241890Y-110659662D01*
X110174847Y-110639976D01*
X110112784Y-110631053D01*
X110032430Y-110619500D01*
X105867570Y-110619500D01*
X105850466Y-110619982D01*
X105839056Y-110620304D01*
X105825101Y-110621092D01*
X105796655Y-110623507D01*
X105657453Y-110659895D01*
X105657446Y-110659897D01*
X105598030Y-110684912D01*
X105598031Y-110684913D01*
X105565318Y-110698685D01*
X105563287Y-110699922D01*
X105438130Y-110765298D01*
X105414832Y-110774604D01*
X105343074Y-110795137D01*
X105319945Y-110799435D01*
X105299910Y-110801216D01*
X105290954Y-110802013D01*
X105279973Y-110802500D01*
X104270027Y-110802500D01*
X104259044Y-110802013D01*
X104230053Y-110799435D01*
X104206923Y-110795137D01*
X104135166Y-110774604D01*
X104111868Y-110765298D01*
X103970865Y-110691644D01*
X103968712Y-110691012D01*
X103964562Y-110691088D01*
X103945823Y-110684293D01*
X103926789Y-110675601D01*
X103922738Y-110673661D01*
X103918330Y-110671452D01*
X103914239Y-110669755D01*
X103914292Y-110669625D01*
X103909996Y-110667931D01*
X103891894Y-110659664D01*
X103891890Y-110659662D01*
X103824847Y-110639976D01*
X103762784Y-110631053D01*
X103682430Y-110619500D01*
X99517570Y-110619500D01*
X99500466Y-110619982D01*
X99489056Y-110620304D01*
X99475101Y-110621092D01*
X99446655Y-110623507D01*
X99307453Y-110659895D01*
X99307446Y-110659897D01*
X99248030Y-110684912D01*
X99248031Y-110684913D01*
X99215318Y-110698685D01*
X99213287Y-110699922D01*
X99088130Y-110765298D01*
X99064832Y-110774604D01*
X98993074Y-110795137D01*
X98969945Y-110799435D01*
X98949910Y-110801216D01*
X98940954Y-110802013D01*
X98929973Y-110802500D01*
X97920027Y-110802500D01*
X97909044Y-110802013D01*
X97880053Y-110799435D01*
X97856923Y-110795137D01*
X97785166Y-110774604D01*
X97761868Y-110765298D01*
X97620865Y-110691644D01*
X97618712Y-110691012D01*
X97614562Y-110691088D01*
X97595823Y-110684293D01*
X97576789Y-110675601D01*
X97572738Y-110673661D01*
X97568330Y-110671452D01*
X97564239Y-110669755D01*
X97564292Y-110669625D01*
X97559996Y-110667931D01*
X97541894Y-110659664D01*
X97541890Y-110659662D01*
X97474847Y-110639976D01*
X97412784Y-110631053D01*
X97332430Y-110619500D01*
X93167570Y-110619500D01*
X93150466Y-110619982D01*
X93139056Y-110620304D01*
X93125101Y-110621092D01*
X93096655Y-110623507D01*
X92957453Y-110659895D01*
X92957446Y-110659897D01*
X92898030Y-110684912D01*
X92898031Y-110684913D01*
X92865318Y-110698685D01*
X92863287Y-110699922D01*
X92738130Y-110765298D01*
X92714832Y-110774604D01*
X92643074Y-110795137D01*
X92619945Y-110799435D01*
X92599910Y-110801216D01*
X92590954Y-110802013D01*
X92579973Y-110802500D01*
X91570027Y-110802500D01*
X91559044Y-110802013D01*
X91530053Y-110799435D01*
X91506923Y-110795137D01*
X91435166Y-110774604D01*
X91411868Y-110765298D01*
X91270865Y-110691644D01*
X91268712Y-110691012D01*
X91264562Y-110691088D01*
X91245823Y-110684293D01*
X91226789Y-110675601D01*
X91222738Y-110673661D01*
X91218330Y-110671452D01*
X91214239Y-110669755D01*
X91214292Y-110669625D01*
X91209996Y-110667931D01*
X91191894Y-110659664D01*
X91191890Y-110659662D01*
X91124847Y-110639976D01*
X91062784Y-110631053D01*
X90982430Y-110619500D01*
X86817570Y-110619500D01*
X86800466Y-110619982D01*
X86789056Y-110620304D01*
X86775101Y-110621092D01*
X86746655Y-110623507D01*
X86607453Y-110659895D01*
X86607446Y-110659897D01*
X86548030Y-110684912D01*
X86548031Y-110684913D01*
X86515318Y-110698685D01*
X86513287Y-110699922D01*
X86388130Y-110765298D01*
X86364832Y-110774604D01*
X86293074Y-110795137D01*
X86269945Y-110799435D01*
X86249910Y-110801216D01*
X86240954Y-110802013D01*
X86229973Y-110802500D01*
X85220027Y-110802500D01*
X85209044Y-110802013D01*
X85180053Y-110799435D01*
X85156923Y-110795137D01*
X85085166Y-110774604D01*
X85061868Y-110765298D01*
X84920865Y-110691644D01*
X84918712Y-110691012D01*
X84914562Y-110691088D01*
X84895823Y-110684293D01*
X84876789Y-110675601D01*
X84872738Y-110673661D01*
X84868330Y-110671452D01*
X84864239Y-110669755D01*
X84864292Y-110669625D01*
X84859996Y-110667931D01*
X84841894Y-110659664D01*
X84841890Y-110659662D01*
X84774847Y-110639976D01*
X84712784Y-110631053D01*
X84632430Y-110619500D01*
X80467570Y-110619500D01*
X80450466Y-110619982D01*
X80439056Y-110620304D01*
X80425101Y-110621092D01*
X80396655Y-110623507D01*
X80257453Y-110659895D01*
X80257446Y-110659897D01*
X80198030Y-110684912D01*
X80198031Y-110684913D01*
X80165318Y-110698685D01*
X80163287Y-110699922D01*
X80038130Y-110765298D01*
X80014832Y-110774604D01*
X79943074Y-110795137D01*
X79919945Y-110799435D01*
X79899910Y-110801216D01*
X79890954Y-110802013D01*
X79879973Y-110802500D01*
X78870027Y-110802500D01*
X78859044Y-110802013D01*
X78830053Y-110799435D01*
X78806923Y-110795137D01*
X78735166Y-110774604D01*
X78711868Y-110765298D01*
X78570865Y-110691644D01*
X78568712Y-110691012D01*
X78564562Y-110691088D01*
X78545823Y-110684293D01*
X78526789Y-110675601D01*
X78522738Y-110673661D01*
X78518330Y-110671452D01*
X78514239Y-110669755D01*
X78514292Y-110669625D01*
X78509996Y-110667931D01*
X78491894Y-110659664D01*
X78491890Y-110659662D01*
X78424847Y-110639976D01*
X78362784Y-110631053D01*
X78282430Y-110619500D01*
X73784000Y-110619500D01*
X73716961Y-110599815D01*
X73671206Y-110547011D01*
X73660000Y-110495500D01*
X73660000Y-108709000D01*
X73679685Y-108641961D01*
X73732489Y-108596206D01*
X73784000Y-108585000D01*
X78282430Y-108585000D01*
X78349469Y-108604685D01*
G37*
%TD.AperFunction*%
%TD*%
%TA.AperFunction,Conductor*%
%TO.N,/SCL*%
G36*
X78349469Y-111144685D02*
G01*
X78355343Y-111148946D01*
X78358474Y-111151010D01*
X78358477Y-111151011D01*
X78358480Y-111151014D01*
X78534557Y-111242989D01*
X78725543Y-111297638D01*
X78842094Y-111308000D01*
X78842102Y-111308000D01*
X79907898Y-111308000D01*
X79907906Y-111308000D01*
X80024457Y-111297638D01*
X80215443Y-111242989D01*
X80391520Y-111151014D01*
X80391525Y-111151010D01*
X80396773Y-111147552D01*
X80397888Y-111149245D01*
X80453601Y-111125789D01*
X80467570Y-111125000D01*
X84632430Y-111125000D01*
X84699469Y-111144685D01*
X84705343Y-111148946D01*
X84708474Y-111151010D01*
X84708477Y-111151011D01*
X84708480Y-111151014D01*
X84884557Y-111242989D01*
X85075543Y-111297638D01*
X85192094Y-111308000D01*
X85192102Y-111308000D01*
X86257898Y-111308000D01*
X86257906Y-111308000D01*
X86374457Y-111297638D01*
X86565443Y-111242989D01*
X86741520Y-111151014D01*
X86741525Y-111151010D01*
X86746773Y-111147552D01*
X86747888Y-111149245D01*
X86803601Y-111125789D01*
X86817570Y-111125000D01*
X90982430Y-111125000D01*
X91049469Y-111144685D01*
X91055343Y-111148946D01*
X91058474Y-111151010D01*
X91058477Y-111151011D01*
X91058480Y-111151014D01*
X91234557Y-111242989D01*
X91425543Y-111297638D01*
X91542094Y-111308000D01*
X91542102Y-111308000D01*
X92607898Y-111308000D01*
X92607906Y-111308000D01*
X92724457Y-111297638D01*
X92915443Y-111242989D01*
X93091520Y-111151014D01*
X93091525Y-111151010D01*
X93096773Y-111147552D01*
X93097888Y-111149245D01*
X93153601Y-111125789D01*
X93167570Y-111125000D01*
X97332430Y-111125000D01*
X97399469Y-111144685D01*
X97405343Y-111148946D01*
X97408474Y-111151010D01*
X97408477Y-111151011D01*
X97408480Y-111151014D01*
X97584557Y-111242989D01*
X97775543Y-111297638D01*
X97892094Y-111308000D01*
X97892102Y-111308000D01*
X98957898Y-111308000D01*
X98957906Y-111308000D01*
X99074457Y-111297638D01*
X99265443Y-111242989D01*
X99441520Y-111151014D01*
X99441525Y-111151010D01*
X99446773Y-111147552D01*
X99447888Y-111149245D01*
X99503601Y-111125789D01*
X99517570Y-111125000D01*
X103682430Y-111125000D01*
X103749469Y-111144685D01*
X103755343Y-111148946D01*
X103758474Y-111151010D01*
X103758477Y-111151011D01*
X103758480Y-111151014D01*
X103934557Y-111242989D01*
X104125543Y-111297638D01*
X104242094Y-111308000D01*
X104242102Y-111308000D01*
X105307898Y-111308000D01*
X105307906Y-111308000D01*
X105424457Y-111297638D01*
X105615443Y-111242989D01*
X105791520Y-111151014D01*
X105791525Y-111151010D01*
X105796773Y-111147552D01*
X105797888Y-111149245D01*
X105853601Y-111125789D01*
X105867570Y-111125000D01*
X110032430Y-111125000D01*
X110099469Y-111144685D01*
X110105343Y-111148946D01*
X110108474Y-111151010D01*
X110108477Y-111151011D01*
X110108480Y-111151014D01*
X110284557Y-111242989D01*
X110475543Y-111297638D01*
X110592094Y-111308000D01*
X110592102Y-111308000D01*
X111657898Y-111308000D01*
X111657906Y-111308000D01*
X111774457Y-111297638D01*
X111965443Y-111242989D01*
X112141520Y-111151014D01*
X112141525Y-111151010D01*
X112146773Y-111147552D01*
X112147888Y-111149245D01*
X112203601Y-111125789D01*
X112217570Y-111125000D01*
X116382430Y-111125000D01*
X116449469Y-111144685D01*
X116455343Y-111148946D01*
X116458474Y-111151010D01*
X116458477Y-111151011D01*
X116458480Y-111151014D01*
X116634557Y-111242989D01*
X116825543Y-111297638D01*
X116942094Y-111308000D01*
X116942102Y-111308000D01*
X118007898Y-111308000D01*
X118007906Y-111308000D01*
X118124457Y-111297638D01*
X118315443Y-111242989D01*
X118491520Y-111151014D01*
X118491525Y-111151010D01*
X118496773Y-111147552D01*
X118497888Y-111149245D01*
X118553601Y-111125789D01*
X118567570Y-111125000D01*
X122732430Y-111125000D01*
X122799469Y-111144685D01*
X122805343Y-111148946D01*
X122808474Y-111151010D01*
X122808477Y-111151011D01*
X122808480Y-111151014D01*
X122984557Y-111242989D01*
X123175543Y-111297638D01*
X123292094Y-111308000D01*
X123292102Y-111308000D01*
X124357898Y-111308000D01*
X124357906Y-111308000D01*
X124474457Y-111297638D01*
X124665443Y-111242989D01*
X124841520Y-111151014D01*
X124841525Y-111151010D01*
X124846773Y-111147552D01*
X124847888Y-111149245D01*
X124903601Y-111125789D01*
X124917570Y-111125000D01*
X129082430Y-111125000D01*
X129149469Y-111144685D01*
X129155343Y-111148946D01*
X129158474Y-111151010D01*
X129158477Y-111151011D01*
X129158480Y-111151014D01*
X129334557Y-111242989D01*
X129525543Y-111297638D01*
X129642094Y-111308000D01*
X129642102Y-111308000D01*
X130707898Y-111308000D01*
X130707906Y-111308000D01*
X130824457Y-111297638D01*
X131015443Y-111242989D01*
X131191520Y-111151014D01*
X131191525Y-111151010D01*
X131196773Y-111147552D01*
X131197888Y-111149245D01*
X131253601Y-111125789D01*
X131267570Y-111125000D01*
X135432430Y-111125000D01*
X135499469Y-111144685D01*
X135505343Y-111148946D01*
X135508474Y-111151010D01*
X135508477Y-111151011D01*
X135508480Y-111151014D01*
X135684557Y-111242989D01*
X135875543Y-111297638D01*
X135992094Y-111308000D01*
X135992102Y-111308000D01*
X137057898Y-111308000D01*
X137057906Y-111308000D01*
X137174457Y-111297638D01*
X137365443Y-111242989D01*
X137541520Y-111151014D01*
X137541525Y-111151010D01*
X137546773Y-111147552D01*
X137547888Y-111149245D01*
X137603601Y-111125789D01*
X137617570Y-111125000D01*
X141782430Y-111125000D01*
X141849469Y-111144685D01*
X141855343Y-111148946D01*
X141858474Y-111151010D01*
X141858477Y-111151011D01*
X141858480Y-111151014D01*
X142034557Y-111242989D01*
X142225543Y-111297638D01*
X142342094Y-111308000D01*
X142342102Y-111308000D01*
X143407898Y-111308000D01*
X143407906Y-111308000D01*
X143524457Y-111297638D01*
X143715443Y-111242989D01*
X143891520Y-111151014D01*
X143891525Y-111151010D01*
X143896773Y-111147552D01*
X143897888Y-111149245D01*
X143953601Y-111125789D01*
X143967570Y-111125000D01*
X148132430Y-111125000D01*
X148199469Y-111144685D01*
X148205343Y-111148946D01*
X148208474Y-111151010D01*
X148208477Y-111151011D01*
X148208480Y-111151014D01*
X148384557Y-111242989D01*
X148575543Y-111297638D01*
X148692094Y-111308000D01*
X148692102Y-111308000D01*
X149757898Y-111308000D01*
X149757906Y-111308000D01*
X149874457Y-111297638D01*
X150065443Y-111242989D01*
X150241520Y-111151014D01*
X150241525Y-111151010D01*
X150246773Y-111147552D01*
X150247888Y-111149245D01*
X150303601Y-111125789D01*
X150317570Y-111125000D01*
X154482430Y-111125000D01*
X154549469Y-111144685D01*
X154555343Y-111148946D01*
X154558474Y-111151010D01*
X154558477Y-111151011D01*
X154558480Y-111151014D01*
X154734557Y-111242989D01*
X154925543Y-111297638D01*
X155042094Y-111308000D01*
X155042102Y-111308000D01*
X156107898Y-111308000D01*
X156107906Y-111308000D01*
X156224457Y-111297638D01*
X156415443Y-111242989D01*
X156591520Y-111151014D01*
X156591525Y-111151010D01*
X156596773Y-111147552D01*
X156597888Y-111149245D01*
X156653601Y-111125789D01*
X156667570Y-111125000D01*
X160832430Y-111125000D01*
X160899469Y-111144685D01*
X160905343Y-111148946D01*
X160908474Y-111151010D01*
X160908477Y-111151011D01*
X160908480Y-111151014D01*
X161084557Y-111242989D01*
X161275543Y-111297638D01*
X161392094Y-111308000D01*
X161392102Y-111308000D01*
X162457898Y-111308000D01*
X162457906Y-111308000D01*
X162574457Y-111297638D01*
X162765443Y-111242989D01*
X162941520Y-111151014D01*
X162941525Y-111151010D01*
X162946773Y-111147552D01*
X162947888Y-111149245D01*
X163003601Y-111125789D01*
X163017570Y-111125000D01*
X167182430Y-111125000D01*
X167249469Y-111144685D01*
X167255343Y-111148946D01*
X167258474Y-111151010D01*
X167258477Y-111151011D01*
X167258480Y-111151014D01*
X167434557Y-111242989D01*
X167625543Y-111297638D01*
X167742094Y-111308000D01*
X167742102Y-111308000D01*
X168807898Y-111308000D01*
X168807906Y-111308000D01*
X168924457Y-111297638D01*
X169115443Y-111242989D01*
X169291520Y-111151014D01*
X169291525Y-111151010D01*
X169296773Y-111147552D01*
X169297888Y-111149245D01*
X169353601Y-111125789D01*
X169367570Y-111125000D01*
X173532430Y-111125000D01*
X173599469Y-111144685D01*
X173605343Y-111148946D01*
X173608474Y-111151010D01*
X173608477Y-111151011D01*
X173608480Y-111151014D01*
X173784557Y-111242989D01*
X173975543Y-111297638D01*
X174092094Y-111308000D01*
X174092102Y-111308000D01*
X175157898Y-111308000D01*
X175157906Y-111308000D01*
X175274457Y-111297638D01*
X175465443Y-111242989D01*
X175641520Y-111151014D01*
X175641525Y-111151010D01*
X175646773Y-111147552D01*
X175647888Y-111149245D01*
X175703601Y-111125789D01*
X175717570Y-111125000D01*
X179882430Y-111125000D01*
X179949469Y-111144685D01*
X179955343Y-111148946D01*
X179958474Y-111151010D01*
X179958477Y-111151011D01*
X179958480Y-111151014D01*
X180134557Y-111242989D01*
X180325543Y-111297638D01*
X180442094Y-111308000D01*
X180442102Y-111308000D01*
X181507898Y-111308000D01*
X181507906Y-111308000D01*
X181624457Y-111297638D01*
X181815443Y-111242989D01*
X181991520Y-111151014D01*
X181991525Y-111151010D01*
X181996773Y-111147552D01*
X181997888Y-111149245D01*
X182053601Y-111125789D01*
X182067570Y-111125000D01*
X186232430Y-111125000D01*
X186299469Y-111144685D01*
X186305343Y-111148946D01*
X186308474Y-111151010D01*
X186308477Y-111151011D01*
X186308480Y-111151014D01*
X186484557Y-111242989D01*
X186675543Y-111297638D01*
X186792094Y-111308000D01*
X186792102Y-111308000D01*
X187857898Y-111308000D01*
X187857906Y-111308000D01*
X187974457Y-111297638D01*
X188165443Y-111242989D01*
X188341520Y-111151014D01*
X188341525Y-111151010D01*
X188346773Y-111147552D01*
X188347888Y-111149245D01*
X188403601Y-111125789D01*
X188417570Y-111125000D01*
X192582430Y-111125000D01*
X192649469Y-111144685D01*
X192655343Y-111148946D01*
X192658474Y-111151010D01*
X192658477Y-111151011D01*
X192658480Y-111151014D01*
X192834557Y-111242989D01*
X193025543Y-111297638D01*
X193142094Y-111308000D01*
X193142102Y-111308000D01*
X194207898Y-111308000D01*
X194207906Y-111308000D01*
X194324457Y-111297638D01*
X194515443Y-111242989D01*
X194691520Y-111151014D01*
X194691525Y-111151010D01*
X194696773Y-111147552D01*
X194697888Y-111149245D01*
X194753601Y-111125789D01*
X194767570Y-111125000D01*
X198932430Y-111125000D01*
X198999469Y-111144685D01*
X199005343Y-111148946D01*
X199008474Y-111151010D01*
X199008477Y-111151011D01*
X199008480Y-111151014D01*
X199184557Y-111242989D01*
X199375543Y-111297638D01*
X199492094Y-111308000D01*
X199492102Y-111308000D01*
X200557898Y-111308000D01*
X200557906Y-111308000D01*
X200674457Y-111297638D01*
X200865443Y-111242989D01*
X201041520Y-111151014D01*
X201041525Y-111151010D01*
X201046773Y-111147552D01*
X201047888Y-111149245D01*
X201103601Y-111125789D01*
X201117570Y-111125000D01*
X205616000Y-111125000D01*
X205683039Y-111144685D01*
X205728794Y-111197489D01*
X205740000Y-111249000D01*
X205740000Y-113035500D01*
X205720315Y-113102539D01*
X205667511Y-113148294D01*
X205616000Y-113159500D01*
X201117570Y-113159500D01*
X201100466Y-113159982D01*
X201089056Y-113160304D01*
X201075101Y-113161092D01*
X201046655Y-113163507D01*
X200907453Y-113199895D01*
X200907446Y-113199897D01*
X200848030Y-113224912D01*
X200848031Y-113224913D01*
X200815318Y-113238685D01*
X200813287Y-113239922D01*
X200688130Y-113305298D01*
X200664832Y-113314604D01*
X200593074Y-113335137D01*
X200569945Y-113339435D01*
X200549910Y-113341216D01*
X200540954Y-113342013D01*
X200529973Y-113342500D01*
X199520027Y-113342500D01*
X199509044Y-113342013D01*
X199480053Y-113339435D01*
X199456923Y-113335137D01*
X199385166Y-113314604D01*
X199361868Y-113305298D01*
X199220865Y-113231644D01*
X199218712Y-113231012D01*
X199214562Y-113231088D01*
X199195823Y-113224293D01*
X199176789Y-113215601D01*
X199172738Y-113213661D01*
X199168330Y-113211452D01*
X199164239Y-113209755D01*
X199164292Y-113209625D01*
X199159996Y-113207931D01*
X199141894Y-113199664D01*
X199141890Y-113199662D01*
X199074847Y-113179976D01*
X199012784Y-113171053D01*
X198932430Y-113159500D01*
X194767570Y-113159500D01*
X194750466Y-113159982D01*
X194739056Y-113160304D01*
X194725101Y-113161092D01*
X194696655Y-113163507D01*
X194557453Y-113199895D01*
X194557446Y-113199897D01*
X194498030Y-113224912D01*
X194498031Y-113224913D01*
X194465318Y-113238685D01*
X194463287Y-113239922D01*
X194338130Y-113305298D01*
X194314832Y-113314604D01*
X194243074Y-113335137D01*
X194219945Y-113339435D01*
X194199910Y-113341216D01*
X194190954Y-113342013D01*
X194179973Y-113342500D01*
X193170027Y-113342500D01*
X193159044Y-113342013D01*
X193130053Y-113339435D01*
X193106923Y-113335137D01*
X193035166Y-113314604D01*
X193011868Y-113305298D01*
X192870865Y-113231644D01*
X192868712Y-113231012D01*
X192864562Y-113231088D01*
X192845823Y-113224293D01*
X192826789Y-113215601D01*
X192822738Y-113213661D01*
X192818330Y-113211452D01*
X192814239Y-113209755D01*
X192814292Y-113209625D01*
X192809996Y-113207931D01*
X192791894Y-113199664D01*
X192791890Y-113199662D01*
X192724847Y-113179976D01*
X192662784Y-113171053D01*
X192582430Y-113159500D01*
X188417570Y-113159500D01*
X188400466Y-113159982D01*
X188389056Y-113160304D01*
X188375101Y-113161092D01*
X188346655Y-113163507D01*
X188207453Y-113199895D01*
X188207446Y-113199897D01*
X188148030Y-113224912D01*
X188148031Y-113224913D01*
X188115318Y-113238685D01*
X188113287Y-113239922D01*
X187988130Y-113305298D01*
X187964832Y-113314604D01*
X187893074Y-113335137D01*
X187869945Y-113339435D01*
X187849910Y-113341216D01*
X187840954Y-113342013D01*
X187829973Y-113342500D01*
X186820027Y-113342500D01*
X186809044Y-113342013D01*
X186780053Y-113339435D01*
X186756923Y-113335137D01*
X186685166Y-113314604D01*
X186661868Y-113305298D01*
X186520865Y-113231644D01*
X186518712Y-113231012D01*
X186514562Y-113231088D01*
X186495823Y-113224293D01*
X186476789Y-113215601D01*
X186472738Y-113213661D01*
X186468330Y-113211452D01*
X186464239Y-113209755D01*
X186464292Y-113209625D01*
X186459996Y-113207931D01*
X186441894Y-113199664D01*
X186441890Y-113199662D01*
X186374847Y-113179976D01*
X186312784Y-113171053D01*
X186232430Y-113159500D01*
X182067570Y-113159500D01*
X182050466Y-113159982D01*
X182039056Y-113160304D01*
X182025101Y-113161092D01*
X181996655Y-113163507D01*
X181857453Y-113199895D01*
X181857446Y-113199897D01*
X181798030Y-113224912D01*
X181798031Y-113224913D01*
X181765318Y-113238685D01*
X181763287Y-113239922D01*
X181638130Y-113305298D01*
X181614832Y-113314604D01*
X181543074Y-113335137D01*
X181519945Y-113339435D01*
X181499910Y-113341216D01*
X181490954Y-113342013D01*
X181479973Y-113342500D01*
X180470027Y-113342500D01*
X180459044Y-113342013D01*
X180430053Y-113339435D01*
X180406923Y-113335137D01*
X180335166Y-113314604D01*
X180311868Y-113305298D01*
X180170865Y-113231644D01*
X180168712Y-113231012D01*
X180164562Y-113231088D01*
X180145823Y-113224293D01*
X180126789Y-113215601D01*
X180122738Y-113213661D01*
X180118330Y-113211452D01*
X180114239Y-113209755D01*
X180114292Y-113209625D01*
X180109996Y-113207931D01*
X180091894Y-113199664D01*
X180091890Y-113199662D01*
X180024847Y-113179976D01*
X179962784Y-113171053D01*
X179882430Y-113159500D01*
X175717570Y-113159500D01*
X175700466Y-113159982D01*
X175689056Y-113160304D01*
X175675101Y-113161092D01*
X175646655Y-113163507D01*
X175507453Y-113199895D01*
X175507446Y-113199897D01*
X175448030Y-113224912D01*
X175448031Y-113224913D01*
X175415318Y-113238685D01*
X175413287Y-113239922D01*
X175288130Y-113305298D01*
X175264832Y-113314604D01*
X175193074Y-113335137D01*
X175169945Y-113339435D01*
X175149910Y-113341216D01*
X175140954Y-113342013D01*
X175129973Y-113342500D01*
X174120027Y-113342500D01*
X174109044Y-113342013D01*
X174080053Y-113339435D01*
X174056923Y-113335137D01*
X173985166Y-113314604D01*
X173961868Y-113305298D01*
X173820865Y-113231644D01*
X173818712Y-113231012D01*
X173814562Y-113231088D01*
X173795823Y-113224293D01*
X173776789Y-113215601D01*
X173772738Y-113213661D01*
X173768330Y-113211452D01*
X173764239Y-113209755D01*
X173764292Y-113209625D01*
X173759996Y-113207931D01*
X173741894Y-113199664D01*
X173741890Y-113199662D01*
X173674847Y-113179976D01*
X173612784Y-113171053D01*
X173532430Y-113159500D01*
X169367570Y-113159500D01*
X169350466Y-113159982D01*
X169339056Y-113160304D01*
X169325101Y-113161092D01*
X169296655Y-113163507D01*
X169157453Y-113199895D01*
X169157446Y-113199897D01*
X169098030Y-113224912D01*
X169098031Y-113224913D01*
X169065318Y-113238685D01*
X169063287Y-113239922D01*
X168938130Y-113305298D01*
X168914832Y-113314604D01*
X168843074Y-113335137D01*
X168819945Y-113339435D01*
X168799910Y-113341216D01*
X168790954Y-113342013D01*
X168779973Y-113342500D01*
X167770027Y-113342500D01*
X167759044Y-113342013D01*
X167730053Y-113339435D01*
X167706923Y-113335137D01*
X167635166Y-113314604D01*
X167611868Y-113305298D01*
X167470865Y-113231644D01*
X167468712Y-113231012D01*
X167464562Y-113231088D01*
X167445823Y-113224293D01*
X167426789Y-113215601D01*
X167422738Y-113213661D01*
X167418330Y-113211452D01*
X167414239Y-113209755D01*
X167414292Y-113209625D01*
X167409996Y-113207931D01*
X167391894Y-113199664D01*
X167391890Y-113199662D01*
X167324847Y-113179976D01*
X167262784Y-113171053D01*
X167182430Y-113159500D01*
X163017570Y-113159500D01*
X163000466Y-113159982D01*
X162989056Y-113160304D01*
X162975101Y-113161092D01*
X162946655Y-113163507D01*
X162807453Y-113199895D01*
X162807446Y-113199897D01*
X162748030Y-113224912D01*
X162748031Y-113224913D01*
X162715318Y-113238685D01*
X162713287Y-113239922D01*
X162588130Y-113305298D01*
X162564832Y-113314604D01*
X162493074Y-113335137D01*
X162469945Y-113339435D01*
X162449910Y-113341216D01*
X162440954Y-113342013D01*
X162429973Y-113342500D01*
X161420027Y-113342500D01*
X161409044Y-113342013D01*
X161380053Y-113339435D01*
X161356923Y-113335137D01*
X161285166Y-113314604D01*
X161261868Y-113305298D01*
X161120865Y-113231644D01*
X161118712Y-113231012D01*
X161114562Y-113231088D01*
X161095823Y-113224293D01*
X161076789Y-113215601D01*
X161072738Y-113213661D01*
X161068330Y-113211452D01*
X161064239Y-113209755D01*
X161064292Y-113209625D01*
X161059996Y-113207931D01*
X161041894Y-113199664D01*
X161041890Y-113199662D01*
X160974847Y-113179976D01*
X160912784Y-113171053D01*
X160832430Y-113159500D01*
X156667570Y-113159500D01*
X156650466Y-113159982D01*
X156639056Y-113160304D01*
X156625101Y-113161092D01*
X156596655Y-113163507D01*
X156457453Y-113199895D01*
X156457446Y-113199897D01*
X156398030Y-113224912D01*
X156398031Y-113224913D01*
X156365318Y-113238685D01*
X156363287Y-113239922D01*
X156238130Y-113305298D01*
X156214832Y-113314604D01*
X156143074Y-113335137D01*
X156119945Y-113339435D01*
X156099910Y-113341216D01*
X156090954Y-113342013D01*
X156079973Y-113342500D01*
X155070027Y-113342500D01*
X155059044Y-113342013D01*
X155030053Y-113339435D01*
X155006923Y-113335137D01*
X154935166Y-113314604D01*
X154911868Y-113305298D01*
X154770865Y-113231644D01*
X154768712Y-113231012D01*
X154764562Y-113231088D01*
X154745823Y-113224293D01*
X154726789Y-113215601D01*
X154722738Y-113213661D01*
X154718330Y-113211452D01*
X154714239Y-113209755D01*
X154714292Y-113209625D01*
X154709996Y-113207931D01*
X154691894Y-113199664D01*
X154691890Y-113199662D01*
X154624847Y-113179976D01*
X154562784Y-113171053D01*
X154482430Y-113159500D01*
X150317570Y-113159500D01*
X150300466Y-113159982D01*
X150289056Y-113160304D01*
X150275101Y-113161092D01*
X150246655Y-113163507D01*
X150107453Y-113199895D01*
X150107446Y-113199897D01*
X150048030Y-113224912D01*
X150048031Y-113224913D01*
X150015318Y-113238685D01*
X150013287Y-113239922D01*
X149888130Y-113305298D01*
X149864832Y-113314604D01*
X149793074Y-113335137D01*
X149769945Y-113339435D01*
X149749910Y-113341216D01*
X149740954Y-113342013D01*
X149729973Y-113342500D01*
X148720027Y-113342500D01*
X148709044Y-113342013D01*
X148680053Y-113339435D01*
X148656923Y-113335137D01*
X148585166Y-113314604D01*
X148561868Y-113305298D01*
X148420865Y-113231644D01*
X148418712Y-113231012D01*
X148414562Y-113231088D01*
X148395823Y-113224293D01*
X148376789Y-113215601D01*
X148372738Y-113213661D01*
X148368330Y-113211452D01*
X148364239Y-113209755D01*
X148364292Y-113209625D01*
X148359996Y-113207931D01*
X148341894Y-113199664D01*
X148341890Y-113199662D01*
X148274847Y-113179976D01*
X148212784Y-113171053D01*
X148132430Y-113159500D01*
X143967570Y-113159500D01*
X143950466Y-113159982D01*
X143939056Y-113160304D01*
X143925101Y-113161092D01*
X143896655Y-113163507D01*
X143757453Y-113199895D01*
X143757446Y-113199897D01*
X143698030Y-113224912D01*
X143698031Y-113224913D01*
X143665318Y-113238685D01*
X143663287Y-113239922D01*
X143538130Y-113305298D01*
X143514832Y-113314604D01*
X143443074Y-113335137D01*
X143419945Y-113339435D01*
X143399910Y-113341216D01*
X143390954Y-113342013D01*
X143379973Y-113342500D01*
X142370027Y-113342500D01*
X142359044Y-113342013D01*
X142330053Y-113339435D01*
X142306923Y-113335137D01*
X142235166Y-113314604D01*
X142211868Y-113305298D01*
X142070865Y-113231644D01*
X142068712Y-113231012D01*
X142064562Y-113231088D01*
X142045823Y-113224293D01*
X142026789Y-113215601D01*
X142022738Y-113213661D01*
X142018330Y-113211452D01*
X142014239Y-113209755D01*
X142014292Y-113209625D01*
X142009996Y-113207931D01*
X141991894Y-113199664D01*
X141991890Y-113199662D01*
X141924847Y-113179976D01*
X141862784Y-113171053D01*
X141782430Y-113159500D01*
X137617570Y-113159500D01*
X137600466Y-113159982D01*
X137589056Y-113160304D01*
X137575101Y-113161092D01*
X137546655Y-113163507D01*
X137407453Y-113199895D01*
X137407446Y-113199897D01*
X137348030Y-113224912D01*
X137348031Y-113224913D01*
X137315318Y-113238685D01*
X137313287Y-113239922D01*
X137188130Y-113305298D01*
X137164832Y-113314604D01*
X137093074Y-113335137D01*
X137069945Y-113339435D01*
X137049910Y-113341216D01*
X137040954Y-113342013D01*
X137029973Y-113342500D01*
X136020027Y-113342500D01*
X136009044Y-113342013D01*
X135980053Y-113339435D01*
X135956923Y-113335137D01*
X135885166Y-113314604D01*
X135861868Y-113305298D01*
X135720865Y-113231644D01*
X135718712Y-113231012D01*
X135714562Y-113231088D01*
X135695823Y-113224293D01*
X135676789Y-113215601D01*
X135672738Y-113213661D01*
X135668330Y-113211452D01*
X135664239Y-113209755D01*
X135664292Y-113209625D01*
X135659996Y-113207931D01*
X135641894Y-113199664D01*
X135641890Y-113199662D01*
X135574847Y-113179976D01*
X135512784Y-113171053D01*
X135432430Y-113159500D01*
X131267570Y-113159500D01*
X131250466Y-113159982D01*
X131239056Y-113160304D01*
X131225101Y-113161092D01*
X131196655Y-113163507D01*
X131057453Y-113199895D01*
X131057446Y-113199897D01*
X130998030Y-113224912D01*
X130998031Y-113224913D01*
X130965318Y-113238685D01*
X130963287Y-113239922D01*
X130838130Y-113305298D01*
X130814832Y-113314604D01*
X130743074Y-113335137D01*
X130719945Y-113339435D01*
X130699910Y-113341216D01*
X130690954Y-113342013D01*
X130679973Y-113342500D01*
X129670027Y-113342500D01*
X129659044Y-113342013D01*
X129630053Y-113339435D01*
X129606923Y-113335137D01*
X129535166Y-113314604D01*
X129511868Y-113305298D01*
X129370865Y-113231644D01*
X129368712Y-113231012D01*
X129364562Y-113231088D01*
X129345823Y-113224293D01*
X129326789Y-113215601D01*
X129322738Y-113213661D01*
X129318330Y-113211452D01*
X129314239Y-113209755D01*
X129314292Y-113209625D01*
X129309996Y-113207931D01*
X129291894Y-113199664D01*
X129291890Y-113199662D01*
X129224847Y-113179976D01*
X129162784Y-113171053D01*
X129082430Y-113159500D01*
X124917570Y-113159500D01*
X124900466Y-113159982D01*
X124889056Y-113160304D01*
X124875101Y-113161092D01*
X124846655Y-113163507D01*
X124707453Y-113199895D01*
X124707446Y-113199897D01*
X124648030Y-113224912D01*
X124648031Y-113224913D01*
X124615318Y-113238685D01*
X124613287Y-113239922D01*
X124488130Y-113305298D01*
X124464832Y-113314604D01*
X124393074Y-113335137D01*
X124369945Y-113339435D01*
X124349910Y-113341216D01*
X124340954Y-113342013D01*
X124329973Y-113342500D01*
X123320027Y-113342500D01*
X123309044Y-113342013D01*
X123280053Y-113339435D01*
X123256923Y-113335137D01*
X123185166Y-113314604D01*
X123161868Y-113305298D01*
X123020865Y-113231644D01*
X123018712Y-113231012D01*
X123014562Y-113231088D01*
X122995823Y-113224293D01*
X122976789Y-113215601D01*
X122972738Y-113213661D01*
X122968330Y-113211452D01*
X122964239Y-113209755D01*
X122964292Y-113209625D01*
X122959996Y-113207931D01*
X122941894Y-113199664D01*
X122941890Y-113199662D01*
X122874847Y-113179976D01*
X122812784Y-113171053D01*
X122732430Y-113159500D01*
X118567570Y-113159500D01*
X118550466Y-113159982D01*
X118539056Y-113160304D01*
X118525101Y-113161092D01*
X118496655Y-113163507D01*
X118357453Y-113199895D01*
X118357446Y-113199897D01*
X118298030Y-113224912D01*
X118298031Y-113224913D01*
X118265318Y-113238685D01*
X118263287Y-113239922D01*
X118138130Y-113305298D01*
X118114832Y-113314604D01*
X118043074Y-113335137D01*
X118019945Y-113339435D01*
X117999910Y-113341216D01*
X117990954Y-113342013D01*
X117979973Y-113342500D01*
X116970027Y-113342500D01*
X116959044Y-113342013D01*
X116930053Y-113339435D01*
X116906923Y-113335137D01*
X116835166Y-113314604D01*
X116811868Y-113305298D01*
X116670865Y-113231644D01*
X116668712Y-113231012D01*
X116664562Y-113231088D01*
X116645823Y-113224293D01*
X116626789Y-113215601D01*
X116622738Y-113213661D01*
X116618330Y-113211452D01*
X116614239Y-113209755D01*
X116614292Y-113209625D01*
X116609996Y-113207931D01*
X116591894Y-113199664D01*
X116591890Y-113199662D01*
X116524847Y-113179976D01*
X116462784Y-113171053D01*
X116382430Y-113159500D01*
X112217570Y-113159500D01*
X112200466Y-113159982D01*
X112189056Y-113160304D01*
X112175101Y-113161092D01*
X112146655Y-113163507D01*
X112007453Y-113199895D01*
X112007446Y-113199897D01*
X111948030Y-113224912D01*
X111948031Y-113224913D01*
X111915318Y-113238685D01*
X111913287Y-113239922D01*
X111788130Y-113305298D01*
X111764832Y-113314604D01*
X111693074Y-113335137D01*
X111669945Y-113339435D01*
X111649910Y-113341216D01*
X111640954Y-113342013D01*
X111629973Y-113342500D01*
X110620027Y-113342500D01*
X110609044Y-113342013D01*
X110580053Y-113339435D01*
X110556923Y-113335137D01*
X110485166Y-113314604D01*
X110461868Y-113305298D01*
X110320865Y-113231644D01*
X110318712Y-113231012D01*
X110314562Y-113231088D01*
X110295823Y-113224293D01*
X110276789Y-113215601D01*
X110272738Y-113213661D01*
X110268330Y-113211452D01*
X110264239Y-113209755D01*
X110264292Y-113209625D01*
X110259996Y-113207931D01*
X110241894Y-113199664D01*
X110241890Y-113199662D01*
X110174847Y-113179976D01*
X110112784Y-113171053D01*
X110032430Y-113159500D01*
X105867570Y-113159500D01*
X105850466Y-113159982D01*
X105839056Y-113160304D01*
X105825101Y-113161092D01*
X105796655Y-113163507D01*
X105657453Y-113199895D01*
X105657446Y-113199897D01*
X105598030Y-113224912D01*
X105598031Y-113224913D01*
X105565318Y-113238685D01*
X105563287Y-113239922D01*
X105438130Y-113305298D01*
X105414832Y-113314604D01*
X105343074Y-113335137D01*
X105319945Y-113339435D01*
X105299910Y-113341216D01*
X105290954Y-113342013D01*
X105279973Y-113342500D01*
X104270027Y-113342500D01*
X104259044Y-113342013D01*
X104230053Y-113339435D01*
X104206923Y-113335137D01*
X104135166Y-113314604D01*
X104111868Y-113305298D01*
X103970865Y-113231644D01*
X103968712Y-113231012D01*
X103964562Y-113231088D01*
X103945823Y-113224293D01*
X103926789Y-113215601D01*
X103922738Y-113213661D01*
X103918330Y-113211452D01*
X103914239Y-113209755D01*
X103914292Y-113209625D01*
X103909996Y-113207931D01*
X103891894Y-113199664D01*
X103891890Y-113199662D01*
X103824847Y-113179976D01*
X103762784Y-113171053D01*
X103682430Y-113159500D01*
X99517570Y-113159500D01*
X99500466Y-113159982D01*
X99489056Y-113160304D01*
X99475101Y-113161092D01*
X99446655Y-113163507D01*
X99307453Y-113199895D01*
X99307446Y-113199897D01*
X99248030Y-113224912D01*
X99248031Y-113224913D01*
X99215318Y-113238685D01*
X99213287Y-113239922D01*
X99088130Y-113305298D01*
X99064832Y-113314604D01*
X98993074Y-113335137D01*
X98969945Y-113339435D01*
X98949910Y-113341216D01*
X98940954Y-113342013D01*
X98929973Y-113342500D01*
X97920027Y-113342500D01*
X97909044Y-113342013D01*
X97880053Y-113339435D01*
X97856923Y-113335137D01*
X97785166Y-113314604D01*
X97761868Y-113305298D01*
X97620865Y-113231644D01*
X97618712Y-113231012D01*
X97614562Y-113231088D01*
X97595823Y-113224293D01*
X97576789Y-113215601D01*
X97572738Y-113213661D01*
X97568330Y-113211452D01*
X97564239Y-113209755D01*
X97564292Y-113209625D01*
X97559996Y-113207931D01*
X97541894Y-113199664D01*
X97541890Y-113199662D01*
X97474847Y-113179976D01*
X97412784Y-113171053D01*
X97332430Y-113159500D01*
X93167570Y-113159500D01*
X93150466Y-113159982D01*
X93139056Y-113160304D01*
X93125101Y-113161092D01*
X93096655Y-113163507D01*
X92957453Y-113199895D01*
X92957446Y-113199897D01*
X92898030Y-113224912D01*
X92898031Y-113224913D01*
X92865318Y-113238685D01*
X92863287Y-113239922D01*
X92738130Y-113305298D01*
X92714832Y-113314604D01*
X92643074Y-113335137D01*
X92619945Y-113339435D01*
X92599910Y-113341216D01*
X92590954Y-113342013D01*
X92579973Y-113342500D01*
X91570027Y-113342500D01*
X91559044Y-113342013D01*
X91530053Y-113339435D01*
X91506923Y-113335137D01*
X91435166Y-113314604D01*
X91411868Y-113305298D01*
X91270865Y-113231644D01*
X91268712Y-113231012D01*
X91264562Y-113231088D01*
X91245823Y-113224293D01*
X91226789Y-113215601D01*
X91222738Y-113213661D01*
X91218330Y-113211452D01*
X91214239Y-113209755D01*
X91214292Y-113209625D01*
X91209996Y-113207931D01*
X91191894Y-113199664D01*
X91191890Y-113199662D01*
X91124847Y-113179976D01*
X91062784Y-113171053D01*
X90982430Y-113159500D01*
X86817570Y-113159500D01*
X86800466Y-113159982D01*
X86789056Y-113160304D01*
X86775101Y-113161092D01*
X86746655Y-113163507D01*
X86607453Y-113199895D01*
X86607446Y-113199897D01*
X86548030Y-113224912D01*
X86548031Y-113224913D01*
X86515318Y-113238685D01*
X86513287Y-113239922D01*
X86388130Y-113305298D01*
X86364832Y-113314604D01*
X86293074Y-113335137D01*
X86269945Y-113339435D01*
X86249910Y-113341216D01*
X86240954Y-113342013D01*
X86229973Y-113342500D01*
X85220027Y-113342500D01*
X85209044Y-113342013D01*
X85180053Y-113339435D01*
X85156923Y-113335137D01*
X85085166Y-113314604D01*
X85061868Y-113305298D01*
X84920865Y-113231644D01*
X84918712Y-113231012D01*
X84914562Y-113231088D01*
X84895823Y-113224293D01*
X84876789Y-113215601D01*
X84872738Y-113213661D01*
X84868330Y-113211452D01*
X84864239Y-113209755D01*
X84864292Y-113209625D01*
X84859996Y-113207931D01*
X84841894Y-113199664D01*
X84841890Y-113199662D01*
X84774847Y-113179976D01*
X84712784Y-113171053D01*
X84632430Y-113159500D01*
X80467570Y-113159500D01*
X80450466Y-113159982D01*
X80439056Y-113160304D01*
X80425101Y-113161092D01*
X80396655Y-113163507D01*
X80257453Y-113199895D01*
X80257446Y-113199897D01*
X80198030Y-113224912D01*
X80198031Y-113224913D01*
X80165318Y-113238685D01*
X80163287Y-113239922D01*
X80038130Y-113305298D01*
X80014832Y-113314604D01*
X79943074Y-113335137D01*
X79919945Y-113339435D01*
X79899910Y-113341216D01*
X79890954Y-113342013D01*
X79879973Y-113342500D01*
X78870027Y-113342500D01*
X78859044Y-113342013D01*
X78830053Y-113339435D01*
X78806923Y-113335137D01*
X78735166Y-113314604D01*
X78711868Y-113305298D01*
X78570865Y-113231644D01*
X78568712Y-113231012D01*
X78564562Y-113231088D01*
X78545823Y-113224293D01*
X78526789Y-113215601D01*
X78522738Y-113213661D01*
X78518330Y-113211452D01*
X78514239Y-113209755D01*
X78514292Y-113209625D01*
X78509996Y-113207931D01*
X78491894Y-113199664D01*
X78491890Y-113199662D01*
X78424847Y-113179976D01*
X78362784Y-113171053D01*
X78282430Y-113159500D01*
X73784000Y-113159500D01*
X73716961Y-113139815D01*
X73671206Y-113087011D01*
X73660000Y-113035500D01*
X73660000Y-111249000D01*
X73679685Y-111181961D01*
X73732489Y-111136206D01*
X73784000Y-111125000D01*
X78282430Y-111125000D01*
X78349469Y-111144685D01*
G37*
%TD.AperFunction*%
%TD*%
M02*
