M48
; DRILL file {KiCad 9.0.5} date 2025-11-06T13:40:56-0700
; FORMAT={-:-/ absolute / inch / decimal}
; #@! TF.CreationDate,2025-11-06T13:40:56-07:00
; #@! TF.GenerationSoftware,Kicad,Pcbnew,9.0.5
; #@! TF.FileFunction,Plated,1,2,PTH
FMAT,2
INCH
; #@! TA.AperFunction,Plated,PTH,ComponentDrill
T1C0.0500
%
G90
G05
T1
X3.125Y-4.125
X3.125Y-4.225
X3.125Y-4.325
X3.125Y-4.425
X3.125Y-4.525
X3.125Y-4.625
X3.375Y-4.125
X3.375Y-4.225
X3.375Y-4.325
X3.375Y-4.425
X3.375Y-4.525
X3.375Y-4.625
X3.625Y-4.125
X3.625Y-4.225
X3.625Y-4.325
X3.625Y-4.425
X3.625Y-4.525
X3.625Y-4.625
X3.875Y-4.125
X3.875Y-4.225
X3.875Y-4.325
X3.875Y-4.425
X3.875Y-4.525
X3.875Y-4.625
X4.125Y-4.125
X4.125Y-4.225
X4.125Y-4.325
X4.125Y-4.425
X4.125Y-4.525
X4.125Y-4.625
X4.375Y-4.125
X4.375Y-4.225
X4.375Y-4.325
X4.375Y-4.425
X4.375Y-4.525
X4.375Y-4.625
X4.625Y-4.125
X4.625Y-4.225
X4.625Y-4.325
X4.625Y-4.425
X4.625Y-4.525
X4.625Y-4.625
X4.875Y-4.125
X4.875Y-4.225
X4.875Y-4.325
X4.875Y-4.425
X4.875Y-4.525
X4.875Y-4.625
X5.125Y-4.125
X5.125Y-4.225
X5.125Y-4.325
X5.125Y-4.425
X5.125Y-4.525
X5.125Y-4.625
X5.375Y-4.125
X5.375Y-4.225
X5.375Y-4.325
X5.375Y-4.425
X5.375Y-4.525
X5.375Y-4.625
X5.625Y-4.125
X5.625Y-4.225
X5.625Y-4.325
X5.625Y-4.425
X5.625Y-4.525
X5.625Y-4.625
X5.875Y-4.125
X5.875Y-4.225
X5.875Y-4.325
X5.875Y-4.425
X5.875Y-4.525
X5.875Y-4.625
X6.125Y-4.125
X6.125Y-4.225
X6.125Y-4.325
X6.125Y-4.425
X6.125Y-4.525
X6.125Y-4.625
X6.375Y-4.125
X6.375Y-4.225
X6.375Y-4.325
X6.375Y-4.425
X6.375Y-4.525
X6.375Y-4.625
X6.625Y-4.125
X6.625Y-4.225
X6.625Y-4.325
X6.625Y-4.425
X6.625Y-4.525
X6.625Y-4.625
X6.875Y-4.125
X6.875Y-4.225
X6.875Y-4.325
X6.875Y-4.425
X6.875Y-4.525
X6.875Y-4.625
X7.125Y-4.125
X7.125Y-4.225
X7.125Y-4.325
X7.125Y-4.425
X7.125Y-4.525
X7.125Y-4.625
X7.375Y-4.125
X7.375Y-4.225
X7.375Y-4.325
X7.375Y-4.425
X7.375Y-4.525
X7.375Y-4.625
X7.625Y-4.125
X7.625Y-4.225
X7.625Y-4.325
X7.625Y-4.425
X7.625Y-4.525
X7.625Y-4.625
X7.875Y-4.125
X7.875Y-4.225
X7.875Y-4.325
X7.875Y-4.425
X7.875Y-4.525
X7.875Y-4.625
M30
