%TF.GenerationSoftware,KiCad,Pcbnew,9.0.5*%
%TF.CreationDate,2025-11-17T14:04:54-07:00*%
%TF.ProjectId,Target,54617267-6574-42e6-9b69-6361645f7063,B*%
%TF.SameCoordinates,Original*%
%TF.FileFunction,Legend,Bot*%
%TF.FilePolarity,Positive*%
%FSLAX46Y46*%
G04 Gerber Fmt 4.6, Leading zero omitted, Abs format (unit mm)*
G04 Created by KiCad (PCBNEW 9.0.5) date 2025-11-17 14:04:54*
%MOMM*%
%LPD*%
G01*
G04 APERTURE LIST*
%ADD10C,0.100000*%
%ADD11C,0.000000*%
G04 APERTURE END LIST*
D10*
X134532476Y-117666638D02*
X134627714Y-117619019D01*
X134627714Y-117619019D02*
X134770571Y-117619019D01*
X134770571Y-117619019D02*
X134913428Y-117666638D01*
X134913428Y-117666638D02*
X135008666Y-117761876D01*
X135008666Y-117761876D02*
X135056285Y-117857114D01*
X135056285Y-117857114D02*
X135103904Y-118047590D01*
X135103904Y-118047590D02*
X135103904Y-118190447D01*
X135103904Y-118190447D02*
X135056285Y-118380923D01*
X135056285Y-118380923D02*
X135008666Y-118476161D01*
X135008666Y-118476161D02*
X134913428Y-118571400D01*
X134913428Y-118571400D02*
X134770571Y-118619019D01*
X134770571Y-118619019D02*
X134675333Y-118619019D01*
X134675333Y-118619019D02*
X134532476Y-118571400D01*
X134532476Y-118571400D02*
X134484857Y-118523780D01*
X134484857Y-118523780D02*
X134484857Y-118190447D01*
X134484857Y-118190447D02*
X134675333Y-118190447D01*
X134056285Y-118619019D02*
X134056285Y-117952352D01*
X134056285Y-117619019D02*
X134103904Y-117666638D01*
X134103904Y-117666638D02*
X134056285Y-117714257D01*
X134056285Y-117714257D02*
X134008666Y-117666638D01*
X134008666Y-117666638D02*
X134056285Y-117619019D01*
X134056285Y-117619019D02*
X134056285Y-117714257D01*
X133722952Y-117952352D02*
X133342000Y-117952352D01*
X133580095Y-117619019D02*
X133580095Y-118476161D01*
X133580095Y-118476161D02*
X133532476Y-118571400D01*
X133532476Y-118571400D02*
X133437238Y-118619019D01*
X133437238Y-118619019D02*
X133342000Y-118619019D01*
X133008666Y-118619019D02*
X133008666Y-117619019D01*
X133008666Y-118095209D02*
X132437238Y-118095209D01*
X132437238Y-118619019D02*
X132437238Y-117619019D01*
X131532476Y-117952352D02*
X131532476Y-118619019D01*
X131961047Y-117952352D02*
X131961047Y-118476161D01*
X131961047Y-118476161D02*
X131913428Y-118571400D01*
X131913428Y-118571400D02*
X131818190Y-118619019D01*
X131818190Y-118619019D02*
X131675333Y-118619019D01*
X131675333Y-118619019D02*
X131580095Y-118571400D01*
X131580095Y-118571400D02*
X131532476Y-118523780D01*
X131056285Y-118619019D02*
X131056285Y-117619019D01*
X131056285Y-117999971D02*
X130961047Y-117952352D01*
X130961047Y-117952352D02*
X130770571Y-117952352D01*
X130770571Y-117952352D02*
X130675333Y-117999971D01*
X130675333Y-117999971D02*
X130627714Y-118047590D01*
X130627714Y-118047590D02*
X130580095Y-118142828D01*
X130580095Y-118142828D02*
X130580095Y-118428542D01*
X130580095Y-118428542D02*
X130627714Y-118523780D01*
X130627714Y-118523780D02*
X130675333Y-118571400D01*
X130675333Y-118571400D02*
X130770571Y-118619019D01*
X130770571Y-118619019D02*
X130961047Y-118619019D01*
X130961047Y-118619019D02*
X131056285Y-118571400D01*
%TO.C,J5*%
X184150000Y-90932000D02*
X181610000Y-90932000D01*
X181610000Y-106172000D01*
X184150000Y-106172000D01*
X184150000Y-90932000D01*
X182880000Y-90678000D02*
X182118000Y-89662000D01*
X183642000Y-89662000D01*
X182880000Y-90678000D01*
G36*
X182880000Y-90678000D02*
G01*
X182118000Y-89662000D01*
X183642000Y-89662000D01*
X182880000Y-90678000D01*
G37*
%TO.C,J3*%
X140970000Y-75692000D02*
X156210000Y-75692000D01*
X156210000Y-78232000D01*
X140970000Y-78232000D01*
X140970000Y-75692000D01*
X140716000Y-76962000D02*
X139700000Y-77724000D01*
X139700000Y-76200000D01*
X140716000Y-76962000D01*
G36*
X140716000Y-76962000D02*
G01*
X139700000Y-77724000D01*
X139700000Y-76200000D01*
X140716000Y-76962000D01*
G37*
%TO.C,J2*%
X169164000Y-90932000D02*
X166624000Y-90932000D01*
X166624000Y-106172000D01*
X169164000Y-106172000D01*
X169164000Y-90932000D01*
X167894000Y-90678000D02*
X167132000Y-89662000D01*
X168656000Y-89662000D01*
X167894000Y-90678000D01*
G36*
X167894000Y-90678000D02*
G01*
X167132000Y-89662000D01*
X168656000Y-89662000D01*
X167894000Y-90678000D01*
G37*
%TO.C,J4*%
X140970000Y-118872000D02*
X156210000Y-118872000D01*
X156210000Y-121412000D01*
X140970000Y-121412000D01*
X140970000Y-118872000D01*
X140716000Y-120142000D02*
X139700000Y-120904000D01*
X139700000Y-119380000D01*
X140716000Y-120142000D01*
G36*
X140716000Y-120142000D02*
G01*
X139700000Y-120904000D01*
X139700000Y-119380000D01*
X140716000Y-120142000D01*
G37*
D11*
%TO.C,G\u002A\u002A\u002A*%
G36*
X128681656Y-106053758D02*
G01*
X128681656Y-106710655D01*
X128024759Y-106710655D01*
X127367863Y-106710655D01*
X127367863Y-106053758D01*
X127367863Y-105396862D01*
X128024759Y-105396862D01*
X128681656Y-105396862D01*
X128681656Y-106053758D01*
G37*
G36*
X127805794Y-112622724D02*
G01*
X127805794Y-112841689D01*
X127586828Y-112841689D01*
X127367863Y-112841689D01*
X127367863Y-112622724D01*
X127367863Y-112403758D01*
X127586828Y-112403758D01*
X127805794Y-112403758D01*
X127805794Y-112622724D01*
G37*
G36*
X129557518Y-114374448D02*
G01*
X129557518Y-114593413D01*
X129338552Y-114593413D01*
X129119587Y-114593413D01*
X129119587Y-114374448D01*
X129119587Y-114155482D01*
X129338552Y-114155482D01*
X129557518Y-114155482D01*
X129557518Y-114374448D01*
G37*
G36*
X130433380Y-109119275D02*
G01*
X130433380Y-109338241D01*
X130214414Y-109338241D01*
X129995449Y-109338241D01*
X129995449Y-109119275D01*
X129995449Y-108900310D01*
X130214414Y-108900310D01*
X130433380Y-108900310D01*
X130433380Y-109119275D01*
G37*
G36*
X131309242Y-106272724D02*
G01*
X131309242Y-106710655D01*
X131090276Y-106710655D01*
X130871311Y-106710655D01*
X130871311Y-106272724D01*
X130871311Y-105834793D01*
X131090276Y-105834793D01*
X131309242Y-105834793D01*
X131309242Y-106272724D01*
G37*
G36*
X132623035Y-114155482D02*
G01*
X132623035Y-114593413D01*
X132404069Y-114593413D01*
X132185104Y-114593413D01*
X132185104Y-114155482D01*
X132185104Y-113717551D01*
X132404069Y-113717551D01*
X132623035Y-113717551D01*
X132623035Y-114155482D01*
G37*
G36*
X133060966Y-107367551D02*
G01*
X133060966Y-107586517D01*
X132842000Y-107586517D01*
X132623035Y-107586517D01*
X132623035Y-107367551D01*
X132623035Y-107148586D01*
X132842000Y-107148586D01*
X133060966Y-107148586D01*
X133060966Y-107367551D01*
G37*
G36*
X133936828Y-113498586D02*
G01*
X133936828Y-113717551D01*
X133717863Y-113717551D01*
X133498897Y-113717551D01*
X133498897Y-113498586D01*
X133498897Y-113279620D01*
X133717863Y-113279620D01*
X133936828Y-113279620D01*
X133936828Y-113498586D01*
G37*
G36*
X134374759Y-104739965D02*
G01*
X134374759Y-104958931D01*
X134155794Y-104958931D01*
X133936828Y-104958931D01*
X133936828Y-104739965D01*
X133936828Y-104521000D01*
X134155794Y-104521000D01*
X134374759Y-104521000D01*
X134374759Y-104739965D01*
G37*
G36*
X135688552Y-113936517D02*
G01*
X135688552Y-114155482D01*
X135469587Y-114155482D01*
X135250621Y-114155482D01*
X135250621Y-113936517D01*
X135250621Y-113717551D01*
X135469587Y-113717551D01*
X135688552Y-113717551D01*
X135688552Y-113936517D01*
G37*
G36*
X138316138Y-106053758D02*
G01*
X138316138Y-106710655D01*
X137659242Y-106710655D01*
X137002345Y-106710655D01*
X137002345Y-106053758D01*
X137002345Y-105396862D01*
X137659242Y-105396862D01*
X138316138Y-105396862D01*
X138316138Y-106053758D01*
G37*
G36*
X138316138Y-115688241D02*
G01*
X138316138Y-116345137D01*
X137659242Y-116345137D01*
X137002345Y-116345137D01*
X137002345Y-115688241D01*
X137002345Y-115031344D01*
X137659242Y-115031344D01*
X138316138Y-115031344D01*
X138316138Y-115688241D01*
G37*
G36*
X129119587Y-111746862D02*
G01*
X129119587Y-111965827D01*
X129338552Y-111965827D01*
X129557518Y-111965827D01*
X129557518Y-112184793D01*
X129557518Y-112403758D01*
X128681656Y-112403758D01*
X127805794Y-112403758D01*
X127805794Y-112184793D01*
X127805794Y-111965827D01*
X128243725Y-111965827D01*
X128681656Y-111965827D01*
X128681656Y-111746862D01*
X128681656Y-111527896D01*
X128900621Y-111527896D01*
X129119587Y-111527896D01*
X129119587Y-111746862D01*
G37*
G36*
X129557518Y-107586517D02*
G01*
X128024759Y-107586517D01*
X126492000Y-107586517D01*
X126492000Y-106053758D01*
X126492000Y-104958931D01*
X126929932Y-104958931D01*
X126929932Y-106053758D01*
X126929932Y-107148586D01*
X128024759Y-107148586D01*
X129119587Y-107148586D01*
X129119587Y-106053758D01*
X129119587Y-104958931D01*
X128024759Y-104958931D01*
X126929932Y-104958931D01*
X126492000Y-104958931D01*
X126492000Y-104521000D01*
X128024759Y-104521000D01*
X129557518Y-104521000D01*
X129557518Y-106053758D01*
X129557518Y-107586517D01*
G37*
G36*
X139192000Y-107586517D02*
G01*
X137659242Y-107586517D01*
X136126483Y-107586517D01*
X136126483Y-106053758D01*
X136126483Y-104958931D01*
X136564414Y-104958931D01*
X136564414Y-106053758D01*
X136564414Y-107148586D01*
X137659242Y-107148586D01*
X138754069Y-107148586D01*
X138754069Y-106053758D01*
X138754069Y-104958931D01*
X137659242Y-104958931D01*
X136564414Y-104958931D01*
X136126483Y-104958931D01*
X136126483Y-104521000D01*
X137659242Y-104521000D01*
X139192000Y-104521000D01*
X139192000Y-106053758D01*
X139192000Y-107586517D01*
G37*
G36*
X139192000Y-117221000D02*
G01*
X137659242Y-117221000D01*
X136126483Y-117221000D01*
X136126483Y-115688241D01*
X136126483Y-114593413D01*
X136564414Y-114593413D01*
X136564414Y-115688241D01*
X136564414Y-116783068D01*
X137659242Y-116783068D01*
X138754069Y-116783068D01*
X138754069Y-115688241D01*
X138754069Y-114593413D01*
X137659242Y-114593413D01*
X136564414Y-114593413D01*
X136126483Y-114593413D01*
X136126483Y-114155482D01*
X137659242Y-114155482D01*
X139192000Y-114155482D01*
X139192000Y-115688241D01*
X139192000Y-117221000D01*
G37*
G36*
X135688552Y-105396862D02*
G01*
X135688552Y-106272724D01*
X135469587Y-106272724D01*
X135250621Y-106272724D01*
X135250621Y-106053758D01*
X135250621Y-105834793D01*
X135031656Y-105834793D01*
X134812690Y-105834793D01*
X134812690Y-105615827D01*
X134812690Y-105396862D01*
X135031656Y-105396862D01*
X135250621Y-105396862D01*
X135250621Y-105177896D01*
X135250621Y-104958931D01*
X135031656Y-104958931D01*
X134812690Y-104958931D01*
X134812690Y-104739965D01*
X134812690Y-104521000D01*
X135250621Y-104521000D01*
X135688552Y-104521000D01*
X135688552Y-105396862D01*
G37*
G36*
X137440276Y-108243413D02*
G01*
X137440276Y-108462379D01*
X137878207Y-108462379D01*
X138316138Y-108462379D01*
X138316138Y-108243413D01*
X138316138Y-108024448D01*
X138754069Y-108024448D01*
X139192000Y-108024448D01*
X139192000Y-108681344D01*
X139192000Y-109338241D01*
X138754069Y-109338241D01*
X138316138Y-109338241D01*
X138316138Y-109119275D01*
X138316138Y-108900310D01*
X138097173Y-108900310D01*
X137878207Y-108900310D01*
X137878207Y-109119275D01*
X137878207Y-109338241D01*
X137659242Y-109338241D01*
X137440276Y-109338241D01*
X137440276Y-109119275D01*
X137440276Y-108900310D01*
X137002345Y-108900310D01*
X136564414Y-108900310D01*
X136564414Y-108681344D01*
X136564414Y-108462379D01*
X136345449Y-108462379D01*
X136126483Y-108462379D01*
X136126483Y-108243413D01*
X136126483Y-108024448D01*
X136783380Y-108024448D01*
X137440276Y-108024448D01*
X137440276Y-108243413D01*
G37*
G36*
X133498897Y-110652034D02*
G01*
X133498897Y-111089965D01*
X133279932Y-111089965D01*
X133060966Y-111089965D01*
X133060966Y-111308931D01*
X133060966Y-111527896D01*
X132842000Y-111527896D01*
X132623035Y-111527896D01*
X132623035Y-111308931D01*
X132623035Y-111089965D01*
X132404069Y-111089965D01*
X132185104Y-111089965D01*
X132185104Y-110871000D01*
X132185104Y-110652034D01*
X132404069Y-110652034D01*
X132623035Y-110652034D01*
X132623035Y-110871000D01*
X132623035Y-111089965D01*
X132842000Y-111089965D01*
X133060966Y-111089965D01*
X133060966Y-110652034D01*
X133060966Y-110214103D01*
X133279932Y-110214103D01*
X133498897Y-110214103D01*
X133498897Y-110652034D01*
G37*
G36*
X132185104Y-108681344D02*
G01*
X132185104Y-108900310D01*
X132404069Y-108900310D01*
X132623035Y-108900310D01*
X132623035Y-109119275D01*
X132623035Y-109338241D01*
X132404069Y-109338241D01*
X132185104Y-109338241D01*
X132185104Y-109995137D01*
X132185104Y-110652034D01*
X131966138Y-110652034D01*
X131747173Y-110652034D01*
X131747173Y-110433068D01*
X131747173Y-110214103D01*
X130652345Y-110214103D01*
X129557518Y-110214103D01*
X129557518Y-109995137D01*
X129557518Y-109776172D01*
X130214414Y-109776172D01*
X130871311Y-109776172D01*
X130871311Y-109338241D01*
X130871311Y-108900310D01*
X131090276Y-108900310D01*
X131309242Y-108900310D01*
X131309242Y-109119275D01*
X131309242Y-109338241D01*
X131528207Y-109338241D01*
X131747173Y-109338241D01*
X131747173Y-108900310D01*
X131747173Y-108462379D01*
X131966138Y-108462379D01*
X132185104Y-108462379D01*
X132185104Y-108681344D01*
G37*
G36*
X132842000Y-109338241D02*
G01*
X133060966Y-109338241D01*
X133060966Y-109557206D01*
X133060966Y-109776172D01*
X132842000Y-109776172D01*
X132623035Y-109776172D01*
X132623035Y-109557206D01*
X132623035Y-109338241D01*
X132842000Y-109338241D01*
G37*
G36*
X137002345Y-111965827D02*
G01*
X136564414Y-111965827D01*
X136126483Y-111965827D01*
X136126483Y-112184793D01*
X136126483Y-112403758D01*
X136564414Y-112403758D01*
X137002345Y-112403758D01*
X137002345Y-112184793D01*
X137002345Y-111965827D01*
X137221311Y-111965827D01*
X137440276Y-111965827D01*
X137440276Y-112184793D01*
X137440276Y-112403758D01*
X137221311Y-112403758D01*
X137002345Y-112403758D01*
X137002345Y-112622724D01*
X137002345Y-112841689D01*
X136345449Y-112841689D01*
X135688552Y-112841689D01*
X135688552Y-112622724D01*
X135688552Y-112403758D01*
X135250621Y-112403758D01*
X134812690Y-112403758D01*
X134812690Y-111965827D01*
X134812690Y-111527896D01*
X135031656Y-111527896D01*
X135250621Y-111527896D01*
X135250621Y-111746862D01*
X135250621Y-111965827D01*
X135688552Y-111965827D01*
X136126483Y-111965827D01*
X136126483Y-111746862D01*
X136126483Y-111527896D01*
X135907518Y-111527896D01*
X135688552Y-111527896D01*
X135688552Y-111089965D01*
X136126483Y-111089965D01*
X136126483Y-111308931D01*
X136126483Y-111527896D01*
X136345449Y-111527896D01*
X136564414Y-111527896D01*
X136564414Y-111308931D01*
X136564414Y-111089965D01*
X136345449Y-111089965D01*
X136126483Y-111089965D01*
X135688552Y-111089965D01*
X135688552Y-110652034D01*
X136126483Y-110652034D01*
X136564414Y-110652034D01*
X136564414Y-110433068D01*
X136564414Y-110214103D01*
X136126483Y-110214103D01*
X135688552Y-110214103D01*
X135688552Y-109995137D01*
X135688552Y-109776172D01*
X135469587Y-109776172D01*
X135250621Y-109776172D01*
X135250621Y-109338241D01*
X135250621Y-108900310D01*
X135031656Y-108900310D01*
X134812690Y-108900310D01*
X134812690Y-108681344D01*
X134812690Y-108462379D01*
X135250621Y-108462379D01*
X135688552Y-108462379D01*
X135688552Y-108900310D01*
X135688552Y-109338241D01*
X135907518Y-109338241D01*
X136126483Y-109338241D01*
X136126483Y-109119275D01*
X136126483Y-108900310D01*
X136345449Y-108900310D01*
X136564414Y-108900310D01*
X136564414Y-109119275D01*
X136564414Y-109338241D01*
X136345449Y-109338241D01*
X136126483Y-109338241D01*
X136126483Y-109557206D01*
X136126483Y-109776172D01*
X136345449Y-109776172D01*
X136564414Y-109776172D01*
X136564414Y-109995137D01*
X136564414Y-110214103D01*
X136783380Y-110214103D01*
X137002345Y-110214103D01*
X137002345Y-109776172D01*
X137002345Y-109338241D01*
X137221311Y-109338241D01*
X137440276Y-109338241D01*
X137440276Y-109557206D01*
X137440276Y-109776172D01*
X137659242Y-109776172D01*
X137878207Y-109776172D01*
X137878207Y-109557206D01*
X137878207Y-109338241D01*
X138097173Y-109338241D01*
X138316138Y-109338241D01*
X138316138Y-109776172D01*
X138316138Y-110214103D01*
X138535104Y-110214103D01*
X138754069Y-110214103D01*
X138754069Y-109995137D01*
X138754069Y-109776172D01*
X138973035Y-109776172D01*
X139192000Y-109776172D01*
X139192000Y-109995137D01*
X139192000Y-110214103D01*
X138973035Y-110214103D01*
X138754069Y-110214103D01*
X138754069Y-110652034D01*
X138754069Y-111089965D01*
X138973035Y-111089965D01*
X139192000Y-111089965D01*
X139192000Y-111308931D01*
X139192000Y-111527896D01*
X138754069Y-111527896D01*
X138316138Y-111527896D01*
X138316138Y-111308931D01*
X138316138Y-111089965D01*
X138097173Y-111089965D01*
X137878207Y-111089965D01*
X137878207Y-110871000D01*
X137878207Y-110652034D01*
X137440276Y-110652034D01*
X137002345Y-110652034D01*
X137002345Y-111308931D01*
X137002345Y-111965827D01*
G37*
G36*
X134812690Y-107586517D02*
G01*
X135031656Y-107586517D01*
X135250621Y-107586517D01*
X135250621Y-107148586D01*
X135250621Y-106710655D01*
X135469587Y-106710655D01*
X135688552Y-106710655D01*
X135688552Y-107148586D01*
X135688552Y-107586517D01*
X135469587Y-107586517D01*
X135250621Y-107586517D01*
X135250621Y-107805482D01*
X135250621Y-108024448D01*
X134812690Y-108024448D01*
X134374759Y-108024448D01*
X134374759Y-108681344D01*
X134374759Y-109338241D01*
X134593725Y-109338241D01*
X134812690Y-109338241D01*
X134812690Y-109776172D01*
X134812690Y-110214103D01*
X134593725Y-110214103D01*
X134374759Y-110214103D01*
X134374759Y-109995137D01*
X134374759Y-109776172D01*
X134155794Y-109776172D01*
X133936828Y-109776172D01*
X133936828Y-109995137D01*
X133936828Y-110214103D01*
X133717863Y-110214103D01*
X133498897Y-110214103D01*
X133498897Y-109557206D01*
X133498897Y-108900310D01*
X133060966Y-108900310D01*
X132623035Y-108900310D01*
X132623035Y-108681344D01*
X132623035Y-108462379D01*
X133060966Y-108462379D01*
X133498897Y-108462379D01*
X133498897Y-107805482D01*
X133498897Y-107148586D01*
X133279932Y-107148586D01*
X133060966Y-107148586D01*
X133060966Y-106929620D01*
X133060966Y-106710655D01*
X132842000Y-106710655D01*
X132623035Y-106710655D01*
X132623035Y-106491689D01*
X132623035Y-106272724D01*
X132404069Y-106272724D01*
X132185104Y-106272724D01*
X132185104Y-107148586D01*
X132185104Y-108024448D01*
X131966138Y-108024448D01*
X131747173Y-108024448D01*
X131747173Y-108243413D01*
X131747173Y-108462379D01*
X131528207Y-108462379D01*
X131309242Y-108462379D01*
X131309242Y-108243413D01*
X131309242Y-108024448D01*
X130871311Y-108024448D01*
X130433380Y-108024448D01*
X130433380Y-108243413D01*
X130433380Y-108462379D01*
X130214414Y-108462379D01*
X129995449Y-108462379D01*
X129995449Y-108681344D01*
X129995449Y-108900310D01*
X129776483Y-108900310D01*
X129557518Y-108900310D01*
X129557518Y-109338241D01*
X129557518Y-109776172D01*
X128681656Y-109776172D01*
X127805794Y-109776172D01*
X127805794Y-109557206D01*
X127805794Y-109338241D01*
X128243725Y-109338241D01*
X128681656Y-109338241D01*
X128681656Y-109119275D01*
X128681656Y-108900310D01*
X127805794Y-108900310D01*
X126929932Y-108900310D01*
X126929932Y-109119275D01*
X126929932Y-109338241D01*
X127148897Y-109338241D01*
X127367863Y-109338241D01*
X127367863Y-109776172D01*
X127367863Y-110214103D01*
X128462690Y-110214103D01*
X129557518Y-110214103D01*
X129557518Y-110433068D01*
X129557518Y-110652034D01*
X129995449Y-110652034D01*
X130433380Y-110652034D01*
X130433380Y-110871000D01*
X130433380Y-111089965D01*
X130871311Y-111089965D01*
X131309242Y-111089965D01*
X131309242Y-110871000D01*
X131309242Y-110652034D01*
X131528207Y-110652034D01*
X131747173Y-110652034D01*
X131747173Y-111308931D01*
X131747173Y-111965827D01*
X131309242Y-111965827D01*
X130871311Y-111965827D01*
X130871311Y-111746862D01*
X130871311Y-111527896D01*
X130652345Y-111527896D01*
X130433380Y-111527896D01*
X130433380Y-112622724D01*
X130433380Y-113717551D01*
X130652345Y-113717551D01*
X130871311Y-113717551D01*
X130871311Y-113060655D01*
X130871311Y-112403758D01*
X131309242Y-112403758D01*
X131747173Y-112403758D01*
X131747173Y-112622724D01*
X131747173Y-112841689D01*
X131966138Y-112841689D01*
X132185104Y-112841689D01*
X132185104Y-112184793D01*
X132185104Y-111527896D01*
X132404069Y-111527896D01*
X132623035Y-111527896D01*
X132623035Y-111746862D01*
X132623035Y-111965827D01*
X133060966Y-111965827D01*
X133498897Y-111965827D01*
X133498897Y-111527896D01*
X133498897Y-111089965D01*
X133717863Y-111089965D01*
X133936828Y-111089965D01*
X133936828Y-110652034D01*
X133936828Y-110214103D01*
X134155794Y-110214103D01*
X134374759Y-110214103D01*
X134374759Y-110433068D01*
X134374759Y-110652034D01*
X134593725Y-110652034D01*
X134812690Y-110652034D01*
X134812690Y-110433068D01*
X134812690Y-110214103D01*
X135031656Y-110214103D01*
X135250621Y-110214103D01*
X135250621Y-110652034D01*
X135250621Y-111089965D01*
X134812690Y-111089965D01*
X134374759Y-111089965D01*
X134374759Y-111308931D01*
X134374759Y-111527896D01*
X134155794Y-111527896D01*
X133936828Y-111527896D01*
X133936828Y-111746862D01*
X133936828Y-111965827D01*
X133717863Y-111965827D01*
X133498897Y-111965827D01*
X133498897Y-112184793D01*
X133498897Y-112403758D01*
X133717863Y-112403758D01*
X133936828Y-112403758D01*
X133936828Y-112184793D01*
X133936828Y-111965827D01*
X134155794Y-111965827D01*
X134374759Y-111965827D01*
X134374759Y-112622724D01*
X134374759Y-113279620D01*
X134593725Y-113279620D01*
X134812690Y-113279620D01*
X134812690Y-113060655D01*
X134812690Y-112841689D01*
X135250621Y-112841689D01*
X135688552Y-112841689D01*
X135688552Y-113060655D01*
X135688552Y-113279620D01*
X136564414Y-113279620D01*
X137440276Y-113279620D01*
X137440276Y-113060655D01*
X137440276Y-112841689D01*
X137659242Y-112841689D01*
X137878207Y-112841689D01*
X137878207Y-112403758D01*
X137878207Y-111965827D01*
X138535104Y-111965827D01*
X139192000Y-111965827D01*
X139192000Y-112184793D01*
X139192000Y-112403758D01*
X138754069Y-112403758D01*
X138316138Y-112403758D01*
X138316138Y-112841689D01*
X138316138Y-113279620D01*
X137878207Y-113279620D01*
X137440276Y-113279620D01*
X137440276Y-113498586D01*
X137440276Y-113717551D01*
X136564414Y-113717551D01*
X135688552Y-113717551D01*
X135688552Y-113498586D01*
X135688552Y-113279620D01*
X135250621Y-113279620D01*
X134812690Y-113279620D01*
X134812690Y-113498586D01*
X134812690Y-113717551D01*
X134593725Y-113717551D01*
X134374759Y-113717551D01*
X134374759Y-113498586D01*
X134374759Y-113279620D01*
X134155794Y-113279620D01*
X133936828Y-113279620D01*
X133936828Y-113060655D01*
X133936828Y-112841689D01*
X133717863Y-112841689D01*
X133498897Y-112841689D01*
X133498897Y-112622724D01*
X133498897Y-112403758D01*
X133279932Y-112403758D01*
X133060966Y-112403758D01*
X133060966Y-112841689D01*
X133060966Y-113279620D01*
X132623035Y-113279620D01*
X132185104Y-113279620D01*
X132185104Y-113498586D01*
X132185104Y-113717551D01*
X131966138Y-113717551D01*
X131747173Y-113717551D01*
X131747173Y-114374448D01*
X131747173Y-115031344D01*
X131966138Y-115031344D01*
X132185104Y-115031344D01*
X132185104Y-115250310D01*
X132185104Y-115469275D01*
X132623035Y-115469275D01*
X133060966Y-115469275D01*
X133060966Y-115250310D01*
X133060966Y-115031344D01*
X133498897Y-115031344D01*
X133936828Y-115031344D01*
X133936828Y-115250310D01*
X133936828Y-115469275D01*
X134374759Y-115469275D01*
X134812690Y-115469275D01*
X134812690Y-115250310D01*
X134812690Y-115031344D01*
X134593725Y-115031344D01*
X134374759Y-115031344D01*
X134374759Y-114812379D01*
X134374759Y-114593413D01*
X134593725Y-114593413D01*
X134812690Y-114593413D01*
X134812690Y-114812379D01*
X134812690Y-115031344D01*
X135031656Y-115031344D01*
X135250621Y-115031344D01*
X135250621Y-114812379D01*
X135250621Y-114593413D01*
X135469587Y-114593413D01*
X135688552Y-114593413D01*
X135688552Y-115031344D01*
X135688552Y-115469275D01*
X135250621Y-115469275D01*
X134812690Y-115469275D01*
X134812690Y-115907206D01*
X134812690Y-116345137D01*
X135250621Y-116345137D01*
X135688552Y-116345137D01*
X135688552Y-116783068D01*
X135688552Y-117221000D01*
X135469587Y-117221000D01*
X135250621Y-117221000D01*
X135250621Y-117002034D01*
X135250621Y-116783068D01*
X135031656Y-116783068D01*
X134812690Y-116783068D01*
X134812690Y-117002034D01*
X134812690Y-117221000D01*
X134593725Y-117221000D01*
X134374759Y-117221000D01*
X134374759Y-116783068D01*
X134374759Y-116345137D01*
X134155794Y-116345137D01*
X133936828Y-116345137D01*
X133936828Y-115907206D01*
X133936828Y-115469275D01*
X133717863Y-115469275D01*
X133498897Y-115469275D01*
X133498897Y-115688241D01*
X133498897Y-115907206D01*
X133060966Y-115907206D01*
X132623035Y-115907206D01*
X132623035Y-116126172D01*
X132623035Y-116345137D01*
X132842000Y-116345137D01*
X133060966Y-116345137D01*
X133060966Y-116564103D01*
X133060966Y-116783068D01*
X132623035Y-116783068D01*
X132185104Y-116783068D01*
X132185104Y-117002034D01*
X132185104Y-117221000D01*
X131528207Y-117221000D01*
X130871311Y-117221000D01*
X130871311Y-116783068D01*
X130871311Y-116345137D01*
X131309242Y-116345137D01*
X131747173Y-116345137D01*
X131747173Y-116564103D01*
X131747173Y-116783068D01*
X131966138Y-116783068D01*
X132185104Y-116783068D01*
X132185104Y-116126172D01*
X132185104Y-115469275D01*
X131090276Y-115469275D01*
X129995449Y-115469275D01*
X129995449Y-115688241D01*
X129995449Y-115907206D01*
X130433380Y-115907206D01*
X130871311Y-115907206D01*
X130871311Y-116126172D01*
X130871311Y-116345137D01*
X130652345Y-116345137D01*
X130433380Y-116345137D01*
X130433380Y-116783068D01*
X130433380Y-117221000D01*
X129119587Y-117221000D01*
X127805794Y-117221000D01*
X127805794Y-116783068D01*
X127805794Y-116345137D01*
X127586828Y-116345137D01*
X127367863Y-116345137D01*
X127367863Y-116783068D01*
X127367863Y-117221000D01*
X127148897Y-117221000D01*
X126929932Y-117221000D01*
X126929932Y-117002034D01*
X126929932Y-116783068D01*
X126710966Y-116783068D01*
X126492000Y-116783068D01*
X126492000Y-116126172D01*
X126492000Y-115469275D01*
X126710966Y-115469275D01*
X126929932Y-115469275D01*
X126929932Y-115250310D01*
X127367863Y-115250310D01*
X127367863Y-115907206D01*
X127805794Y-115907206D01*
X128243725Y-115907206D01*
X128243725Y-116126172D01*
X128243725Y-116345137D01*
X128462690Y-116345137D01*
X128681656Y-116345137D01*
X128681656Y-116564103D01*
X128681656Y-116783068D01*
X128900621Y-116783068D01*
X129119587Y-116783068D01*
X129119587Y-116564103D01*
X129119587Y-116345137D01*
X129338552Y-116345137D01*
X129557518Y-116345137D01*
X129557518Y-115907206D01*
X129557518Y-115469275D01*
X128681656Y-115469275D01*
X127805794Y-115469275D01*
X127805794Y-115250310D01*
X127805794Y-115031344D01*
X128024759Y-115031344D01*
X128243725Y-115031344D01*
X128243725Y-114812379D01*
X128243725Y-114593413D01*
X127805794Y-114593413D01*
X127367863Y-114593413D01*
X127367863Y-115250310D01*
X126929932Y-115250310D01*
X126929932Y-115031344D01*
X126710966Y-115031344D01*
X126492000Y-115031344D01*
X126492000Y-113498586D01*
X126492000Y-111965827D01*
X126710966Y-111965827D01*
X126929932Y-111965827D01*
X126929932Y-111746862D01*
X126929932Y-111527896D01*
X126710966Y-111527896D01*
X126492000Y-111527896D01*
X126492000Y-110871000D01*
X126929932Y-110871000D01*
X126929932Y-111089965D01*
X127148897Y-111089965D01*
X127367863Y-111089965D01*
X127367863Y-111746862D01*
X127367863Y-112403758D01*
X127148897Y-112403758D01*
X126929932Y-112403758D01*
X126929932Y-112622724D01*
X126929932Y-112841689D01*
X127148897Y-112841689D01*
X127367863Y-112841689D01*
X127367863Y-113060655D01*
X127367863Y-113279620D01*
X127148897Y-113279620D01*
X126929932Y-113279620D01*
X126929932Y-113936517D01*
X126929932Y-114593413D01*
X127148897Y-114593413D01*
X127367863Y-114593413D01*
X127367863Y-114374448D01*
X128681656Y-114374448D01*
X128681656Y-115031344D01*
X129338552Y-115031344D01*
X129995449Y-115031344D01*
X129995449Y-114593413D01*
X130871311Y-114593413D01*
X131090276Y-114593413D01*
X131309242Y-114593413D01*
X131309242Y-114155482D01*
X131309242Y-113717551D01*
X131090276Y-113717551D01*
X130871311Y-113717551D01*
X130871311Y-114155482D01*
X130871311Y-114374448D01*
X130871311Y-114593413D01*
X129995449Y-114593413D01*
X129995449Y-114374448D01*
X129995449Y-113717551D01*
X129338552Y-113717551D01*
X128681656Y-113717551D01*
X128681656Y-114374448D01*
X127367863Y-114374448D01*
X127367863Y-114155482D01*
X127805794Y-114155482D01*
X128243725Y-114155482D01*
X128243725Y-113936517D01*
X128243725Y-113717551D01*
X128024759Y-113717551D01*
X127805794Y-113717551D01*
X127805794Y-113498586D01*
X127805794Y-113279620D01*
X128024759Y-113279620D01*
X128243725Y-113279620D01*
X128243725Y-113060655D01*
X128243725Y-112841689D01*
X128681656Y-112841689D01*
X129119587Y-112841689D01*
X129119587Y-113060655D01*
X129119587Y-113279620D01*
X129338552Y-113279620D01*
X129557518Y-113279620D01*
X129557518Y-113060655D01*
X129557518Y-112841689D01*
X129776483Y-112841689D01*
X129995449Y-112841689D01*
X129995449Y-112184793D01*
X129995449Y-111527896D01*
X129776483Y-111527896D01*
X129557518Y-111527896D01*
X129557518Y-111308931D01*
X129557518Y-111089965D01*
X129119587Y-111089965D01*
X128681656Y-111089965D01*
X128681656Y-110871000D01*
X128681656Y-110652034D01*
X128462690Y-110652034D01*
X128243725Y-110652034D01*
X128243725Y-110871000D01*
X128243725Y-111089965D01*
X127805794Y-111089965D01*
X127367863Y-111089965D01*
X127367863Y-110871000D01*
X127367863Y-110652034D01*
X127148897Y-110652034D01*
X126929932Y-110652034D01*
X126929932Y-110871000D01*
X126492000Y-110871000D01*
X126492000Y-110214103D01*
X126710966Y-110214103D01*
X126929932Y-110214103D01*
X126929932Y-109995137D01*
X126929932Y-109776172D01*
X126710966Y-109776172D01*
X126492000Y-109776172D01*
X126492000Y-108900310D01*
X126492000Y-108024448D01*
X127367863Y-108024448D01*
X128243725Y-108024448D01*
X128243725Y-108243413D01*
X128243725Y-108462379D01*
X128462690Y-108462379D01*
X128681656Y-108462379D01*
X128681656Y-108243413D01*
X128681656Y-108024448D01*
X128900621Y-108024448D01*
X129119587Y-108024448D01*
X129119587Y-108243413D01*
X129119587Y-108462379D01*
X129557518Y-108462379D01*
X129995449Y-108462379D01*
X129995449Y-107586517D01*
X129995449Y-106710655D01*
X130433380Y-106710655D01*
X130871311Y-106710655D01*
X130871311Y-106929620D01*
X130871311Y-107148586D01*
X130652345Y-107148586D01*
X130433380Y-107148586D01*
X130433380Y-107367551D01*
X130433380Y-107586517D01*
X130652345Y-107586517D01*
X130871311Y-107586517D01*
X130871311Y-107367551D01*
X130871311Y-107148586D01*
X131090276Y-107148586D01*
X131309242Y-107148586D01*
X131309242Y-107367551D01*
X131309242Y-107586517D01*
X131528207Y-107586517D01*
X131747173Y-107586517D01*
X131747173Y-106710655D01*
X131747173Y-105834793D01*
X131528207Y-105834793D01*
X131309242Y-105834793D01*
X131309242Y-105615827D01*
X131309242Y-105396862D01*
X130871311Y-105396862D01*
X130433380Y-105396862D01*
X130433380Y-105615827D01*
X130433380Y-105834793D01*
X130214414Y-105834793D01*
X129995449Y-105834793D01*
X129995449Y-105396862D01*
X129995449Y-104958931D01*
X130871311Y-104958931D01*
X131747173Y-104958931D01*
X131747173Y-104739965D01*
X131747173Y-104521000D01*
X131966138Y-104521000D01*
X132185104Y-104521000D01*
X132185104Y-104958931D01*
X132185104Y-105396862D01*
X131966138Y-105396862D01*
X131747173Y-105396862D01*
X131747173Y-105615827D01*
X131747173Y-105834793D01*
X131966138Y-105834793D01*
X132185104Y-105834793D01*
X132185104Y-105615827D01*
X132185104Y-105396862D01*
X132404069Y-105396862D01*
X132623035Y-105396862D01*
X132623035Y-105615827D01*
X132623035Y-105834793D01*
X132842000Y-105834793D01*
X133060966Y-105834793D01*
X133060966Y-106272724D01*
X133060966Y-106710655D01*
X133498897Y-106710655D01*
X133936828Y-106710655D01*
X133936828Y-107367551D01*
X133936828Y-108024448D01*
X134155794Y-108024448D01*
X134374759Y-108024448D01*
X134374759Y-107367551D01*
X134374759Y-106710655D01*
X134155794Y-106710655D01*
X133936828Y-106710655D01*
X133936828Y-106272724D01*
X133936828Y-105834793D01*
X134155794Y-105834793D01*
X134374759Y-105834793D01*
X134374759Y-106053758D01*
X134374759Y-106272724D01*
X134593725Y-106272724D01*
X134812690Y-106272724D01*
X134812690Y-106929620D01*
X134812690Y-107367551D01*
X134812690Y-107586517D01*
G37*
G36*
X133498897Y-113936517D02*
G01*
X133498897Y-114155482D01*
X133717863Y-114155482D01*
X133936828Y-114155482D01*
X133936828Y-113936517D01*
X133936828Y-113717551D01*
X134155794Y-113717551D01*
X134374759Y-113717551D01*
X134374759Y-114155482D01*
X134374759Y-114593413D01*
X133717863Y-114593413D01*
X133060966Y-114593413D01*
X133060966Y-114155482D01*
X133060966Y-113717551D01*
X133279932Y-113717551D01*
X133498897Y-113717551D01*
X133498897Y-113936517D01*
G37*
G36*
X138754069Y-113279620D02*
G01*
X139192000Y-113279620D01*
X139192000Y-113498586D01*
X139192000Y-113717551D01*
X138754069Y-113717551D01*
X138316138Y-113717551D01*
X138316138Y-113498586D01*
X138316138Y-113279620D01*
X138754069Y-113279620D01*
G37*
G36*
X133717863Y-105396862D02*
G01*
X133936828Y-105396862D01*
X133936828Y-105615827D01*
X133936828Y-105834793D01*
X133717863Y-105834793D01*
X133498897Y-105834793D01*
X133498897Y-105615827D01*
X133498897Y-105396862D01*
X133717863Y-105396862D01*
G37*
G36*
X133498897Y-104958931D02*
G01*
X133498897Y-105396862D01*
X133279932Y-105396862D01*
X133060966Y-105396862D01*
X133060966Y-104958931D01*
X133060966Y-104521000D01*
X133279932Y-104521000D01*
X133498897Y-104521000D01*
X133498897Y-104958931D01*
G37*
G36*
X155216841Y-96722615D02*
G01*
X155232089Y-96734077D01*
X155251920Y-96751911D01*
X155310218Y-96804193D01*
X155397623Y-96872871D01*
X155496580Y-96941719D01*
X155604691Y-97009391D01*
X155719558Y-97074542D01*
X155838783Y-97135827D01*
X155959969Y-97191901D01*
X156080717Y-97241418D01*
X156198630Y-97283033D01*
X156276593Y-97306506D01*
X156379878Y-97331611D01*
X156478205Y-97347444D01*
X156574062Y-97353891D01*
X156669935Y-97350837D01*
X156768312Y-97338168D01*
X156871678Y-97315768D01*
X156982520Y-97283523D01*
X157103325Y-97241319D01*
X157210385Y-97198152D01*
X157323916Y-97146061D01*
X157437943Y-97087849D01*
X157549775Y-97025099D01*
X157656718Y-96959394D01*
X157756081Y-96892317D01*
X157845173Y-96825450D01*
X157921302Y-96760376D01*
X157928384Y-96753899D01*
X157949681Y-96735474D01*
X157965406Y-96723456D01*
X157972572Y-96720188D01*
X157973280Y-96721375D01*
X157972251Y-96734741D01*
X157964826Y-96758997D01*
X157952162Y-96791583D01*
X157935415Y-96829939D01*
X157915741Y-96871507D01*
X157894297Y-96913727D01*
X157872239Y-96954038D01*
X157850724Y-96989882D01*
X157802308Y-97061098D01*
X157707402Y-97178527D01*
X157600164Y-97286128D01*
X157480974Y-97383656D01*
X157350214Y-97470868D01*
X157208268Y-97547521D01*
X157055516Y-97613370D01*
X156892340Y-97668173D01*
X156719122Y-97711686D01*
X156708613Y-97713903D01*
X156668763Y-97722076D01*
X156634471Y-97728756D01*
X156609098Y-97733305D01*
X156596010Y-97735084D01*
X156581089Y-97733837D01*
X156552659Y-97729323D01*
X156514791Y-97722178D01*
X156470682Y-97713085D01*
X156423527Y-97702727D01*
X156376524Y-97691788D01*
X156332868Y-97680951D01*
X156295756Y-97670900D01*
X156187638Y-97636605D01*
X156034033Y-97575970D01*
X155890164Y-97504421D01*
X155756661Y-97422446D01*
X155634156Y-97330534D01*
X155523281Y-97229177D01*
X155424668Y-97118862D01*
X155338949Y-97000081D01*
X155266754Y-96873322D01*
X155263568Y-96866901D01*
X155243261Y-96823820D01*
X155226804Y-96785153D01*
X155215104Y-96753338D01*
X155209071Y-96730809D01*
X155209613Y-96720005D01*
X155216841Y-96722615D01*
G37*
G36*
X156050624Y-98030107D02*
G01*
X156022681Y-98080143D01*
X155954806Y-98181549D01*
X155874608Y-98279631D01*
X155784567Y-98371959D01*
X155687162Y-98456097D01*
X155584870Y-98529613D01*
X155480172Y-98590075D01*
X155476137Y-98592108D01*
X155442292Y-98608672D01*
X155414149Y-98621594D01*
X155394543Y-98629623D01*
X155386308Y-98631507D01*
X155387985Y-98624204D01*
X155396846Y-98607340D01*
X155411004Y-98584898D01*
X155424277Y-98564082D01*
X155451009Y-98515303D01*
X155474491Y-98463575D01*
X155493176Y-98412871D01*
X155505521Y-98367165D01*
X155509979Y-98330429D01*
X155509989Y-98327211D01*
X155509423Y-98319279D01*
X155505979Y-98314777D01*
X155497114Y-98313737D01*
X155480280Y-98316196D01*
X155452934Y-98322187D01*
X155412527Y-98331745D01*
X155388714Y-98337295D01*
X155324033Y-98350999D01*
X155262333Y-98361619D01*
X155199820Y-98369584D01*
X155132701Y-98375322D01*
X155057182Y-98379261D01*
X154969468Y-98381832D01*
X154875324Y-98382863D01*
X154785605Y-98381269D01*
X154703089Y-98376527D01*
X154623315Y-98368274D01*
X154541821Y-98356144D01*
X154454146Y-98339775D01*
X154417029Y-98331583D01*
X154370884Y-98320020D01*
X154322528Y-98306764D01*
X154274926Y-98292722D01*
X154231041Y-98278804D01*
X154193834Y-98265919D01*
X154166269Y-98254975D01*
X154151310Y-98246881D01*
X154149831Y-98245214D01*
X154150650Y-98238376D01*
X154160660Y-98227763D01*
X154181417Y-98211961D01*
X154214480Y-98189556D01*
X154234523Y-98175924D01*
X154271229Y-98149143D01*
X154305030Y-98122442D01*
X154330554Y-98099968D01*
X154355881Y-98073199D01*
X154370287Y-98049951D01*
X154371509Y-98029361D01*
X154359664Y-98008269D01*
X154334869Y-97983516D01*
X154290102Y-97947475D01*
X154233106Y-97907210D01*
X154167150Y-97864642D01*
X154095249Y-97821465D01*
X154020420Y-97779377D01*
X153945677Y-97740072D01*
X153874036Y-97705246D01*
X153808514Y-97676596D01*
X153752126Y-97655818D01*
X153723995Y-97647407D01*
X153665176Y-97633668D01*
X153611075Y-97626099D01*
X153564880Y-97625056D01*
X153529781Y-97630897D01*
X153528194Y-97631444D01*
X153498546Y-97648830D01*
X153465460Y-97680215D01*
X153429738Y-97724248D01*
X153392182Y-97779577D01*
X153353594Y-97844847D01*
X153314777Y-97918708D01*
X153276534Y-97999807D01*
X153239667Y-98086791D01*
X153204978Y-98178307D01*
X153179834Y-98248714D01*
X153227571Y-98210088D01*
X153230956Y-98207383D01*
X153263267Y-98183586D01*
X153301284Y-98158132D01*
X153337479Y-98136089D01*
X153351792Y-98128310D01*
X153381751Y-98113268D01*
X153417267Y-98096476D01*
X153455479Y-98079169D01*
X153493530Y-98062585D01*
X153528562Y-98047958D01*
X153557717Y-98036525D01*
X153578137Y-98029523D01*
X153586963Y-98028186D01*
X153586441Y-98032948D01*
X153581685Y-98050127D01*
X153573194Y-98076685D01*
X153561969Y-98109369D01*
X153550915Y-98142085D01*
X153522499Y-98240995D01*
X153498028Y-98348756D01*
X153478720Y-98460233D01*
X153478371Y-98462660D01*
X153473512Y-98508012D01*
X153469618Y-98566149D01*
X153466706Y-98634068D01*
X153464792Y-98708761D01*
X153463891Y-98787223D01*
X153464020Y-98866448D01*
X153465195Y-98943431D01*
X153467432Y-99015166D01*
X153470746Y-99078646D01*
X153475154Y-99130867D01*
X153475859Y-99137257D01*
X153480396Y-99174654D01*
X153484772Y-99205051D01*
X153488519Y-99225468D01*
X153491169Y-99232926D01*
X153495736Y-99230396D01*
X153510688Y-99219555D01*
X153533094Y-99202144D01*
X153560137Y-99180311D01*
X153614061Y-99137816D01*
X153735637Y-99053241D01*
X153863867Y-98978058D01*
X153995874Y-98913733D01*
X154128779Y-98861736D01*
X154259707Y-98823531D01*
X154273679Y-98820309D01*
X154336065Y-98808216D01*
X154403043Y-98798372D01*
X154471253Y-98791026D01*
X154537334Y-98786429D01*
X154597927Y-98784829D01*
X154649670Y-98786477D01*
X154689204Y-98791622D01*
X154693127Y-98792506D01*
X154701074Y-98795348D01*
X154701514Y-98799560D01*
X154692785Y-98806669D01*
X154673221Y-98818200D01*
X154641158Y-98835679D01*
X154621845Y-98846257D01*
X154504611Y-98917110D01*
X154389573Y-98997519D01*
X154281331Y-99084081D01*
X154184490Y-99173393D01*
X154153387Y-99205334D01*
X154051676Y-99323863D01*
X153964129Y-99449642D01*
X153890838Y-99582320D01*
X153831898Y-99721549D01*
X153787400Y-99866979D01*
X153757438Y-100018262D01*
X153742104Y-100175049D01*
X153741491Y-100336990D01*
X153755693Y-100503737D01*
X153784802Y-100674940D01*
X153799535Y-100740301D01*
X153832176Y-100860656D01*
X153872330Y-100980106D01*
X153921936Y-101104732D01*
X153924172Y-101111668D01*
X153921017Y-101114850D01*
X153908884Y-101107178D01*
X153887398Y-101088339D01*
X153856181Y-101058021D01*
X153814856Y-101015910D01*
X153788087Y-100987821D01*
X153660576Y-100841794D01*
X153544944Y-100687542D01*
X153440578Y-100524034D01*
X153346861Y-100350240D01*
X153263178Y-100165128D01*
X153188914Y-99967669D01*
X153178488Y-99936725D01*
X153110474Y-99706509D01*
X153057178Y-99470202D01*
X153018670Y-99228156D01*
X152995019Y-98980725D01*
X152992133Y-98937852D01*
X152989144Y-98896896D01*
X152986504Y-98864165D01*
X152984420Y-98842244D01*
X152983103Y-98833722D01*
X152980143Y-98833716D01*
X152966223Y-98840058D01*
X152943751Y-98853138D01*
X152915538Y-98871136D01*
X152884397Y-98892230D01*
X152853137Y-98914599D01*
X152824572Y-98936421D01*
X152818244Y-98941544D01*
X152777427Y-98977393D01*
X152730953Y-99022031D01*
X152682129Y-99071993D01*
X152634260Y-99123817D01*
X152590655Y-99174037D01*
X152554620Y-99219191D01*
X152539621Y-99238854D01*
X152520243Y-99263283D01*
X152505636Y-99280510D01*
X152498151Y-99287681D01*
X152496064Y-99283975D01*
X152493930Y-99266686D01*
X152492440Y-99237375D01*
X152491587Y-99198291D01*
X152491364Y-99151684D01*
X152491764Y-99099802D01*
X152492780Y-99044893D01*
X152494404Y-98989207D01*
X152496628Y-98934992D01*
X152499447Y-98884497D01*
X152521914Y-98660474D01*
X152560145Y-98437812D01*
X152613864Y-98218150D01*
X152682871Y-98001997D01*
X152766962Y-97789865D01*
X152865935Y-97582260D01*
X152962621Y-97409937D01*
X154423589Y-97409937D01*
X154424011Y-97415967D01*
X154431709Y-97434425D01*
X154446668Y-97463438D01*
X154468016Y-97501413D01*
X154494884Y-97546760D01*
X154526401Y-97597887D01*
X154538713Y-97617312D01*
X154610164Y-97721776D01*
X154681162Y-97811021D01*
X154752445Y-97885681D01*
X154824752Y-97946388D01*
X154898823Y-97993778D01*
X154975397Y-98028482D01*
X155055212Y-98051135D01*
X155056392Y-98051377D01*
X155127398Y-98060747D01*
X155203072Y-98062075D01*
X155274303Y-98055190D01*
X155275715Y-98054951D01*
X155307914Y-98048253D01*
X155342774Y-98039134D01*
X155376639Y-98028789D01*
X155405856Y-98018416D01*
X155426768Y-98009209D01*
X155435720Y-98002366D01*
X155432067Y-97997113D01*
X155415949Y-97984217D01*
X155388259Y-97964929D01*
X155350323Y-97940024D01*
X155303468Y-97910280D01*
X155249022Y-97876472D01*
X155188311Y-97839379D01*
X155122661Y-97799775D01*
X155053401Y-97758439D01*
X154981856Y-97716147D01*
X154909354Y-97673675D01*
X154837221Y-97631800D01*
X154766785Y-97591298D01*
X154699372Y-97552947D01*
X154636309Y-97517523D01*
X154578923Y-97485802D01*
X154528541Y-97458562D01*
X154486490Y-97436579D01*
X154454096Y-97420629D01*
X154432687Y-97411490D01*
X154423589Y-97409937D01*
X152962621Y-97409937D01*
X152979590Y-97379694D01*
X153107722Y-97182675D01*
X153250132Y-96991713D01*
X153309937Y-96918611D01*
X153451962Y-96758637D01*
X153604787Y-96603532D01*
X153764824Y-96456838D01*
X153928485Y-96322097D01*
X153938277Y-96314524D01*
X153981583Y-96281722D01*
X154023960Y-96250640D01*
X154063448Y-96222621D01*
X154098087Y-96199007D01*
X154125919Y-96181142D01*
X154144984Y-96170367D01*
X154153323Y-96168026D01*
X154154102Y-96171941D01*
X154152543Y-96187907D01*
X154147894Y-96211046D01*
X154143450Y-96235174D01*
X154139054Y-96284338D01*
X154138165Y-96340896D01*
X154140654Y-96399761D01*
X154146395Y-96455845D01*
X154155258Y-96504059D01*
X154171869Y-96562187D01*
X154204259Y-96643037D01*
X154247198Y-96720201D01*
X154301716Y-96795041D01*
X154368846Y-96868920D01*
X154449619Y-96943202D01*
X154545067Y-97019251D01*
X154584778Y-97048613D01*
X154679339Y-97115781D01*
X154786745Y-97188797D01*
X154905895Y-97266954D01*
X155035690Y-97349548D01*
X155175031Y-97435876D01*
X155322817Y-97525232D01*
X155477949Y-97616912D01*
X155484023Y-97620461D01*
X155550831Y-97659338D01*
X155620325Y-97699519D01*
X155690671Y-97739964D01*
X155760032Y-97779630D01*
X155826573Y-97817476D01*
X155888458Y-97852461D01*
X155943851Y-97883544D01*
X155990917Y-97909683D01*
X156027820Y-97929837D01*
X156052724Y-97942964D01*
X156086988Y-97960322D01*
X156065079Y-98002366D01*
X156050624Y-98030107D01*
G37*
G36*
X160234987Y-97435213D02*
G01*
X160345966Y-97641284D01*
X160441601Y-97851942D01*
X160521894Y-98067190D01*
X160586845Y-98287031D01*
X160636456Y-98511466D01*
X160670727Y-98740498D01*
X160672795Y-98760351D01*
X160676310Y-98802887D01*
X160679557Y-98852752D01*
X160682480Y-98907826D01*
X160685024Y-98965988D01*
X160687133Y-99025119D01*
X160688752Y-99083099D01*
X160689826Y-99137808D01*
X160690298Y-99187126D01*
X160690113Y-99228932D01*
X160689216Y-99261108D01*
X160687551Y-99281533D01*
X160685063Y-99288086D01*
X160679919Y-99283676D01*
X160666523Y-99268495D01*
X160647843Y-99245304D01*
X160626231Y-99216948D01*
X160615992Y-99203507D01*
X160576166Y-99155417D01*
X160529031Y-99103428D01*
X160477427Y-99050311D01*
X160424192Y-98998836D01*
X160372164Y-98951774D01*
X160324182Y-98911897D01*
X160283084Y-98881974D01*
X160256015Y-98864504D01*
X160229520Y-98847958D01*
X160210503Y-98836725D01*
X160201891Y-98832585D01*
X160201731Y-98832622D01*
X160199093Y-98841097D01*
X160196140Y-98862303D01*
X160193223Y-98893183D01*
X160190689Y-98930677D01*
X160181807Y-99056229D01*
X160155688Y-99285725D01*
X160117330Y-99509065D01*
X160067009Y-99725461D01*
X160004999Y-99934122D01*
X159931575Y-100134257D01*
X159847011Y-100325076D01*
X159751583Y-100505789D01*
X159645564Y-100675607D01*
X159529229Y-100833738D01*
X159518873Y-100846498D01*
X159485541Y-100885882D01*
X159446445Y-100930277D01*
X159405631Y-100975136D01*
X159367145Y-101015910D01*
X159343509Y-101040220D01*
X159309941Y-101073950D01*
X159285538Y-101097110D01*
X159269320Y-101110556D01*
X159260307Y-101115146D01*
X159257520Y-101111734D01*
X159259894Y-101104957D01*
X159267216Y-101087245D01*
X159277762Y-101062956D01*
X159301754Y-101004146D01*
X159331166Y-100920206D01*
X159359083Y-100828103D01*
X159384295Y-100732177D01*
X159405595Y-100636764D01*
X159421772Y-100546204D01*
X159425027Y-100522777D01*
X159431847Y-100456173D01*
X159436747Y-100381468D01*
X159439591Y-100303443D01*
X159440245Y-100226879D01*
X159438573Y-100156557D01*
X159434441Y-100097257D01*
X159433432Y-100087763D01*
X159408910Y-99930769D01*
X159370342Y-99781220D01*
X159317654Y-99639001D01*
X159250777Y-99503998D01*
X159169636Y-99376096D01*
X159074159Y-99255180D01*
X158964275Y-99141135D01*
X158839911Y-99033848D01*
X158700994Y-98933202D01*
X158666203Y-98910597D01*
X158621115Y-98882495D01*
X158577357Y-98856322D01*
X158540843Y-98835679D01*
X158528941Y-98829248D01*
X158501126Y-98813870D01*
X158485269Y-98803945D01*
X158479705Y-98797947D01*
X158482769Y-98794347D01*
X158492797Y-98791622D01*
X158501028Y-98790049D01*
X158543811Y-98785769D01*
X158597994Y-98784927D01*
X158660217Y-98787272D01*
X158727119Y-98792555D01*
X158795340Y-98800525D01*
X158861518Y-98810934D01*
X158922294Y-98823531D01*
X158983285Y-98839643D01*
X159115498Y-98884500D01*
X159248341Y-98942463D01*
X159378934Y-99012064D01*
X159504401Y-99091836D01*
X159621864Y-99180311D01*
X159641650Y-99196359D01*
X159665644Y-99215230D01*
X159682977Y-99228136D01*
X159690832Y-99232926D01*
X159691160Y-99232729D01*
X159694016Y-99223013D01*
X159697895Y-99200810D01*
X159702327Y-99169102D01*
X159706847Y-99130867D01*
X159707166Y-99127881D01*
X159711503Y-99074839D01*
X159714747Y-99010733D01*
X159716914Y-98938567D01*
X159718021Y-98861347D01*
X159718083Y-98782081D01*
X159717116Y-98703772D01*
X159715136Y-98629427D01*
X159712160Y-98562051D01*
X159708203Y-98504652D01*
X159703281Y-98460233D01*
X159696946Y-98419658D01*
X159675623Y-98308936D01*
X159649578Y-98203795D01*
X159620032Y-98109369D01*
X159611483Y-98084668D01*
X159602190Y-98056216D01*
X159596375Y-98036304D01*
X159595038Y-98028186D01*
X159598878Y-98028258D01*
X159615109Y-98033194D01*
X159641191Y-98043043D01*
X159674268Y-98056569D01*
X159711479Y-98072536D01*
X159749969Y-98089708D01*
X159786878Y-98106848D01*
X159819348Y-98122720D01*
X159844522Y-98136089D01*
X159848854Y-98138581D01*
X159885711Y-98161353D01*
X159923412Y-98186878D01*
X159954430Y-98210088D01*
X160002167Y-98248714D01*
X159977023Y-98178307D01*
X159975097Y-98172933D01*
X159940261Y-98081641D01*
X159903293Y-97994960D01*
X159864995Y-97914242D01*
X159826169Y-97840839D01*
X159787619Y-97776105D01*
X159750147Y-97721391D01*
X159714554Y-97678050D01*
X159681645Y-97647435D01*
X159652220Y-97630897D01*
X159637444Y-97627296D01*
X159596777Y-97624708D01*
X159546500Y-97628837D01*
X159489803Y-97639326D01*
X159429875Y-97655818D01*
X159373894Y-97676431D01*
X159308422Y-97705034D01*
X159236812Y-97739825D01*
X159162080Y-97779106D01*
X159087241Y-97821181D01*
X159015310Y-97864356D01*
X158949305Y-97906934D01*
X158892240Y-97947219D01*
X158847132Y-97983516D01*
X158823656Y-98006688D01*
X158810898Y-98027934D01*
X158811199Y-98048456D01*
X158824677Y-98071415D01*
X158851447Y-98099968D01*
X158864574Y-98111937D01*
X158895447Y-98137314D01*
X158931553Y-98164570D01*
X158967521Y-98189556D01*
X158979877Y-98197759D01*
X159008711Y-98217831D01*
X159025753Y-98231766D01*
X159032560Y-98240978D01*
X159030691Y-98246881D01*
X159017884Y-98254004D01*
X158991470Y-98264698D01*
X158955111Y-98277427D01*
X158911770Y-98291281D01*
X158864412Y-98305352D01*
X158815998Y-98318731D01*
X158769491Y-98330508D01*
X158727855Y-98339775D01*
X158645805Y-98355185D01*
X158564037Y-98367587D01*
X158484287Y-98376089D01*
X158402094Y-98381054D01*
X158312996Y-98382847D01*
X158212533Y-98381832D01*
X158180505Y-98381069D01*
X158097449Y-98378072D01*
X158025271Y-98373558D01*
X157960179Y-98367096D01*
X157898377Y-98358260D01*
X157836074Y-98346619D01*
X157769474Y-98331745D01*
X157755123Y-98328333D01*
X157719124Y-98319908D01*
X157695378Y-98315038D01*
X157681341Y-98313690D01*
X157674467Y-98315828D01*
X157672209Y-98321420D01*
X157672022Y-98330429D01*
X157673041Y-98346359D01*
X157681405Y-98387813D01*
X157696928Y-98436368D01*
X157718065Y-98488049D01*
X157743269Y-98538883D01*
X157770997Y-98584898D01*
X157784391Y-98606039D01*
X157793650Y-98623372D01*
X157795693Y-98631507D01*
X157795424Y-98631641D01*
X157785770Y-98629004D01*
X157765063Y-98620363D01*
X157736138Y-98606970D01*
X157701829Y-98590075D01*
X157648103Y-98560910D01*
X157544826Y-98493798D01*
X157445127Y-98414954D01*
X157351494Y-98326815D01*
X157266412Y-98231820D01*
X157192367Y-98132406D01*
X157131844Y-98031012D01*
X157114650Y-97998019D01*
X157746478Y-97998019D01*
X157749039Y-98005902D01*
X157762458Y-98014084D01*
X157788310Y-98023700D01*
X157828169Y-98035885D01*
X157858834Y-98043815D01*
X157928847Y-98055835D01*
X158001506Y-98061247D01*
X158071203Y-98059771D01*
X158132330Y-98051125D01*
X158136481Y-98050179D01*
X158216527Y-98025305D01*
X158293402Y-97988233D01*
X158367830Y-97938334D01*
X158440538Y-97874978D01*
X158512252Y-97797538D01*
X158583698Y-97705383D01*
X158655600Y-97597887D01*
X158679649Y-97559052D01*
X158708001Y-97511705D01*
X158730879Y-97471570D01*
X158747445Y-97440184D01*
X158756858Y-97419083D01*
X158758281Y-97409806D01*
X158756202Y-97409725D01*
X158742129Y-97415071D01*
X158716221Y-97427541D01*
X158679811Y-97446368D01*
X158634235Y-97470783D01*
X158580826Y-97500017D01*
X158520920Y-97533304D01*
X158455851Y-97569876D01*
X158386953Y-97608963D01*
X158315562Y-97649799D01*
X158243012Y-97691615D01*
X158170637Y-97733643D01*
X158099772Y-97775115D01*
X158031751Y-97815264D01*
X157967910Y-97853321D01*
X157909582Y-97888519D01*
X157858103Y-97920088D01*
X157814807Y-97947263D01*
X157781028Y-97969273D01*
X157758102Y-97985352D01*
X157753203Y-97989300D01*
X157746478Y-97998019D01*
X157114650Y-97998019D01*
X157095948Y-97962131D01*
X157261869Y-97869912D01*
X157359426Y-97815360D01*
X157515928Y-97726461D01*
X157669029Y-97637814D01*
X157817508Y-97550171D01*
X157960146Y-97464288D01*
X158095720Y-97380917D01*
X158223010Y-97300812D01*
X158340796Y-97224728D01*
X158447857Y-97153418D01*
X158542973Y-97087636D01*
X158624922Y-97028135D01*
X158640971Y-97016030D01*
X158732765Y-96942410D01*
X158810447Y-96871428D01*
X158875143Y-96801619D01*
X158927978Y-96731518D01*
X158970077Y-96659658D01*
X159002565Y-96584572D01*
X159026568Y-96504796D01*
X159032234Y-96477306D01*
X159039355Y-96423416D01*
X159043233Y-96364762D01*
X159043738Y-96306428D01*
X159040740Y-96253495D01*
X159034107Y-96211046D01*
X159031060Y-96196989D01*
X159028131Y-96177393D01*
X159028678Y-96168026D01*
X159029533Y-96167748D01*
X159040487Y-96172128D01*
X159061722Y-96184636D01*
X159091277Y-96203929D01*
X159127193Y-96228664D01*
X159167511Y-96257499D01*
X159210272Y-96289091D01*
X159253516Y-96322097D01*
X159259283Y-96326585D01*
X159418900Y-96458357D01*
X159574756Y-96601278D01*
X159723799Y-96752264D01*
X159862976Y-96908227D01*
X159989235Y-97066081D01*
X160108664Y-97233727D01*
X160219058Y-97409806D01*
X160234987Y-97435213D01*
G37*
G36*
X158526221Y-101245602D02*
G01*
X158509070Y-101344504D01*
X158492038Y-101434863D01*
X158485506Y-101467468D01*
X158455414Y-101607051D01*
X158424074Y-101734323D01*
X158390576Y-101852322D01*
X158354007Y-101964086D01*
X158313455Y-102072653D01*
X158268008Y-102181058D01*
X158251069Y-102219762D01*
X158169474Y-102415481D01*
X158099138Y-102601326D01*
X158039793Y-102778297D01*
X157991174Y-102947395D01*
X157953013Y-103109620D01*
X157925043Y-103265971D01*
X157906997Y-103417450D01*
X157898608Y-103565056D01*
X157898376Y-103579551D01*
X157897567Y-103630150D01*
X157898626Y-103714250D01*
X157903043Y-103788222D01*
X157911148Y-103855415D01*
X157923272Y-103919178D01*
X157939745Y-103982858D01*
X157945220Y-104002102D01*
X157951896Y-104029096D01*
X157954249Y-104048634D01*
X157952660Y-104065791D01*
X157947514Y-104085641D01*
X157930035Y-104126174D01*
X157895011Y-104174715D01*
X157845417Y-104222392D01*
X157782040Y-104268469D01*
X157705666Y-104312211D01*
X157682020Y-104323617D01*
X157642069Y-104341407D01*
X157594351Y-104361535D01*
X157542925Y-104382297D01*
X157491852Y-104401988D01*
X157418078Y-104430166D01*
X157278551Y-104485787D01*
X157132633Y-104546641D01*
X156984982Y-104610729D01*
X156840254Y-104676052D01*
X156703106Y-104740610D01*
X156691968Y-104745955D01*
X156656065Y-104762871D01*
X156625857Y-104776638D01*
X156604240Y-104785956D01*
X156594110Y-104789527D01*
X156592026Y-104789188D01*
X156577493Y-104783973D01*
X156552411Y-104773433D01*
X156519632Y-104758794D01*
X156482004Y-104741282D01*
X156324577Y-104668063D01*
X156158047Y-104593589D01*
X155994482Y-104523425D01*
X155837357Y-104459061D01*
X155690149Y-104401988D01*
X155649436Y-104386371D01*
X155597757Y-104365687D01*
X155548974Y-104345296D01*
X155507147Y-104326902D01*
X155476335Y-104312211D01*
X155411878Y-104275985D01*
X155346268Y-104230248D01*
X155294309Y-104182787D01*
X155256787Y-104134340D01*
X155234487Y-104085641D01*
X155231397Y-104074694D01*
X155228042Y-104056826D01*
X155228461Y-104039028D01*
X155233036Y-104016197D01*
X155242149Y-103983229D01*
X155254908Y-103933857D01*
X155274134Y-103824694D01*
X155284482Y-103704808D01*
X155285962Y-103575935D01*
X155285623Y-103569685D01*
X155599039Y-103569685D01*
X155599049Y-103582356D01*
X155604280Y-103605166D01*
X155613535Y-103634282D01*
X155625616Y-103665869D01*
X155639326Y-103696091D01*
X155656092Y-103727286D01*
X155691450Y-103780254D01*
X155735221Y-103830434D01*
X155790737Y-103881918D01*
X155845060Y-103925783D01*
X155921621Y-103978131D01*
X156001387Y-104021008D01*
X156087439Y-104055798D01*
X156182855Y-104083887D01*
X156290717Y-104106657D01*
X156303085Y-104108420D01*
X156335818Y-104111467D01*
X156379833Y-104114348D01*
X156432104Y-104116975D01*
X156489609Y-104119258D01*
X156549323Y-104121111D01*
X156608221Y-104122444D01*
X156663279Y-104123170D01*
X156711474Y-104123199D01*
X156749780Y-104122443D01*
X156775175Y-104120814D01*
X156815314Y-104115853D01*
X156923079Y-104099141D01*
X157018314Y-104078425D01*
X157103439Y-104052765D01*
X157180876Y-104021223D01*
X157253046Y-103982860D01*
X157322368Y-103936738D01*
X157391264Y-103881918D01*
X157422897Y-103853713D01*
X157471658Y-103803442D01*
X157510472Y-103752265D01*
X157542675Y-103696091D01*
X157544925Y-103691511D01*
X157558456Y-103660814D01*
X157570166Y-103629365D01*
X157578858Y-103600999D01*
X157583335Y-103579551D01*
X157582400Y-103568856D01*
X157582032Y-103568675D01*
X157572233Y-103571345D01*
X157552740Y-103580006D01*
X157527321Y-103593004D01*
X157524764Y-103594376D01*
X157498678Y-103607741D01*
X157478018Y-103617252D01*
X157467060Y-103620927D01*
X157463951Y-103617175D01*
X157459804Y-103598769D01*
X157456148Y-103565770D01*
X157453095Y-103519013D01*
X157450502Y-103474756D01*
X157435766Y-103323103D01*
X157412263Y-103181641D01*
X157379557Y-103047585D01*
X157369399Y-103015293D01*
X157346648Y-102955845D01*
X157319238Y-102895815D01*
X157289228Y-102839248D01*
X157258677Y-102790196D01*
X157229642Y-102752705D01*
X157187564Y-102706403D01*
X157186763Y-102885493D01*
X157186134Y-102947733D01*
X157184234Y-103016150D01*
X157180851Y-103076739D01*
X157175714Y-103134068D01*
X157168553Y-103192705D01*
X157158582Y-103261214D01*
X157145730Y-103339164D01*
X157131729Y-103415048D01*
X157117032Y-103486892D01*
X157102088Y-103552721D01*
X157087349Y-103610561D01*
X157073267Y-103658436D01*
X157060293Y-103694372D01*
X157048878Y-103716394D01*
X157047256Y-103718426D01*
X157027299Y-103733905D01*
X156993338Y-103751221D01*
X156946953Y-103769734D01*
X156889721Y-103788806D01*
X156823220Y-103807796D01*
X156802266Y-103813281D01*
X156771105Y-103820793D01*
X156743557Y-103826013D01*
X156715699Y-103829354D01*
X156683604Y-103831229D01*
X156643346Y-103832051D01*
X156591000Y-103832233D01*
X156559362Y-103832183D01*
X156514408Y-103831685D01*
X156479299Y-103830312D01*
X156450106Y-103827649D01*
X156422906Y-103823285D01*
X156393773Y-103816805D01*
X156358781Y-103807796D01*
X156348733Y-103805102D01*
X156283465Y-103786060D01*
X156227691Y-103767030D01*
X156182991Y-103748649D01*
X156150942Y-103731557D01*
X156133123Y-103716394D01*
X156123204Y-103697868D01*
X156110397Y-103663536D01*
X156096427Y-103617022D01*
X156081745Y-103560301D01*
X156066802Y-103495348D01*
X156052050Y-103424137D01*
X156037939Y-103348643D01*
X156024921Y-103270840D01*
X156013448Y-103192705D01*
X156007640Y-103146356D01*
X156002093Y-103089131D01*
X155998357Y-103029624D01*
X155996162Y-102963267D01*
X155995238Y-102885493D01*
X155994437Y-102706403D01*
X155952359Y-102752705D01*
X155935996Y-102772578D01*
X155905840Y-102817200D01*
X155875347Y-102871061D01*
X155846579Y-102930111D01*
X155821591Y-102990302D01*
X155802444Y-103047585D01*
X155792422Y-103084196D01*
X155762314Y-103220028D01*
X155741286Y-103364038D01*
X155728906Y-103519013D01*
X155726854Y-103552922D01*
X155723370Y-103590208D01*
X155719360Y-103613156D01*
X155714941Y-103620927D01*
X155714444Y-103620885D01*
X155702401Y-103616581D01*
X155681054Y-103606627D01*
X155654680Y-103593004D01*
X155651131Y-103591105D01*
X155626276Y-103578583D01*
X155607844Y-103570616D01*
X155599601Y-103568856D01*
X155599039Y-103569685D01*
X155285623Y-103569685D01*
X155278584Y-103439812D01*
X155262358Y-103298179D01*
X155237294Y-103152770D01*
X155222379Y-103082305D01*
X155180815Y-102914279D01*
X155129693Y-102741590D01*
X155068486Y-102562657D01*
X154996671Y-102375903D01*
X154913721Y-102179747D01*
X154906743Y-102163787D01*
X154859724Y-102049082D01*
X154817534Y-101932223D01*
X154779358Y-101810440D01*
X154744382Y-101680966D01*
X154711792Y-101541031D01*
X154680773Y-101387868D01*
X154669082Y-101323360D01*
X154655801Y-101244472D01*
X154648216Y-101196687D01*
X155195609Y-101196687D01*
X155195881Y-101245451D01*
X155197058Y-101297614D01*
X155199073Y-101350118D01*
X155201860Y-101399904D01*
X155205353Y-101443912D01*
X155209485Y-101479085D01*
X155216117Y-101520524D01*
X155251060Y-101680837D01*
X155299872Y-101833814D01*
X155363009Y-101980728D01*
X155440929Y-102122853D01*
X155441818Y-102124308D01*
X155464743Y-102160574D01*
X155489619Y-102197918D01*
X155514682Y-102233913D01*
X155538163Y-102266132D01*
X155558298Y-102292150D01*
X155573318Y-102309540D01*
X155581459Y-102315876D01*
X155582760Y-102310282D01*
X155584439Y-102290402D01*
X155586206Y-102257872D01*
X155587989Y-102214509D01*
X155589713Y-102162133D01*
X155591306Y-102102561D01*
X155592694Y-102037613D01*
X155595010Y-101931342D01*
X155597892Y-101828653D01*
X155601229Y-101733190D01*
X155604952Y-101646418D01*
X155608990Y-101569801D01*
X155613274Y-101504806D01*
X155617734Y-101452896D01*
X155622300Y-101415537D01*
X155623340Y-101409119D01*
X155630335Y-101380152D01*
X155642035Y-101357974D01*
X155662323Y-101334746D01*
X155672419Y-101325086D01*
X155714464Y-101292421D01*
X155769623Y-101257927D01*
X155835895Y-101222464D01*
X155911277Y-101186891D01*
X155993768Y-101152067D01*
X156081366Y-101118853D01*
X156172068Y-101088107D01*
X156263872Y-101060689D01*
X156354777Y-101037459D01*
X156359159Y-101036445D01*
X156396356Y-101028280D01*
X156428519Y-101022491D01*
X156459855Y-101018681D01*
X156494575Y-101016452D01*
X156536887Y-101015406D01*
X156591000Y-101015145D01*
X156597379Y-101015148D01*
X156650052Y-101015472D01*
X156691366Y-101016624D01*
X156725532Y-101019001D01*
X156756757Y-101023001D01*
X156789251Y-101029021D01*
X156827224Y-101037459D01*
X156855305Y-101044190D01*
X156946704Y-101068816D01*
X157038380Y-101097362D01*
X157128331Y-101128968D01*
X157214553Y-101162776D01*
X157295046Y-101197925D01*
X157367807Y-101233556D01*
X157430834Y-101268809D01*
X157482125Y-101302826D01*
X157519678Y-101334746D01*
X157524061Y-101339274D01*
X157542548Y-101361746D01*
X157553134Y-101384554D01*
X157559701Y-101415537D01*
X157564178Y-101452016D01*
X157568641Y-101503654D01*
X157572929Y-101568406D01*
X157576973Y-101644807D01*
X157580702Y-101731393D01*
X157584047Y-101826700D01*
X157586939Y-101929261D01*
X157589307Y-102037613D01*
X157590471Y-102093093D01*
X157592038Y-102153589D01*
X157593747Y-102207163D01*
X157595526Y-102251998D01*
X157597300Y-102286273D01*
X157598997Y-102308172D01*
X157600542Y-102315876D01*
X157600721Y-102315864D01*
X157609185Y-102309018D01*
X157624454Y-102291219D01*
X157644764Y-102264894D01*
X157668347Y-102232468D01*
X157693437Y-102196369D01*
X157718267Y-102159021D01*
X157741072Y-102122853D01*
X157761995Y-102087646D01*
X157836171Y-101944442D01*
X157895678Y-101796129D01*
X157940974Y-101641435D01*
X157972516Y-101479085D01*
X157973001Y-101475734D01*
X157977066Y-101439437D01*
X157980484Y-101394641D01*
X157983189Y-101344405D01*
X157985115Y-101291789D01*
X157986196Y-101239851D01*
X157986364Y-101191649D01*
X157985554Y-101150243D01*
X157983700Y-101118691D01*
X157980734Y-101100052D01*
X157975106Y-101082318D01*
X157945679Y-101105472D01*
X157918967Y-101124507D01*
X157884629Y-101144294D01*
X157853151Y-101157793D01*
X157829050Y-101162786D01*
X157821234Y-101161184D01*
X157799346Y-101154105D01*
X157766663Y-101142164D01*
X157725455Y-101126226D01*
X157677991Y-101107151D01*
X157626540Y-101085804D01*
X157596416Y-101073135D01*
X157447605Y-101011292D01*
X157312288Y-100956407D01*
X157189794Y-100908254D01*
X157079452Y-100866609D01*
X156980592Y-100831246D01*
X156892543Y-100801941D01*
X156814635Y-100778469D01*
X156746197Y-100760604D01*
X156686559Y-100748122D01*
X156635051Y-100740798D01*
X156591000Y-100738406D01*
X156583103Y-100738493D01*
X156537675Y-100741813D01*
X156484659Y-100750108D01*
X156423387Y-100763605D01*
X156353185Y-100782527D01*
X156273385Y-100807100D01*
X156183316Y-100837549D01*
X156082307Y-100874099D01*
X155969687Y-100916974D01*
X155844787Y-100966400D01*
X155706935Y-101022602D01*
X155555461Y-101085804D01*
X155517981Y-101101420D01*
X155469183Y-101121211D01*
X155426012Y-101138107D01*
X155390737Y-101151243D01*
X155365626Y-101159757D01*
X155352951Y-101162786D01*
X155334218Y-101159489D01*
X155303812Y-101147459D01*
X155269675Y-101128713D01*
X155236322Y-101105472D01*
X155206895Y-101082318D01*
X155201267Y-101100052D01*
X155200883Y-101101380D01*
X155198044Y-101121593D01*
X155196308Y-101154382D01*
X155195609Y-101196687D01*
X154648216Y-101196687D01*
X154642152Y-101158489D01*
X154628692Y-101069215D01*
X154615981Y-100980456D01*
X154604576Y-100896016D01*
X154595037Y-100819701D01*
X154587922Y-100755316D01*
X154578000Y-100656137D01*
X154512895Y-100575146D01*
X154487504Y-100543361D01*
X154421892Y-100458860D01*
X154367004Y-100384028D01*
X154322230Y-100317802D01*
X154286961Y-100259117D01*
X154260589Y-100206910D01*
X154242505Y-100160117D01*
X154232101Y-100117674D01*
X154228768Y-100078518D01*
X154228896Y-100074641D01*
X154232356Y-100048827D01*
X154240105Y-100010372D01*
X154251561Y-99961370D01*
X154266138Y-99903917D01*
X154283252Y-99840110D01*
X154302319Y-99772043D01*
X154322754Y-99701812D01*
X154343973Y-99631512D01*
X154365392Y-99563240D01*
X154386426Y-99499091D01*
X154406492Y-99441160D01*
X154433536Y-99373369D01*
X154473907Y-99295557D01*
X154519098Y-99232852D01*
X154569338Y-99185090D01*
X154624854Y-99152109D01*
X154685874Y-99133744D01*
X154752624Y-99129832D01*
X154825332Y-99140209D01*
X154849872Y-99146975D01*
X154902296Y-99166458D01*
X154960870Y-99193378D01*
X155021737Y-99225758D01*
X155081041Y-99261620D01*
X155134925Y-99298986D01*
X155165525Y-99322650D01*
X155205121Y-99354778D01*
X155247228Y-99390247D01*
X155290199Y-99427545D01*
X155332388Y-99465162D01*
X155372152Y-99501588D01*
X155407843Y-99535311D01*
X155437815Y-99564821D01*
X155460424Y-99588608D01*
X155474024Y-99605160D01*
X155476969Y-99612968D01*
X155476837Y-99613057D01*
X155467740Y-99610843D01*
X155447450Y-99602660D01*
X155418850Y-99589748D01*
X155384826Y-99573346D01*
X155358949Y-99560901D01*
X155276660Y-99525673D01*
X155190906Y-99494791D01*
X155105031Y-99469182D01*
X155022380Y-99449774D01*
X154946298Y-99437496D01*
X154880127Y-99433275D01*
X154871602Y-99433316D01*
X154834840Y-99434598D01*
X154811911Y-99438449D01*
X154801020Y-99445938D01*
X154800371Y-99458134D01*
X154808170Y-99476104D01*
X154819098Y-99493501D01*
X154845177Y-99527286D01*
X154882289Y-99569854D01*
X154929609Y-99620410D01*
X154986311Y-99678158D01*
X155051569Y-99742302D01*
X155124558Y-99812044D01*
X155204450Y-99886590D01*
X155290421Y-99965143D01*
X155381645Y-100046906D01*
X155477295Y-100131084D01*
X155576546Y-100216880D01*
X155581761Y-100221362D01*
X155610001Y-100246142D01*
X155632490Y-100266733D01*
X155647059Y-100281100D01*
X155651534Y-100287205D01*
X155650916Y-100287621D01*
X155638365Y-100287821D01*
X155612911Y-100283602D01*
X155576562Y-100275524D01*
X155531329Y-100264145D01*
X155479219Y-100250023D01*
X155422243Y-100233716D01*
X155362410Y-100215783D01*
X155301729Y-100196781D01*
X155242208Y-100177270D01*
X155185858Y-100157808D01*
X155149130Y-100144358D01*
X155098515Y-100125032D01*
X155042493Y-100102996D01*
X154983975Y-100079448D01*
X154925875Y-100055586D01*
X154871102Y-100032608D01*
X154822570Y-100011710D01*
X154783191Y-99994092D01*
X154755875Y-99980950D01*
X154732967Y-99969104D01*
X154738115Y-100003414D01*
X154739845Y-100013921D01*
X154761005Y-100089567D01*
X154797733Y-100167744D01*
X154849860Y-100248184D01*
X154917215Y-100330619D01*
X154999628Y-100414782D01*
X155004741Y-100419584D01*
X155052061Y-100461600D01*
X155102665Y-100502767D01*
X155154405Y-100541654D01*
X155205131Y-100576827D01*
X155252697Y-100606854D01*
X155294953Y-100630302D01*
X155329751Y-100645738D01*
X155354942Y-100651730D01*
X155355997Y-100651707D01*
X155370896Y-100649282D01*
X155399141Y-100643266D01*
X155438909Y-100634122D01*
X155488374Y-100622311D01*
X155545712Y-100608295D01*
X155609099Y-100592536D01*
X155676710Y-100575498D01*
X155746722Y-100557641D01*
X155817310Y-100539428D01*
X155886650Y-100521321D01*
X155952917Y-100503781D01*
X156014286Y-100487272D01*
X156068935Y-100472256D01*
X156115038Y-100459193D01*
X156117143Y-100458584D01*
X156187967Y-100437455D01*
X156253410Y-100416775D01*
X156311445Y-100397249D01*
X156360046Y-100379584D01*
X156397186Y-100364485D01*
X156420840Y-100352659D01*
X156424317Y-100350508D01*
X156436972Y-100341204D01*
X156443708Y-100330405D01*
X156446385Y-100313273D01*
X156446864Y-100284967D01*
X156446344Y-100264123D01*
X156436758Y-100186652D01*
X156415923Y-100104133D01*
X156384929Y-100020270D01*
X156344868Y-99938764D01*
X156311995Y-99885043D01*
X156269927Y-99826095D01*
X156223523Y-99769119D01*
X156174772Y-99716134D01*
X156125663Y-99669161D01*
X156078187Y-99630223D01*
X156034333Y-99601339D01*
X155996091Y-99584530D01*
X155985051Y-99582016D01*
X155945792Y-99583076D01*
X155906445Y-99598291D01*
X155869355Y-99626458D01*
X155836866Y-99666371D01*
X155825381Y-99682594D01*
X155812607Y-99696794D01*
X155804878Y-99700552D01*
X155804380Y-99700202D01*
X155795753Y-99688769D01*
X155782986Y-99666062D01*
X155767683Y-99635420D01*
X155751446Y-99600179D01*
X155735878Y-99563674D01*
X155722581Y-99529243D01*
X155721179Y-99525300D01*
X155711283Y-99495368D01*
X155700266Y-99459196D01*
X155688952Y-99419866D01*
X155678168Y-99380456D01*
X155668737Y-99344049D01*
X155661485Y-99313725D01*
X155657237Y-99292563D01*
X155656817Y-99283645D01*
X155656976Y-99283591D01*
X155666373Y-99286009D01*
X155688618Y-99293310D01*
X155721766Y-99304810D01*
X155763872Y-99319825D01*
X155812991Y-99337671D01*
X155867178Y-99357662D01*
X155884265Y-99364001D01*
X156004079Y-99407815D01*
X156115401Y-99447399D01*
X156217446Y-99482504D01*
X156309430Y-99512885D01*
X156390569Y-99538296D01*
X156460080Y-99558488D01*
X156517178Y-99573217D01*
X156561080Y-99582235D01*
X156591000Y-99585296D01*
X156594255Y-99585237D01*
X156626144Y-99581343D01*
X156671905Y-99571526D01*
X156730756Y-99556032D01*
X156801912Y-99535107D01*
X156884588Y-99508999D01*
X156978001Y-99477954D01*
X157081368Y-99442218D01*
X157193903Y-99402039D01*
X157314823Y-99357662D01*
X157320475Y-99355563D01*
X157374238Y-99335758D01*
X157422737Y-99318167D01*
X157464026Y-99303477D01*
X157496160Y-99292370D01*
X157517195Y-99285531D01*
X157525184Y-99283645D01*
X157525406Y-99284112D01*
X157524328Y-99295162D01*
X157519552Y-99317970D01*
X157511902Y-99349457D01*
X157502204Y-99386541D01*
X157491281Y-99426143D01*
X157479960Y-99465180D01*
X157469065Y-99500574D01*
X157459420Y-99529243D01*
X157458402Y-99532049D01*
X157444846Y-99566791D01*
X157429157Y-99603318D01*
X157412937Y-99638294D01*
X157397790Y-99668383D01*
X157385318Y-99690248D01*
X157377123Y-99700552D01*
X157371618Y-99698620D01*
X157359679Y-99686414D01*
X157345135Y-99666371D01*
X157336320Y-99653651D01*
X157302254Y-99617022D01*
X157264268Y-99592489D01*
X157224705Y-99581257D01*
X157185910Y-99584530D01*
X157185828Y-99584554D01*
X157148251Y-99601147D01*
X157104952Y-99629746D01*
X157057920Y-99668326D01*
X157009143Y-99714865D01*
X156960610Y-99767338D01*
X156914311Y-99823721D01*
X156872235Y-99881992D01*
X156836370Y-99940127D01*
X156823087Y-99964872D01*
X156786303Y-100046446D01*
X156758631Y-100129551D01*
X156741198Y-100210341D01*
X156735137Y-100284967D01*
X156735146Y-100291885D01*
X156735923Y-100317518D01*
X156739277Y-100332965D01*
X156747070Y-100343066D01*
X156761161Y-100352659D01*
X156761801Y-100353047D01*
X156785962Y-100364988D01*
X156823475Y-100380162D01*
X156872265Y-100397846D01*
X156930252Y-100417316D01*
X156995361Y-100437848D01*
X157065512Y-100458717D01*
X157079743Y-100462792D01*
X157126088Y-100475716D01*
X157180868Y-100490590D01*
X157242243Y-100506949D01*
X157308375Y-100524327D01*
X157377423Y-100542257D01*
X157447547Y-100560274D01*
X157516909Y-100577911D01*
X157583668Y-100594702D01*
X157645986Y-100610181D01*
X157702023Y-100623881D01*
X157749938Y-100635337D01*
X157787893Y-100644082D01*
X157814049Y-100649651D01*
X157826564Y-100651577D01*
X157830764Y-100651300D01*
X157857295Y-100643828D01*
X157893045Y-100627220D01*
X157935894Y-100602889D01*
X157983719Y-100572245D01*
X158034401Y-100536701D01*
X158085819Y-100497668D01*
X158135850Y-100456558D01*
X158182373Y-100414782D01*
X158194970Y-100402752D01*
X158275258Y-100318817D01*
X158340464Y-100236649D01*
X158390417Y-100156514D01*
X158424948Y-100078680D01*
X158443886Y-100003414D01*
X158449034Y-99969104D01*
X158426126Y-99980950D01*
X158403450Y-99991941D01*
X158365733Y-100008935D01*
X158318495Y-100029370D01*
X158264658Y-100052040D01*
X158207148Y-100075744D01*
X158148889Y-100099276D01*
X158092803Y-100121434D01*
X158041816Y-100141014D01*
X157998852Y-100156813D01*
X157996419Y-100157677D01*
X157937502Y-100177995D01*
X157876084Y-100198134D01*
X157814130Y-100217548D01*
X157753604Y-100235690D01*
X157696471Y-100252013D01*
X157644696Y-100265971D01*
X157600244Y-100277016D01*
X157565078Y-100284601D01*
X157541164Y-100288180D01*
X157530467Y-100287205D01*
X157530422Y-100286838D01*
X157536766Y-100279185D01*
X157552834Y-100263616D01*
X157576454Y-100242169D01*
X157605455Y-100216880D01*
X157672630Y-100158980D01*
X157769548Y-100074186D01*
X157862309Y-99991546D01*
X157950087Y-99911856D01*
X158032057Y-99835914D01*
X158107392Y-99764514D01*
X158175267Y-99698453D01*
X158234855Y-99638528D01*
X158285332Y-99585534D01*
X158325871Y-99540268D01*
X158355646Y-99503526D01*
X158373831Y-99476104D01*
X158375843Y-99472268D01*
X158382203Y-99455455D01*
X158379781Y-99444218D01*
X158366783Y-99437488D01*
X158341412Y-99434196D01*
X158301874Y-99433275D01*
X158281296Y-99433722D01*
X158211478Y-99440710D01*
X158132853Y-99455448D01*
X158048766Y-99477010D01*
X157962561Y-99504465D01*
X157877583Y-99536887D01*
X157797175Y-99573346D01*
X157794920Y-99574463D01*
X157761153Y-99590680D01*
X157732993Y-99603330D01*
X157713324Y-99611173D01*
X157705032Y-99612968D01*
X157704724Y-99612161D01*
X157710310Y-99602336D01*
X157726729Y-99583407D01*
X157752890Y-99556469D01*
X157787703Y-99522615D01*
X157830075Y-99482940D01*
X157878917Y-99438539D01*
X157977310Y-99354514D01*
X158075157Y-99280450D01*
X158167118Y-99221191D01*
X158253260Y-99176717D01*
X158333650Y-99147009D01*
X158408356Y-99132049D01*
X158477445Y-99131817D01*
X158540984Y-99146295D01*
X158599040Y-99175462D01*
X158651680Y-99219300D01*
X158663472Y-99231939D01*
X158690926Y-99266749D01*
X158716387Y-99307955D01*
X158741062Y-99357899D01*
X158766158Y-99418922D01*
X158792880Y-99493366D01*
X158793866Y-99496263D01*
X158814059Y-99557249D01*
X158834928Y-99623149D01*
X158855848Y-99691726D01*
X158876192Y-99760740D01*
X158895333Y-99827954D01*
X158912647Y-99891131D01*
X158927505Y-99948031D01*
X158939283Y-99996418D01*
X158947353Y-100034053D01*
X158951090Y-100058698D01*
X158951576Y-100066287D01*
X158950682Y-100104244D01*
X158943822Y-100143864D01*
X158930334Y-100186364D01*
X158909557Y-100232960D01*
X158880829Y-100284867D01*
X158843491Y-100343302D01*
X158796881Y-100409482D01*
X158740337Y-100484622D01*
X158673198Y-100569938D01*
X158603187Y-100657443D01*
X158597633Y-100719935D01*
X158594387Y-100754133D01*
X158584945Y-100839527D01*
X158572853Y-100935119D01*
X158558666Y-101037161D01*
X158542938Y-101141905D01*
X158534919Y-101191649D01*
X158526221Y-101245602D01*
G37*
G36*
X162830896Y-98282688D02*
G01*
X162862047Y-98308052D01*
X162893584Y-98334307D01*
X162918591Y-98355772D01*
X162935064Y-98370724D01*
X162941000Y-98377438D01*
X162939149Y-98380418D01*
X162925548Y-98390076D01*
X162900895Y-98403743D01*
X162867770Y-98420239D01*
X162828751Y-98438380D01*
X162786417Y-98456987D01*
X162743345Y-98474876D01*
X162702116Y-98490867D01*
X162665306Y-98503778D01*
X162622784Y-98516682D01*
X162565703Y-98532198D01*
X162507085Y-98546590D01*
X162454559Y-98557898D01*
X162440491Y-98560634D01*
X162402518Y-98568067D01*
X162371663Y-98574175D01*
X162350793Y-98578389D01*
X162342778Y-98580138D01*
X162344036Y-98586466D01*
X162349078Y-98605903D01*
X162357300Y-98636032D01*
X162368032Y-98674397D01*
X162380603Y-98718544D01*
X162419183Y-98863888D01*
X162469736Y-99103489D01*
X162505630Y-99347785D01*
X162526769Y-99595481D01*
X162533059Y-99845282D01*
X162524404Y-100095891D01*
X162500708Y-100346015D01*
X162473212Y-100530565D01*
X162425276Y-100768919D01*
X162363833Y-101007087D01*
X162289786Y-101241990D01*
X162204035Y-101470548D01*
X162107482Y-101689683D01*
X162098808Y-101707710D01*
X162076100Y-101753525D01*
X162052092Y-101800342D01*
X162027987Y-101845970D01*
X162004990Y-101888217D01*
X161984306Y-101924891D01*
X161967139Y-101953801D01*
X161954694Y-101972754D01*
X161948175Y-101979558D01*
X161944827Y-101976823D01*
X161933769Y-101963413D01*
X161917433Y-101941358D01*
X161897978Y-101913496D01*
X161842326Y-101836292D01*
X161776043Y-101752381D01*
X161703484Y-101667302D01*
X161628043Y-101585186D01*
X161607262Y-101563591D01*
X161579053Y-101534798D01*
X161555948Y-101511842D01*
X161539907Y-101496660D01*
X161532893Y-101491192D01*
X161530121Y-101493825D01*
X161520915Y-101507803D01*
X161507475Y-101531106D01*
X161491631Y-101560651D01*
X161455929Y-101625313D01*
X161393670Y-101725209D01*
X161321386Y-101828972D01*
X161241193Y-101933869D01*
X161155212Y-102037165D01*
X161065560Y-102136129D01*
X160974357Y-102228026D01*
X160955539Y-102245567D01*
X160921704Y-102275962D01*
X160880088Y-102312462D01*
X160833327Y-102352781D01*
X160784058Y-102394632D01*
X160734916Y-102435730D01*
X160661709Y-102497939D01*
X160567695Y-102581858D01*
X160472924Y-102670578D01*
X160379366Y-102762080D01*
X160288987Y-102854347D01*
X160203756Y-102945361D01*
X160125640Y-103033103D01*
X160056609Y-103115557D01*
X159998630Y-103190703D01*
X159992053Y-103199576D01*
X159974031Y-103222643D01*
X159960062Y-103238718D01*
X159952734Y-103244754D01*
X159951839Y-103244624D01*
X159942054Y-103235919D01*
X159928056Y-103215559D01*
X159911457Y-103186353D01*
X159893868Y-103151107D01*
X159876901Y-103112629D01*
X159868310Y-103089982D01*
X159852442Y-103040620D01*
X159835973Y-102981056D01*
X159819865Y-102914872D01*
X159805083Y-102845649D01*
X159802671Y-102837229D01*
X159797440Y-102831930D01*
X159787765Y-102833013D01*
X159771568Y-102841300D01*
X159746767Y-102857615D01*
X159711284Y-102882781D01*
X159649685Y-102930373D01*
X159569725Y-103002296D01*
X159496563Y-103079819D01*
X159433115Y-103159787D01*
X159382294Y-103239044D01*
X159348369Y-103305766D01*
X159304251Y-103420655D01*
X159274578Y-103541630D01*
X159259413Y-103668048D01*
X159258818Y-103799267D01*
X159272855Y-103934644D01*
X159301586Y-104073537D01*
X159314734Y-104120671D01*
X159334246Y-104182094D01*
X159356287Y-104244571D01*
X159379304Y-104303941D01*
X159401748Y-104356045D01*
X159422066Y-104396722D01*
X159428539Y-104409259D01*
X159436090Y-104428240D01*
X159437126Y-104438795D01*
X159436794Y-104439228D01*
X159427256Y-104447123D01*
X159407337Y-104461618D01*
X159379726Y-104480800D01*
X159347112Y-104502759D01*
X159292018Y-104537262D01*
X159205418Y-104585458D01*
X159112591Y-104631235D01*
X159019148Y-104671875D01*
X158930699Y-104704655D01*
X158824085Y-104740088D01*
X158753395Y-104851061D01*
X158627151Y-105036805D01*
X158476729Y-105231361D01*
X158313732Y-105416947D01*
X158138942Y-105592870D01*
X157953142Y-105758436D01*
X157757115Y-105912951D01*
X157551643Y-106055721D01*
X157337509Y-106186052D01*
X157115496Y-106303249D01*
X156980493Y-106366639D01*
X156828043Y-106431239D01*
X156684885Y-106483944D01*
X156657975Y-106492864D01*
X156627391Y-106502567D01*
X156604829Y-106509208D01*
X156593846Y-106511703D01*
X156590070Y-106511527D01*
X156567035Y-106506856D01*
X156532046Y-106496451D01*
X156487142Y-106481118D01*
X156434362Y-106461662D01*
X156375746Y-106438888D01*
X156313333Y-106413602D01*
X156249163Y-106386609D01*
X156185275Y-106358715D01*
X156123709Y-106330725D01*
X156066505Y-106303445D01*
X155865647Y-106197977D01*
X155649984Y-106068339D01*
X155443135Y-105926323D01*
X155245841Y-105772586D01*
X155058842Y-105607784D01*
X154882878Y-105432574D01*
X154718691Y-105247612D01*
X154567020Y-105053556D01*
X154428606Y-104851061D01*
X154357916Y-104740088D01*
X154251302Y-104704655D01*
X154188682Y-104682085D01*
X154096085Y-104643398D01*
X154002514Y-104598801D01*
X153913578Y-104551015D01*
X153834889Y-104502759D01*
X153830562Y-104499882D01*
X153798435Y-104478170D01*
X153771652Y-104459477D01*
X153752902Y-104445715D01*
X153744875Y-104438795D01*
X153744555Y-104434143D01*
X153749518Y-104418165D01*
X153759935Y-104396722D01*
X153776581Y-104363936D01*
X153798770Y-104313493D01*
X153821800Y-104255072D01*
X153844117Y-104192831D01*
X153864173Y-104130933D01*
X153880415Y-104073537D01*
X153902248Y-103977214D01*
X153916595Y-103882541D01*
X153922954Y-103787470D01*
X153922056Y-103685170D01*
X153917691Y-103621400D01*
X153897789Y-103496847D01*
X153863127Y-103378444D01*
X153813770Y-103266308D01*
X153749785Y-103160557D01*
X153671237Y-103061307D01*
X153578192Y-102968676D01*
X153470717Y-102882781D01*
X153441050Y-102861662D01*
X153414393Y-102843739D01*
X153396731Y-102834000D01*
X153385984Y-102831621D01*
X153380073Y-102835779D01*
X153376918Y-102845649D01*
X153368516Y-102886171D01*
X153352844Y-102954058D01*
X153336409Y-103016818D01*
X153320173Y-103070869D01*
X153305100Y-103112629D01*
X153302943Y-103117818D01*
X153285801Y-103156029D01*
X153268250Y-103190635D01*
X153251904Y-103218830D01*
X153238372Y-103237805D01*
X153229267Y-103244754D01*
X153227686Y-103244020D01*
X153217815Y-103234237D01*
X153202180Y-103215448D01*
X153183371Y-103190703D01*
X153138028Y-103131353D01*
X153071066Y-103050210D01*
X152994623Y-102963371D01*
X152910668Y-102872854D01*
X152821168Y-102780677D01*
X152728091Y-102688858D01*
X152633407Y-102599415D01*
X152539082Y-102514367D01*
X152447085Y-102435730D01*
X152410022Y-102404797D01*
X152360540Y-102362918D01*
X152312926Y-102322015D01*
X152269815Y-102284374D01*
X152233842Y-102252283D01*
X152207644Y-102228026D01*
X152145226Y-102166095D01*
X152054854Y-102069071D01*
X151967482Y-101966849D01*
X151885230Y-101862163D01*
X151810214Y-101757746D01*
X151744555Y-101656331D01*
X151690370Y-101560651D01*
X151680403Y-101541840D01*
X151665827Y-101515785D01*
X151654785Y-101497875D01*
X151649108Y-101491192D01*
X151645502Y-101493688D01*
X151632223Y-101505879D01*
X151611231Y-101526484D01*
X151584489Y-101553566D01*
X151553958Y-101585186D01*
X151479925Y-101665712D01*
X151407280Y-101750773D01*
X151340847Y-101834744D01*
X151284023Y-101913496D01*
X151271026Y-101932273D01*
X151253372Y-101956649D01*
X151240253Y-101973358D01*
X151233826Y-101979558D01*
X151231941Y-101978373D01*
X151222841Y-101966310D01*
X151208309Y-101943000D01*
X151189551Y-101910634D01*
X151167771Y-101871404D01*
X151144173Y-101827503D01*
X151119962Y-101781121D01*
X151096342Y-101734450D01*
X151074519Y-101689683D01*
X150998118Y-101519212D01*
X150909936Y-101292445D01*
X150833261Y-101058663D01*
X150768995Y-100820944D01*
X150718039Y-100582368D01*
X150681293Y-100346015D01*
X150666879Y-100214082D01*
X150650949Y-99960462D01*
X150650425Y-99707427D01*
X150665235Y-99455960D01*
X150695306Y-99207039D01*
X150740567Y-98961646D01*
X150800945Y-98720762D01*
X150812951Y-98678326D01*
X150823838Y-98639208D01*
X150832280Y-98608173D01*
X150837616Y-98587658D01*
X150839182Y-98580097D01*
X150838075Y-98579818D01*
X150825366Y-98577178D01*
X150800778Y-98572265D01*
X150767181Y-98565649D01*
X150727442Y-98557898D01*
X150682188Y-98548261D01*
X150623927Y-98534157D01*
X150566219Y-98518676D01*
X150516695Y-98503778D01*
X150498807Y-98497712D01*
X150459442Y-98483097D01*
X150416959Y-98465999D01*
X150373938Y-98447600D01*
X150332956Y-98429081D01*
X150296593Y-98411623D01*
X150267427Y-98396409D01*
X150248037Y-98384620D01*
X150241000Y-98377438D01*
X150245515Y-98372110D01*
X150260721Y-98358140D01*
X150284724Y-98337431D01*
X150315519Y-98311705D01*
X150351105Y-98282688D01*
X150419557Y-98226904D01*
X150522695Y-98139930D01*
X151282172Y-98139930D01*
X151459148Y-98142088D01*
X151636125Y-98144245D01*
X151632034Y-98162107D01*
X151630387Y-98168901D01*
X151624991Y-98190479D01*
X151616624Y-98223602D01*
X151605889Y-98265888D01*
X151593390Y-98314957D01*
X151579729Y-98368426D01*
X151531655Y-98567920D01*
X151472831Y-98857510D01*
X151428408Y-99141978D01*
X151398274Y-99422210D01*
X151382320Y-99699097D01*
X151380435Y-99973527D01*
X151380859Y-99994406D01*
X151383029Y-100071643D01*
X151385997Y-100145238D01*
X151389637Y-100213816D01*
X151393821Y-100276004D01*
X151398422Y-100330426D01*
X151403315Y-100375708D01*
X151408372Y-100410477D01*
X151413467Y-100433357D01*
X151418472Y-100442974D01*
X151423262Y-100437954D01*
X151424431Y-100435379D01*
X151432008Y-100420552D01*
X151445219Y-100395551D01*
X151462628Y-100363080D01*
X151482797Y-100325848D01*
X151523607Y-100252103D01*
X151624945Y-100079644D01*
X151726113Y-99922668D01*
X151826945Y-99781438D01*
X151844765Y-99758404D01*
X151873127Y-99723418D01*
X151903218Y-99687840D01*
X151933076Y-99653848D01*
X151960738Y-99623619D01*
X151984243Y-99599332D01*
X152001627Y-99583162D01*
X152010928Y-99577288D01*
X152014319Y-99581911D01*
X152018875Y-99598623D01*
X152022676Y-99623332D01*
X152027744Y-99664245D01*
X152049528Y-99794159D01*
X152080115Y-99930213D01*
X152118291Y-100067886D01*
X152162841Y-100202655D01*
X152212548Y-100330000D01*
X152237177Y-100386379D01*
X152333730Y-100582059D01*
X152443835Y-100769306D01*
X152567364Y-100947988D01*
X152704189Y-101117973D01*
X152854182Y-101279132D01*
X153017214Y-101431332D01*
X153193157Y-101574444D01*
X153381882Y-101708335D01*
X153583262Y-101832875D01*
X153797167Y-101947933D01*
X153818698Y-101958631D01*
X153855363Y-101976427D01*
X153885852Y-101990681D01*
X153907469Y-102000148D01*
X153917517Y-102003581D01*
X153922269Y-101998376D01*
X153923688Y-101980932D01*
X153921683Y-101949530D01*
X153921085Y-101943604D01*
X153912345Y-101886257D01*
X153897577Y-101817812D01*
X153877608Y-101741245D01*
X153853264Y-101659532D01*
X153825373Y-101575651D01*
X153794761Y-101492576D01*
X153783980Y-101463662D01*
X153774198Y-101434610D01*
X153768475Y-101413940D01*
X153767804Y-101404878D01*
X153769090Y-101404446D01*
X153781469Y-101407240D01*
X153803239Y-101415691D01*
X153830674Y-101428406D01*
X153870992Y-101450232D01*
X153952501Y-101505194D01*
X154033363Y-101573598D01*
X154112019Y-101653785D01*
X154186912Y-101744095D01*
X154256483Y-101842871D01*
X154319174Y-101948453D01*
X154342417Y-101993183D01*
X154396965Y-102113672D01*
X154446823Y-102246523D01*
X154491247Y-102389434D01*
X154529494Y-102540106D01*
X154560819Y-102696235D01*
X154563248Y-102710297D01*
X154586440Y-102865794D01*
X154603717Y-103026772D01*
X154615130Y-103194817D01*
X154620733Y-103371516D01*
X154620579Y-103558458D01*
X154614720Y-103757230D01*
X154603209Y-103969419D01*
X154601120Y-104001429D01*
X154641158Y-104011893D01*
X154683897Y-104018057D01*
X154740247Y-104017180D01*
X154805914Y-104008814D01*
X154821383Y-104006674D01*
X154832191Y-104009157D01*
X154839949Y-104020051D01*
X154848886Y-104042688D01*
X154849796Y-104045126D01*
X154867346Y-104086285D01*
X154891902Y-104136527D01*
X154921406Y-104192095D01*
X154953800Y-104249231D01*
X154987025Y-104304180D01*
X155019022Y-104353183D01*
X155030399Y-104369649D01*
X155097571Y-104461468D01*
X155168975Y-104549598D01*
X155247857Y-104637880D01*
X155337462Y-104730157D01*
X155387077Y-104778502D01*
X155529792Y-104907099D01*
X155682557Y-105029883D01*
X155846546Y-105147668D01*
X156022933Y-105261267D01*
X156212892Y-105371494D01*
X156417598Y-105479165D01*
X156438188Y-105489441D01*
X156483615Y-105511671D01*
X156523884Y-105530783D01*
X156556720Y-105545729D01*
X156579850Y-105555463D01*
X156591000Y-105558940D01*
X156596668Y-105557596D01*
X156616127Y-105549917D01*
X156646334Y-105536353D01*
X156685194Y-105517954D01*
X156730611Y-105495771D01*
X156780487Y-105470856D01*
X156832728Y-105444260D01*
X156885237Y-105417034D01*
X156935917Y-105390230D01*
X156982673Y-105364898D01*
X157023409Y-105342089D01*
X157171052Y-105254019D01*
X157353506Y-105134406D01*
X157524171Y-105009811D01*
X157682352Y-104880840D01*
X157827355Y-104748103D01*
X157958483Y-104612207D01*
X158075042Y-104473761D01*
X158176337Y-104333373D01*
X158190985Y-104310758D01*
X158221385Y-104261157D01*
X158251647Y-104208675D01*
X158280028Y-104156558D01*
X158304787Y-104108053D01*
X158324183Y-104066407D01*
X158336474Y-104034864D01*
X158346320Y-104004198D01*
X158387528Y-104010841D01*
X158405600Y-104013213D01*
X158442927Y-104015815D01*
X158482247Y-104016309D01*
X158519077Y-104014810D01*
X158548939Y-104011431D01*
X158567351Y-104006285D01*
X158579885Y-103994381D01*
X158580704Y-103975286D01*
X158580038Y-103970987D01*
X158577032Y-103942800D01*
X158574024Y-103901665D01*
X158571110Y-103850086D01*
X158568386Y-103790569D01*
X158565949Y-103725617D01*
X158563894Y-103657735D01*
X158562318Y-103589426D01*
X158561316Y-103523195D01*
X158560986Y-103461547D01*
X158561066Y-103434512D01*
X158567042Y-103207098D01*
X158582429Y-102990644D01*
X158607158Y-102785448D01*
X158641160Y-102591810D01*
X158684364Y-102410025D01*
X158736702Y-102240394D01*
X158798102Y-102083213D01*
X158868497Y-101938781D01*
X158947815Y-101807396D01*
X158950161Y-101803918D01*
X159002194Y-101733168D01*
X159061559Y-101662745D01*
X159124842Y-101596247D01*
X159188631Y-101537271D01*
X159249512Y-101489414D01*
X159259163Y-101482760D01*
X159290922Y-101462477D01*
X159324359Y-101443042D01*
X159356442Y-101426010D01*
X159384136Y-101412938D01*
X159404407Y-101405383D01*
X159414222Y-101404903D01*
X159413982Y-101411798D01*
X159408929Y-101430935D01*
X159399667Y-101458935D01*
X159387190Y-101492576D01*
X159368056Y-101543807D01*
X159346249Y-101607131D01*
X159325883Y-101671348D01*
X159307382Y-101734677D01*
X159291167Y-101795337D01*
X159277664Y-101851550D01*
X159267295Y-101901534D01*
X159260484Y-101943509D01*
X159257655Y-101975696D01*
X159259230Y-101996313D01*
X159265634Y-102003581D01*
X159269307Y-102002528D01*
X159285623Y-101995652D01*
X159312091Y-101983432D01*
X159346049Y-101967111D01*
X159384834Y-101947933D01*
X159437833Y-101920920D01*
X159649221Y-101803318D01*
X159847968Y-101676298D01*
X160033938Y-101539964D01*
X160206997Y-101394421D01*
X160367009Y-101239772D01*
X160513840Y-101076122D01*
X160559402Y-101020058D01*
X160676955Y-100860835D01*
X160783740Y-100694089D01*
X160879060Y-100521385D01*
X160962219Y-100344291D01*
X161032521Y-100164371D01*
X161089270Y-99983194D01*
X161131770Y-99802326D01*
X161159325Y-99623332D01*
X161162229Y-99603284D01*
X161166722Y-99584529D01*
X161171073Y-99577288D01*
X161176667Y-99580236D01*
X161191848Y-99593564D01*
X161213733Y-99615660D01*
X161240362Y-99644346D01*
X161269770Y-99677444D01*
X161299997Y-99712777D01*
X161329080Y-99748167D01*
X161355056Y-99781438D01*
X161395601Y-99836388D01*
X161496588Y-99983989D01*
X161597844Y-100147230D01*
X161699204Y-100325848D01*
X161708138Y-100342296D01*
X161727294Y-100377809D01*
X161743071Y-100407394D01*
X161754032Y-100428345D01*
X161758739Y-100437954D01*
X161760624Y-100442111D01*
X161765791Y-100443219D01*
X161770870Y-100430284D01*
X161775796Y-100404754D01*
X161780505Y-100368076D01*
X161784932Y-100321697D01*
X161789013Y-100267064D01*
X161792685Y-100205624D01*
X161795881Y-100138825D01*
X161798539Y-100068113D01*
X161800593Y-99994937D01*
X161801980Y-99920743D01*
X161802635Y-99846979D01*
X161802494Y-99775091D01*
X161801492Y-99706527D01*
X161799566Y-99642735D01*
X161796650Y-99585161D01*
X161796105Y-99576690D01*
X161769144Y-99274803D01*
X161727536Y-98970758D01*
X161671758Y-98667543D01*
X161602287Y-98368146D01*
X161593110Y-98332377D01*
X161580113Y-98281584D01*
X161568686Y-98236760D01*
X161559435Y-98200289D01*
X161552966Y-98174558D01*
X161549884Y-98161951D01*
X161545817Y-98143934D01*
X161724741Y-98143934D01*
X161903666Y-98143934D01*
X161871813Y-98117944D01*
X161854096Y-98103246D01*
X161786795Y-98043753D01*
X161711107Y-97971724D01*
X161627521Y-97887704D01*
X161536524Y-97792234D01*
X161438605Y-97685861D01*
X161334253Y-97569127D01*
X161223954Y-97442578D01*
X161108199Y-97306756D01*
X160987474Y-97162206D01*
X160862268Y-97009471D01*
X160733070Y-96849097D01*
X160707547Y-96817131D01*
X160636669Y-96728114D01*
X160575751Y-96651199D01*
X160524636Y-96586183D01*
X160483167Y-96532863D01*
X160451187Y-96491037D01*
X160428539Y-96460500D01*
X160415066Y-96441050D01*
X160410610Y-96432483D01*
X160410631Y-96432291D01*
X160417285Y-96424281D01*
X160434148Y-96408908D01*
X160458766Y-96388306D01*
X160488683Y-96364609D01*
X160607127Y-96265316D01*
X160730460Y-96144860D01*
X160851162Y-96009135D01*
X160968975Y-95858451D01*
X161083640Y-95693119D01*
X161194902Y-95513449D01*
X161216074Y-95476337D01*
X161248984Y-95415938D01*
X161285064Y-95347267D01*
X161322459Y-95274013D01*
X161359319Y-95199866D01*
X161393790Y-95128518D01*
X161424021Y-95063656D01*
X161448158Y-95008972D01*
X161455998Y-94990214D01*
X161471144Y-94953012D01*
X161487459Y-94911993D01*
X161503924Y-94869825D01*
X161519517Y-94829178D01*
X161533221Y-94792718D01*
X161544014Y-94763115D01*
X161550878Y-94743036D01*
X161552793Y-94735151D01*
X161545812Y-94736521D01*
X161526497Y-94742009D01*
X161497948Y-94750755D01*
X161463243Y-94761839D01*
X161458266Y-94763453D01*
X161338731Y-94799899D01*
X161204560Y-94836786D01*
X161057059Y-94873854D01*
X160897533Y-94910839D01*
X160727288Y-94947480D01*
X160547630Y-94983513D01*
X160359863Y-95018678D01*
X160165293Y-95052711D01*
X159965225Y-95085351D01*
X159760965Y-95116335D01*
X159553819Y-95145400D01*
X159546782Y-95146350D01*
X159499354Y-95152897D01*
X159457965Y-95158855D01*
X159425077Y-95163850D01*
X159403147Y-95167512D01*
X159394638Y-95169468D01*
X159396774Y-95174806D01*
X159406725Y-95190659D01*
X159423003Y-95214261D01*
X159443786Y-95242890D01*
X159455157Y-95258428D01*
X159482788Y-95297430D01*
X159514085Y-95342964D01*
X159547997Y-95393379D01*
X159583474Y-95447022D01*
X159619464Y-95502242D01*
X159654918Y-95557388D01*
X159688785Y-95610808D01*
X159720014Y-95660851D01*
X159747555Y-95705864D01*
X159770357Y-95744197D01*
X159787370Y-95774198D01*
X159797542Y-95794215D01*
X159799824Y-95802597D01*
X159795902Y-95802013D01*
X159779138Y-95796295D01*
X159751165Y-95785495D01*
X159714053Y-95770442D01*
X159669874Y-95751965D01*
X159620697Y-95730893D01*
X159585376Y-95715608D01*
X159468089Y-95665130D01*
X159349219Y-95614369D01*
X159230120Y-95563885D01*
X159112149Y-95514234D01*
X158996658Y-95465976D01*
X158885004Y-95419668D01*
X158778541Y-95375869D01*
X158678624Y-95335136D01*
X158586607Y-95298028D01*
X158503845Y-95265102D01*
X158431693Y-95236917D01*
X158371506Y-95214031D01*
X158324639Y-95197001D01*
X158324226Y-95196857D01*
X158291097Y-95185156D01*
X158248461Y-95169952D01*
X158201771Y-95153196D01*
X158156480Y-95136839D01*
X158076946Y-95108715D01*
X157993315Y-95081113D01*
X157922984Y-95060345D01*
X157866299Y-95046512D01*
X157823606Y-95039716D01*
X157819155Y-95039318D01*
X157798483Y-95038026D01*
X157780317Y-95038716D01*
X157761195Y-95042212D01*
X157737652Y-95049335D01*
X157706226Y-95060909D01*
X157663454Y-95077757D01*
X157632468Y-95090517D01*
X157575980Y-95115219D01*
X157512476Y-95144346D01*
X157445065Y-95176368D01*
X157376853Y-95209758D01*
X157310947Y-95242986D01*
X157250454Y-95274524D01*
X157198480Y-95302842D01*
X157158134Y-95326412D01*
X157143621Y-95335474D01*
X157083283Y-95375650D01*
X157033658Y-95413063D01*
X156996119Y-95446617D01*
X156972036Y-95475214D01*
X156970305Y-95478048D01*
X156959938Y-95499722D01*
X156947090Y-95532122D01*
X156933230Y-95571360D01*
X156919825Y-95613543D01*
X156907919Y-95654936D01*
X156894035Y-95706010D01*
X156879164Y-95762914D01*
X156864051Y-95822609D01*
X156849443Y-95882056D01*
X156836088Y-95938215D01*
X156824731Y-95988047D01*
X156816119Y-96028514D01*
X156810998Y-96056575D01*
X156805771Y-96091434D01*
X156832512Y-96088163D01*
X156841805Y-96086997D01*
X156950063Y-96068834D01*
X157052672Y-96043334D01*
X157148485Y-96011200D01*
X157236353Y-95973136D01*
X157315129Y-95929844D01*
X157383663Y-95882028D01*
X157440807Y-95830391D01*
X157485413Y-95775636D01*
X157516332Y-95718467D01*
X157532416Y-95659587D01*
X157537712Y-95621551D01*
X157618880Y-95621578D01*
X157717554Y-95624348D01*
X157867529Y-95637839D01*
X158020804Y-95661876D01*
X158172918Y-95695714D01*
X158319407Y-95738606D01*
X158351036Y-95749821D01*
X158412811Y-95774760D01*
X158479464Y-95804790D01*
X158546970Y-95837904D01*
X158611310Y-95872095D01*
X158668460Y-95905356D01*
X158714400Y-95935682D01*
X158721049Y-95940525D01*
X158753184Y-95964784D01*
X158786326Y-95990967D01*
X158818190Y-96017131D01*
X158846491Y-96041328D01*
X158868940Y-96061616D01*
X158883254Y-96076047D01*
X158887146Y-96082677D01*
X158884069Y-96082702D01*
X158867964Y-96080214D01*
X158840551Y-96074968D01*
X158804562Y-96067498D01*
X158762728Y-96058339D01*
X158693234Y-96043505D01*
X158601473Y-96025632D01*
X158505368Y-96008498D01*
X158409877Y-95992941D01*
X158319955Y-95979801D01*
X158240559Y-95969918D01*
X158203541Y-95966474D01*
X158149479Y-95962918D01*
X158090180Y-95960265D01*
X158029180Y-95958577D01*
X157970010Y-95957920D01*
X157916203Y-95958354D01*
X157871294Y-95959944D01*
X157838816Y-95962752D01*
X157826612Y-95964680D01*
X157809143Y-95970474D01*
X157796711Y-95982371D01*
X157783647Y-96004682D01*
X157779609Y-96011885D01*
X157762665Y-96038374D01*
X157740419Y-96069831D01*
X157716600Y-96100907D01*
X157711384Y-96107331D01*
X157637101Y-96186476D01*
X157548487Y-96260913D01*
X157446602Y-96330103D01*
X157332504Y-96393510D01*
X157207253Y-96450596D01*
X157071908Y-96500823D01*
X156927529Y-96543654D01*
X156775175Y-96578552D01*
X156762616Y-96581099D01*
X156733164Y-96587676D01*
X156711496Y-96593388D01*
X156701595Y-96597224D01*
X156699964Y-96601791D01*
X156695364Y-96620444D01*
X156688463Y-96651663D01*
X156679652Y-96693575D01*
X156669323Y-96744305D01*
X156657868Y-96801980D01*
X156645678Y-96864725D01*
X156637032Y-96909389D01*
X156625429Y-96968269D01*
X156614893Y-97020536D01*
X156605802Y-97064365D01*
X156598539Y-97097931D01*
X156593482Y-97119408D01*
X156591012Y-97126973D01*
X156589551Y-97123142D01*
X156585215Y-97105546D01*
X156578565Y-97075326D01*
X156569979Y-97034310D01*
X156559837Y-96984321D01*
X156548520Y-96927184D01*
X156536408Y-96864725D01*
X156527917Y-96820831D01*
X156516203Y-96761395D01*
X156505490Y-96708328D01*
X156496169Y-96663503D01*
X156488632Y-96628794D01*
X156483271Y-96606077D01*
X156480479Y-96597224D01*
X156478307Y-96596036D01*
X156463379Y-96591359D01*
X156438222Y-96585194D01*
X156406826Y-96578552D01*
X156394550Y-96576102D01*
X156242786Y-96540559D01*
X156099081Y-96497125D01*
X155964493Y-96446337D01*
X155840083Y-96388734D01*
X155726910Y-96324851D01*
X155626032Y-96255228D01*
X155538509Y-96180401D01*
X155465401Y-96100907D01*
X155456994Y-96090248D01*
X155433307Y-96058424D01*
X155412517Y-96028119D01*
X155398354Y-96004682D01*
X155391476Y-95992108D01*
X155379432Y-95975471D01*
X155365225Y-95967122D01*
X155343185Y-95962752D01*
X155318386Y-95960411D01*
X155275704Y-95958580D01*
X155223411Y-95957917D01*
X155165040Y-95958360D01*
X155104124Y-95959844D01*
X155044197Y-95962307D01*
X154988792Y-95965686D01*
X154941442Y-95969918D01*
X154876229Y-95977894D01*
X154787727Y-95990546D01*
X154692823Y-96005756D01*
X154596475Y-96022685D01*
X154503640Y-96040492D01*
X154419273Y-96058339D01*
X154394738Y-96063764D01*
X154355920Y-96072020D01*
X154324513Y-96078281D01*
X154303247Y-96082011D01*
X154294855Y-96082677D01*
X154294700Y-96081995D01*
X154301059Y-96073498D01*
X154317341Y-96057624D01*
X154341262Y-96036318D01*
X154370534Y-96011526D01*
X154402872Y-95985192D01*
X154435990Y-95959263D01*
X154467601Y-95935682D01*
X154492305Y-95918791D01*
X154545157Y-95886538D01*
X154606916Y-95852499D01*
X154673562Y-95818679D01*
X154741071Y-95787086D01*
X154805423Y-95759726D01*
X154862594Y-95738606D01*
X154962280Y-95708239D01*
X155113109Y-95671479D01*
X155266500Y-95644285D01*
X155417992Y-95627403D01*
X155563121Y-95621578D01*
X155644289Y-95621551D01*
X155649585Y-95659587D01*
X155650335Y-95664570D01*
X155667707Y-95723334D01*
X155699817Y-95780328D01*
X155745518Y-95834848D01*
X155803661Y-95886192D01*
X155873097Y-95933655D01*
X155952678Y-95976536D01*
X156041257Y-96014130D01*
X156137683Y-96045735D01*
X156240810Y-96070647D01*
X156349489Y-96088163D01*
X156376230Y-96091434D01*
X156371003Y-96056575D01*
X156366035Y-96029276D01*
X156357492Y-95989049D01*
X156346187Y-95939390D01*
X156332868Y-95883337D01*
X156318280Y-95823930D01*
X156303170Y-95764208D01*
X156288285Y-95707210D01*
X156274372Y-95655976D01*
X156262176Y-95613543D01*
X156260530Y-95608066D01*
X156243531Y-95554591D01*
X156227872Y-95513330D01*
X156211707Y-95481119D01*
X156193189Y-95454794D01*
X156170471Y-95431193D01*
X156141707Y-95407150D01*
X156112688Y-95385676D01*
X156054647Y-95347169D01*
X155985176Y-95305302D01*
X155906551Y-95261292D01*
X155821046Y-95216358D01*
X155730939Y-95171718D01*
X155638502Y-95128590D01*
X155546013Y-95088193D01*
X155541071Y-95086115D01*
X155498041Y-95068302D01*
X155465782Y-95055907D01*
X155440764Y-95047969D01*
X155419456Y-95043525D01*
X155398328Y-95041613D01*
X155373850Y-95041271D01*
X155359657Y-95041629D01*
X155332329Y-95044041D01*
X155301833Y-95049181D01*
X155266217Y-95057582D01*
X155223529Y-95069779D01*
X155171820Y-95086306D01*
X155109136Y-95107697D01*
X155033529Y-95134488D01*
X155025137Y-95137496D01*
X154978222Y-95154262D01*
X154931263Y-95170971D01*
X154889297Y-95185833D01*
X154857362Y-95197059D01*
X154843231Y-95202066D01*
X154792171Y-95220941D01*
X154728241Y-95245486D01*
X154652790Y-95275147D01*
X154567166Y-95309368D01*
X154472719Y-95347593D01*
X154370796Y-95389266D01*
X154262746Y-95433834D01*
X154149919Y-95480739D01*
X154033661Y-95529426D01*
X153915322Y-95579341D01*
X153796251Y-95629927D01*
X153677795Y-95680630D01*
X153561304Y-95730893D01*
X153528225Y-95745121D01*
X153482132Y-95764564D01*
X153442410Y-95780862D01*
X153411130Y-95793186D01*
X153390362Y-95800707D01*
X153382177Y-95802597D01*
X153382195Y-95800229D01*
X153388300Y-95786198D01*
X153401803Y-95761305D01*
X153421655Y-95727200D01*
X153446805Y-95685536D01*
X153476202Y-95637964D01*
X153508796Y-95586136D01*
X153543536Y-95531703D01*
X153579372Y-95476316D01*
X153615253Y-95421628D01*
X153650128Y-95369290D01*
X153682947Y-95320953D01*
X153712660Y-95278269D01*
X153738215Y-95242890D01*
X153755935Y-95218565D01*
X153773054Y-95193978D01*
X153784138Y-95176705D01*
X153787363Y-95169468D01*
X153787068Y-95169310D01*
X153776516Y-95167090D01*
X153752891Y-95163218D01*
X153718654Y-95158064D01*
X153676265Y-95152001D01*
X153628182Y-95145400D01*
X153618886Y-95144147D01*
X153411841Y-95114990D01*
X153207740Y-95083926D01*
X153007891Y-95051219D01*
X152813597Y-95017130D01*
X152626164Y-94981921D01*
X152446898Y-94945854D01*
X152277104Y-94909193D01*
X152118088Y-94872198D01*
X151971154Y-94835133D01*
X151837609Y-94798259D01*
X151718758Y-94761839D01*
X151686060Y-94751384D01*
X151657039Y-94742467D01*
X151637062Y-94736750D01*
X151629208Y-94735151D01*
X151629202Y-94735751D01*
X151632447Y-94746652D01*
X151640218Y-94769019D01*
X151651520Y-94800049D01*
X151665358Y-94836941D01*
X151738044Y-95016900D01*
X151823814Y-95205413D01*
X151916422Y-95386829D01*
X152015121Y-95560035D01*
X152119162Y-95723920D01*
X152227797Y-95877371D01*
X152340279Y-96019278D01*
X152455858Y-96148528D01*
X152573787Y-96264009D01*
X152693318Y-96364609D01*
X152695137Y-96366017D01*
X152724817Y-96389594D01*
X152749055Y-96409953D01*
X152765398Y-96424961D01*
X152771391Y-96432483D01*
X152768663Y-96437843D01*
X152756874Y-96455017D01*
X152736638Y-96482522D01*
X152708902Y-96519156D01*
X152674615Y-96563717D01*
X152634724Y-96615001D01*
X152590175Y-96671806D01*
X152541917Y-96732928D01*
X152490897Y-96797165D01*
X152438062Y-96863314D01*
X152384359Y-96930171D01*
X152330738Y-96996535D01*
X152278144Y-97061202D01*
X152227525Y-97122969D01*
X152182938Y-97176915D01*
X152087300Y-97291138D01*
X151992708Y-97402145D01*
X151900033Y-97508987D01*
X151810144Y-97610715D01*
X151723912Y-97706381D01*
X151642207Y-97795034D01*
X151565898Y-97875725D01*
X151495856Y-97947506D01*
X151432951Y-98009427D01*
X151378053Y-98060539D01*
X151332032Y-98099892D01*
X151282172Y-98139930D01*
X150522695Y-98139930D01*
X150582130Y-98089810D01*
X150742640Y-97948142D01*
X150899041Y-97803855D01*
X151049290Y-97658901D01*
X151191342Y-97515235D01*
X151323152Y-97374811D01*
X151442675Y-97239582D01*
X151499945Y-97171278D01*
X151607836Y-97035027D01*
X151704862Y-96901806D01*
X151789942Y-96773132D01*
X151861996Y-96650523D01*
X151875201Y-96626648D01*
X151895582Y-96589945D01*
X151910320Y-96560965D01*
X151919182Y-96536975D01*
X151921937Y-96515241D01*
X151918349Y-96493028D01*
X151908188Y-96467603D01*
X151891219Y-96436233D01*
X151867209Y-96396184D01*
X151835925Y-96344721D01*
X151804169Y-96291556D01*
X151678921Y-96072029D01*
X151563192Y-95852870D01*
X151457364Y-95635080D01*
X151361824Y-95419662D01*
X151276955Y-95207618D01*
X151203141Y-94999949D01*
X151140766Y-94797658D01*
X151090216Y-94601746D01*
X151051873Y-94413217D01*
X151026123Y-94233071D01*
X151023789Y-94210522D01*
X151021219Y-94180577D01*
X151020086Y-94159419D01*
X151020626Y-94150605D01*
X151023355Y-94150404D01*
X151038459Y-94153012D01*
X151063491Y-94158903D01*
X151094862Y-94167271D01*
X151215245Y-94199796D01*
X151458323Y-94258915D01*
X151714782Y-94313163D01*
X151983334Y-94362357D01*
X152262687Y-94406320D01*
X152551553Y-94444869D01*
X152848641Y-94477827D01*
X153152661Y-94505012D01*
X153462325Y-94526245D01*
X153776341Y-94541345D01*
X153783446Y-94541615D01*
X153866042Y-94544745D01*
X153935342Y-94547050D01*
X153993864Y-94548183D01*
X154044124Y-94547798D01*
X154088637Y-94545549D01*
X154129921Y-94541088D01*
X154170492Y-94534070D01*
X154212867Y-94524148D01*
X154259561Y-94510975D01*
X154313092Y-94494205D01*
X154375975Y-94473492D01*
X154450728Y-94448489D01*
X154467370Y-94442927D01*
X154591443Y-94401796D01*
X154701598Y-94365912D01*
X154798806Y-94334977D01*
X154884038Y-94308690D01*
X154958262Y-94286752D01*
X155022450Y-94268863D01*
X155077570Y-94254722D01*
X155085688Y-94252768D01*
X155127731Y-94243633D01*
X155162096Y-94238681D01*
X155195265Y-94237246D01*
X155233718Y-94238660D01*
X155252013Y-94240057D01*
X155320178Y-94249012D01*
X155401702Y-94264571D01*
X155495759Y-94286489D01*
X155601523Y-94314518D01*
X155718170Y-94348414D01*
X155844875Y-94387929D01*
X155980811Y-94432817D01*
X156125153Y-94482833D01*
X156277078Y-94537729D01*
X156435758Y-94597260D01*
X156439569Y-94598714D01*
X156484807Y-94615762D01*
X156525054Y-94630564D01*
X156557826Y-94642235D01*
X156580636Y-94649887D01*
X156591001Y-94652635D01*
X156591318Y-94652616D01*
X156602784Y-94649438D01*
X156626495Y-94641426D01*
X156659965Y-94629469D01*
X156700710Y-94614451D01*
X156746243Y-94597260D01*
X156796122Y-94578319D01*
X156952795Y-94520199D01*
X157102457Y-94466789D01*
X157244281Y-94418337D01*
X157377443Y-94375089D01*
X157501117Y-94337290D01*
X157614477Y-94305187D01*
X157716700Y-94279027D01*
X157806958Y-94259054D01*
X157884428Y-94245517D01*
X157948283Y-94238660D01*
X157955259Y-94238259D01*
X157992394Y-94237268D01*
X158025314Y-94239238D01*
X158060499Y-94244833D01*
X158104431Y-94254722D01*
X158110900Y-94256305D01*
X158167108Y-94270901D01*
X158232505Y-94289283D01*
X158308060Y-94311752D01*
X158394745Y-94338607D01*
X158493528Y-94370148D01*
X158605381Y-94406675D01*
X158731273Y-94448489D01*
X158737616Y-94450610D01*
X158811348Y-94475265D01*
X158873408Y-94495657D01*
X158926312Y-94512132D01*
X158972577Y-94525038D01*
X159014719Y-94534720D01*
X159055255Y-94541525D01*
X159096702Y-94545800D01*
X159141574Y-94547891D01*
X159192390Y-94548145D01*
X159251665Y-94546907D01*
X159321917Y-94544525D01*
X159405660Y-94541345D01*
X159568999Y-94534289D01*
X159880919Y-94515986D01*
X160187816Y-94491643D01*
X160488402Y-94461441D01*
X160781386Y-94425561D01*
X161065479Y-94384181D01*
X161339390Y-94337483D01*
X161601831Y-94285645D01*
X161851510Y-94228848D01*
X162087139Y-94167271D01*
X162103841Y-94162708D01*
X162132401Y-94155513D01*
X162152776Y-94151210D01*
X162161375Y-94150605D01*
X162161994Y-94152453D01*
X162162028Y-94167266D01*
X162159905Y-94194385D01*
X162155938Y-94231252D01*
X162150438Y-94275313D01*
X162143718Y-94324011D01*
X162136090Y-94374789D01*
X162127865Y-94425091D01*
X162110459Y-94517998D01*
X162068061Y-94701139D01*
X162013823Y-94892198D01*
X161948259Y-95089908D01*
X161871885Y-95293005D01*
X161785218Y-95500223D01*
X161688771Y-95710296D01*
X161583061Y-95921959D01*
X161468604Y-96133946D01*
X161345913Y-96344991D01*
X161250159Y-96503898D01*
X161267176Y-96545825D01*
X161279915Y-96573953D01*
X161301566Y-96616179D01*
X161328953Y-96665913D01*
X161360303Y-96720094D01*
X161393838Y-96775665D01*
X161427785Y-96829566D01*
X161460368Y-96878739D01*
X161533041Y-96980722D01*
X161637812Y-97116232D01*
X161755029Y-97256679D01*
X161883583Y-97400930D01*
X162022365Y-97547847D01*
X162170266Y-97696295D01*
X162326178Y-97845139D01*
X162488993Y-97993243D01*
X162657602Y-98139471D01*
X162663002Y-98143934D01*
X162830896Y-98282688D01*
G37*
G36*
X172593000Y-84598680D02*
G01*
X172742138Y-85007930D01*
X172874125Y-85370051D01*
X172965184Y-85619881D01*
X173172347Y-86188111D01*
X173359524Y-86701383D01*
X173522618Y-87148457D01*
X173657527Y-87518097D01*
X173760151Y-87799063D01*
X173826391Y-87980117D01*
X173852146Y-88050021D01*
X173852286Y-88054681D01*
X173785213Y-88080412D01*
X173623114Y-88098525D01*
X173396248Y-88105349D01*
X172918642Y-88105262D01*
X172585222Y-87144708D01*
X172251802Y-86184154D01*
X170774796Y-86166641D01*
X169297791Y-86149128D01*
X169180086Y-86427154D01*
X169131131Y-86548933D01*
X169038728Y-86792566D01*
X168929474Y-87091117D01*
X168817913Y-87405308D01*
X168573446Y-88105436D01*
X168085101Y-88105436D01*
X167978540Y-88104713D01*
X167758624Y-88093953D01*
X167646181Y-88068028D01*
X167624737Y-88024026D01*
X167635802Y-87993102D01*
X167687460Y-87850300D01*
X167689410Y-87844923D01*
X167957133Y-87844923D01*
X168174682Y-87844923D01*
X168194993Y-87844852D01*
X168335654Y-87839623D01*
X168394417Y-87828641D01*
X168396989Y-87820781D01*
X168432437Y-87719723D01*
X168506293Y-87511392D01*
X168614452Y-87207305D01*
X168752809Y-86818980D01*
X168917258Y-86357933D01*
X169103693Y-85835683D01*
X169299118Y-85288641D01*
X169579301Y-85288641D01*
X169582147Y-85307038D01*
X169638338Y-85332194D01*
X169770911Y-85350147D01*
X169993324Y-85361823D01*
X170319032Y-85368149D01*
X170761492Y-85370051D01*
X171972382Y-85370051D01*
X171852200Y-85060693D01*
X171838752Y-85025576D01*
X171769406Y-84838930D01*
X171667591Y-84559954D01*
X171541746Y-84211962D01*
X171400312Y-83818262D01*
X171251727Y-83402167D01*
X171185532Y-83217724D01*
X171049599Y-82848717D01*
X170929497Y-82535609D01*
X170831936Y-82295192D01*
X170763626Y-82144259D01*
X170731276Y-82099603D01*
X170723845Y-82112766D01*
X170678172Y-82223218D01*
X170594435Y-82444725D01*
X170471905Y-82779303D01*
X170309856Y-83228967D01*
X170107557Y-83795734D01*
X169864282Y-84481620D01*
X169579301Y-85288641D01*
X169299118Y-85288641D01*
X169308011Y-85263747D01*
X169526106Y-84653641D01*
X169622005Y-84385436D01*
X169857998Y-83724772D01*
X170054223Y-83173218D01*
X170213706Y-82720841D01*
X170339472Y-82357711D01*
X170434547Y-82073895D01*
X170501957Y-81859463D01*
X170544727Y-81704481D01*
X170565884Y-81599020D01*
X170568453Y-81533147D01*
X170555459Y-81496930D01*
X170529929Y-81480439D01*
X170494889Y-81473741D01*
X170383205Y-81468764D01*
X170297421Y-81489307D01*
X170292496Y-81498589D01*
X170249759Y-81603693D01*
X170168345Y-81815760D01*
X170052561Y-82123202D01*
X169906716Y-82514432D01*
X169735119Y-82977863D01*
X169542078Y-83501907D01*
X169331903Y-84074979D01*
X169108903Y-84685489D01*
X167957133Y-87844923D01*
X167689410Y-87844923D01*
X167777039Y-87603324D01*
X167900398Y-87263576D01*
X168053395Y-86842455D01*
X168231887Y-86351360D01*
X168431733Y-85801691D01*
X168648791Y-85204848D01*
X168878918Y-84572231D01*
X170105119Y-81201846D01*
X170730342Y-81202299D01*
X171355565Y-81202752D01*
X171475957Y-81533147D01*
X172593000Y-84598680D01*
G37*
G36*
X168703725Y-84780335D02*
G01*
X168702589Y-84783077D01*
X168631398Y-84832297D01*
X168458863Y-84934198D01*
X168196959Y-85082295D01*
X167857664Y-85270106D01*
X167452954Y-85491148D01*
X166994808Y-85738939D01*
X166495202Y-86006994D01*
X165966113Y-86288832D01*
X165419518Y-86577969D01*
X164867394Y-86867923D01*
X164321718Y-87152210D01*
X164307315Y-87159629D01*
X164165475Y-87227036D01*
X164083676Y-87256162D01*
X164057896Y-87237635D01*
X163982568Y-87139997D01*
X163886761Y-86992834D01*
X163794184Y-86835267D01*
X163768575Y-86784998D01*
X164004474Y-86784998D01*
X164049737Y-86913857D01*
X164057392Y-86927849D01*
X164092757Y-86979094D01*
X164141379Y-87000422D01*
X164223637Y-86985637D01*
X164359908Y-86928545D01*
X164570569Y-86822950D01*
X164876000Y-86662657D01*
X164923016Y-86637849D01*
X165347932Y-86413236D01*
X165796514Y-86175476D01*
X166253340Y-85932803D01*
X166702992Y-85693451D01*
X167130048Y-85465651D01*
X167519090Y-85257639D01*
X167854696Y-85077647D01*
X168121448Y-84933909D01*
X168303926Y-84834659D01*
X168386709Y-84788129D01*
X168401814Y-84762463D01*
X168397182Y-84691202D01*
X168361996Y-84566683D01*
X168291964Y-84378206D01*
X168182795Y-84115071D01*
X168030198Y-83766577D01*
X167829880Y-83322024D01*
X167577550Y-82770712D01*
X167371257Y-82323284D01*
X167162067Y-81873838D01*
X166994915Y-81522068D01*
X166863550Y-81256340D01*
X166761721Y-81065018D01*
X166683176Y-80936466D01*
X166621665Y-80859048D01*
X166570936Y-80821131D01*
X166524739Y-80811077D01*
X166428737Y-80821746D01*
X166373257Y-80857884D01*
X166377071Y-80871216D01*
X166420643Y-80982325D01*
X166507758Y-81191940D01*
X166632035Y-81485071D01*
X166787093Y-81846727D01*
X166966552Y-82261919D01*
X167164032Y-82715656D01*
X167243626Y-82898360D01*
X167433023Y-83336736D01*
X167600564Y-83729626D01*
X167740103Y-84062293D01*
X167845500Y-84319999D01*
X167910609Y-84488005D01*
X167929288Y-84551574D01*
X167900621Y-84568921D01*
X167770899Y-84641866D01*
X167549238Y-84764444D01*
X167249230Y-84929197D01*
X166884468Y-85128667D01*
X166468545Y-85355396D01*
X166015052Y-85601925D01*
X165719953Y-85762496D01*
X165284189Y-86000990D01*
X164892526Y-86217002D01*
X164559072Y-86402663D01*
X164297935Y-86550099D01*
X164123223Y-86651441D01*
X164049045Y-86698816D01*
X164004474Y-86784998D01*
X163768575Y-86784998D01*
X163728541Y-86706413D01*
X163713541Y-86645393D01*
X163723210Y-86639693D01*
X163822314Y-86584940D01*
X164016627Y-86478908D01*
X164291924Y-86329322D01*
X164633979Y-86143904D01*
X165028567Y-85930377D01*
X165461462Y-85696462D01*
X165580811Y-85631995D01*
X166023800Y-85392322D01*
X166437372Y-85167980D01*
X166804477Y-84968259D01*
X167108061Y-84802448D01*
X167331075Y-84679836D01*
X167456464Y-84609710D01*
X167725569Y-84454893D01*
X167090410Y-83007472D01*
X166992308Y-82783750D01*
X166802670Y-82350408D01*
X166623580Y-81940099D01*
X166465510Y-81576874D01*
X166338937Y-81284782D01*
X166254335Y-81087872D01*
X166053420Y-80615693D01*
X166425005Y-80617559D01*
X166796590Y-80619426D01*
X167740949Y-82675412D01*
X167926005Y-83078471D01*
X168133501Y-83530843D01*
X168318305Y-83934217D01*
X168474074Y-84274723D01*
X168594463Y-84538491D01*
X168673128Y-84711652D01*
X168695763Y-84762463D01*
X168703725Y-84780335D01*
G37*
%TD*%
M02*
