%TF.GenerationSoftware,KiCad,Pcbnew,9.0.5*%
%TF.CreationDate,2025-11-17T14:04:54-07:00*%
%TF.ProjectId,Target,54617267-6574-42e6-9b69-6361645f7063,B*%
%TF.SameCoordinates,Original*%
%TF.FileFunction,Soldermask,Bot*%
%TF.FilePolarity,Negative*%
%FSLAX46Y46*%
G04 Gerber Fmt 4.6, Leading zero omitted, Abs format (unit mm)*
G04 Created by KiCad (PCBNEW 9.0.5) date 2025-11-17 14:04:54*
%MOMM*%
%LPD*%
G01*
G04 APERTURE LIST*
G04 Aperture macros list*
%AMRoundRect*
0 Rectangle with rounded corners*
0 $1 Rounding radius*
0 $2 $3 $4 $5 $6 $7 $8 $9 X,Y pos of 4 corners*
0 Add a 4 corners polygon primitive as box body*
4,1,4,$2,$3,$4,$5,$6,$7,$8,$9,$2,$3,0*
0 Add four circle primitives for the rounded corners*
1,1,$1+$1,$2,$3*
1,1,$1+$1,$4,$5*
1,1,$1+$1,$6,$7*
1,1,$1+$1,$8,$9*
0 Add four rect primitives between the rounded corners*
20,1,$1+$1,$2,$3,$4,$5,0*
20,1,$1+$1,$4,$5,$6,$7,0*
20,1,$1+$1,$6,$7,$8,$9,0*
20,1,$1+$1,$8,$9,$2,$3,0*%
G04 Aperture macros list end*
%ADD10RoundRect,0.476250X-0.476250X0.476250X-0.476250X-0.476250X0.476250X-0.476250X0.476250X0.476250X0*%
%ADD11RoundRect,0.476250X-0.476250X-0.476250X0.476250X-0.476250X0.476250X0.476250X-0.476250X0.476250X0*%
%ADD12RoundRect,0.476250X0.476250X0.476250X-0.476250X0.476250X-0.476250X-0.476250X0.476250X-0.476250X0*%
%ADD13C,2.032000*%
%ADD14C,1.397000*%
%ADD15RoundRect,0.250000X0.550000X-0.550000X0.550000X0.550000X-0.550000X0.550000X-0.550000X-0.550000X0*%
%ADD16C,1.600000*%
%ADD17RoundRect,0.250000X0.337500X0.475000X-0.337500X0.475000X-0.337500X-0.475000X0.337500X-0.475000X0*%
%ADD18RoundRect,0.250000X-0.475000X0.337500X-0.475000X-0.337500X0.475000X-0.337500X0.475000X0.337500X0*%
%ADD19RoundRect,0.250000X-0.350000X-0.450000X0.350000X-0.450000X0.350000X0.450000X-0.350000X0.450000X0*%
%ADD20RoundRect,0.250000X0.475000X-0.337500X0.475000X0.337500X-0.475000X0.337500X-0.475000X-0.337500X0*%
%ADD21C,1.400000*%
%ADD22C,3.500000*%
%ADD23RoundRect,0.770000X0.980000X-0.980000X0.980000X0.980000X-0.980000X0.980000X-0.980000X-0.980000X0*%
%ADD24RoundRect,0.250000X-0.550000X-0.550000X0.550000X-0.550000X0.550000X0.550000X-0.550000X0.550000X0*%
%ADD25C,7.112000*%
%ADD26RoundRect,0.250000X0.450000X-0.350000X0.450000X0.350000X-0.450000X0.350000X-0.450000X-0.350000X0*%
G04 APERTURE END LIST*
D10*
%TO.C,J5*%
X182880000Y-92202000D03*
X182880000Y-94742000D03*
X182880000Y-97282000D03*
X182880000Y-99822000D03*
X182880000Y-102362000D03*
X182880000Y-104902000D03*
%TD*%
D11*
%TO.C,TP2*%
X159775000Y-85217000D03*
%TD*%
D12*
%TO.C,TP5*%
X123172782Y-109965272D03*
%TD*%
D13*
%TO.C,J7*%
X112522001Y-104895871D03*
D14*
X115550000Y-105759000D03*
X115550000Y-110599000D03*
D13*
X112522001Y-111452354D03*
%TD*%
D15*
%TO.C,C1*%
X142367000Y-93853000D03*
D16*
X142367000Y-91353000D03*
%TD*%
D15*
%TO.C,C2*%
X133096000Y-93853000D03*
D16*
X133096000Y-91353000D03*
%TD*%
D17*
%TO.C,C5*%
X122787500Y-78994000D03*
%TD*%
D18*
%TO.C,C12*%
X129540000Y-122449500D03*
%TD*%
%TO.C,C6*%
X153035000Y-107145000D03*
%TD*%
D11*
%TO.C,TP1*%
X156972000Y-85217000D03*
%TD*%
D19*
%TO.C,R1*%
X133112000Y-102235000D03*
%TD*%
D17*
%TO.C,C3*%
X122787500Y-75311000D03*
%TD*%
D11*
%TO.C,J3*%
X142240000Y-76962000D03*
X144780000Y-76962000D03*
X147320000Y-76962000D03*
X149860000Y-76962000D03*
X152400000Y-76962000D03*
X154940000Y-76962000D03*
%TD*%
D20*
%TO.C,C8*%
X125857000Y-122449500D03*
%TD*%
D11*
%TO.C,TP4*%
X142240000Y-99568000D03*
%TD*%
D21*
%TO.C,J1*%
X113538000Y-96852000D03*
X113538000Y-85852000D03*
D22*
X123538000Y-93852000D03*
D23*
X123538000Y-88852000D03*
%TD*%
D24*
%TO.C,C4*%
X129580000Y-79756000D03*
D16*
X132080000Y-79756000D03*
%TD*%
D11*
%TO.C,TP3*%
X142240000Y-103886000D03*
%TD*%
D18*
%TO.C,C13*%
X133223000Y-122449500D03*
%TD*%
D25*
%TO.C,*%
X181610000Y-118872000D03*
%TD*%
D10*
%TO.C,J2*%
X167894000Y-92202000D03*
X167894000Y-94742000D03*
X167894000Y-97282000D03*
X167894000Y-99822000D03*
X167894000Y-102362000D03*
X167894000Y-104902000D03*
%TD*%
D12*
%TO.C,TP6*%
X123172782Y-107171272D03*
%TD*%
D25*
%TO.C,REF\u002A\u002A*%
X181610000Y-78232000D03*
%TD*%
D18*
%TO.C,C11*%
X123190000Y-115718500D03*
%TD*%
D11*
%TO.C,J4*%
X142240000Y-120142000D03*
X144780000Y-120142000D03*
X147320000Y-120142000D03*
X149860000Y-120142000D03*
X152400000Y-120142000D03*
X154940000Y-120142000D03*
%TD*%
D17*
%TO.C,C7*%
X149563000Y-86741000D03*
%TD*%
D25*
%TO.C,*%
X115570000Y-118872000D03*
%TD*%
%TO.C,REF\u002A\u002A*%
X115570000Y-78232000D03*
%TD*%
D20*
%TO.C,C9*%
X119253000Y-100689500D03*
%TD*%
%TO.C,C10*%
X123190000Y-100689500D03*
%TD*%
D26*
%TO.C,R3*%
X167513000Y-75454000D03*
%TD*%
M02*
