M48
; DRILL file {KiCad 9.0.5} date 2025-11-17T14:04:48-0700
; FORMAT={-:-/ absolute / inch / decimal}
; #@! TF.CreationDate,2025-11-17T14:04:48-07:00
; #@! TF.GenerationSoftware,Kicad,Pcbnew,9.0.5
; #@! TF.FileFunction,Plated,1,2,PTH
FMAT,2
INCH
; #@! TA.AperFunction,Plated,PTH,ComponentDrill
T1C0.0200
; #@! TA.AperFunction,Plated,PTH,ComponentDrill
T2C0.0315
; #@! TA.AperFunction,Plated,PTH,ComponentDrill
T3C0.0350
; #@! TA.AperFunction,Plated,PTH,ComponentDrill
T4C0.0394
; #@! TA.AperFunction,Plated,PTH,ComponentDrill
T5C0.0472
; #@! TA.AperFunction,Plated,PTH,ComponentDrill
T6C0.0500
; #@! TA.AperFunction,Plated,PTH,ComponentDrill
T7C0.0748
; #@! TA.AperFunction,Plated,PTH,ComponentDrill
T8C0.1500
%
G90
G05
T1
X4.695Y-3.9642
X4.8342Y-2.965
X4.8342Y-3.11
X4.85Y-3.9642
X4.85Y-4.5558
X4.955Y-4.8208
X5.1Y-4.8208
X5.2406Y-4.025
X5.245Y-4.8208
X5.8883Y-3.415
X6.025Y-4.2183
X6.595Y-2.9706
T2
X5.1016Y-3.14
X5.2Y-3.14
X5.24Y-3.5966
X5.24Y-3.695
X5.605Y-3.5966
X5.605Y-3.695
T3
X4.5492Y-4.1637
X4.5492Y-4.3543
T4
X4.47Y-3.38
X4.47Y-3.8131
T5
X4.43Y-4.1298
X4.43Y-4.3879
T6
X4.8493Y-4.2193
X4.8493Y-4.3293
X5.6Y-3.03
X5.6Y-3.92
X5.6Y-4.09
X5.6Y-4.73
X5.7Y-3.03
X5.7Y-4.73
X5.8Y-3.03
X5.8Y-4.73
X5.9Y-3.03
X5.9Y-4.73
X6.0Y-3.03
X6.0Y-4.73
X6.1Y-3.03
X6.1Y-4.73
X6.18Y-3.355
X6.2904Y-3.355
X6.61Y-3.63
X6.61Y-3.73
X6.61Y-3.83
X6.61Y-3.93
X6.61Y-4.03
X6.61Y-4.13
X7.2Y-3.63
X7.2Y-3.73
X7.2Y-3.83
X7.2Y-3.93
X7.2Y-4.03
X7.2Y-4.13
T7
X4.8637Y-3.4981
X4.8637Y-3.695
T8
X4.55Y-3.08
X4.55Y-4.68
X7.15Y-3.08
X7.15Y-4.68
M30
