%TF.GenerationSoftware,KiCad,Pcbnew,9.0.5*%
%TF.CreationDate,2025-11-17T14:04:53-07:00*%
%TF.ProjectId,Target,54617267-6574-42e6-9b69-6361645f7063,B*%
%TF.SameCoordinates,Original*%
%TF.FileFunction,Copper,L1,Top*%
%TF.FilePolarity,Positive*%
%FSLAX46Y46*%
G04 Gerber Fmt 4.6, Leading zero omitted, Abs format (unit mm)*
G04 Created by KiCad (PCBNEW 9.0.5) date 2025-11-17 14:04:53*
%MOMM*%
%LPD*%
G01*
G04 APERTURE LIST*
G04 Aperture macros list*
%AMRoundRect*
0 Rectangle with rounded corners*
0 $1 Rounding radius*
0 $2 $3 $4 $5 $6 $7 $8 $9 X,Y pos of 4 corners*
0 Add a 4 corners polygon primitive as box body*
4,1,4,$2,$3,$4,$5,$6,$7,$8,$9,$2,$3,0*
0 Add four circle primitives for the rounded corners*
1,1,$1+$1,$2,$3*
1,1,$1+$1,$4,$5*
1,1,$1+$1,$6,$7*
1,1,$1+$1,$8,$9*
0 Add four rect primitives between the rounded corners*
20,1,$1+$1,$2,$3,$4,$5,0*
20,1,$1+$1,$4,$5,$6,$7,0*
20,1,$1+$1,$6,$7,$8,$9,0*
20,1,$1+$1,$8,$9,$2,$3,0*%
G04 Aperture macros list end*
%TA.AperFunction,ComponentPad*%
%ADD10RoundRect,0.476250X-0.476250X0.476250X-0.476250X-0.476250X0.476250X-0.476250X0.476250X0.476250X0*%
%TD*%
%TA.AperFunction,ComponentPad*%
%ADD11RoundRect,0.476250X-0.476250X-0.476250X0.476250X-0.476250X0.476250X0.476250X-0.476250X0.476250X0*%
%TD*%
%TA.AperFunction,ComponentPad*%
%ADD12RoundRect,0.476250X0.476250X0.476250X-0.476250X0.476250X-0.476250X-0.476250X0.476250X-0.476250X0*%
%TD*%
%TA.AperFunction,SMDPad,CuDef*%
%ADD13R,2.870000X0.400000*%
%TD*%
%TA.AperFunction,HeatsinkPad*%
%ADD14C,2.032000*%
%TD*%
%TA.AperFunction,SMDPad,CuDef*%
%ADD15R,0.700000X1.825000*%
%TD*%
%TA.AperFunction,SMDPad,CuDef*%
%ADD16R,1.500000X2.000000*%
%TD*%
%TA.AperFunction,SMDPad,CuDef*%
%ADD17R,2.000000X1.350000*%
%TD*%
%TA.AperFunction,HeatsinkPad*%
%ADD18C,1.397000*%
%TD*%
%TA.AperFunction,SMDPad,CuDef*%
%ADD19R,2.500000X1.430000*%
%TD*%
%TA.AperFunction,SMDPad,CuDef*%
%ADD20RoundRect,0.250000X-0.350000X-0.450000X0.350000X-0.450000X0.350000X0.450000X-0.350000X0.450000X0*%
%TD*%
%TA.AperFunction,ComponentPad*%
%ADD21RoundRect,0.250000X0.550000X-0.550000X0.550000X0.550000X-0.550000X0.550000X-0.550000X-0.550000X0*%
%TD*%
%TA.AperFunction,ComponentPad*%
%ADD22C,1.600000*%
%TD*%
%TA.AperFunction,SMDPad,CuDef*%
%ADD23R,0.380000X1.900000*%
%TD*%
%TA.AperFunction,SMDPad,CuDef*%
%ADD24RoundRect,0.250000X0.450000X-0.350000X0.450000X0.350000X-0.450000X0.350000X-0.450000X-0.350000X0*%
%TD*%
%TA.AperFunction,SMDPad,CuDef*%
%ADD25RoundRect,0.250000X0.337500X0.475000X-0.337500X0.475000X-0.337500X-0.475000X0.337500X-0.475000X0*%
%TD*%
%TA.AperFunction,ComponentPad*%
%ADD26RoundRect,0.250000X0.337500X0.475000X-0.337500X0.475000X-0.337500X-0.475000X0.337500X-0.475000X0*%
%TD*%
%TA.AperFunction,SMDPad,CuDef*%
%ADD27RoundRect,0.250000X-0.475000X0.337500X-0.475000X-0.337500X0.475000X-0.337500X0.475000X0.337500X0*%
%TD*%
%TA.AperFunction,ComponentPad*%
%ADD28RoundRect,0.250000X-0.475000X0.337500X-0.475000X-0.337500X0.475000X-0.337500X0.475000X0.337500X0*%
%TD*%
%TA.AperFunction,ComponentPad*%
%ADD29RoundRect,0.250000X-0.350000X-0.450000X0.350000X-0.450000X0.350000X0.450000X-0.350000X0.450000X0*%
%TD*%
%TA.AperFunction,SMDPad,CuDef*%
%ADD30RoundRect,0.250000X-0.325000X-0.450000X0.325000X-0.450000X0.325000X0.450000X-0.325000X0.450000X0*%
%TD*%
%TA.AperFunction,ComponentPad*%
%ADD31RoundRect,0.250000X0.475000X-0.337500X0.475000X0.337500X-0.475000X0.337500X-0.475000X-0.337500X0*%
%TD*%
%TA.AperFunction,SMDPad,CuDef*%
%ADD32RoundRect,0.250000X0.475000X-0.337500X0.475000X0.337500X-0.475000X0.337500X-0.475000X-0.337500X0*%
%TD*%
%TA.AperFunction,ComponentPad*%
%ADD33C,1.400000*%
%TD*%
%TA.AperFunction,ComponentPad*%
%ADD34C,3.500000*%
%TD*%
%TA.AperFunction,ComponentPad*%
%ADD35RoundRect,0.770000X0.980000X-0.980000X0.980000X0.980000X-0.980000X0.980000X-0.980000X-0.980000X0*%
%TD*%
%TA.AperFunction,ComponentPad*%
%ADD36RoundRect,0.250000X-0.550000X-0.550000X0.550000X-0.550000X0.550000X0.550000X-0.550000X0.550000X0*%
%TD*%
%TA.AperFunction,SMDPad,CuDef*%
%ADD37RoundRect,0.250000X0.325000X0.450000X-0.325000X0.450000X-0.325000X-0.450000X0.325000X-0.450000X0*%
%TD*%
%TA.AperFunction,ComponentPad*%
%ADD38C,7.112000*%
%TD*%
%TA.AperFunction,SMDPad,CuDef*%
%ADD39RoundRect,0.250000X0.350000X0.450000X-0.350000X0.450000X-0.350000X-0.450000X0.350000X-0.450000X0*%
%TD*%
%TA.AperFunction,ComponentPad*%
%ADD40RoundRect,0.250000X0.450000X-0.350000X0.450000X0.350000X-0.450000X0.350000X-0.450000X-0.350000X0*%
%TD*%
%TA.AperFunction,Conductor*%
%ADD41C,0.381000*%
%TD*%
%TA.AperFunction,Conductor*%
%ADD42C,0.889000*%
%TD*%
G04 APERTURE END LIST*
D10*
%TO.P,J5,1*%
%TO.N,+5V*%
X182880000Y-92202000D03*
%TO.P,J5,2*%
X182880000Y-94742000D03*
%TO.P,J5,3*%
%TO.N,/Master/SCL*%
X182880000Y-97282000D03*
%TO.P,J5,4*%
%TO.N,/Master/SDA*%
X182880000Y-99822000D03*
%TO.P,J5,5*%
%TO.N,GND*%
X182880000Y-102362000D03*
%TO.P,J5,6*%
X182880000Y-104902000D03*
%TD*%
D11*
%TO.P,TP2,1*%
%TO.N,/Master/SDA*%
X159775000Y-85217000D03*
%TD*%
D12*
%TO.P,TP5,1*%
%TO.N,Net-(J7-D+)*%
X123172782Y-109965272D03*
%TD*%
D13*
%TO.P,J7,1,VBUS*%
%TO.N,Net-(J7-VBUS)*%
X116040000Y-106879000D03*
%TO.P,J7,2,D-*%
%TO.N,Net-(J7-D-)*%
X116040000Y-107529000D03*
%TO.P,J7,3,D+*%
%TO.N,Net-(J7-D+)*%
X116040000Y-108179000D03*
%TO.P,J7,4,ID*%
%TO.N,unconnected-(J7-ID-Pad4)*%
X116040000Y-108829000D03*
%TO.P,J7,5,GND*%
%TO.N,GND*%
X116040000Y-109479000D03*
D14*
%TO.P,J7,6,Shield*%
X112522001Y-104895871D03*
D15*
X114230000Y-105229000D03*
D16*
X115530000Y-105329000D03*
D17*
X113480000Y-105449000D03*
D18*
X115550000Y-105759000D03*
D19*
X112280000Y-107219000D03*
X112280000Y-109139000D03*
D18*
X115550000Y-110599000D03*
D17*
X113480000Y-110929000D03*
D16*
X115550000Y-111079000D03*
D15*
X114230000Y-111179000D03*
D14*
X112522001Y-111452354D03*
%TD*%
D20*
%TO.P,R6,1*%
%TO.N,Net-(U2-CBUS1)*%
X141748000Y-109220000D03*
%TO.P,R6,2*%
%TO.N,Net-(D4-K)*%
X143748000Y-109220000D03*
%TD*%
D21*
%TO.P,C1,1*%
%TO.N,+5V*%
X142367000Y-93853000D03*
D22*
%TO.P,C1,2*%
%TO.N,GND*%
X142367000Y-91353000D03*
%TD*%
D23*
%TO.P,U2,1,TXD*%
%TO.N,RX*%
X136047781Y-108144896D03*
%TO.P,U2,2,DTR*%
%TO.N,unconnected-(U2-DTR-Pad2)*%
X135397781Y-108144896D03*
%TO.P,U2,3,RTS*%
%TO.N,unconnected-(U2-RTS-Pad3)*%
X134747781Y-108144896D03*
%TO.P,U2,4,VCCIO*%
%TO.N,unconnected-(U2-VCCIO-Pad4)*%
X134097781Y-108144896D03*
%TO.P,U2,5,RXD*%
%TO.N,TX*%
X133447781Y-108144896D03*
%TO.P,U2,6,RI*%
%TO.N,unconnected-(U2-RI-Pad6)*%
X132797781Y-108144896D03*
%TO.P,U2,7,GND*%
%TO.N,GND*%
X132147781Y-108144896D03*
%TO.P,U2,8*%
%TO.N,N/C*%
X131497781Y-108144896D03*
%TO.P,U2,9,DCR*%
%TO.N,unconnected-(U2-DCR-Pad9)*%
X130847781Y-108144896D03*
%TO.P,U2,10,DCD*%
%TO.N,unconnected-(U2-DCD-Pad10)*%
X130197781Y-108144896D03*
%TO.P,U2,11,CTS*%
%TO.N,unconnected-(U2-CTS-Pad11)*%
X129547781Y-108144896D03*
%TO.P,U2,12,CBUS4*%
%TO.N,unconnected-(U2-CBUS4-Pad12)*%
X128897781Y-108144896D03*
%TO.P,U2,13,CBUS2*%
%TO.N,unconnected-(U2-CBUS2-Pad13)*%
X128247781Y-108144896D03*
%TO.P,U2,14,CBUS3*%
%TO.N,Net-(U2-CBUS3)*%
X127597781Y-108144896D03*
%TO.P,U2,15,USBD+*%
%TO.N,Net-(J7-D+)*%
X127597781Y-116344894D03*
%TO.P,U2,16,USBD-*%
%TO.N,Net-(J7-D-)*%
X128247781Y-116344894D03*
%TO.P,U2,17,3V3OUT*%
%TO.N,Net-(U2-3V3OUT)*%
X128897781Y-116344894D03*
%TO.P,U2,18,GND*%
%TO.N,GND*%
X129547781Y-116344894D03*
%TO.P,U2,19,~{RESET}*%
%TO.N,unconnected-(U2-~{RESET}-Pad19)*%
X130197781Y-116344894D03*
%TO.P,U2,20,VCC*%
%TO.N,+5V*%
X130847781Y-116344894D03*
%TO.P,U2,21,GND*%
%TO.N,GND*%
X131497781Y-116344894D03*
%TO.P,U2,22,CBUS1*%
%TO.N,Net-(U2-CBUS1)*%
X132147781Y-116344894D03*
%TO.P,U2,23,CBUS0*%
%TO.N,Net-(U2-CBUS0)*%
X132797781Y-116344894D03*
%TO.P,U2,24*%
%TO.N,N/C*%
X133447781Y-116344894D03*
%TO.P,U2,25,AGND*%
%TO.N,GND*%
X134097781Y-116344894D03*
%TO.P,U2,26,TEST*%
X134747781Y-116344894D03*
%TO.P,U2,27,OSCI*%
%TO.N,unconnected-(U2-OSCI-Pad27)*%
X135397781Y-116344894D03*
%TO.P,U2,28,OSCO*%
%TO.N,unconnected-(U2-OSCO-Pad28)*%
X136047781Y-116344894D03*
%TD*%
D24*
%TO.P,R4,1*%
%TO.N,+5V*%
X163449000Y-77454000D03*
%TO.P,R4,2*%
%TO.N,/Master/SDA*%
X163449000Y-75454000D03*
%TD*%
D21*
%TO.P,C2,1*%
%TO.N,+5V*%
X133096000Y-93853000D03*
D22*
%TO.P,C2,2*%
%TO.N,GND*%
X133096000Y-91353000D03*
%TD*%
D23*
%TO.P,U1,1,RE3/~{MCLR}/Vpp*%
%TO.N,Net-(D2-K)*%
X157641000Y-94706001D03*
%TO.P,U1,2,ULPWU/C12IN0-/AN0/RA0*%
%TO.N,unconnected-(U1-ULPWU{slash}C12IN0-{slash}AN0{slash}RA0-Pad2)*%
X156991000Y-94706001D03*
%TO.P,U1,3,C12IN1-/AN1/RA1*%
%TO.N,unconnected-(U1-C12IN1-{slash}AN1{slash}RA1-Pad3)*%
X156341000Y-94706001D03*
%TO.P,U1,4,CVref/C2IN1+/Vref-/AN2/RA2*%
%TO.N,unconnected-(U1-CVref{slash}C2IN1+{slash}Vref-{slash}AN2{slash}RA2-Pad4)*%
X155691000Y-94706001D03*
%TO.P,U1,5,C1IN+/Vref+/AN3/RA3*%
%TO.N,unconnected-(U1-C1IN+{slash}Vref+{slash}AN3{slash}RA3-Pad5)*%
X155041000Y-94706001D03*
%TO.P,U1,6,T0CKI/C1OUT/RA4*%
%TO.N,unconnected-(U1-T0CKI{slash}C1OUT{slash}RA4-Pad6)*%
X154391000Y-94706001D03*
%TO.P,U1,7,~{SS}/C2OUT/AN4/RA5*%
%TO.N,unconnected-(U1-~{SS}{slash}C2OUT{slash}AN4{slash}RA5-Pad7)*%
X153741000Y-94706001D03*
%TO.P,U1,8,VSS*%
%TO.N,GND*%
X153091000Y-94706001D03*
%TO.P,U1,9,CLKIN/OSC1/RA7*%
%TO.N,unconnected-(U1-CLKIN{slash}OSC1{slash}RA7-Pad9)*%
X152441000Y-94706001D03*
%TO.P,U1,10,CLKOUT/OSC2/RA6*%
%TO.N,unconnected-(U1-CLKOUT{slash}OSC2{slash}RA6-Pad10)*%
X151791000Y-94706001D03*
%TO.P,U1,11,RC0/T1OSO/T1CK1*%
%TO.N,unconnected-(U1-RC0{slash}T1OSO{slash}T1CK1-Pad11)*%
X151141000Y-94706001D03*
%TO.P,U1,12,RC1/T1OSI/CCP2*%
%TO.N,unconnected-(U1-RC1{slash}T1OSI{slash}CCP2-Pad12)*%
X150491000Y-94706001D03*
%TO.P,U1,13,RC2/P1A/CCP1*%
%TO.N,unconnected-(U1-RC2{slash}P1A{slash}CCP1-Pad13)*%
X149841000Y-94706001D03*
%TO.P,U1,14,RC3/SCK/SCL*%
%TO.N,/Master/SCL*%
X149191000Y-94706001D03*
%TO.P,U1,15,RC4/SDI/SDA*%
%TO.N,/Master/SDA*%
X149191000Y-102905999D03*
%TO.P,U1,16,RC5/SDO*%
%TO.N,unconnected-(U1-RC5{slash}SDO-Pad16)*%
X149841000Y-102905999D03*
%TO.P,U1,17,RC6/TX/CK*%
%TO.N,TX*%
X150491000Y-102905999D03*
%TO.P,U1,18,RC7/RX/DT*%
%TO.N,RX*%
X151141000Y-102905999D03*
%TO.P,U1,19,VSS*%
%TO.N,GND*%
X151791000Y-102905999D03*
%TO.P,U1,20,VDD*%
%TO.N,+5V*%
X152441000Y-102905999D03*
%TO.P,U1,21,INT/AN12/RB0*%
%TO.N,unconnected-(U1-INT{slash}AN12{slash}RB0-Pad21)*%
X153091000Y-102905999D03*
%TO.P,U1,22,P1C/AN10/RB1*%
%TO.N,unconnected-(U1-P1C{slash}AN10{slash}RB1-Pad22)*%
X153741000Y-102905999D03*
%TO.P,U1,23,P1B/AN8/RB2*%
%TO.N,unconnected-(U1-P1B{slash}AN8{slash}RB2-Pad23)*%
X154391000Y-102905999D03*
%TO.P,U1,24,PGM/C12IN2-/AN8/RB3*%
%TO.N,unconnected-(U1-PGM{slash}C12IN2-{slash}AN8{slash}RB3-Pad24)*%
X155041000Y-102905999D03*
%TO.P,U1,25,P1D/AN11/RB4*%
%TO.N,unconnected-(U1-P1D{slash}AN11{slash}RB4-Pad25)*%
X155691000Y-102905999D03*
%TO.P,U1,26,~{T1G}/AN13/RB5*%
%TO.N,unconnected-(U1-~{T1G}{slash}AN13{slash}RB5-Pad26)*%
X156341000Y-102905999D03*
%TO.P,U1,27,ICSPCLK/RB6*%
%TO.N,RB6*%
X156991000Y-102905999D03*
%TO.P,U1,28,ICSPDAT/RB7*%
%TO.N,RB7*%
X157641000Y-102905999D03*
%TD*%
D25*
%TO.P,C5,1*%
%TO.N,+5V*%
X124862500Y-78994000D03*
D26*
%TO.P,C5,2*%
%TO.N,GND*%
X122787500Y-78994000D03*
%TD*%
D27*
%TO.P,C12,1*%
%TO.N,+5V*%
X129540000Y-120374500D03*
D28*
%TO.P,C12,2*%
%TO.N,GND*%
X129540000Y-122449500D03*
%TD*%
%TO.P,C6,1*%
%TO.N,GND*%
X153035000Y-107145000D03*
D27*
%TO.P,C6,2*%
%TO.N,+5V*%
X153035000Y-109220000D03*
%TD*%
D11*
%TO.P,TP1,1*%
%TO.N,/Master/SCL*%
X156972000Y-85217000D03*
%TD*%
D29*
%TO.P,R1,1*%
%TO.N,GND*%
X133112000Y-102235000D03*
D20*
%TO.P,R1,2*%
%TO.N,Net-(D1-K)*%
X135112000Y-102235000D03*
%TD*%
D25*
%TO.P,C3,1*%
%TO.N,+5V*%
X124862500Y-75311000D03*
D26*
%TO.P,C3,2*%
%TO.N,GND*%
X122787500Y-75311000D03*
%TD*%
D11*
%TO.P,J3,1*%
%TO.N,+5V*%
X142240000Y-76962000D03*
%TO.P,J3,2*%
X144780000Y-76962000D03*
%TO.P,J3,3*%
%TO.N,/Master/SCL*%
X147320000Y-76962000D03*
%TO.P,J3,4*%
%TO.N,/Master/SDA*%
X149860000Y-76962000D03*
%TO.P,J3,5*%
%TO.N,GND*%
X152400000Y-76962000D03*
%TO.P,J3,6*%
X154940000Y-76962000D03*
%TD*%
D30*
%TO.P,D3,1,K*%
%TO.N,Net-(D3-K)*%
X147565000Y-112776000D03*
%TO.P,D3,2,A*%
%TO.N,+5V*%
X149615000Y-112776000D03*
%TD*%
D31*
%TO.P,C8,1*%
%TO.N,GND*%
X125857000Y-122449500D03*
D32*
%TO.P,C8,2*%
%TO.N,Net-(U2-3V3OUT)*%
X125857000Y-120374500D03*
%TD*%
D11*
%TO.P,TP4,1*%
%TO.N,TX*%
X142240000Y-99568000D03*
%TD*%
D33*
%TO.P,J1,*%
%TO.N,*%
X113538000Y-96852000D03*
X113538000Y-85852000D03*
D34*
%TO.P,J1,1,+*%
%TO.N,+5V*%
X123538000Y-93852000D03*
D35*
%TO.P,J1,2,-*%
%TO.N,GND*%
X123538000Y-88852000D03*
%TD*%
D36*
%TO.P,C4,1*%
%TO.N,+5V*%
X129580000Y-79756000D03*
D22*
%TO.P,C4,2*%
%TO.N,GND*%
X132080000Y-79756000D03*
%TD*%
D24*
%TO.P,R7,1*%
%TO.N,Net-(U2-CBUS3)*%
X126746000Y-102727000D03*
%TO.P,R7,2*%
%TO.N,+5V*%
X126746000Y-100727000D03*
%TD*%
D11*
%TO.P,TP3,1*%
%TO.N,RX*%
X142240000Y-103886000D03*
%TD*%
D27*
%TO.P,C13,1*%
%TO.N,+5V*%
X133223000Y-120374500D03*
D28*
%TO.P,C13,2*%
%TO.N,GND*%
X133223000Y-122449500D03*
%TD*%
D37*
%TO.P,D1,1,K*%
%TO.N,Net-(D1-K)*%
X135137000Y-98806000D03*
%TO.P,D1,2,A*%
%TO.N,+5V*%
X133087000Y-98806000D03*
%TD*%
D38*
%TO.P,,1*%
%TO.N,GND*%
X181610000Y-118872000D03*
%TD*%
D20*
%TO.P,R5,1*%
%TO.N,Net-(U2-CBUS0)*%
X141748000Y-112776000D03*
%TO.P,R5,2*%
%TO.N,Net-(D3-K)*%
X143748000Y-112776000D03*
%TD*%
D10*
%TO.P,J2,1*%
%TO.N,Net-(D2-K)*%
X167894000Y-92202000D03*
%TO.P,J2,2*%
%TO.N,+5V*%
X167894000Y-94742000D03*
%TO.P,J2,3*%
%TO.N,GND*%
X167894000Y-97282000D03*
%TO.P,J2,4*%
%TO.N,RB7*%
X167894000Y-99822000D03*
%TO.P,J2,5*%
%TO.N,RB6*%
X167894000Y-102362000D03*
%TO.P,J2,6*%
%TO.N,unconnected-(J2-Pad6)*%
X167894000Y-104902000D03*
%TD*%
D37*
%TO.P,D2,1,K*%
%TO.N,Net-(D2-K)*%
X157099000Y-89916000D03*
%TO.P,D2,2,A*%
%TO.N,Net-(D2-A)*%
X155049000Y-89916000D03*
%TD*%
D12*
%TO.P,TP6,1*%
%TO.N,Net-(J7-D-)*%
X123172782Y-107171272D03*
%TD*%
D38*
%TO.P,REF\u002A\u002A,1*%
%TO.N,GND*%
X181610000Y-78232000D03*
%TD*%
D27*
%TO.P,C11,1*%
%TO.N,Net-(J7-D+)*%
X123190000Y-113643500D03*
D28*
%TO.P,C11,2*%
%TO.N,GND*%
X123190000Y-115718500D03*
%TD*%
D11*
%TO.P,J4,1*%
%TO.N,+5V*%
X142240000Y-120142000D03*
%TO.P,J4,2*%
X144780000Y-120142000D03*
%TO.P,J4,3*%
%TO.N,/Master/SCL*%
X147320000Y-120142000D03*
%TO.P,J4,4*%
%TO.N,/Master/SDA*%
X149860000Y-120142000D03*
%TO.P,J4,5*%
%TO.N,GND*%
X152400000Y-120142000D03*
%TO.P,J4,6*%
X154940000Y-120142000D03*
%TD*%
D25*
%TO.P,C7,1*%
%TO.N,Net-(D2-A)*%
X151638000Y-86741000D03*
D26*
%TO.P,C7,2*%
%TO.N,GND*%
X149563000Y-86741000D03*
%TD*%
D38*
%TO.P,,1*%
%TO.N,GND*%
X115570000Y-118872000D03*
%TD*%
%TO.P,REF\u002A\u002A,1*%
%TO.N,GND*%
X115570000Y-78232000D03*
%TD*%
D30*
%TO.P,D4,1,K*%
%TO.N,Net-(D4-K)*%
X147565000Y-109220000D03*
%TO.P,D4,2,A*%
%TO.N,+5V*%
X149615000Y-109220000D03*
%TD*%
D32*
%TO.P,C9,1*%
%TO.N,Net-(J7-VBUS)*%
X119253000Y-102764500D03*
D31*
%TO.P,C9,2*%
%TO.N,GND*%
X119253000Y-100689500D03*
%TD*%
D32*
%TO.P,C10,1*%
%TO.N,Net-(J7-D-)*%
X123190000Y-102764500D03*
D31*
%TO.P,C10,2*%
%TO.N,GND*%
X123190000Y-100689500D03*
%TD*%
D39*
%TO.P,R2,1*%
%TO.N,Net-(D2-A)*%
X151638000Y-89916000D03*
%TO.P,R2,2*%
%TO.N,+5V*%
X149638000Y-89916000D03*
%TD*%
D24*
%TO.P,R3,1*%
%TO.N,+5V*%
X167513000Y-77454000D03*
D40*
%TO.P,R3,2*%
%TO.N,/Master/SCL*%
X167513000Y-75454000D03*
%TD*%
D41*
%TO.N,GND*%
X153035000Y-106426000D02*
X151791000Y-105182000D01*
X116040000Y-110109000D02*
X115550000Y-110599000D01*
D42*
X182880000Y-102362000D02*
X182880000Y-104902000D01*
D41*
X131497781Y-117781781D02*
X132080000Y-118364000D01*
D42*
X114230000Y-111179000D02*
X114970000Y-111179000D01*
D41*
X129547781Y-117975219D02*
X128016000Y-119507000D01*
X116040000Y-109479000D02*
X116040000Y-110109000D01*
D42*
X112280000Y-111210353D02*
X112522001Y-111452354D01*
D41*
X131497781Y-115114781D02*
X131497781Y-116344894D01*
X128016000Y-121920000D02*
X128545500Y-122449500D01*
D42*
X181610000Y-108712000D02*
X181610000Y-118872000D01*
X112280000Y-109139000D02*
X112280000Y-111210353D01*
D41*
X132147781Y-104834219D02*
X133112000Y-103870000D01*
X134097781Y-117870219D02*
X134097781Y-116344894D01*
X129547781Y-116344894D02*
X129547781Y-117975219D01*
X132080000Y-118364000D02*
X133604000Y-118364000D01*
D42*
X115020000Y-105229000D02*
X115550000Y-105759000D01*
D41*
X151791000Y-102905999D02*
X151791000Y-98399000D01*
X129547781Y-116344894D02*
X129547781Y-114927219D01*
D42*
X112280000Y-107219000D02*
X112280000Y-109139000D01*
D41*
X151791000Y-105182000D02*
X151791000Y-102905999D01*
X131064000Y-114681000D02*
X131497781Y-115114781D01*
D42*
X182880000Y-107442000D02*
X181610000Y-108712000D01*
D41*
X153035000Y-107145000D02*
X153035000Y-106426000D01*
X132147781Y-108144896D02*
X132147781Y-104834219D01*
X128545500Y-122449500D02*
X129540000Y-122449500D01*
X151791000Y-98399000D02*
X153091000Y-97099000D01*
X129547781Y-114927219D02*
X129794000Y-114681000D01*
D42*
X114230000Y-105229000D02*
X115020000Y-105229000D01*
D41*
X129794000Y-114681000D02*
X131064000Y-114681000D01*
X128016000Y-119507000D02*
X128016000Y-121920000D01*
D42*
X112280000Y-105137872D02*
X112522001Y-104895871D01*
X114970000Y-111179000D02*
X115550000Y-110599000D01*
D41*
X133604000Y-118364000D02*
X134097781Y-117870219D01*
D42*
X112280000Y-107219000D02*
X112280000Y-105137872D01*
D41*
X133112000Y-103870000D02*
X133112000Y-102235000D01*
X153091000Y-97099000D02*
X153091000Y-94706001D01*
X134747781Y-116344894D02*
X134097781Y-116344894D01*
D42*
X182880000Y-104902000D02*
X182880000Y-107442000D01*
D41*
X131497781Y-116344894D02*
X131497781Y-117781781D01*
D42*
%TO.N,+5V*%
X129580000Y-87810000D02*
X123538000Y-93852000D01*
X144145000Y-93853000D02*
X148082000Y-89916000D01*
X169545000Y-94742000D02*
X172085000Y-92202000D01*
X142367000Y-93853000D02*
X133096000Y-93853000D01*
X144780000Y-120142000D02*
X144780000Y-118745000D01*
X126746000Y-100727000D02*
X126746000Y-97060000D01*
X133096000Y-98797000D02*
X133087000Y-98806000D01*
X126365000Y-78994000D02*
X127127000Y-79756000D01*
X167894000Y-94742000D02*
X169545000Y-94742000D01*
D41*
X129540000Y-119507000D02*
X130847781Y-118199219D01*
X154559000Y-106553000D02*
X154559000Y-108585000D01*
D42*
X144780000Y-76962000D02*
X142240000Y-76962000D01*
X133223000Y-120374500D02*
X129540000Y-120374500D01*
X149615000Y-109220000D02*
X153035000Y-109220000D01*
D41*
X130847781Y-118199219D02*
X130847781Y-116344894D01*
D42*
X133095000Y-93852000D02*
X133096000Y-93853000D01*
X130937000Y-76962000D02*
X129580000Y-78319000D01*
X149615000Y-113910000D02*
X149615000Y-112776000D01*
X149615000Y-109220000D02*
X149615000Y-112776000D01*
X142367000Y-93853000D02*
X144145000Y-93853000D01*
X127127000Y-79756000D02*
X129580000Y-79756000D01*
X124862500Y-75311000D02*
X124862500Y-78994000D01*
X133223000Y-120374500D02*
X138832500Y-120374500D01*
X139065000Y-120142000D02*
X142240000Y-120142000D01*
D41*
X152441000Y-102905999D02*
X152441000Y-104435000D01*
D42*
X124862500Y-78994000D02*
X126365000Y-78994000D01*
D41*
X153924000Y-109220000D02*
X153035000Y-109220000D01*
D42*
X123538000Y-93852000D02*
X133095000Y-93852000D01*
D41*
X152441000Y-104435000D02*
X154559000Y-106553000D01*
D42*
X129580000Y-78319000D02*
X129580000Y-79756000D01*
X133096000Y-93853000D02*
X133096000Y-98797000D01*
D41*
X129540000Y-120374500D02*
X129540000Y-119507000D01*
D42*
X182880000Y-90424000D02*
X169910000Y-77454000D01*
X142240000Y-76962000D02*
X130937000Y-76962000D01*
X129580000Y-79756000D02*
X129580000Y-87810000D01*
X182880000Y-94742000D02*
X182880000Y-92202000D01*
D41*
X154559000Y-108585000D02*
X153924000Y-109220000D01*
D42*
X138832500Y-120374500D02*
X139065000Y-120142000D01*
X181483000Y-94742000D02*
X182880000Y-94742000D01*
X149615000Y-112776000D02*
X163449000Y-112776000D01*
X144780000Y-118745000D02*
X149615000Y-113910000D01*
X142240000Y-120142000D02*
X144780000Y-120142000D01*
X182880000Y-92202000D02*
X182880000Y-90424000D01*
X172085000Y-92202000D02*
X182880000Y-92202000D01*
X126746000Y-97060000D02*
X123538000Y-93852000D01*
X163449000Y-77454000D02*
X167513000Y-77454000D01*
X163449000Y-112776000D02*
X181483000Y-94742000D01*
X148082000Y-89916000D02*
X149638000Y-89916000D01*
X169910000Y-77454000D02*
X167513000Y-77454000D01*
D41*
%TO.N,Net-(D2-A)*%
X151638000Y-89916000D02*
X151638000Y-86741000D01*
X151638000Y-89916000D02*
X155049000Y-89916000D01*
%TO.N,Net-(U2-3V3OUT)*%
X125857000Y-119253000D02*
X125857000Y-120374500D01*
X128897781Y-116344894D02*
X128897781Y-117675894D01*
X128209675Y-118364000D02*
X126746000Y-118364000D01*
X128897781Y-117675894D02*
X128209675Y-118364000D01*
X126746000Y-118364000D02*
X125857000Y-119253000D01*
%TO.N,Net-(D1-K)*%
X135137000Y-102210000D02*
X135112000Y-102235000D01*
X135137000Y-98806000D02*
X135137000Y-102210000D01*
%TO.N,Net-(D2-K)*%
X163195000Y-92202000D02*
X167894000Y-92202000D01*
X157099000Y-89916000D02*
X157099000Y-92265500D01*
X157641000Y-94706001D02*
X160690999Y-94706001D01*
X157099000Y-92265500D02*
X157641000Y-92807500D01*
X157641000Y-92807500D02*
X157641000Y-94706001D01*
X160690999Y-94706001D02*
X163195000Y-92202000D01*
%TO.N,Net-(D3-K)*%
X143748000Y-112776000D02*
X147565000Y-112776000D01*
%TO.N,Net-(D4-K)*%
X143748000Y-109220000D02*
X147565000Y-109220000D01*
%TO.N,RB6*%
X157480000Y-104648000D02*
X161036000Y-104648000D01*
X161036000Y-104648000D02*
X163322000Y-102362000D01*
X163322000Y-102362000D02*
X167894000Y-102362000D01*
X156991000Y-104159000D02*
X157480000Y-104648000D01*
X156991000Y-102905999D02*
X156991000Y-104159000D01*
%TO.N,RB7*%
X161925000Y-99822000D02*
X167894000Y-99822000D01*
X158841001Y-102905999D02*
X161925000Y-99822000D01*
X157641000Y-102905999D02*
X158841001Y-102905999D01*
%TO.N,Net-(U2-CBUS0)*%
X132797781Y-116344894D02*
X132797781Y-114725219D01*
X132797781Y-114725219D02*
X134747000Y-112776000D01*
X134747000Y-112776000D02*
X141748000Y-112776000D01*
%TO.N,Net-(U2-CBUS1)*%
X137479928Y-109220000D02*
X141748000Y-109220000D01*
X132147781Y-116344894D02*
X132147781Y-114552147D01*
X132147781Y-114552147D02*
X137479928Y-109220000D01*
%TO.N,Net-(U2-CBUS3)*%
X126746000Y-104394000D02*
X127597781Y-105245781D01*
X127597781Y-105245781D02*
X127597781Y-108144896D01*
X126746000Y-102727000D02*
X126746000Y-104394000D01*
%TO.N,TX*%
X140335000Y-99568000D02*
X133447781Y-106455219D01*
X148717000Y-104775000D02*
X149987000Y-104775000D01*
X149987000Y-104775000D02*
X150491000Y-104271000D01*
X142240000Y-99568000D02*
X143510000Y-99568000D01*
X150491000Y-104271000D02*
X150491000Y-102905999D01*
X143510000Y-99568000D02*
X148717000Y-104775000D01*
X142240000Y-99568000D02*
X140335000Y-99568000D01*
X133447781Y-106455219D02*
X133447781Y-108144896D01*
%TO.N,RX*%
X150228072Y-105357000D02*
X151141000Y-104444072D01*
X142240000Y-103886000D02*
X147004928Y-103886000D01*
X147004928Y-103886000D02*
X148475928Y-105357000D01*
X148475928Y-105357000D02*
X150228072Y-105357000D01*
X138430000Y-103886000D02*
X142240000Y-103886000D01*
X136047781Y-106268219D02*
X138430000Y-103886000D01*
X151141000Y-104444072D02*
X151141000Y-102905999D01*
X136047781Y-108144896D02*
X136047781Y-106268219D01*
%TO.N,Net-(J7-VBUS)*%
X118165000Y-106879000D02*
X119253000Y-105791000D01*
X119253000Y-105791000D02*
X119253000Y-102764500D01*
X116040000Y-106879000D02*
X118165000Y-106879000D01*
%TO.N,Net-(J7-D-)*%
X123190000Y-107154054D02*
X123172782Y-107171272D01*
X128247781Y-110721781D02*
X128247781Y-116344894D01*
X119166000Y-107529000D02*
X119523728Y-107171272D01*
X123190000Y-102764500D02*
X123190000Y-107154054D01*
X119523728Y-107171272D02*
X123172782Y-107171272D01*
X124697272Y-107171272D02*
X128247781Y-110721781D01*
X116040000Y-107529000D02*
X119166000Y-107529000D01*
X123172782Y-107171272D02*
X124697272Y-107171272D01*
%TO.N,Net-(J7-D+)*%
X116040000Y-108179000D02*
X118339000Y-108179000D01*
X120125272Y-109965272D02*
X123172782Y-109965272D01*
X127139894Y-116344894D02*
X127597781Y-116344894D01*
X124438500Y-113643500D02*
X127139894Y-116344894D01*
X118339000Y-108179000D02*
X120125272Y-109965272D01*
X123190000Y-113643500D02*
X124438500Y-113643500D01*
X123172782Y-113626282D02*
X123190000Y-113643500D01*
X123172782Y-109965272D02*
X123172782Y-113626282D01*
%TO.N,/Master/SDA*%
X149191000Y-98137000D02*
X148336000Y-97282000D01*
X149860000Y-80772000D02*
X149860000Y-76962000D01*
X184912000Y-90297000D02*
X184912000Y-99314000D01*
X150225000Y-75454000D02*
X149860000Y-75819000D01*
X163449000Y-74676000D02*
X163830000Y-74295000D01*
X163449000Y-75454000D02*
X163449000Y-74676000D01*
X168910000Y-74295000D02*
X184912000Y-90297000D01*
X163830000Y-74295000D02*
X168910000Y-74295000D01*
X163449000Y-75454000D02*
X150225000Y-75454000D01*
X184404000Y-99822000D02*
X182880000Y-99822000D01*
X149860000Y-75819000D02*
X149860000Y-76962000D01*
X149191000Y-102905999D02*
X149191000Y-98137000D01*
X148336000Y-97282000D02*
X148336000Y-92932144D01*
X148336000Y-92932144D02*
X150646500Y-90621644D01*
X184912000Y-99314000D02*
X184404000Y-99822000D01*
X150646500Y-90621644D02*
X150646500Y-81558500D01*
X150646500Y-81558500D02*
X149860000Y-80772000D01*
%TO.N,/Master/SCL*%
X149191000Y-93375001D02*
X150237001Y-92329000D01*
X156972000Y-87884000D02*
X156972000Y-85217000D01*
X181102000Y-97282000D02*
X179959000Y-98425000D01*
X156132500Y-88723500D02*
X156972000Y-87884000D01*
X156132500Y-90521644D02*
X156132500Y-88723500D01*
X179959000Y-114935000D02*
X172720000Y-122174000D01*
X179959000Y-98425000D02*
X179959000Y-114935000D01*
X182880000Y-97282000D02*
X181102000Y-97282000D01*
X147701000Y-122174000D02*
X147320000Y-121793000D01*
X147320000Y-121793000D02*
X147320000Y-120142000D01*
X154325144Y-92329000D02*
X156132500Y-90521644D01*
X150237001Y-92329000D02*
X154325144Y-92329000D01*
X149191000Y-94706001D02*
X149191000Y-93375001D01*
X172720000Y-122174000D02*
X147701000Y-122174000D01*
%TD*%
M02*
